M48
; DRILL file {KiCad 8.0.8} date 2025-03-28T11:16:55+0200
; FORMAT={-:-/ absolute / inch / decimal}
; #@! TF.CreationDate,2025-03-28T11:16:55+02:00
; #@! TF.GenerationSoftware,Kicad,Pcbnew,8.0.8
; #@! TF.FileFunction,Plated,1,2,PTH
FMAT,2
INCH
; #@! TA.AperFunction,Plated,PTH,ViaDrill
T1C0.0118
; #@! TA.AperFunction,Plated,PTH,ComponentDrill
T2C0.0236
; #@! TA.AperFunction,Plated,PTH,ComponentDrill
T3C0.0295
; #@! TA.AperFunction,Plated,PTH,ComponentDrill
T4C0.0394
; #@! TA.AperFunction,Plated,PTH,ViaDrill
T5C0.1260
%
G90
G05
T1
X3.9856Y-4.5354
X4.2824Y-4.8933
X4.3066Y-4.2254
X4.307Y-4.2766
X4.3071Y-4.1798
X4.356Y-2.8425
X4.356Y-3.4693
X4.4259Y-3.9573
X4.4757Y-3.9315
X4.515Y-4.3308
X4.5229Y-3.5566
X4.5777Y-4.0089
X4.5812Y-4.4229
X4.615Y-4.3014
X4.6603Y-3.6174
X4.6656Y-4.6302
X4.6771Y-4.2015
X4.6785Y-3.0671
X4.6981Y-2.9854
X4.7164Y-3.7311
X4.7486Y-4.6568
X4.8044Y-3.4517
X4.815Y-4.6283
X4.8169Y-4.5962
X4.8282Y-3.5087
X4.8346Y-4.2223
X4.8806Y-2.8732
X4.9363Y-3.8467
X4.9363Y-4.4902
X4.9376Y-3.0906
X4.9416Y-3.0193
X4.9964Y-3.1226
X5.0126Y-2.8425
X5.0212Y-4.0831
X5.025Y-3.2939
X5.025Y-3.6039
X5.0373Y-3.0159
X5.0373Y-3.2035
X5.0633Y-3.0396
X5.0703Y-3.2063
X5.115Y-3.9628
X5.1452Y-4.4153
X5.1837Y-2.9391
X5.1891Y-4.1258
X5.2098Y-4.2223
X5.2128Y-4.1555
X5.2408Y-2.94
X5.2408Y-3.1707
X5.2913Y-3.8307
X5.3035Y-3.5548
X5.3088Y-4.1653
X5.315Y-4.5401
X5.3382Y-3.4037
X5.3624Y-3.9938
X5.3713Y-3.0249
X5.4053Y-3.0194
X5.4053Y-3.4354
X5.415Y-3.5196
X5.4401Y-4.7132
X5.4622Y-4.1854
X5.4637Y-2.8913
X5.4637Y-4.067
X5.4878Y-4.7051
X5.5296Y-4.0326
X5.6313Y-4.4914
X5.6736Y-4.1057
X5.7416Y-3.7833
X5.744Y-4.3061
X5.7513Y-3.8465
X5.7617Y-4.0136
X5.8563Y-4.3588
X5.8751Y-4.2901
X5.8814Y-4.5272
X5.9066Y-3.8833
X5.9396Y-3.6156
X5.9529Y-3.5197
X5.9584Y-4.2656
X5.997Y-4.2524
X5.9976Y-3.281
X6.038Y-4.8138
X6.0502Y-3.9969
X6.0958Y-3.7531
X6.2283Y-3.4037
X6.3329Y-3.8321
X6.3578Y-3.9225
X6.548Y-3.161
X6.5778Y-2.8616
T3
X6.6165Y-4.5976
X6.6165Y-4.6764
T4
X3.9563Y-3.0728
X4.0563Y-3.0728
X4.1563Y-3.0728
X4.415Y-4.7638
X4.415Y-4.8638
X4.515Y-4.7638
X4.515Y-4.8638
X4.615Y-4.7638
X4.615Y-4.8638
X4.715Y-4.7638
X4.715Y-4.8638
X4.815Y-4.7638
X4.815Y-4.8638
X4.915Y-4.7638
X4.915Y-4.8638
X5.015Y-4.7638
X5.015Y-4.8638
X5.115Y-4.7638
X5.115Y-4.8638
X5.215Y-4.7638
X5.215Y-4.8638
X5.315Y-4.7638
X5.315Y-4.8638
X5.415Y-4.7638
X5.415Y-4.8638
X5.515Y-4.7638
X5.515Y-4.8638
X5.615Y-4.7638
X5.615Y-4.8638
X5.715Y-4.7638
X5.715Y-4.8638
X5.815Y-4.7638
X5.815Y-4.8638
X5.915Y-4.7638
X5.915Y-4.8638
X6.6791Y-3.3455
X6.6791Y-3.4455
X6.6791Y-3.634
X6.6791Y-3.734
X6.6791Y-3.9225
X6.6791Y-4.0225
X6.6791Y-4.211
X6.6791Y-4.311
T5
X5.1646Y-3.7823
T2
G00X5.0758Y-2.811
M15
G01X5.0758Y-2.7795
M16
G05
G00X5.0758Y-2.9811
M15
G01X5.0758Y-2.9378
M16
G05
G00X5.4163Y-2.811
M15
G01X5.4163Y-2.7795
M16
G05
G00X5.4163Y-2.9811
M15
G01X5.4163Y-2.9378
M16
G05
M30
