M48
; DRILL file {KiCad 8.0.8} date 2025-03-27T00:48:41+0200
; FORMAT={-:-/ absolute / inch / decimal}
; #@! TF.CreationDate,2025-03-27T00:48:41+02:00
; #@! TF.GenerationSoftware,Kicad,Pcbnew,8.0.8
; #@! TF.FileFunction,Plated,1,2,PTH
FMAT,2
INCH
; #@! TA.AperFunction,Plated,PTH,ComponentDrill
T1C0.0236
; #@! TA.AperFunction,Plated,PTH,ComponentDrill
T2C0.0295
; #@! TA.AperFunction,Plated,PTH,ComponentDrill
T3C0.0315
; #@! TA.AperFunction,Plated,PTH,ComponentDrill
T4C0.0394
%
G90
G05
T2
X4.6398Y-4.3264
X4.7185Y-4.3264
T3
X5.461Y-4.9783
X5.561Y-4.9783
X5.661Y-4.9783
T4
X4.3307Y-3.0469
X4.3307Y-3.1469
X4.3307Y-3.2469
X4.3307Y-3.3469
X4.3307Y-3.4469
X4.3307Y-3.5469
X4.3307Y-3.6469
X4.3307Y-3.7469
X4.3307Y-3.8469
X4.3307Y-3.9469
X4.3307Y-4.0469
X4.3307Y-4.1469
X4.3307Y-4.2469
X4.3307Y-4.3469
X4.3307Y-4.4469
X4.3307Y-4.5469
X4.4307Y-3.0469
X4.4307Y-3.1469
X4.4307Y-3.2469
X4.4307Y-3.3469
X4.4307Y-3.4469
X4.4307Y-3.5469
X4.4307Y-3.6469
X4.4307Y-3.7469
X4.4307Y-3.8469
X4.4307Y-3.9469
X4.4307Y-4.0469
X4.4307Y-4.1469
X4.4307Y-4.2469
X4.4307Y-4.3469
X4.4307Y-4.4469
X4.4307Y-4.5469
X4.6142Y-4.0409
X4.6142Y-4.1409
X4.7972Y-4.0409
X4.7972Y-4.1409
X4.9803Y-4.0409
X4.9803Y-4.1409
X5.1634Y-4.0409
X5.1634Y-4.1409
T1
G00X4.4789Y-4.7951
M15
G01X4.4789Y-4.8384
M16
G05
G00X4.4789Y-4.9652
M15
G01X4.4789Y-4.9967
M16
G05
G00X4.8194Y-4.7951
M15
G01X4.8194Y-4.8384
M16
G05
G00X4.8194Y-4.9652
M15
G01X4.8194Y-4.9967
M16
G05
M30
