%TF.GenerationSoftware,KiCad,Pcbnew,8.0.8*%
%TF.CreationDate,2025-03-28T11:16:55+02:00*%
%TF.ProjectId,Power_Module,506f7765-725f-44d6-9f64-756c652e6b69,1*%
%TF.SameCoordinates,Original*%
%TF.FileFunction,Soldermask,Top*%
%TF.FilePolarity,Negative*%
%FSLAX46Y46*%
G04 Gerber Fmt 4.6, Leading zero omitted, Abs format (unit mm)*
G04 Created by KiCad (PCBNEW 8.0.8) date 2025-03-28 11:16:55*
%MOMM*%
%LPD*%
G01*
G04 APERTURE LIST*
G04 Aperture macros list*
%AMRoundRect*
0 Rectangle with rounded corners*
0 $1 Rounding radius*
0 $2 $3 $4 $5 $6 $7 $8 $9 X,Y pos of 4 corners*
0 Add a 4 corners polygon primitive as box body*
4,1,4,$2,$3,$4,$5,$6,$7,$8,$9,$2,$3,0*
0 Add four circle primitives for the rounded corners*
1,1,$1+$1,$2,$3*
1,1,$1+$1,$4,$5*
1,1,$1+$1,$6,$7*
1,1,$1+$1,$8,$9*
0 Add four rect primitives between the rounded corners*
20,1,$1+$1,$2,$3,$4,$5,0*
20,1,$1+$1,$4,$5,$6,$7,0*
20,1,$1+$1,$6,$7,$8,$9,0*
20,1,$1+$1,$8,$9,$2,$3,0*%
%AMFreePoly0*
4,1,19,0.500000,-0.750000,0.000000,-0.750000,0.000000,-0.744911,-0.071157,-0.744911,-0.207708,-0.704816,-0.327430,-0.627875,-0.420627,-0.520320,-0.479746,-0.390866,-0.500000,-0.250000,-0.500000,0.250000,-0.479746,0.390866,-0.420627,0.520320,-0.327430,0.627875,-0.207708,0.704816,-0.071157,0.744911,0.000000,0.744911,0.000000,0.750000,0.500000,0.750000,0.500000,-0.750000,0.500000,-0.750000,
$1*%
%AMFreePoly1*
4,1,19,0.000000,0.744911,0.071157,0.744911,0.207708,0.704816,0.327430,0.627875,0.420627,0.520320,0.479746,0.390866,0.500000,0.250000,0.500000,-0.250000,0.479746,-0.390866,0.420627,-0.520320,0.327430,-0.627875,0.207708,-0.704816,0.071157,-0.744911,0.000000,-0.744911,0.000000,-0.750000,-0.500000,-0.750000,-0.500000,0.750000,0.000000,0.750000,0.000000,0.744911,0.000000,0.744911,
$1*%
G04 Aperture macros list end*
%ADD10C,0.010000*%
%ADD11O,1.700000X1.700000*%
%ADD12R,1.700000X1.700000*%
%ADD13RoundRect,0.237500X0.237500X-0.300000X0.237500X0.300000X-0.237500X0.300000X-0.237500X-0.300000X0*%
%ADD14R,1.250013X0.700000*%
%ADD15RoundRect,0.250000X0.625000X-0.400000X0.625000X0.400000X-0.625000X0.400000X-0.625000X-0.400000X0*%
%ADD16C,3.000000*%
%ADD17R,0.600000X1.200000*%
%ADD18R,3.300000X2.400000*%
%ADD19FreePoly0,90.000000*%
%ADD20FreePoly1,90.000000*%
%ADD21RoundRect,0.237500X0.237500X-0.250000X0.237500X0.250000X-0.237500X0.250000X-0.237500X-0.250000X0*%
%ADD22RoundRect,0.100000X-0.637500X-0.100000X0.637500X-0.100000X0.637500X0.100000X-0.637500X0.100000X0*%
%ADD23FreePoly0,0.000000*%
%ADD24FreePoly1,0.000000*%
%ADD25FreePoly0,180.000000*%
%ADD26FreePoly1,180.000000*%
%ADD27RoundRect,0.237500X-0.237500X0.250000X-0.237500X-0.250000X0.237500X-0.250000X0.237500X0.250000X0*%
%ADD28RoundRect,0.237500X-0.237500X0.300000X-0.237500X-0.300000X0.237500X-0.300000X0.237500X0.300000X0*%
%ADD29RoundRect,0.237500X0.300000X0.237500X-0.300000X0.237500X-0.300000X-0.237500X0.300000X-0.237500X0*%
%ADD30RoundRect,0.237500X0.250000X0.237500X-0.250000X0.237500X-0.250000X-0.237500X0.250000X-0.237500X0*%
%ADD31C,0.600000*%
%ADD32O,1.104000X2.204000*%
%ADD33O,1.104000X1.904000*%
%ADD34R,0.550013X0.300000*%
%ADD35R,0.500000X0.859995*%
%ADD36RoundRect,0.150000X-0.512500X-0.150000X0.512500X-0.150000X0.512500X0.150000X-0.512500X0.150000X0*%
%ADD37RoundRect,0.237500X-0.300000X-0.237500X0.300000X-0.237500X0.300000X0.237500X-0.300000X0.237500X0*%
%ADD38RoundRect,0.102000X-1.075000X-0.475000X1.075000X-0.475000X1.075000X0.475000X-1.075000X0.475000X0*%
%ADD39RoundRect,0.102000X-1.075000X-1.625000X1.075000X-1.625000X1.075000X1.625000X-1.075000X1.625000X0*%
%ADD40R,0.600000X1.500000*%
%ADD41R,3.300000X2.100000*%
%ADD42RoundRect,0.237500X-0.250000X-0.237500X0.250000X-0.237500X0.250000X0.237500X-0.250000X0.237500X0*%
%ADD43RoundRect,0.250000X-0.625000X0.350000X-0.625000X-0.350000X0.625000X-0.350000X0.625000X0.350000X0*%
%ADD44O,1.750000X1.200000*%
%ADD45RoundRect,0.150000X-0.825000X-0.150000X0.825000X-0.150000X0.825000X0.150000X-0.825000X0.150000X0*%
%ADD46RoundRect,0.250000X-0.400000X-0.625000X0.400000X-0.625000X0.400000X0.625000X-0.400000X0.625000X0*%
%ADD47R,1.000000X1.200000*%
%ADD48RoundRect,0.098000X-0.609000X-0.294000X0.609000X-0.294000X0.609000X0.294000X-0.609000X0.294000X0*%
%ADD49RoundRect,0.249999X-0.450001X-1.425001X0.450001X-1.425001X0.450001X1.425001X-0.450001X1.425001X0*%
%ADD50RoundRect,0.237500X0.237500X-0.287500X0.237500X0.287500X-0.237500X0.287500X-0.237500X-0.287500X0*%
%ADD51R,1.500000X1.000000*%
%ADD52RoundRect,0.237500X-0.287500X-0.237500X0.287500X-0.237500X0.287500X0.237500X-0.287500X0.237500X0*%
G04 APERTURE END LIST*
D10*
%TO.C,J7*%
X130400000Y-76370000D02*
X129700000Y-76370000D01*
X129700000Y-75130000D01*
X130400000Y-75130000D01*
X130400000Y-76370000D01*
G36*
X130400000Y-76370000D02*
G01*
X129700000Y-76370000D01*
X129700000Y-75130000D01*
X130400000Y-75130000D01*
X130400000Y-76370000D01*
G37*
X131200000Y-76370000D02*
X130500000Y-76370000D01*
X130500000Y-75130000D01*
X131200000Y-75130000D01*
X131200000Y-76370000D01*
G36*
X131200000Y-76370000D02*
G01*
X130500000Y-76370000D01*
X130500000Y-75130000D01*
X131200000Y-75130000D01*
X131200000Y-76370000D01*
G37*
X131700000Y-76370000D02*
X131300000Y-76370000D01*
X131300000Y-75130000D01*
X131700000Y-75130000D01*
X131700000Y-76370000D01*
G36*
X131700000Y-76370000D02*
G01*
X131300000Y-76370000D01*
X131300000Y-75130000D01*
X131700000Y-75130000D01*
X131700000Y-76370000D01*
G37*
X132200000Y-76370000D02*
X131800000Y-76370000D01*
X131800000Y-75130000D01*
X132200000Y-75130000D01*
X132200000Y-76370000D01*
G36*
X132200000Y-76370000D02*
G01*
X131800000Y-76370000D01*
X131800000Y-75130000D01*
X132200000Y-75130000D01*
X132200000Y-76370000D01*
G37*
X132700000Y-76370000D02*
X132300000Y-76370000D01*
X132300000Y-75130000D01*
X132700000Y-75130000D01*
X132700000Y-76370000D01*
G36*
X132700000Y-76370000D02*
G01*
X132300000Y-76370000D01*
X132300000Y-75130000D01*
X132700000Y-75130000D01*
X132700000Y-76370000D01*
G37*
X133200000Y-76370000D02*
X132800000Y-76370000D01*
X132800000Y-75130000D01*
X133200000Y-75130000D01*
X133200000Y-76370000D01*
G36*
X133200000Y-76370000D02*
G01*
X132800000Y-76370000D01*
X132800000Y-75130000D01*
X133200000Y-75130000D01*
X133200000Y-76370000D01*
G37*
X133700000Y-76370000D02*
X133300000Y-76370000D01*
X133300000Y-75130000D01*
X133700000Y-75130000D01*
X133700000Y-76370000D01*
G36*
X133700000Y-76370000D02*
G01*
X133300000Y-76370000D01*
X133300000Y-75130000D01*
X133700000Y-75130000D01*
X133700000Y-76370000D01*
G37*
X134200000Y-76370000D02*
X133800000Y-76370000D01*
X133800000Y-75130000D01*
X134200000Y-75130000D01*
X134200000Y-76370000D01*
G36*
X134200000Y-76370000D02*
G01*
X133800000Y-76370000D01*
X133800000Y-75130000D01*
X134200000Y-75130000D01*
X134200000Y-76370000D01*
G37*
X134700000Y-76370000D02*
X134300000Y-76370000D01*
X134300000Y-75130000D01*
X134700000Y-75130000D01*
X134700000Y-76370000D01*
G36*
X134700000Y-76370000D02*
G01*
X134300000Y-76370000D01*
X134300000Y-75130000D01*
X134700000Y-75130000D01*
X134700000Y-76370000D01*
G37*
X135200000Y-76370000D02*
X134800000Y-76370000D01*
X134800000Y-75130000D01*
X135200000Y-75130000D01*
X135200000Y-76370000D01*
G36*
X135200000Y-76370000D02*
G01*
X134800000Y-76370000D01*
X134800000Y-75130000D01*
X135200000Y-75130000D01*
X135200000Y-76370000D01*
G37*
X136000000Y-76370000D02*
X135300000Y-76370000D01*
X135300000Y-75130000D01*
X136000000Y-75130000D01*
X136000000Y-76370000D01*
G36*
X136000000Y-76370000D02*
G01*
X135300000Y-76370000D01*
X135300000Y-75130000D01*
X136000000Y-75130000D01*
X136000000Y-76370000D01*
G37*
X136800000Y-76370000D02*
X136100000Y-76370000D01*
X136100000Y-75130000D01*
X136800000Y-75130000D01*
X136800000Y-76370000D01*
G36*
X136800000Y-76370000D02*
G01*
X136100000Y-76370000D01*
X136100000Y-75130000D01*
X136800000Y-75130000D01*
X136800000Y-76370000D01*
G37*
%TD*%
D11*
%TO.C,J8*%
X100490000Y-78050000D03*
X103030000Y-78050000D03*
D12*
X105570000Y-78050000D03*
%TD*%
%TO.C,J3*%
X169650000Y-106960000D03*
D11*
X169650000Y-109500000D03*
%TD*%
D13*
%TO.C,C12*%
X156090000Y-79992500D03*
X156090000Y-78267500D03*
%TD*%
%TO.C,C5*%
X155552500Y-108075000D03*
X155552500Y-106350000D03*
%TD*%
D14*
%TO.C,U7*%
X112850000Y-92170038D03*
X112850000Y-94069962D03*
X114850000Y-93120000D03*
%TD*%
D15*
%TO.C,R3*%
X142000000Y-112550000D03*
X142000000Y-109450000D03*
%TD*%
D16*
%TO.C,TP2*%
X98000000Y-94500000D03*
%TD*%
D17*
%TO.C,U5*%
X121094996Y-86408306D03*
X122364999Y-86408306D03*
X123635001Y-86408306D03*
X124905004Y-86408306D03*
X124905004Y-80591694D03*
X123635001Y-80591694D03*
X122364999Y-80591694D03*
X121094996Y-80591694D03*
D18*
X123000000Y-83500000D03*
%TD*%
D16*
%TO.C,TP3*%
X98000000Y-88000000D03*
%TD*%
D19*
%TO.C,JP15*%
X130000000Y-115550000D03*
D20*
X130000000Y-114250000D03*
%TD*%
D21*
%TO.C,R15*%
X159400000Y-73842500D03*
X159400000Y-72017500D03*
%TD*%
D16*
%TO.C,TP4*%
X98000000Y-107500000D03*
%TD*%
D22*
%TO.C,U1*%
X108137500Y-104725000D03*
X108137500Y-105375000D03*
X108137500Y-106025000D03*
X108137500Y-106675000D03*
X108137500Y-107325000D03*
X108137500Y-107975000D03*
X108137500Y-108625000D03*
X108137500Y-109275000D03*
X113862500Y-109275000D03*
X113862500Y-108625000D03*
X113862500Y-107975000D03*
X113862500Y-107325000D03*
X113862500Y-106675000D03*
X113862500Y-106025000D03*
X113862500Y-105375000D03*
X113862500Y-104725000D03*
%TD*%
D23*
%TO.C,JP18*%
X129475000Y-104500000D03*
D24*
X130775000Y-104500000D03*
%TD*%
D25*
%TO.C,JP1*%
X115137500Y-101700000D03*
D26*
X113837500Y-101700000D03*
%TD*%
D27*
%TO.C,R12*%
X116850000Y-91207500D03*
X116850000Y-93032500D03*
%TD*%
D28*
%TO.C,C13*%
X143990000Y-89397500D03*
X143990000Y-91122500D03*
%TD*%
D29*
%TO.C,C19*%
X135500000Y-104500000D03*
X133775000Y-104500000D03*
%TD*%
D23*
%TO.C,JP16*%
X129625000Y-109000000D03*
D24*
X130925000Y-109000000D03*
%TD*%
D23*
%TO.C,JP10*%
X140000000Y-89000000D03*
D24*
X141300000Y-89000000D03*
%TD*%
D12*
%TO.C,J6*%
X169650000Y-84975000D03*
D11*
X169650000Y-87515000D03*
%TD*%
D30*
%TO.C,R7*%
X151500000Y-102500000D03*
X149675000Y-102500000D03*
%TD*%
D23*
%TO.C,JP2*%
X147200000Y-116500000D03*
D24*
X148500000Y-116500000D03*
%TD*%
D31*
%TO.C,J7*%
X136140000Y-74680000D03*
X130360000Y-74680000D03*
D32*
X137575000Y-75170000D03*
X128925000Y-75170000D03*
D33*
X137575000Y-71000000D03*
X128925000Y-71000000D03*
%TD*%
D34*
%TO.C,U12*%
X133775028Y-106500164D03*
X133775028Y-107000011D03*
X135234997Y-107000011D03*
X135234997Y-106500164D03*
D35*
X134505025Y-106750125D03*
%TD*%
D12*
%TO.C,J4*%
X169650000Y-99631700D03*
D11*
X169650000Y-102171700D03*
%TD*%
D23*
%TO.C,JP12*%
X162800000Y-86840000D03*
D24*
X164100000Y-86840000D03*
%TD*%
D36*
%TO.C,U10*%
X146862500Y-78050000D03*
X146862500Y-79000000D03*
X146862500Y-79950000D03*
X149137500Y-79950000D03*
X149137500Y-78050000D03*
%TD*%
D23*
%TO.C,JP8*%
X105490000Y-94730000D03*
D24*
X106790000Y-94730000D03*
%TD*%
D13*
%TO.C,C17*%
X151500000Y-79725000D03*
X151500000Y-78000000D03*
%TD*%
D37*
%TO.C,C21*%
X133275000Y-109000000D03*
X135000000Y-109000000D03*
%TD*%
D30*
%TO.C,R6*%
X155500000Y-102500000D03*
X153675000Y-102500000D03*
%TD*%
D37*
%TO.C,C15*%
X168427500Y-77500000D03*
X170152500Y-77500000D03*
%TD*%
D38*
%TO.C,VR1*%
X136000000Y-92700000D03*
X136000000Y-95000000D03*
X136000000Y-97300000D03*
D39*
X141800000Y-95000000D03*
%TD*%
D19*
%TO.C,JP5*%
X148000000Y-99000000D03*
D20*
X148000000Y-97700000D03*
%TD*%
D21*
%TO.C,R13*%
X119850000Y-93032500D03*
X119850000Y-91207500D03*
%TD*%
D22*
%TO.C,U2*%
X147137500Y-108725000D03*
X147137500Y-109375000D03*
X147137500Y-110025000D03*
X147137500Y-110675000D03*
X147137500Y-111325000D03*
X147137500Y-111975000D03*
X147137500Y-112625000D03*
X147137500Y-113275000D03*
X152862500Y-113275000D03*
X152862500Y-112625000D03*
X152862500Y-111975000D03*
X152862500Y-111325000D03*
X152862500Y-110675000D03*
X152862500Y-110025000D03*
X152862500Y-109375000D03*
X152862500Y-108725000D03*
%TD*%
D30*
%TO.C,R16*%
X161992500Y-81480000D03*
X160167500Y-81480000D03*
%TD*%
%TO.C,R10*%
X124412500Y-78500000D03*
X122587500Y-78500000D03*
%TD*%
D37*
%TO.C,C2*%
X112837500Y-111335000D03*
X114562500Y-111335000D03*
%TD*%
D23*
%TO.C,JP17*%
X118037500Y-101375000D03*
D24*
X119337500Y-101375000D03*
%TD*%
D40*
%TO.C,U6*%
X112700076Y-83790027D03*
X113700076Y-83790027D03*
X114700076Y-83790027D03*
X115700076Y-83790027D03*
X116700076Y-83790027D03*
X116700076Y-77790027D03*
X115700076Y-77789773D03*
X114700076Y-77789773D03*
X113700076Y-77789773D03*
X112700076Y-77790027D03*
D41*
X114700076Y-80789773D03*
%TD*%
D42*
%TO.C,R11*%
X109437500Y-91120000D03*
X111262500Y-91120000D03*
%TD*%
D29*
%TO.C,C9*%
X120212500Y-89120000D03*
X118487500Y-89120000D03*
%TD*%
%TO.C,C20*%
X118350000Y-96120000D03*
X116625000Y-96120000D03*
%TD*%
D19*
%TO.C,JP4*%
X149700000Y-91000000D03*
D20*
X149700000Y-89700000D03*
%TD*%
D43*
%TO.C,J2*%
X168060000Y-116780000D03*
D44*
X168060000Y-118780000D03*
%TD*%
D25*
%TO.C,JP11*%
X135650000Y-89000000D03*
D26*
X134350000Y-89000000D03*
%TD*%
D37*
%TO.C,C11*%
X112200100Y-85789800D03*
X113925100Y-85789800D03*
%TD*%
D28*
%TO.C,C18*%
X121000000Y-114187500D03*
X121000000Y-115912500D03*
%TD*%
D45*
%TO.C,U4*%
X151525000Y-96095000D03*
X151525000Y-97365000D03*
X151525000Y-98635000D03*
X151525000Y-99905000D03*
X156475000Y-99905000D03*
X156475000Y-98635000D03*
X156475000Y-97365000D03*
X156475000Y-96095000D03*
%TD*%
D37*
%TO.C,C4*%
X148137500Y-107000000D03*
X149862500Y-107000000D03*
%TD*%
D28*
%TO.C,C16*%
X144500000Y-78137500D03*
X144500000Y-79862500D03*
%TD*%
D13*
%TO.C,C7*%
X159000000Y-100362500D03*
X159000000Y-98637500D03*
%TD*%
D29*
%TO.C,C8*%
X159362500Y-102500000D03*
X157637500Y-102500000D03*
%TD*%
D30*
%TO.C,R9*%
X118325100Y-75499900D03*
X116500100Y-75499900D03*
%TD*%
%TO.C,R8*%
X109350100Y-88119800D03*
X107525100Y-88119800D03*
%TD*%
D23*
%TO.C,JP9*%
X154250000Y-74110000D03*
D24*
X155550000Y-74110000D03*
%TD*%
D46*
%TO.C,R4*%
X142450000Y-106500000D03*
X145550000Y-106500000D03*
%TD*%
D25*
%TO.C,JP13*%
X149000000Y-74500000D03*
D26*
X147700000Y-74500000D03*
%TD*%
D46*
%TO.C,R2*%
X102482500Y-111315000D03*
X105582500Y-111315000D03*
%TD*%
D36*
%TO.C,U8*%
X162872500Y-73700000D03*
X162872500Y-74650000D03*
X162872500Y-75600000D03*
X165147500Y-75600000D03*
X165147500Y-74650000D03*
X165147500Y-73700000D03*
%TD*%
D37*
%TO.C,C1*%
X108275000Y-111325000D03*
X110000000Y-111325000D03*
%TD*%
D23*
%TO.C,JP7*%
X116700100Y-72999900D03*
D24*
X118000100Y-72999900D03*
%TD*%
D12*
%TO.C,J1*%
X112140000Y-123540000D03*
D11*
X112140000Y-121000000D03*
X114680000Y-123540000D03*
X114680000Y-121000000D03*
X117220000Y-123540000D03*
X117220000Y-121000000D03*
X119760000Y-123540000D03*
X119760000Y-121000000D03*
X122300000Y-123540000D03*
X122300000Y-121000000D03*
X124840000Y-123540000D03*
X124840000Y-121000000D03*
X127380000Y-123540000D03*
X127380000Y-121000000D03*
X129920000Y-123540000D03*
X129920000Y-121000000D03*
X132460000Y-123540000D03*
X132460000Y-121000000D03*
X135000000Y-123540000D03*
X135000000Y-121000000D03*
X137540000Y-123540000D03*
X137540000Y-121000000D03*
X140080000Y-123540000D03*
X140080000Y-121000000D03*
X142620000Y-123540000D03*
X142620000Y-121000000D03*
X145160000Y-123540000D03*
X145160000Y-121000000D03*
X147700000Y-123540000D03*
X147700000Y-121000000D03*
X150240000Y-123540000D03*
X150240000Y-121000000D03*
%TD*%
D23*
%TO.C,JP14*%
X150200000Y-82500000D03*
D24*
X151500000Y-82500000D03*
%TD*%
D23*
%TO.C,JP3*%
X161840000Y-96240000D03*
D24*
X163140000Y-96240000D03*
%TD*%
D28*
%TO.C,C3*%
X116000000Y-106462500D03*
X116000000Y-108187500D03*
%TD*%
D37*
%TO.C,C14*%
X138107500Y-99830000D03*
X139832500Y-99830000D03*
%TD*%
D47*
%TO.C,U9*%
X163220089Y-79170000D03*
X166319911Y-79170000D03*
%TD*%
D48*
%TO.C,U11*%
X124000000Y-114050000D03*
X124000000Y-115000000D03*
X124000000Y-115950000D03*
X126510000Y-115950000D03*
X126510000Y-115000000D03*
X126510000Y-114050000D03*
%TD*%
D49*
%TO.C,R5*%
X152660000Y-88860000D03*
X158760000Y-88860000D03*
%TD*%
D37*
%TO.C,C10*%
X127047500Y-80300000D03*
X128772500Y-80300000D03*
%TD*%
D15*
%TO.C,R1*%
X103500000Y-108375000D03*
X103500000Y-105275000D03*
%TD*%
D50*
%TO.C,L1*%
X168240000Y-74435000D03*
X168240000Y-72685000D03*
%TD*%
D28*
%TO.C,C6*%
X155500000Y-110637500D03*
X155500000Y-112362500D03*
%TD*%
D16*
%TO.C,TP1*%
X98010000Y-114020000D03*
%TD*%
%TO.C,TP5*%
X98000000Y-101000000D03*
%TD*%
D12*
%TO.C,J5*%
X169650000Y-92303300D03*
D11*
X169650000Y-94843300D03*
%TD*%
D51*
%TO.C,JP6*%
X124872500Y-90240000D03*
X124872500Y-91540000D03*
X124872500Y-92840000D03*
%TD*%
D27*
%TO.C,R14*%
X159740000Y-77095000D03*
X159740000Y-78920000D03*
%TD*%
D52*
%TO.C,D1*%
X123625000Y-72000000D03*
X125375000Y-72000000D03*
%TD*%
M02*
