%TF.GenerationSoftware,KiCad,Pcbnew,8.0.8*%
%TF.CreationDate,2025-03-27T00:48:40+02:00*%
%TF.ProjectId,Power_Module,506f7765-725f-44d6-9f64-756c652e6b69,rev?*%
%TF.SameCoordinates,Original*%
%TF.FileFunction,Copper,L2,Bot*%
%TF.FilePolarity,Positive*%
%FSLAX46Y46*%
G04 Gerber Fmt 4.6, Leading zero omitted, Abs format (unit mm)*
G04 Created by KiCad (PCBNEW 8.0.8) date 2025-03-27 00:48:40*
%MOMM*%
%LPD*%
G01*
G04 APERTURE LIST*
G04 Aperture macros list*
%AMRoundRect*
0 Rectangle with rounded corners*
0 $1 Rounding radius*
0 $2 $3 $4 $5 $6 $7 $8 $9 X,Y pos of 4 corners*
0 Add a 4 corners polygon primitive as box body*
4,1,4,$2,$3,$4,$5,$6,$7,$8,$9,$2,$3,0*
0 Add four circle primitives for the rounded corners*
1,1,$1+$1,$2,$3*
1,1,$1+$1,$4,$5*
1,1,$1+$1,$6,$7*
1,1,$1+$1,$8,$9*
0 Add four rect primitives between the rounded corners*
20,1,$1+$1,$2,$3,$4,$5,0*
20,1,$1+$1,$4,$5,$6,$7,0*
20,1,$1+$1,$6,$7,$8,$9,0*
20,1,$1+$1,$8,$9,$2,$3,0*%
G04 Aperture macros list end*
%TA.AperFunction,ComponentPad*%
%ADD10R,1.500000X1.500000*%
%TD*%
%TA.AperFunction,ComponentPad*%
%ADD11C,1.600000*%
%TD*%
%TA.AperFunction,ComponentPad*%
%ADD12R,1.700000X1.700000*%
%TD*%
%TA.AperFunction,ComponentPad*%
%ADD13O,1.700000X1.700000*%
%TD*%
%TA.AperFunction,ComponentPad*%
%ADD14RoundRect,0.250000X-0.350000X-0.625000X0.350000X-0.625000X0.350000X0.625000X-0.350000X0.625000X0*%
%TD*%
%TA.AperFunction,ComponentPad*%
%ADD15O,1.200000X1.750000*%
%TD*%
%TA.AperFunction,ComponentPad*%
%ADD16O,0.900000X2.000000*%
%TD*%
%TA.AperFunction,ComponentPad*%
%ADD17O,0.900000X1.700000*%
%TD*%
G04 APERTURE END LIST*
D10*
%TO.P,SW1,1,B*%
%TO.N,+BATT*%
X141250000Y-126450000D03*
D11*
%TO.P,SW1,2,C*%
%TO.N,unconnected-(SW1-C-Pad2)*%
X138710000Y-126450000D03*
%TO.P,SW1,3,A*%
%TO.N,LOAD*%
X143790000Y-126450000D03*
%TD*%
D12*
%TO.P,J7,1,Pin_1*%
%TO.N,5V_out*%
X131150000Y-102640000D03*
D13*
%TO.P,J7,2,Pin_2*%
%TO.N,GND*%
X131150000Y-105180000D03*
%TD*%
D12*
%TO.P,J6,1,Pin_1*%
%TO.N,+9V*%
X126500000Y-102640000D03*
D13*
%TO.P,J6,2,Pin_2*%
%TO.N,GND*%
X126500000Y-105180000D03*
%TD*%
D12*
%TO.P,J5,1,Pin_1*%
%TO.N,+5V*%
X121850000Y-102640000D03*
D13*
%TO.P,J5,2,Pin_2*%
%TO.N,GND*%
X121850000Y-105180000D03*
%TD*%
D12*
%TO.P,J4,1,Pin_1*%
%TO.N,+3.3V*%
X117200000Y-102640000D03*
D13*
%TO.P,J4,2,Pin_2*%
%TO.N,GND*%
X117200000Y-105180000D03*
%TD*%
D14*
%TO.P,J3,1,Pin_1*%
%TO.N,+BATT*%
X117850000Y-109890000D03*
D15*
%TO.P,J3,2,Pin_2*%
%TO.N,GND*%
X119850000Y-109890000D03*
%TD*%
D12*
%TO.P,J2,1,Pin_1*%
%TO.N,M2_B_OUT*%
X110000000Y-77390000D03*
D13*
%TO.P,J2,2,Pin_2*%
%TO.N,M2_A_OUT*%
X112540000Y-77390000D03*
%TO.P,J2,3,Pin_3*%
%TO.N,M4_A_OUT*%
X110000000Y-79930000D03*
%TO.P,J2,4,Pin_4*%
%TO.N,M2_A_IN*%
X112540000Y-79930000D03*
%TO.P,J2,5,Pin_5*%
%TO.N,M4_B_OUT*%
X110000000Y-82470000D03*
%TO.P,J2,6,Pin_6*%
%TO.N,M2_B_IN*%
X112540000Y-82470000D03*
%TO.P,J2,7,Pin_7*%
%TO.N,LCTRL2*%
X110000000Y-85010000D03*
%TO.P,J2,8,Pin_8*%
%TO.N,M4_A_IN*%
X112540000Y-85010000D03*
%TO.P,J2,9,Pin_9*%
%TO.N,unconnected-(J2-Pin_9-Pad9)*%
X110000000Y-87550000D03*
%TO.P,J2,10,Pin_10*%
%TO.N,M4_B_IN*%
X112540000Y-87550000D03*
%TO.P,J2,11,Pin_11*%
%TO.N,LOUT2*%
X110000000Y-90090000D03*
%TO.P,J2,12,Pin_12*%
%TO.N,unconnected-(J2-Pin_12-Pad12)*%
X112540000Y-90090000D03*
%TO.P,J2,13,Pin_13*%
%TO.N,FAST_CHRG_CTRL*%
X110000000Y-92630000D03*
%TO.P,J2,14,Pin_14*%
%TO.N,+BATT*%
X112540000Y-92630000D03*
%TO.P,J2,15,Pin_15*%
%TO.N,unconnected-(J2-Pin_15-Pad15)*%
X110000000Y-95170000D03*
%TO.P,J2,16,Pin_16*%
%TO.N,SCL*%
X112540000Y-95170000D03*
%TO.P,J2,17,Pin_17*%
%TO.N,SDA*%
X110000000Y-97710000D03*
%TO.P,J2,18,Pin_18*%
%TO.N,+3.3V*%
X112540000Y-97710000D03*
%TO.P,J2,19,Pin_19*%
%TO.N,GND*%
X110000000Y-100250000D03*
%TO.P,J2,20,Pin_20*%
%TO.N,5V_out*%
X112540000Y-100250000D03*
%TO.P,J2,21,Pin_21*%
%TO.N,LOUT1*%
X110000000Y-102790000D03*
%TO.P,J2,22,Pin_22*%
%TO.N,+9V*%
X112540000Y-102790000D03*
%TO.P,J2,23,Pin_23*%
%TO.N,GND*%
X110000000Y-105330000D03*
%TO.P,J2,24,Pin_24*%
%TO.N,M3_A_IN*%
X112540000Y-105330000D03*
%TO.P,J2,25,Pin_25*%
%TO.N,LCTRL1*%
X110000000Y-107870000D03*
%TO.P,J2,26,Pin_26*%
%TO.N,M3_B_IN*%
X112540000Y-107870000D03*
%TO.P,J2,27,Pin_27*%
%TO.N,M3_A_OUT*%
X110000000Y-110410000D03*
%TO.P,J2,28,Pin_28*%
%TO.N,M1_A_IN*%
X112540000Y-110410000D03*
%TO.P,J2,29,Pin_29*%
%TO.N,M3_B_OUT*%
X110000000Y-112950000D03*
%TO.P,J2,30,Pin_30*%
%TO.N,M1_B_IN*%
X112540000Y-112950000D03*
%TO.P,J2,31,Pin_31*%
%TO.N,M1_B_OUT*%
X110000000Y-115490000D03*
%TO.P,J2,32,Pin_32*%
%TO.N,M1_A_OUT*%
X112540000Y-115490000D03*
%TD*%
D16*
%TO.P,J1,S1,SHIELD*%
%TO.N,unconnected-(J1-SHIELD-PadS1)_3*%
X113763500Y-122345000D03*
%TO.P,J1,S2,SHIELD*%
%TO.N,unconnected-(J1-SHIELD-PadS1)*%
X122413500Y-122345000D03*
D17*
%TO.P,J1,S3,SHIELD*%
%TO.N,unconnected-(J1-SHIELD-PadS1)_1*%
X113763500Y-126515000D03*
%TO.P,J1,S4,SHIELD*%
%TO.N,unconnected-(J1-SHIELD-PadS1)_2*%
X122413500Y-126515000D03*
%TD*%
M02*
