%TF.GenerationSoftware,KiCad,Pcbnew,8.0.8*%
%TF.CreationDate,2025-03-28T16:38:00+02:00*%
%TF.ProjectId,Power_Module,506f7765-725f-44d6-9f64-756c652e6b69,1*%
%TF.SameCoordinates,Original*%
%TF.FileFunction,Legend,Bot*%
%TF.FilePolarity,Positive*%
%FSLAX46Y46*%
G04 Gerber Fmt 4.6, Leading zero omitted, Abs format (unit mm)*
G04 Created by KiCad (PCBNEW 8.0.8) date 2025-03-28 16:38:00*
%MOMM*%
%LPD*%
G01*
G04 APERTURE LIST*
G04 Aperture macros list*
%AMRoundRect*
0 Rectangle with rounded corners*
0 $1 Rounding radius*
0 $2 $3 $4 $5 $6 $7 $8 $9 X,Y pos of 4 corners*
0 Add a 4 corners polygon primitive as box body*
4,1,4,$2,$3,$4,$5,$6,$7,$8,$9,$2,$3,0*
0 Add four circle primitives for the rounded corners*
1,1,$1+$1,$2,$3*
1,1,$1+$1,$4,$5*
1,1,$1+$1,$6,$7*
1,1,$1+$1,$8,$9*
0 Add four rect primitives between the rounded corners*
20,1,$1+$1,$2,$3,$4,$5,0*
20,1,$1+$1,$4,$5,$6,$7,0*
20,1,$1+$1,$6,$7,$8,$9,0*
20,1,$1+$1,$8,$9,$2,$3,0*%
G04 Aperture macros list end*
%ADD10C,0.100000*%
%ADD11R,1.700000X1.700000*%
%ADD12O,1.700000X1.700000*%
%ADD13C,0.600000*%
%ADD14O,1.104000X2.204000*%
%ADD15O,1.104000X1.904000*%
%ADD16RoundRect,0.250000X-0.625000X0.350000X-0.625000X-0.350000X0.625000X-0.350000X0.625000X0.350000X0*%
%ADD17O,1.750000X1.200000*%
%ADD18R,2.500000X3.000000*%
%ADD19C,3.000000*%
G04 APERTURE END LIST*
D10*
X166767544Y-111178544D02*
X166800877Y-111211878D01*
X166800877Y-111211878D02*
X166900877Y-111245211D01*
X166900877Y-111245211D02*
X166967544Y-111245211D01*
X166967544Y-111245211D02*
X167067544Y-111211878D01*
X167067544Y-111211878D02*
X167134211Y-111145211D01*
X167134211Y-111145211D02*
X167167544Y-111078544D01*
X167167544Y-111078544D02*
X167200877Y-110945211D01*
X167200877Y-110945211D02*
X167200877Y-110845211D01*
X167200877Y-110845211D02*
X167167544Y-110711878D01*
X167167544Y-110711878D02*
X167134211Y-110645211D01*
X167134211Y-110645211D02*
X167067544Y-110578544D01*
X167067544Y-110578544D02*
X166967544Y-110545211D01*
X166967544Y-110545211D02*
X166900877Y-110545211D01*
X166900877Y-110545211D02*
X166800877Y-110578544D01*
X166800877Y-110578544D02*
X166767544Y-110611878D01*
X166467544Y-111245211D02*
X166467544Y-110778544D01*
X166467544Y-110911878D02*
X166434211Y-110845211D01*
X166434211Y-110845211D02*
X166400877Y-110811878D01*
X166400877Y-110811878D02*
X166334211Y-110778544D01*
X166334211Y-110778544D02*
X166267544Y-110778544D01*
X165767544Y-111211878D02*
X165834211Y-111245211D01*
X165834211Y-111245211D02*
X165967544Y-111245211D01*
X165967544Y-111245211D02*
X166034211Y-111211878D01*
X166034211Y-111211878D02*
X166067544Y-111145211D01*
X166067544Y-111145211D02*
X166067544Y-110878544D01*
X166067544Y-110878544D02*
X166034211Y-110811878D01*
X166034211Y-110811878D02*
X165967544Y-110778544D01*
X165967544Y-110778544D02*
X165834211Y-110778544D01*
X165834211Y-110778544D02*
X165767544Y-110811878D01*
X165767544Y-110811878D02*
X165734211Y-110878544D01*
X165734211Y-110878544D02*
X165734211Y-110945211D01*
X165734211Y-110945211D02*
X166067544Y-111011878D01*
X165134211Y-111245211D02*
X165134211Y-110878544D01*
X165134211Y-110878544D02*
X165167544Y-110811878D01*
X165167544Y-110811878D02*
X165234211Y-110778544D01*
X165234211Y-110778544D02*
X165367544Y-110778544D01*
X165367544Y-110778544D02*
X165434211Y-110811878D01*
X165134211Y-111211878D02*
X165200878Y-111245211D01*
X165200878Y-111245211D02*
X165367544Y-111245211D01*
X165367544Y-111245211D02*
X165434211Y-111211878D01*
X165434211Y-111211878D02*
X165467544Y-111145211D01*
X165467544Y-111145211D02*
X165467544Y-111078544D01*
X165467544Y-111078544D02*
X165434211Y-111011878D01*
X165434211Y-111011878D02*
X165367544Y-110978544D01*
X165367544Y-110978544D02*
X165200878Y-110978544D01*
X165200878Y-110978544D02*
X165134211Y-110945211D01*
X164900878Y-110778544D02*
X164634211Y-110778544D01*
X164800878Y-110545211D02*
X164800878Y-111145211D01*
X164800878Y-111145211D02*
X164767545Y-111211878D01*
X164767545Y-111211878D02*
X164700878Y-111245211D01*
X164700878Y-111245211D02*
X164634211Y-111245211D01*
X164134211Y-111211878D02*
X164200878Y-111245211D01*
X164200878Y-111245211D02*
X164334211Y-111245211D01*
X164334211Y-111245211D02*
X164400878Y-111211878D01*
X164400878Y-111211878D02*
X164434211Y-111145211D01*
X164434211Y-111145211D02*
X164434211Y-110878544D01*
X164434211Y-110878544D02*
X164400878Y-110811878D01*
X164400878Y-110811878D02*
X164334211Y-110778544D01*
X164334211Y-110778544D02*
X164200878Y-110778544D01*
X164200878Y-110778544D02*
X164134211Y-110811878D01*
X164134211Y-110811878D02*
X164100878Y-110878544D01*
X164100878Y-110878544D02*
X164100878Y-110945211D01*
X164100878Y-110945211D02*
X164434211Y-111011878D01*
X163500878Y-111245211D02*
X163500878Y-110545211D01*
X163500878Y-111211878D02*
X163567545Y-111245211D01*
X163567545Y-111245211D02*
X163700878Y-111245211D01*
X163700878Y-111245211D02*
X163767545Y-111211878D01*
X163767545Y-111211878D02*
X163800878Y-111178544D01*
X163800878Y-111178544D02*
X163834211Y-111111878D01*
X163834211Y-111111878D02*
X163834211Y-110911878D01*
X163834211Y-110911878D02*
X163800878Y-110845211D01*
X163800878Y-110845211D02*
X163767545Y-110811878D01*
X163767545Y-110811878D02*
X163700878Y-110778544D01*
X163700878Y-110778544D02*
X163567545Y-110778544D01*
X163567545Y-110778544D02*
X163500878Y-110811878D01*
X162400879Y-110878544D02*
X162300879Y-110911878D01*
X162300879Y-110911878D02*
X162267545Y-110945211D01*
X162267545Y-110945211D02*
X162234212Y-111011878D01*
X162234212Y-111011878D02*
X162234212Y-111111878D01*
X162234212Y-111111878D02*
X162267545Y-111178544D01*
X162267545Y-111178544D02*
X162300879Y-111211878D01*
X162300879Y-111211878D02*
X162367545Y-111245211D01*
X162367545Y-111245211D02*
X162634212Y-111245211D01*
X162634212Y-111245211D02*
X162634212Y-110545211D01*
X162634212Y-110545211D02*
X162400879Y-110545211D01*
X162400879Y-110545211D02*
X162334212Y-110578544D01*
X162334212Y-110578544D02*
X162300879Y-110611878D01*
X162300879Y-110611878D02*
X162267545Y-110678544D01*
X162267545Y-110678544D02*
X162267545Y-110745211D01*
X162267545Y-110745211D02*
X162300879Y-110811878D01*
X162300879Y-110811878D02*
X162334212Y-110845211D01*
X162334212Y-110845211D02*
X162400879Y-110878544D01*
X162400879Y-110878544D02*
X162634212Y-110878544D01*
X162000879Y-110778544D02*
X161834212Y-111245211D01*
X161667545Y-110778544D02*
X161834212Y-111245211D01*
X161834212Y-111245211D02*
X161900879Y-111411878D01*
X161900879Y-111411878D02*
X161934212Y-111445211D01*
X161934212Y-111445211D02*
X162000879Y-111478544D01*
X161400879Y-111178544D02*
X161367546Y-111211878D01*
X161367546Y-111211878D02*
X161400879Y-111245211D01*
X161400879Y-111245211D02*
X161434212Y-111211878D01*
X161434212Y-111211878D02*
X161400879Y-111178544D01*
X161400879Y-111178544D02*
X161400879Y-111245211D01*
X161400879Y-110811878D02*
X161367546Y-110845211D01*
X161367546Y-110845211D02*
X161400879Y-110878544D01*
X161400879Y-110878544D02*
X161434212Y-110845211D01*
X161434212Y-110845211D02*
X161400879Y-110811878D01*
X161400879Y-110811878D02*
X161400879Y-110878544D01*
X160534213Y-111245211D02*
X160534213Y-110545211D01*
X160134213Y-111245211D02*
X160434213Y-110845211D01*
X160134213Y-110545211D02*
X160534213Y-110945211D01*
X159834213Y-111245211D02*
X159834213Y-110545211D01*
X159834213Y-110878544D02*
X159434213Y-110878544D01*
X159434213Y-111245211D02*
X159434213Y-110545211D01*
X159100880Y-111245211D02*
X159100880Y-110545211D01*
X159100880Y-110545211D02*
X158700880Y-111245211D01*
X158700880Y-111245211D02*
X158700880Y-110545211D01*
X158400880Y-111045211D02*
X158067547Y-111045211D01*
X158467547Y-111245211D02*
X158234214Y-110545211D01*
X158234214Y-110545211D02*
X158000880Y-111245211D01*
X157867547Y-110545211D02*
X157467547Y-110545211D01*
X157667547Y-111245211D02*
X157667547Y-110545211D01*
X157234214Y-111245211D02*
X157234214Y-110545211D01*
X157234214Y-110878544D02*
X156834214Y-110878544D01*
X156834214Y-111245211D02*
X156834214Y-110545211D01*
X156367548Y-110545211D02*
X156300881Y-110545211D01*
X156300881Y-110545211D02*
X156234214Y-110578544D01*
X156234214Y-110578544D02*
X156200881Y-110611878D01*
X156200881Y-110611878D02*
X156167548Y-110678544D01*
X156167548Y-110678544D02*
X156134214Y-110811878D01*
X156134214Y-110811878D02*
X156134214Y-110978544D01*
X156134214Y-110978544D02*
X156167548Y-111111878D01*
X156167548Y-111111878D02*
X156200881Y-111178544D01*
X156200881Y-111178544D02*
X156234214Y-111211878D01*
X156234214Y-111211878D02*
X156300881Y-111245211D01*
X156300881Y-111245211D02*
X156367548Y-111245211D01*
X156367548Y-111245211D02*
X156434214Y-111211878D01*
X156434214Y-111211878D02*
X156467548Y-111178544D01*
X156467548Y-111178544D02*
X156500881Y-111111878D01*
X156500881Y-111111878D02*
X156534214Y-110978544D01*
X156534214Y-110978544D02*
X156534214Y-110811878D01*
X156534214Y-110811878D02*
X156500881Y-110678544D01*
X156500881Y-110678544D02*
X156467548Y-110611878D01*
X156467548Y-110611878D02*
X156434214Y-110578544D01*
X156434214Y-110578544D02*
X156367548Y-110545211D01*
X155700881Y-110545211D02*
X155634214Y-110545211D01*
X155634214Y-110545211D02*
X155567547Y-110578544D01*
X155567547Y-110578544D02*
X155534214Y-110611878D01*
X155534214Y-110611878D02*
X155500881Y-110678544D01*
X155500881Y-110678544D02*
X155467547Y-110811878D01*
X155467547Y-110811878D02*
X155467547Y-110978544D01*
X155467547Y-110978544D02*
X155500881Y-111111878D01*
X155500881Y-111111878D02*
X155534214Y-111178544D01*
X155534214Y-111178544D02*
X155567547Y-111211878D01*
X155567547Y-111211878D02*
X155634214Y-111245211D01*
X155634214Y-111245211D02*
X155700881Y-111245211D01*
X155700881Y-111245211D02*
X155767547Y-111211878D01*
X155767547Y-111211878D02*
X155800881Y-111178544D01*
X155800881Y-111178544D02*
X155834214Y-111111878D01*
X155834214Y-111111878D02*
X155867547Y-110978544D01*
X155867547Y-110978544D02*
X155867547Y-110811878D01*
X155867547Y-110811878D02*
X155834214Y-110678544D01*
X155834214Y-110678544D02*
X155800881Y-110611878D01*
X155800881Y-110611878D02*
X155767547Y-110578544D01*
X155767547Y-110578544D02*
X155700881Y-110545211D01*
X155200880Y-110611878D02*
X155167547Y-110578544D01*
X155167547Y-110578544D02*
X155100880Y-110545211D01*
X155100880Y-110545211D02*
X154934214Y-110545211D01*
X154934214Y-110545211D02*
X154867547Y-110578544D01*
X154867547Y-110578544D02*
X154834214Y-110611878D01*
X154834214Y-110611878D02*
X154800880Y-110678544D01*
X154800880Y-110678544D02*
X154800880Y-110745211D01*
X154800880Y-110745211D02*
X154834214Y-110845211D01*
X154834214Y-110845211D02*
X155234214Y-111245211D01*
X155234214Y-111245211D02*
X154800880Y-111245211D01*
X154467547Y-111211878D02*
X154467547Y-111245211D01*
X154467547Y-111245211D02*
X154500880Y-111311878D01*
X154500880Y-111311878D02*
X154534213Y-111345211D01*
X153634214Y-111245211D02*
X153634214Y-110545211D01*
X153234214Y-111245211D02*
X153534214Y-110845211D01*
X153234214Y-110545211D02*
X153634214Y-110945211D01*
X152934214Y-111245211D02*
X152934214Y-110545211D01*
X152934214Y-110878544D02*
X152534214Y-110878544D01*
X152534214Y-111245211D02*
X152534214Y-110545211D01*
X152200881Y-111245211D02*
X152200881Y-110545211D01*
X152200881Y-110545211D02*
X151800881Y-111245211D01*
X151800881Y-111245211D02*
X151800881Y-110545211D01*
X151334215Y-110545211D02*
X151200881Y-110545211D01*
X151200881Y-110545211D02*
X151134215Y-110578544D01*
X151134215Y-110578544D02*
X151067548Y-110645211D01*
X151067548Y-110645211D02*
X151034215Y-110778544D01*
X151034215Y-110778544D02*
X151034215Y-111011878D01*
X151034215Y-111011878D02*
X151067548Y-111145211D01*
X151067548Y-111145211D02*
X151134215Y-111211878D01*
X151134215Y-111211878D02*
X151200881Y-111245211D01*
X151200881Y-111245211D02*
X151334215Y-111245211D01*
X151334215Y-111245211D02*
X151400881Y-111211878D01*
X151400881Y-111211878D02*
X151467548Y-111145211D01*
X151467548Y-111145211D02*
X151500881Y-111011878D01*
X151500881Y-111011878D02*
X151500881Y-110778544D01*
X151500881Y-110778544D02*
X151467548Y-110645211D01*
X151467548Y-110645211D02*
X151400881Y-110578544D01*
X151400881Y-110578544D02*
X151334215Y-110545211D01*
X150400882Y-111245211D02*
X150734215Y-111245211D01*
X150734215Y-111245211D02*
X150734215Y-110545211D01*
X150234215Y-110545211D02*
X150067548Y-111245211D01*
X150067548Y-111245211D02*
X149934215Y-110745211D01*
X149934215Y-110745211D02*
X149800881Y-111245211D01*
X149800881Y-111245211D02*
X149634215Y-110545211D01*
X149234215Y-110545211D02*
X149167548Y-110545211D01*
X149167548Y-110545211D02*
X149100881Y-110578544D01*
X149100881Y-110578544D02*
X149067548Y-110611878D01*
X149067548Y-110611878D02*
X149034215Y-110678544D01*
X149034215Y-110678544D02*
X149000881Y-110811878D01*
X149000881Y-110811878D02*
X149000881Y-110978544D01*
X149000881Y-110978544D02*
X149034215Y-111111878D01*
X149034215Y-111111878D02*
X149067548Y-111178544D01*
X149067548Y-111178544D02*
X149100881Y-111211878D01*
X149100881Y-111211878D02*
X149167548Y-111245211D01*
X149167548Y-111245211D02*
X149234215Y-111245211D01*
X149234215Y-111245211D02*
X149300881Y-111211878D01*
X149300881Y-111211878D02*
X149334215Y-111178544D01*
X149334215Y-111178544D02*
X149367548Y-111111878D01*
X149367548Y-111111878D02*
X149400881Y-110978544D01*
X149400881Y-110978544D02*
X149400881Y-110811878D01*
X149400881Y-110811878D02*
X149367548Y-110678544D01*
X149367548Y-110678544D02*
X149334215Y-110611878D01*
X149334215Y-110611878D02*
X149300881Y-110578544D01*
X149300881Y-110578544D02*
X149234215Y-110545211D01*
X148567548Y-110545211D02*
X148500881Y-110545211D01*
X148500881Y-110545211D02*
X148434214Y-110578544D01*
X148434214Y-110578544D02*
X148400881Y-110611878D01*
X148400881Y-110611878D02*
X148367548Y-110678544D01*
X148367548Y-110678544D02*
X148334214Y-110811878D01*
X148334214Y-110811878D02*
X148334214Y-110978544D01*
X148334214Y-110978544D02*
X148367548Y-111111878D01*
X148367548Y-111111878D02*
X148400881Y-111178544D01*
X148400881Y-111178544D02*
X148434214Y-111211878D01*
X148434214Y-111211878D02*
X148500881Y-111245211D01*
X148500881Y-111245211D02*
X148567548Y-111245211D01*
X148567548Y-111245211D02*
X148634214Y-111211878D01*
X148634214Y-111211878D02*
X148667548Y-111178544D01*
X148667548Y-111178544D02*
X148700881Y-111111878D01*
X148700881Y-111111878D02*
X148734214Y-110978544D01*
X148734214Y-110978544D02*
X148734214Y-110811878D01*
X148734214Y-110811878D02*
X148700881Y-110678544D01*
X148700881Y-110678544D02*
X148667548Y-110611878D01*
X148667548Y-110611878D02*
X148634214Y-110578544D01*
X148634214Y-110578544D02*
X148567548Y-110545211D01*
X148100881Y-110545211D02*
X147667547Y-110545211D01*
X147667547Y-110545211D02*
X147900881Y-110811878D01*
X147900881Y-110811878D02*
X147800881Y-110811878D01*
X147800881Y-110811878D02*
X147734214Y-110845211D01*
X147734214Y-110845211D02*
X147700881Y-110878544D01*
X147700881Y-110878544D02*
X147667547Y-110945211D01*
X147667547Y-110945211D02*
X147667547Y-111111878D01*
X147667547Y-111111878D02*
X147700881Y-111178544D01*
X147700881Y-111178544D02*
X147734214Y-111211878D01*
X147734214Y-111211878D02*
X147800881Y-111245211D01*
X147800881Y-111245211D02*
X148000881Y-111245211D01*
X148000881Y-111245211D02*
X148067547Y-111211878D01*
X148067547Y-111211878D02*
X148100881Y-111178544D01*
X166800877Y-111705505D02*
X166867544Y-111672172D01*
X166867544Y-111672172D02*
X166967544Y-111672172D01*
X166967544Y-111672172D02*
X167067544Y-111705505D01*
X167067544Y-111705505D02*
X167134211Y-111772172D01*
X167134211Y-111772172D02*
X167167544Y-111838839D01*
X167167544Y-111838839D02*
X167200877Y-111972172D01*
X167200877Y-111972172D02*
X167200877Y-112072172D01*
X167200877Y-112072172D02*
X167167544Y-112205505D01*
X167167544Y-112205505D02*
X167134211Y-112272172D01*
X167134211Y-112272172D02*
X167067544Y-112338839D01*
X167067544Y-112338839D02*
X166967544Y-112372172D01*
X166967544Y-112372172D02*
X166900877Y-112372172D01*
X166900877Y-112372172D02*
X166800877Y-112338839D01*
X166800877Y-112338839D02*
X166767544Y-112305505D01*
X166767544Y-112305505D02*
X166767544Y-112072172D01*
X166767544Y-112072172D02*
X166900877Y-112072172D01*
X166067544Y-112372172D02*
X166300877Y-112038839D01*
X166467544Y-112372172D02*
X166467544Y-111672172D01*
X166467544Y-111672172D02*
X166200877Y-111672172D01*
X166200877Y-111672172D02*
X166134211Y-111705505D01*
X166134211Y-111705505D02*
X166100877Y-111738839D01*
X166100877Y-111738839D02*
X166067544Y-111805505D01*
X166067544Y-111805505D02*
X166067544Y-111905505D01*
X166067544Y-111905505D02*
X166100877Y-111972172D01*
X166100877Y-111972172D02*
X166134211Y-112005505D01*
X166134211Y-112005505D02*
X166200877Y-112038839D01*
X166200877Y-112038839D02*
X166467544Y-112038839D01*
X165634211Y-111672172D02*
X165500877Y-111672172D01*
X165500877Y-111672172D02*
X165434211Y-111705505D01*
X165434211Y-111705505D02*
X165367544Y-111772172D01*
X165367544Y-111772172D02*
X165334211Y-111905505D01*
X165334211Y-111905505D02*
X165334211Y-112138839D01*
X165334211Y-112138839D02*
X165367544Y-112272172D01*
X165367544Y-112272172D02*
X165434211Y-112338839D01*
X165434211Y-112338839D02*
X165500877Y-112372172D01*
X165500877Y-112372172D02*
X165634211Y-112372172D01*
X165634211Y-112372172D02*
X165700877Y-112338839D01*
X165700877Y-112338839D02*
X165767544Y-112272172D01*
X165767544Y-112272172D02*
X165800877Y-112138839D01*
X165800877Y-112138839D02*
X165800877Y-111905505D01*
X165800877Y-111905505D02*
X165767544Y-111772172D01*
X165767544Y-111772172D02*
X165700877Y-111705505D01*
X165700877Y-111705505D02*
X165634211Y-111672172D01*
X165034211Y-111672172D02*
X165034211Y-112238839D01*
X165034211Y-112238839D02*
X165000878Y-112305505D01*
X165000878Y-112305505D02*
X164967544Y-112338839D01*
X164967544Y-112338839D02*
X164900878Y-112372172D01*
X164900878Y-112372172D02*
X164767544Y-112372172D01*
X164767544Y-112372172D02*
X164700878Y-112338839D01*
X164700878Y-112338839D02*
X164667544Y-112305505D01*
X164667544Y-112305505D02*
X164634211Y-112238839D01*
X164634211Y-112238839D02*
X164634211Y-111672172D01*
X164300878Y-112372172D02*
X164300878Y-111672172D01*
X164300878Y-111672172D02*
X164034211Y-111672172D01*
X164034211Y-111672172D02*
X163967545Y-111705505D01*
X163967545Y-111705505D02*
X163934211Y-111738839D01*
X163934211Y-111738839D02*
X163900878Y-111805505D01*
X163900878Y-111805505D02*
X163900878Y-111905505D01*
X163900878Y-111905505D02*
X163934211Y-111972172D01*
X163934211Y-111972172D02*
X163967545Y-112005505D01*
X163967545Y-112005505D02*
X164034211Y-112038839D01*
X164034211Y-112038839D02*
X164300878Y-112038839D01*
X162700878Y-112372172D02*
X163100878Y-112372172D01*
X162900878Y-112372172D02*
X162900878Y-111672172D01*
X162900878Y-111672172D02*
X162967545Y-111772172D01*
X162967545Y-111772172D02*
X163034212Y-111838839D01*
X163034212Y-111838839D02*
X163100878Y-111872172D01*
X162367545Y-112372172D02*
X162234211Y-112372172D01*
X162234211Y-112372172D02*
X162167545Y-112338839D01*
X162167545Y-112338839D02*
X162134211Y-112305505D01*
X162134211Y-112305505D02*
X162067545Y-112205505D01*
X162067545Y-112205505D02*
X162034211Y-112072172D01*
X162034211Y-112072172D02*
X162034211Y-111805505D01*
X162034211Y-111805505D02*
X162067545Y-111738839D01*
X162067545Y-111738839D02*
X162100878Y-111705505D01*
X162100878Y-111705505D02*
X162167545Y-111672172D01*
X162167545Y-111672172D02*
X162300878Y-111672172D01*
X162300878Y-111672172D02*
X162367545Y-111705505D01*
X162367545Y-111705505D02*
X162400878Y-111738839D01*
X162400878Y-111738839D02*
X162434211Y-111805505D01*
X162434211Y-111805505D02*
X162434211Y-111972172D01*
X162434211Y-111972172D02*
X162400878Y-112038839D01*
X162400878Y-112038839D02*
X162367545Y-112072172D01*
X162367545Y-112072172D02*
X162300878Y-112105505D01*
X162300878Y-112105505D02*
X162167545Y-112105505D01*
X162167545Y-112105505D02*
X162100878Y-112072172D01*
X162100878Y-112072172D02*
X162067545Y-112038839D01*
X162067545Y-112038839D02*
X162034211Y-111972172D01*
X166834211Y-113499133D02*
X167167544Y-113499133D01*
X167167544Y-113499133D02*
X167167544Y-112799133D01*
X166667544Y-112799133D02*
X166500877Y-113499133D01*
X166500877Y-113499133D02*
X166367544Y-112999133D01*
X166367544Y-112999133D02*
X166234210Y-113499133D01*
X166234210Y-113499133D02*
X166067544Y-112799133D01*
X165834210Y-113299133D02*
X165500877Y-113299133D01*
X165900877Y-113499133D02*
X165667544Y-112799133D01*
X165667544Y-112799133D02*
X165434210Y-113499133D01*
X165234210Y-113299133D02*
X164900877Y-113299133D01*
X165300877Y-113499133D02*
X165067544Y-112799133D01*
X165067544Y-112799133D02*
X164834210Y-113499133D01*
X164634210Y-113299133D02*
X164300877Y-113299133D01*
X164700877Y-113499133D02*
X164467544Y-112799133D01*
X164467544Y-112799133D02*
X164234210Y-113499133D01*
X164000877Y-113432466D02*
X163967544Y-113465800D01*
X163967544Y-113465800D02*
X164000877Y-113499133D01*
X164000877Y-113499133D02*
X164034210Y-113465800D01*
X164034210Y-113465800D02*
X164000877Y-113432466D01*
X164000877Y-113432466D02*
X164000877Y-113499133D01*
X164000877Y-113232466D02*
X164034210Y-112832466D01*
X164034210Y-112832466D02*
X164000877Y-112799133D01*
X164000877Y-112799133D02*
X163967544Y-112832466D01*
X163967544Y-112832466D02*
X164000877Y-113232466D01*
X164000877Y-113232466D02*
X164000877Y-112799133D01*
X163667544Y-113432466D02*
X163634211Y-113465800D01*
X163634211Y-113465800D02*
X163667544Y-113499133D01*
X163667544Y-113499133D02*
X163700877Y-113465800D01*
X163700877Y-113465800D02*
X163667544Y-113432466D01*
X163667544Y-113432466D02*
X163667544Y-113499133D01*
X163667544Y-113232466D02*
X163700877Y-112832466D01*
X163700877Y-112832466D02*
X163667544Y-112799133D01*
X163667544Y-112799133D02*
X163634211Y-112832466D01*
X163634211Y-112832466D02*
X163667544Y-113232466D01*
X163667544Y-113232466D02*
X163667544Y-112799133D01*
X163334211Y-113432466D02*
X163300878Y-113465800D01*
X163300878Y-113465800D02*
X163334211Y-113499133D01*
X163334211Y-113499133D02*
X163367544Y-113465800D01*
X163367544Y-113465800D02*
X163334211Y-113432466D01*
X163334211Y-113432466D02*
X163334211Y-113499133D01*
X163334211Y-113232466D02*
X163367544Y-112832466D01*
X163367544Y-112832466D02*
X163334211Y-112799133D01*
X163334211Y-112799133D02*
X163300878Y-112832466D01*
X163300878Y-112832466D02*
X163334211Y-113232466D01*
X163334211Y-113232466D02*
X163334211Y-112799133D01*
X163000878Y-113432466D02*
X162967545Y-113465800D01*
X162967545Y-113465800D02*
X163000878Y-113499133D01*
X163000878Y-113499133D02*
X163034211Y-113465800D01*
X163034211Y-113465800D02*
X163000878Y-113432466D01*
X163000878Y-113432466D02*
X163000878Y-113499133D01*
X163000878Y-113232466D02*
X163034211Y-112832466D01*
X163034211Y-112832466D02*
X163000878Y-112799133D01*
X163000878Y-112799133D02*
X162967545Y-112832466D01*
X162967545Y-112832466D02*
X163000878Y-113232466D01*
X163000878Y-113232466D02*
X163000878Y-112799133D01*
%LPC*%
D11*
%TO.C,J3*%
X169650000Y-106960000D03*
D12*
X169650000Y-109500000D03*
%TD*%
D11*
%TO.C,J6*%
X169650000Y-84975000D03*
D12*
X169650000Y-87515000D03*
%TD*%
D13*
%TO.C,J7*%
X136140000Y-74680000D03*
X130360000Y-74680000D03*
D14*
X137575000Y-75170000D03*
X128925000Y-75170000D03*
D15*
X137575000Y-71000000D03*
X128925000Y-71000000D03*
%TD*%
D11*
%TO.C,J4*%
X169650000Y-99631700D03*
D12*
X169650000Y-102171700D03*
%TD*%
D16*
%TO.C,J2*%
X168060000Y-116780000D03*
D17*
X168060000Y-118780000D03*
%TD*%
D11*
%TO.C,J1*%
X112140000Y-123540000D03*
D12*
X112140000Y-121000000D03*
X114680000Y-123540000D03*
X114680000Y-121000000D03*
X117220000Y-123540000D03*
X117220000Y-121000000D03*
X119760000Y-123540000D03*
X119760000Y-121000000D03*
X122300000Y-123540000D03*
X122300000Y-121000000D03*
X124840000Y-123540000D03*
X124840000Y-121000000D03*
X127380000Y-123540000D03*
X127380000Y-121000000D03*
X129920000Y-123540000D03*
X129920000Y-121000000D03*
X132460000Y-123540000D03*
X132460000Y-121000000D03*
X135000000Y-123540000D03*
X135000000Y-121000000D03*
X137540000Y-123540000D03*
X137540000Y-121000000D03*
X140080000Y-123540000D03*
X140080000Y-121000000D03*
X142620000Y-123540000D03*
X142620000Y-121000000D03*
X145160000Y-123540000D03*
X145160000Y-121000000D03*
X147700000Y-123540000D03*
X147700000Y-121000000D03*
X150240000Y-123540000D03*
X150240000Y-121000000D03*
%TD*%
D18*
%TO.C,U12*%
X107225025Y-79583500D03*
D19*
X102525000Y-79583500D03*
X97824975Y-79583500D03*
%TD*%
D11*
%TO.C,J5*%
X169650000Y-92303300D03*
D12*
X169650000Y-94843300D03*
%TD*%
%LPD*%
M02*
