%TF.GenerationSoftware,KiCad,Pcbnew,8.0.8*%
%TF.CreationDate,2025-03-28T11:16:55+02:00*%
%TF.ProjectId,Power_Module,506f7765-725f-44d6-9f64-756c652e6b69,1*%
%TF.SameCoordinates,Original*%
%TF.FileFunction,Legend,Top*%
%TF.FilePolarity,Positive*%
%FSLAX46Y46*%
G04 Gerber Fmt 4.6, Leading zero omitted, Abs format (unit mm)*
G04 Created by KiCad (PCBNEW 8.0.8) date 2025-03-28 11:16:55*
%MOMM*%
%LPD*%
G01*
G04 APERTURE LIST*
G04 Aperture macros list*
%AMRoundRect*
0 Rectangle with rounded corners*
0 $1 Rounding radius*
0 $2 $3 $4 $5 $6 $7 $8 $9 X,Y pos of 4 corners*
0 Add a 4 corners polygon primitive as box body*
4,1,4,$2,$3,$4,$5,$6,$7,$8,$9,$2,$3,0*
0 Add four circle primitives for the rounded corners*
1,1,$1+$1,$2,$3*
1,1,$1+$1,$4,$5*
1,1,$1+$1,$6,$7*
1,1,$1+$1,$8,$9*
0 Add four rect primitives between the rounded corners*
20,1,$1+$1,$2,$3,$4,$5,0*
20,1,$1+$1,$4,$5,$6,$7,0*
20,1,$1+$1,$6,$7,$8,$9,0*
20,1,$1+$1,$8,$9,$2,$3,0*%
%AMFreePoly0*
4,1,19,0.500000,-0.750000,0.000000,-0.750000,0.000000,-0.744911,-0.071157,-0.744911,-0.207708,-0.704816,-0.327430,-0.627875,-0.420627,-0.520320,-0.479746,-0.390866,-0.500000,-0.250000,-0.500000,0.250000,-0.479746,0.390866,-0.420627,0.520320,-0.327430,0.627875,-0.207708,0.704816,-0.071157,0.744911,0.000000,0.744911,0.000000,0.750000,0.500000,0.750000,0.500000,-0.750000,0.500000,-0.750000,
$1*%
%AMFreePoly1*
4,1,19,0.000000,0.744911,0.071157,0.744911,0.207708,0.704816,0.327430,0.627875,0.420627,0.520320,0.479746,0.390866,0.500000,0.250000,0.500000,-0.250000,0.479746,-0.390866,0.420627,-0.520320,0.327430,-0.627875,0.207708,-0.704816,0.071157,-0.744911,0.000000,-0.744911,0.000000,-0.750000,-0.500000,-0.750000,-0.500000,0.750000,0.000000,0.750000,0.000000,0.744911,0.000000,0.744911,
$1*%
G04 Aperture macros list end*
%ADD10C,0.100000*%
%ADD11C,0.150000*%
%ADD12C,0.120000*%
%ADD13C,0.152400*%
%ADD14C,0.059995*%
%ADD15C,0.254000*%
%ADD16C,0.127000*%
%ADD17C,0.200000*%
%ADD18C,0.151994*%
%ADD19C,0.150013*%
%ADD20C,0.010000*%
%ADD21O,1.700000X1.700000*%
%ADD22R,1.700000X1.700000*%
%ADD23RoundRect,0.237500X0.237500X-0.300000X0.237500X0.300000X-0.237500X0.300000X-0.237500X-0.300000X0*%
%ADD24R,1.250013X0.700000*%
%ADD25RoundRect,0.250000X0.625000X-0.400000X0.625000X0.400000X-0.625000X0.400000X-0.625000X-0.400000X0*%
%ADD26C,3.000000*%
%ADD27R,0.600000X1.200000*%
%ADD28R,3.300000X2.400000*%
%ADD29FreePoly0,90.000000*%
%ADD30FreePoly1,90.000000*%
%ADD31RoundRect,0.237500X0.237500X-0.250000X0.237500X0.250000X-0.237500X0.250000X-0.237500X-0.250000X0*%
%ADD32RoundRect,0.100000X-0.637500X-0.100000X0.637500X-0.100000X0.637500X0.100000X-0.637500X0.100000X0*%
%ADD33FreePoly0,0.000000*%
%ADD34FreePoly1,0.000000*%
%ADD35FreePoly0,180.000000*%
%ADD36FreePoly1,180.000000*%
%ADD37RoundRect,0.237500X-0.237500X0.250000X-0.237500X-0.250000X0.237500X-0.250000X0.237500X0.250000X0*%
%ADD38RoundRect,0.237500X-0.237500X0.300000X-0.237500X-0.300000X0.237500X-0.300000X0.237500X0.300000X0*%
%ADD39RoundRect,0.237500X0.300000X0.237500X-0.300000X0.237500X-0.300000X-0.237500X0.300000X-0.237500X0*%
%ADD40RoundRect,0.237500X0.250000X0.237500X-0.250000X0.237500X-0.250000X-0.237500X0.250000X-0.237500X0*%
%ADD41C,0.600000*%
%ADD42O,1.104000X2.204000*%
%ADD43O,1.104000X1.904000*%
%ADD44R,0.550013X0.300000*%
%ADD45R,0.500000X0.859995*%
%ADD46RoundRect,0.150000X-0.512500X-0.150000X0.512500X-0.150000X0.512500X0.150000X-0.512500X0.150000X0*%
%ADD47RoundRect,0.237500X-0.300000X-0.237500X0.300000X-0.237500X0.300000X0.237500X-0.300000X0.237500X0*%
%ADD48RoundRect,0.102000X-1.075000X-0.475000X1.075000X-0.475000X1.075000X0.475000X-1.075000X0.475000X0*%
%ADD49RoundRect,0.102000X-1.075000X-1.625000X1.075000X-1.625000X1.075000X1.625000X-1.075000X1.625000X0*%
%ADD50R,0.600000X1.500000*%
%ADD51R,3.300000X2.100000*%
%ADD52RoundRect,0.237500X-0.250000X-0.237500X0.250000X-0.237500X0.250000X0.237500X-0.250000X0.237500X0*%
%ADD53RoundRect,0.250000X-0.625000X0.350000X-0.625000X-0.350000X0.625000X-0.350000X0.625000X0.350000X0*%
%ADD54O,1.750000X1.200000*%
%ADD55RoundRect,0.150000X-0.825000X-0.150000X0.825000X-0.150000X0.825000X0.150000X-0.825000X0.150000X0*%
%ADD56RoundRect,0.250000X-0.400000X-0.625000X0.400000X-0.625000X0.400000X0.625000X-0.400000X0.625000X0*%
%ADD57R,1.000000X1.200000*%
%ADD58RoundRect,0.098000X-0.609000X-0.294000X0.609000X-0.294000X0.609000X0.294000X-0.609000X0.294000X0*%
%ADD59RoundRect,0.249999X-0.450001X-1.425001X0.450001X-1.425001X0.450001X1.425001X-0.450001X1.425001X0*%
%ADD60RoundRect,0.237500X0.237500X-0.287500X0.237500X0.287500X-0.237500X0.287500X-0.237500X-0.287500X0*%
%ADD61R,1.500000X1.000000*%
%ADD62RoundRect,0.237500X-0.287500X-0.237500X0.287500X-0.237500X0.287500X0.237500X-0.287500X0.237500X0*%
G04 APERTURE END LIST*
D10*
X99064360Y-74702419D02*
X99254836Y-74702419D01*
X99254836Y-74702419D02*
X99350074Y-74750038D01*
X99350074Y-74750038D02*
X99445312Y-74845276D01*
X99445312Y-74845276D02*
X99492931Y-75035752D01*
X99492931Y-75035752D02*
X99492931Y-75369085D01*
X99492931Y-75369085D02*
X99445312Y-75559561D01*
X99445312Y-75559561D02*
X99350074Y-75654800D01*
X99350074Y-75654800D02*
X99254836Y-75702419D01*
X99254836Y-75702419D02*
X99064360Y-75702419D01*
X99064360Y-75702419D02*
X98969122Y-75654800D01*
X98969122Y-75654800D02*
X98873884Y-75559561D01*
X98873884Y-75559561D02*
X98826265Y-75369085D01*
X98826265Y-75369085D02*
X98826265Y-75035752D01*
X98826265Y-75035752D02*
X98873884Y-74845276D01*
X98873884Y-74845276D02*
X98969122Y-74750038D01*
X98969122Y-74750038D02*
X99064360Y-74702419D01*
X100254836Y-75178609D02*
X99921503Y-75178609D01*
X99921503Y-75702419D02*
X99921503Y-74702419D01*
X99921503Y-74702419D02*
X100397693Y-74702419D01*
X101111979Y-75178609D02*
X100778646Y-75178609D01*
X100778646Y-75702419D02*
X100778646Y-74702419D01*
X100778646Y-74702419D02*
X101254836Y-74702419D01*
X105614360Y-74592419D02*
X105804836Y-74592419D01*
X105804836Y-74592419D02*
X105900074Y-74640038D01*
X105900074Y-74640038D02*
X105995312Y-74735276D01*
X105995312Y-74735276D02*
X106042931Y-74925752D01*
X106042931Y-74925752D02*
X106042931Y-75259085D01*
X106042931Y-75259085D02*
X105995312Y-75449561D01*
X105995312Y-75449561D02*
X105900074Y-75544800D01*
X105900074Y-75544800D02*
X105804836Y-75592419D01*
X105804836Y-75592419D02*
X105614360Y-75592419D01*
X105614360Y-75592419D02*
X105519122Y-75544800D01*
X105519122Y-75544800D02*
X105423884Y-75449561D01*
X105423884Y-75449561D02*
X105376265Y-75259085D01*
X105376265Y-75259085D02*
X105376265Y-74925752D01*
X105376265Y-74925752D02*
X105423884Y-74735276D01*
X105423884Y-74735276D02*
X105519122Y-74640038D01*
X105519122Y-74640038D02*
X105614360Y-74592419D01*
X106471503Y-75592419D02*
X106471503Y-74592419D01*
X106471503Y-74592419D02*
X107042931Y-75592419D01*
X107042931Y-75592419D02*
X107042931Y-74592419D01*
X165945312Y-87699942D02*
X165869122Y-87671371D01*
X165869122Y-87671371D02*
X165754836Y-87671371D01*
X165754836Y-87671371D02*
X165640550Y-87699942D01*
X165640550Y-87699942D02*
X165564360Y-87757085D01*
X165564360Y-87757085D02*
X165526265Y-87814228D01*
X165526265Y-87814228D02*
X165488169Y-87928514D01*
X165488169Y-87928514D02*
X165488169Y-88014228D01*
X165488169Y-88014228D02*
X165526265Y-88128514D01*
X165526265Y-88128514D02*
X165564360Y-88185657D01*
X165564360Y-88185657D02*
X165640550Y-88242800D01*
X165640550Y-88242800D02*
X165754836Y-88271371D01*
X165754836Y-88271371D02*
X165831027Y-88271371D01*
X165831027Y-88271371D02*
X165945312Y-88242800D01*
X165945312Y-88242800D02*
X165983408Y-88214228D01*
X165983408Y-88214228D02*
X165983408Y-88014228D01*
X165983408Y-88014228D02*
X165831027Y-88014228D01*
X166326265Y-88271371D02*
X166326265Y-87671371D01*
X166326265Y-87671371D02*
X166783408Y-88271371D01*
X166783408Y-88271371D02*
X166783408Y-87671371D01*
X167164360Y-88271371D02*
X167164360Y-87671371D01*
X167164360Y-87671371D02*
X167354836Y-87671371D01*
X167354836Y-87671371D02*
X167469122Y-87699942D01*
X167469122Y-87699942D02*
X167545312Y-87757085D01*
X167545312Y-87757085D02*
X167583407Y-87814228D01*
X167583407Y-87814228D02*
X167621503Y-87928514D01*
X167621503Y-87928514D02*
X167621503Y-88014228D01*
X167621503Y-88014228D02*
X167583407Y-88128514D01*
X167583407Y-88128514D02*
X167545312Y-88185657D01*
X167545312Y-88185657D02*
X167469122Y-88242800D01*
X167469122Y-88242800D02*
X167354836Y-88271371D01*
X167354836Y-88271371D02*
X167164360Y-88271371D01*
X96502931Y-116817085D02*
X96617217Y-116845657D01*
X96617217Y-116845657D02*
X96655312Y-116874228D01*
X96655312Y-116874228D02*
X96693408Y-116931371D01*
X96693408Y-116931371D02*
X96693408Y-117017085D01*
X96693408Y-117017085D02*
X96655312Y-117074228D01*
X96655312Y-117074228D02*
X96617217Y-117102800D01*
X96617217Y-117102800D02*
X96541027Y-117131371D01*
X96541027Y-117131371D02*
X96236265Y-117131371D01*
X96236265Y-117131371D02*
X96236265Y-116531371D01*
X96236265Y-116531371D02*
X96502931Y-116531371D01*
X96502931Y-116531371D02*
X96579122Y-116559942D01*
X96579122Y-116559942D02*
X96617217Y-116588514D01*
X96617217Y-116588514D02*
X96655312Y-116645657D01*
X96655312Y-116645657D02*
X96655312Y-116702800D01*
X96655312Y-116702800D02*
X96617217Y-116759942D01*
X96617217Y-116759942D02*
X96579122Y-116788514D01*
X96579122Y-116788514D02*
X96502931Y-116817085D01*
X96502931Y-116817085D02*
X96236265Y-116817085D01*
X97379122Y-117131371D02*
X97379122Y-116817085D01*
X97379122Y-116817085D02*
X97341027Y-116759942D01*
X97341027Y-116759942D02*
X97264836Y-116731371D01*
X97264836Y-116731371D02*
X97112455Y-116731371D01*
X97112455Y-116731371D02*
X97036265Y-116759942D01*
X97379122Y-117102800D02*
X97302931Y-117131371D01*
X97302931Y-117131371D02*
X97112455Y-117131371D01*
X97112455Y-117131371D02*
X97036265Y-117102800D01*
X97036265Y-117102800D02*
X96998169Y-117045657D01*
X96998169Y-117045657D02*
X96998169Y-116988514D01*
X96998169Y-116988514D02*
X97036265Y-116931371D01*
X97036265Y-116931371D02*
X97112455Y-116902800D01*
X97112455Y-116902800D02*
X97302931Y-116902800D01*
X97302931Y-116902800D02*
X97379122Y-116874228D01*
X97645789Y-116731371D02*
X97950551Y-116731371D01*
X97760075Y-116531371D02*
X97760075Y-117045657D01*
X97760075Y-117045657D02*
X97798170Y-117102800D01*
X97798170Y-117102800D02*
X97874360Y-117131371D01*
X97874360Y-117131371D02*
X97950551Y-117131371D01*
X98102932Y-116731371D02*
X98407694Y-116731371D01*
X98217218Y-116531371D02*
X98217218Y-117045657D01*
X98217218Y-117045657D02*
X98255313Y-117102800D01*
X98255313Y-117102800D02*
X98331503Y-117131371D01*
X98331503Y-117131371D02*
X98407694Y-117131371D01*
X98979123Y-117102800D02*
X98902932Y-117131371D01*
X98902932Y-117131371D02*
X98750551Y-117131371D01*
X98750551Y-117131371D02*
X98674361Y-117102800D01*
X98674361Y-117102800D02*
X98636265Y-117045657D01*
X98636265Y-117045657D02*
X98636265Y-116817085D01*
X98636265Y-116817085D02*
X98674361Y-116759942D01*
X98674361Y-116759942D02*
X98750551Y-116731371D01*
X98750551Y-116731371D02*
X98902932Y-116731371D01*
X98902932Y-116731371D02*
X98979123Y-116759942D01*
X98979123Y-116759942D02*
X99017218Y-116817085D01*
X99017218Y-116817085D02*
X99017218Y-116874228D01*
X99017218Y-116874228D02*
X98636265Y-116931371D01*
X99360075Y-117131371D02*
X99360075Y-116731371D01*
X99360075Y-116845657D02*
X99398170Y-116788514D01*
X99398170Y-116788514D02*
X99436265Y-116759942D01*
X99436265Y-116759942D02*
X99512456Y-116731371D01*
X99512456Y-116731371D02*
X99588646Y-116731371D01*
X99779122Y-116731371D02*
X99969598Y-117131371D01*
X100160075Y-116731371D02*
X99969598Y-117131371D01*
X99969598Y-117131371D02*
X99893408Y-117274228D01*
X99893408Y-117274228D02*
X99855313Y-117302800D01*
X99855313Y-117302800D02*
X99779122Y-117331371D01*
X165480074Y-106521371D02*
X165975312Y-106521371D01*
X165975312Y-106521371D02*
X165708646Y-106749942D01*
X165708646Y-106749942D02*
X165822931Y-106749942D01*
X165822931Y-106749942D02*
X165899122Y-106778514D01*
X165899122Y-106778514D02*
X165937217Y-106807085D01*
X165937217Y-106807085D02*
X165975312Y-106864228D01*
X165975312Y-106864228D02*
X165975312Y-107007085D01*
X165975312Y-107007085D02*
X165937217Y-107064228D01*
X165937217Y-107064228D02*
X165899122Y-107092800D01*
X165899122Y-107092800D02*
X165822931Y-107121371D01*
X165822931Y-107121371D02*
X165594360Y-107121371D01*
X165594360Y-107121371D02*
X165518169Y-107092800D01*
X165518169Y-107092800D02*
X165480074Y-107064228D01*
X166318170Y-107064228D02*
X166356265Y-107092800D01*
X166356265Y-107092800D02*
X166318170Y-107121371D01*
X166318170Y-107121371D02*
X166280074Y-107092800D01*
X166280074Y-107092800D02*
X166318170Y-107064228D01*
X166318170Y-107064228D02*
X166318170Y-107121371D01*
X166622931Y-106521371D02*
X167118169Y-106521371D01*
X167118169Y-106521371D02*
X166851503Y-106749942D01*
X166851503Y-106749942D02*
X166965788Y-106749942D01*
X166965788Y-106749942D02*
X167041979Y-106778514D01*
X167041979Y-106778514D02*
X167080074Y-106807085D01*
X167080074Y-106807085D02*
X167118169Y-106864228D01*
X167118169Y-106864228D02*
X167118169Y-107007085D01*
X167118169Y-107007085D02*
X167080074Y-107064228D01*
X167080074Y-107064228D02*
X167041979Y-107092800D01*
X167041979Y-107092800D02*
X166965788Y-107121371D01*
X166965788Y-107121371D02*
X166737217Y-107121371D01*
X166737217Y-107121371D02*
X166661026Y-107092800D01*
X166661026Y-107092800D02*
X166622931Y-107064228D01*
X167346741Y-106521371D02*
X167613408Y-107121371D01*
X167613408Y-107121371D02*
X167880074Y-106521371D01*
X109659122Y-125109133D02*
X109259122Y-125109133D01*
X109459122Y-125109133D02*
X109459122Y-124409133D01*
X109459122Y-124409133D02*
X109392455Y-124509133D01*
X109392455Y-124509133D02*
X109325789Y-124575800D01*
X109325789Y-124575800D02*
X109259122Y-124609133D01*
X96717217Y-103331371D02*
X96336265Y-103331371D01*
X96336265Y-103331371D02*
X96298169Y-103617085D01*
X96298169Y-103617085D02*
X96336265Y-103588514D01*
X96336265Y-103588514D02*
X96412455Y-103559942D01*
X96412455Y-103559942D02*
X96602931Y-103559942D01*
X96602931Y-103559942D02*
X96679122Y-103588514D01*
X96679122Y-103588514D02*
X96717217Y-103617085D01*
X96717217Y-103617085D02*
X96755312Y-103674228D01*
X96755312Y-103674228D02*
X96755312Y-103817085D01*
X96755312Y-103817085D02*
X96717217Y-103874228D01*
X96717217Y-103874228D02*
X96679122Y-103902800D01*
X96679122Y-103902800D02*
X96602931Y-103931371D01*
X96602931Y-103931371D02*
X96412455Y-103931371D01*
X96412455Y-103931371D02*
X96336265Y-103902800D01*
X96336265Y-103902800D02*
X96298169Y-103874228D01*
X96983884Y-103331371D02*
X97250551Y-103931371D01*
X97250551Y-103931371D02*
X97517217Y-103331371D01*
X98545789Y-103331371D02*
X98698170Y-103331371D01*
X98698170Y-103331371D02*
X98774360Y-103359942D01*
X98774360Y-103359942D02*
X98850551Y-103417085D01*
X98850551Y-103417085D02*
X98888646Y-103531371D01*
X98888646Y-103531371D02*
X98888646Y-103731371D01*
X98888646Y-103731371D02*
X98850551Y-103845657D01*
X98850551Y-103845657D02*
X98774360Y-103902800D01*
X98774360Y-103902800D02*
X98698170Y-103931371D01*
X98698170Y-103931371D02*
X98545789Y-103931371D01*
X98545789Y-103931371D02*
X98469598Y-103902800D01*
X98469598Y-103902800D02*
X98393408Y-103845657D01*
X98393408Y-103845657D02*
X98355312Y-103731371D01*
X98355312Y-103731371D02*
X98355312Y-103531371D01*
X98355312Y-103531371D02*
X98393408Y-103417085D01*
X98393408Y-103417085D02*
X98469598Y-103359942D01*
X98469598Y-103359942D02*
X98545789Y-103331371D01*
X99574360Y-103531371D02*
X99574360Y-103931371D01*
X99231503Y-103531371D02*
X99231503Y-103845657D01*
X99231503Y-103845657D02*
X99269598Y-103902800D01*
X99269598Y-103902800D02*
X99345788Y-103931371D01*
X99345788Y-103931371D02*
X99460074Y-103931371D01*
X99460074Y-103931371D02*
X99536265Y-103902800D01*
X99536265Y-103902800D02*
X99574360Y-103874228D01*
X99841027Y-103531371D02*
X100145789Y-103531371D01*
X99955313Y-103331371D02*
X99955313Y-103845657D01*
X99955313Y-103845657D02*
X99993408Y-103902800D01*
X99993408Y-103902800D02*
X100069598Y-103931371D01*
X100069598Y-103931371D02*
X100145789Y-103931371D01*
X166804360Y-92621371D02*
X166956741Y-92621371D01*
X166956741Y-92621371D02*
X167032931Y-92592800D01*
X167032931Y-92592800D02*
X167071027Y-92564228D01*
X167071027Y-92564228D02*
X167147217Y-92478514D01*
X167147217Y-92478514D02*
X167185312Y-92364228D01*
X167185312Y-92364228D02*
X167185312Y-92135657D01*
X167185312Y-92135657D02*
X167147217Y-92078514D01*
X167147217Y-92078514D02*
X167109122Y-92049942D01*
X167109122Y-92049942D02*
X167032931Y-92021371D01*
X167032931Y-92021371D02*
X166880550Y-92021371D01*
X166880550Y-92021371D02*
X166804360Y-92049942D01*
X166804360Y-92049942D02*
X166766265Y-92078514D01*
X166766265Y-92078514D02*
X166728169Y-92135657D01*
X166728169Y-92135657D02*
X166728169Y-92278514D01*
X166728169Y-92278514D02*
X166766265Y-92335657D01*
X166766265Y-92335657D02*
X166804360Y-92364228D01*
X166804360Y-92364228D02*
X166880550Y-92392800D01*
X166880550Y-92392800D02*
X167032931Y-92392800D01*
X167032931Y-92392800D02*
X167109122Y-92364228D01*
X167109122Y-92364228D02*
X167147217Y-92335657D01*
X167147217Y-92335657D02*
X167185312Y-92278514D01*
X167413884Y-92021371D02*
X167680551Y-92621371D01*
X167680551Y-92621371D02*
X167947217Y-92021371D01*
X166345312Y-95029942D02*
X166269122Y-95001371D01*
X166269122Y-95001371D02*
X166154836Y-95001371D01*
X166154836Y-95001371D02*
X166040550Y-95029942D01*
X166040550Y-95029942D02*
X165964360Y-95087085D01*
X165964360Y-95087085D02*
X165926265Y-95144228D01*
X165926265Y-95144228D02*
X165888169Y-95258514D01*
X165888169Y-95258514D02*
X165888169Y-95344228D01*
X165888169Y-95344228D02*
X165926265Y-95458514D01*
X165926265Y-95458514D02*
X165964360Y-95515657D01*
X165964360Y-95515657D02*
X166040550Y-95572800D01*
X166040550Y-95572800D02*
X166154836Y-95601371D01*
X166154836Y-95601371D02*
X166231027Y-95601371D01*
X166231027Y-95601371D02*
X166345312Y-95572800D01*
X166345312Y-95572800D02*
X166383408Y-95544228D01*
X166383408Y-95544228D02*
X166383408Y-95344228D01*
X166383408Y-95344228D02*
X166231027Y-95344228D01*
X166726265Y-95601371D02*
X166726265Y-95001371D01*
X166726265Y-95001371D02*
X167183408Y-95601371D01*
X167183408Y-95601371D02*
X167183408Y-95001371D01*
X167564360Y-95601371D02*
X167564360Y-95001371D01*
X167564360Y-95001371D02*
X167754836Y-95001371D01*
X167754836Y-95001371D02*
X167869122Y-95029942D01*
X167869122Y-95029942D02*
X167945312Y-95087085D01*
X167945312Y-95087085D02*
X167983407Y-95144228D01*
X167983407Y-95144228D02*
X168021503Y-95258514D01*
X168021503Y-95258514D02*
X168021503Y-95344228D01*
X168021503Y-95344228D02*
X167983407Y-95458514D01*
X167983407Y-95458514D02*
X167945312Y-95515657D01*
X167945312Y-95515657D02*
X167869122Y-95572800D01*
X167869122Y-95572800D02*
X167754836Y-95601371D01*
X167754836Y-95601371D02*
X167564360Y-95601371D01*
X165237217Y-84821371D02*
X164856265Y-84821371D01*
X164856265Y-84821371D02*
X164818169Y-85107085D01*
X164818169Y-85107085D02*
X164856265Y-85078514D01*
X164856265Y-85078514D02*
X164932455Y-85049942D01*
X164932455Y-85049942D02*
X165122931Y-85049942D01*
X165122931Y-85049942D02*
X165199122Y-85078514D01*
X165199122Y-85078514D02*
X165237217Y-85107085D01*
X165237217Y-85107085D02*
X165275312Y-85164228D01*
X165275312Y-85164228D02*
X165275312Y-85307085D01*
X165275312Y-85307085D02*
X165237217Y-85364228D01*
X165237217Y-85364228D02*
X165199122Y-85392800D01*
X165199122Y-85392800D02*
X165122931Y-85421371D01*
X165122931Y-85421371D02*
X164932455Y-85421371D01*
X164932455Y-85421371D02*
X164856265Y-85392800D01*
X164856265Y-85392800D02*
X164818169Y-85364228D01*
X165503884Y-84821371D02*
X165770551Y-85421371D01*
X165770551Y-85421371D02*
X166037217Y-84821371D01*
X167065789Y-84821371D02*
X167218170Y-84821371D01*
X167218170Y-84821371D02*
X167294360Y-84849942D01*
X167294360Y-84849942D02*
X167370551Y-84907085D01*
X167370551Y-84907085D02*
X167408646Y-85021371D01*
X167408646Y-85021371D02*
X167408646Y-85221371D01*
X167408646Y-85221371D02*
X167370551Y-85335657D01*
X167370551Y-85335657D02*
X167294360Y-85392800D01*
X167294360Y-85392800D02*
X167218170Y-85421371D01*
X167218170Y-85421371D02*
X167065789Y-85421371D01*
X167065789Y-85421371D02*
X166989598Y-85392800D01*
X166989598Y-85392800D02*
X166913408Y-85335657D01*
X166913408Y-85335657D02*
X166875312Y-85221371D01*
X166875312Y-85221371D02*
X166875312Y-85021371D01*
X166875312Y-85021371D02*
X166913408Y-84907085D01*
X166913408Y-84907085D02*
X166989598Y-84849942D01*
X166989598Y-84849942D02*
X167065789Y-84821371D01*
X168094360Y-85021371D02*
X168094360Y-85421371D01*
X167751503Y-85021371D02*
X167751503Y-85335657D01*
X167751503Y-85335657D02*
X167789598Y-85392800D01*
X167789598Y-85392800D02*
X167865788Y-85421371D01*
X167865788Y-85421371D02*
X167980074Y-85421371D01*
X167980074Y-85421371D02*
X168056265Y-85392800D01*
X168056265Y-85392800D02*
X168094360Y-85364228D01*
X168361027Y-85021371D02*
X168665789Y-85021371D01*
X168475313Y-84821371D02*
X168475313Y-85335657D01*
X168475313Y-85335657D02*
X168513408Y-85392800D01*
X168513408Y-85392800D02*
X168589598Y-85421371D01*
X168589598Y-85421371D02*
X168665789Y-85421371D01*
X165915312Y-102009942D02*
X165839122Y-101981371D01*
X165839122Y-101981371D02*
X165724836Y-101981371D01*
X165724836Y-101981371D02*
X165610550Y-102009942D01*
X165610550Y-102009942D02*
X165534360Y-102067085D01*
X165534360Y-102067085D02*
X165496265Y-102124228D01*
X165496265Y-102124228D02*
X165458169Y-102238514D01*
X165458169Y-102238514D02*
X165458169Y-102324228D01*
X165458169Y-102324228D02*
X165496265Y-102438514D01*
X165496265Y-102438514D02*
X165534360Y-102495657D01*
X165534360Y-102495657D02*
X165610550Y-102552800D01*
X165610550Y-102552800D02*
X165724836Y-102581371D01*
X165724836Y-102581371D02*
X165801027Y-102581371D01*
X165801027Y-102581371D02*
X165915312Y-102552800D01*
X165915312Y-102552800D02*
X165953408Y-102524228D01*
X165953408Y-102524228D02*
X165953408Y-102324228D01*
X165953408Y-102324228D02*
X165801027Y-102324228D01*
X166296265Y-102581371D02*
X166296265Y-101981371D01*
X166296265Y-101981371D02*
X166753408Y-102581371D01*
X166753408Y-102581371D02*
X166753408Y-101981371D01*
X167134360Y-102581371D02*
X167134360Y-101981371D01*
X167134360Y-101981371D02*
X167324836Y-101981371D01*
X167324836Y-101981371D02*
X167439122Y-102009942D01*
X167439122Y-102009942D02*
X167515312Y-102067085D01*
X167515312Y-102067085D02*
X167553407Y-102124228D01*
X167553407Y-102124228D02*
X167591503Y-102238514D01*
X167591503Y-102238514D02*
X167591503Y-102324228D01*
X167591503Y-102324228D02*
X167553407Y-102438514D01*
X167553407Y-102438514D02*
X167515312Y-102495657D01*
X167515312Y-102495657D02*
X167439122Y-102552800D01*
X167439122Y-102552800D02*
X167324836Y-102581371D01*
X167324836Y-102581371D02*
X167134360Y-102581371D01*
X165975312Y-109219942D02*
X165899122Y-109191371D01*
X165899122Y-109191371D02*
X165784836Y-109191371D01*
X165784836Y-109191371D02*
X165670550Y-109219942D01*
X165670550Y-109219942D02*
X165594360Y-109277085D01*
X165594360Y-109277085D02*
X165556265Y-109334228D01*
X165556265Y-109334228D02*
X165518169Y-109448514D01*
X165518169Y-109448514D02*
X165518169Y-109534228D01*
X165518169Y-109534228D02*
X165556265Y-109648514D01*
X165556265Y-109648514D02*
X165594360Y-109705657D01*
X165594360Y-109705657D02*
X165670550Y-109762800D01*
X165670550Y-109762800D02*
X165784836Y-109791371D01*
X165784836Y-109791371D02*
X165861027Y-109791371D01*
X165861027Y-109791371D02*
X165975312Y-109762800D01*
X165975312Y-109762800D02*
X166013408Y-109734228D01*
X166013408Y-109734228D02*
X166013408Y-109534228D01*
X166013408Y-109534228D02*
X165861027Y-109534228D01*
X166356265Y-109791371D02*
X166356265Y-109191371D01*
X166356265Y-109191371D02*
X166813408Y-109791371D01*
X166813408Y-109791371D02*
X166813408Y-109191371D01*
X167194360Y-109791371D02*
X167194360Y-109191371D01*
X167194360Y-109191371D02*
X167384836Y-109191371D01*
X167384836Y-109191371D02*
X167499122Y-109219942D01*
X167499122Y-109219942D02*
X167575312Y-109277085D01*
X167575312Y-109277085D02*
X167613407Y-109334228D01*
X167613407Y-109334228D02*
X167651503Y-109448514D01*
X167651503Y-109448514D02*
X167651503Y-109534228D01*
X167651503Y-109534228D02*
X167613407Y-109648514D01*
X167613407Y-109648514D02*
X167575312Y-109705657D01*
X167575312Y-109705657D02*
X167499122Y-109762800D01*
X167499122Y-109762800D02*
X167384836Y-109791371D01*
X167384836Y-109791371D02*
X167194360Y-109791371D01*
X97374360Y-110441371D02*
X97526741Y-110441371D01*
X97526741Y-110441371D02*
X97602931Y-110412800D01*
X97602931Y-110412800D02*
X97641027Y-110384228D01*
X97641027Y-110384228D02*
X97717217Y-110298514D01*
X97717217Y-110298514D02*
X97755312Y-110184228D01*
X97755312Y-110184228D02*
X97755312Y-109955657D01*
X97755312Y-109955657D02*
X97717217Y-109898514D01*
X97717217Y-109898514D02*
X97679122Y-109869942D01*
X97679122Y-109869942D02*
X97602931Y-109841371D01*
X97602931Y-109841371D02*
X97450550Y-109841371D01*
X97450550Y-109841371D02*
X97374360Y-109869942D01*
X97374360Y-109869942D02*
X97336265Y-109898514D01*
X97336265Y-109898514D02*
X97298169Y-109955657D01*
X97298169Y-109955657D02*
X97298169Y-110098514D01*
X97298169Y-110098514D02*
X97336265Y-110155657D01*
X97336265Y-110155657D02*
X97374360Y-110184228D01*
X97374360Y-110184228D02*
X97450550Y-110212800D01*
X97450550Y-110212800D02*
X97602931Y-110212800D01*
X97602931Y-110212800D02*
X97679122Y-110184228D01*
X97679122Y-110184228D02*
X97717217Y-110155657D01*
X97717217Y-110155657D02*
X97755312Y-110098514D01*
X97983884Y-109841371D02*
X98250551Y-110441371D01*
X98250551Y-110441371D02*
X98517217Y-109841371D01*
X96867217Y-90221371D02*
X96486265Y-90221371D01*
X96486265Y-90221371D02*
X96448169Y-90507085D01*
X96448169Y-90507085D02*
X96486265Y-90478514D01*
X96486265Y-90478514D02*
X96562455Y-90449942D01*
X96562455Y-90449942D02*
X96752931Y-90449942D01*
X96752931Y-90449942D02*
X96829122Y-90478514D01*
X96829122Y-90478514D02*
X96867217Y-90507085D01*
X96867217Y-90507085D02*
X96905312Y-90564228D01*
X96905312Y-90564228D02*
X96905312Y-90707085D01*
X96905312Y-90707085D02*
X96867217Y-90764228D01*
X96867217Y-90764228D02*
X96829122Y-90792800D01*
X96829122Y-90792800D02*
X96752931Y-90821371D01*
X96752931Y-90821371D02*
X96562455Y-90821371D01*
X96562455Y-90821371D02*
X96486265Y-90792800D01*
X96486265Y-90792800D02*
X96448169Y-90764228D01*
X97133884Y-90221371D02*
X97400551Y-90821371D01*
X97400551Y-90821371D02*
X97667217Y-90221371D01*
X98543408Y-90221371D02*
X98543408Y-90707085D01*
X98543408Y-90707085D02*
X98581503Y-90764228D01*
X98581503Y-90764228D02*
X98619598Y-90792800D01*
X98619598Y-90792800D02*
X98695789Y-90821371D01*
X98695789Y-90821371D02*
X98848170Y-90821371D01*
X98848170Y-90821371D02*
X98924360Y-90792800D01*
X98924360Y-90792800D02*
X98962455Y-90764228D01*
X98962455Y-90764228D02*
X99000551Y-90707085D01*
X99000551Y-90707085D02*
X99000551Y-90221371D01*
X99343407Y-90792800D02*
X99457693Y-90821371D01*
X99457693Y-90821371D02*
X99648169Y-90821371D01*
X99648169Y-90821371D02*
X99724360Y-90792800D01*
X99724360Y-90792800D02*
X99762455Y-90764228D01*
X99762455Y-90764228D02*
X99800550Y-90707085D01*
X99800550Y-90707085D02*
X99800550Y-90649942D01*
X99800550Y-90649942D02*
X99762455Y-90592800D01*
X99762455Y-90592800D02*
X99724360Y-90564228D01*
X99724360Y-90564228D02*
X99648169Y-90535657D01*
X99648169Y-90535657D02*
X99495788Y-90507085D01*
X99495788Y-90507085D02*
X99419598Y-90478514D01*
X99419598Y-90478514D02*
X99381503Y-90449942D01*
X99381503Y-90449942D02*
X99343407Y-90392800D01*
X99343407Y-90392800D02*
X99343407Y-90335657D01*
X99343407Y-90335657D02*
X99381503Y-90278514D01*
X99381503Y-90278514D02*
X99419598Y-90249942D01*
X99419598Y-90249942D02*
X99495788Y-90221371D01*
X99495788Y-90221371D02*
X99686265Y-90221371D01*
X99686265Y-90221371D02*
X99800550Y-90249942D01*
X100410074Y-90507085D02*
X100524360Y-90535657D01*
X100524360Y-90535657D02*
X100562455Y-90564228D01*
X100562455Y-90564228D02*
X100600551Y-90621371D01*
X100600551Y-90621371D02*
X100600551Y-90707085D01*
X100600551Y-90707085D02*
X100562455Y-90764228D01*
X100562455Y-90764228D02*
X100524360Y-90792800D01*
X100524360Y-90792800D02*
X100448170Y-90821371D01*
X100448170Y-90821371D02*
X100143408Y-90821371D01*
X100143408Y-90821371D02*
X100143408Y-90221371D01*
X100143408Y-90221371D02*
X100410074Y-90221371D01*
X100410074Y-90221371D02*
X100486265Y-90249942D01*
X100486265Y-90249942D02*
X100524360Y-90278514D01*
X100524360Y-90278514D02*
X100562455Y-90335657D01*
X100562455Y-90335657D02*
X100562455Y-90392800D01*
X100562455Y-90392800D02*
X100524360Y-90449942D01*
X100524360Y-90449942D02*
X100486265Y-90478514D01*
X100486265Y-90478514D02*
X100410074Y-90507085D01*
X100410074Y-90507085D02*
X100143408Y-90507085D01*
X152815789Y-120139133D02*
X153249122Y-120139133D01*
X153249122Y-120139133D02*
X153015789Y-120405800D01*
X153015789Y-120405800D02*
X153115789Y-120405800D01*
X153115789Y-120405800D02*
X153182455Y-120439133D01*
X153182455Y-120439133D02*
X153215789Y-120472466D01*
X153215789Y-120472466D02*
X153249122Y-120539133D01*
X153249122Y-120539133D02*
X153249122Y-120705800D01*
X153249122Y-120705800D02*
X153215789Y-120772466D01*
X153215789Y-120772466D02*
X153182455Y-120805800D01*
X153182455Y-120805800D02*
X153115789Y-120839133D01*
X153115789Y-120839133D02*
X152915789Y-120839133D01*
X152915789Y-120839133D02*
X152849122Y-120805800D01*
X152849122Y-120805800D02*
X152815789Y-120772466D01*
X153515789Y-120205800D02*
X153549122Y-120172466D01*
X153549122Y-120172466D02*
X153615789Y-120139133D01*
X153615789Y-120139133D02*
X153782456Y-120139133D01*
X153782456Y-120139133D02*
X153849122Y-120172466D01*
X153849122Y-120172466D02*
X153882456Y-120205800D01*
X153882456Y-120205800D02*
X153915789Y-120272466D01*
X153915789Y-120272466D02*
X153915789Y-120339133D01*
X153915789Y-120339133D02*
X153882456Y-120439133D01*
X153882456Y-120439133D02*
X153482456Y-120839133D01*
X153482456Y-120839133D02*
X153915789Y-120839133D01*
X159932455Y-116232466D02*
X160465789Y-116232466D01*
X160199122Y-116499133D02*
X160199122Y-115965800D01*
X109309122Y-120575800D02*
X109342455Y-120542466D01*
X109342455Y-120542466D02*
X109409122Y-120509133D01*
X109409122Y-120509133D02*
X109575789Y-120509133D01*
X109575789Y-120509133D02*
X109642455Y-120542466D01*
X109642455Y-120542466D02*
X109675789Y-120575800D01*
X109675789Y-120575800D02*
X109709122Y-120642466D01*
X109709122Y-120642466D02*
X109709122Y-120709133D01*
X109709122Y-120709133D02*
X109675789Y-120809133D01*
X109675789Y-120809133D02*
X109275789Y-121209133D01*
X109275789Y-121209133D02*
X109709122Y-121209133D01*
X162517217Y-102531371D02*
X162136265Y-102531371D01*
X162136265Y-102531371D02*
X162098169Y-102817085D01*
X162098169Y-102817085D02*
X162136265Y-102788514D01*
X162136265Y-102788514D02*
X162212455Y-102759942D01*
X162212455Y-102759942D02*
X162402931Y-102759942D01*
X162402931Y-102759942D02*
X162479122Y-102788514D01*
X162479122Y-102788514D02*
X162517217Y-102817085D01*
X162517217Y-102817085D02*
X162555312Y-102874228D01*
X162555312Y-102874228D02*
X162555312Y-103017085D01*
X162555312Y-103017085D02*
X162517217Y-103074228D01*
X162517217Y-103074228D02*
X162479122Y-103102800D01*
X162479122Y-103102800D02*
X162402931Y-103131371D01*
X162402931Y-103131371D02*
X162212455Y-103131371D01*
X162212455Y-103131371D02*
X162136265Y-103102800D01*
X162136265Y-103102800D02*
X162098169Y-103074228D01*
X162783884Y-102531371D02*
X163050551Y-103131371D01*
X163050551Y-103131371D02*
X163317217Y-102531371D01*
X164193408Y-102531371D02*
X164193408Y-103017085D01*
X164193408Y-103017085D02*
X164231503Y-103074228D01*
X164231503Y-103074228D02*
X164269598Y-103102800D01*
X164269598Y-103102800D02*
X164345789Y-103131371D01*
X164345789Y-103131371D02*
X164498170Y-103131371D01*
X164498170Y-103131371D02*
X164574360Y-103102800D01*
X164574360Y-103102800D02*
X164612455Y-103074228D01*
X164612455Y-103074228D02*
X164650551Y-103017085D01*
X164650551Y-103017085D02*
X164650551Y-102531371D01*
X164993407Y-103102800D02*
X165107693Y-103131371D01*
X165107693Y-103131371D02*
X165298169Y-103131371D01*
X165298169Y-103131371D02*
X165374360Y-103102800D01*
X165374360Y-103102800D02*
X165412455Y-103074228D01*
X165412455Y-103074228D02*
X165450550Y-103017085D01*
X165450550Y-103017085D02*
X165450550Y-102959942D01*
X165450550Y-102959942D02*
X165412455Y-102902800D01*
X165412455Y-102902800D02*
X165374360Y-102874228D01*
X165374360Y-102874228D02*
X165298169Y-102845657D01*
X165298169Y-102845657D02*
X165145788Y-102817085D01*
X165145788Y-102817085D02*
X165069598Y-102788514D01*
X165069598Y-102788514D02*
X165031503Y-102759942D01*
X165031503Y-102759942D02*
X164993407Y-102702800D01*
X164993407Y-102702800D02*
X164993407Y-102645657D01*
X164993407Y-102645657D02*
X165031503Y-102588514D01*
X165031503Y-102588514D02*
X165069598Y-102559942D01*
X165069598Y-102559942D02*
X165145788Y-102531371D01*
X165145788Y-102531371D02*
X165336265Y-102531371D01*
X165336265Y-102531371D02*
X165450550Y-102559942D01*
X166060074Y-102817085D02*
X166174360Y-102845657D01*
X166174360Y-102845657D02*
X166212455Y-102874228D01*
X166212455Y-102874228D02*
X166250551Y-102931371D01*
X166250551Y-102931371D02*
X166250551Y-103017085D01*
X166250551Y-103017085D02*
X166212455Y-103074228D01*
X166212455Y-103074228D02*
X166174360Y-103102800D01*
X166174360Y-103102800D02*
X166098170Y-103131371D01*
X166098170Y-103131371D02*
X165793408Y-103131371D01*
X165793408Y-103131371D02*
X165793408Y-102531371D01*
X165793408Y-102531371D02*
X166060074Y-102531371D01*
X166060074Y-102531371D02*
X166136265Y-102559942D01*
X166136265Y-102559942D02*
X166174360Y-102588514D01*
X166174360Y-102588514D02*
X166212455Y-102645657D01*
X166212455Y-102645657D02*
X166212455Y-102702800D01*
X166212455Y-102702800D02*
X166174360Y-102759942D01*
X166174360Y-102759942D02*
X166136265Y-102788514D01*
X166136265Y-102788514D02*
X166060074Y-102817085D01*
X166060074Y-102817085D02*
X165793408Y-102817085D01*
X160082455Y-119632466D02*
X160615789Y-119632466D01*
X96640074Y-96881371D02*
X97135312Y-96881371D01*
X97135312Y-96881371D02*
X96868646Y-97109942D01*
X96868646Y-97109942D02*
X96982931Y-97109942D01*
X96982931Y-97109942D02*
X97059122Y-97138514D01*
X97059122Y-97138514D02*
X97097217Y-97167085D01*
X97097217Y-97167085D02*
X97135312Y-97224228D01*
X97135312Y-97224228D02*
X97135312Y-97367085D01*
X97135312Y-97367085D02*
X97097217Y-97424228D01*
X97097217Y-97424228D02*
X97059122Y-97452800D01*
X97059122Y-97452800D02*
X96982931Y-97481371D01*
X96982931Y-97481371D02*
X96754360Y-97481371D01*
X96754360Y-97481371D02*
X96678169Y-97452800D01*
X96678169Y-97452800D02*
X96640074Y-97424228D01*
X97478170Y-97424228D02*
X97516265Y-97452800D01*
X97516265Y-97452800D02*
X97478170Y-97481371D01*
X97478170Y-97481371D02*
X97440074Y-97452800D01*
X97440074Y-97452800D02*
X97478170Y-97424228D01*
X97478170Y-97424228D02*
X97478170Y-97481371D01*
X97782931Y-96881371D02*
X98278169Y-96881371D01*
X98278169Y-96881371D02*
X98011503Y-97109942D01*
X98011503Y-97109942D02*
X98125788Y-97109942D01*
X98125788Y-97109942D02*
X98201979Y-97138514D01*
X98201979Y-97138514D02*
X98240074Y-97167085D01*
X98240074Y-97167085D02*
X98278169Y-97224228D01*
X98278169Y-97224228D02*
X98278169Y-97367085D01*
X98278169Y-97367085D02*
X98240074Y-97424228D01*
X98240074Y-97424228D02*
X98201979Y-97452800D01*
X98201979Y-97452800D02*
X98125788Y-97481371D01*
X98125788Y-97481371D02*
X97897217Y-97481371D01*
X97897217Y-97481371D02*
X97821026Y-97452800D01*
X97821026Y-97452800D02*
X97782931Y-97424228D01*
X98506741Y-96881371D02*
X98773408Y-97481371D01*
X98773408Y-97481371D02*
X99040074Y-96881371D01*
X127975312Y-92569942D02*
X127899122Y-92541371D01*
X127899122Y-92541371D02*
X127784836Y-92541371D01*
X127784836Y-92541371D02*
X127670550Y-92569942D01*
X127670550Y-92569942D02*
X127594360Y-92627085D01*
X127594360Y-92627085D02*
X127556265Y-92684228D01*
X127556265Y-92684228D02*
X127518169Y-92798514D01*
X127518169Y-92798514D02*
X127518169Y-92884228D01*
X127518169Y-92884228D02*
X127556265Y-92998514D01*
X127556265Y-92998514D02*
X127594360Y-93055657D01*
X127594360Y-93055657D02*
X127670550Y-93112800D01*
X127670550Y-93112800D02*
X127784836Y-93141371D01*
X127784836Y-93141371D02*
X127861027Y-93141371D01*
X127861027Y-93141371D02*
X127975312Y-93112800D01*
X127975312Y-93112800D02*
X128013408Y-93084228D01*
X128013408Y-93084228D02*
X128013408Y-92884228D01*
X128013408Y-92884228D02*
X127861027Y-92884228D01*
X128356265Y-93141371D02*
X128356265Y-92541371D01*
X128356265Y-92541371D02*
X128813408Y-93141371D01*
X128813408Y-93141371D02*
X128813408Y-92541371D01*
X129194360Y-93141371D02*
X129194360Y-92541371D01*
X129194360Y-92541371D02*
X129384836Y-92541371D01*
X129384836Y-92541371D02*
X129499122Y-92569942D01*
X129499122Y-92569942D02*
X129575312Y-92627085D01*
X129575312Y-92627085D02*
X129613407Y-92684228D01*
X129613407Y-92684228D02*
X129651503Y-92798514D01*
X129651503Y-92798514D02*
X129651503Y-92884228D01*
X129651503Y-92884228D02*
X129613407Y-92998514D01*
X129613407Y-92998514D02*
X129575312Y-93055657D01*
X129575312Y-93055657D02*
X129499122Y-93112800D01*
X129499122Y-93112800D02*
X129384836Y-93141371D01*
X129384836Y-93141371D02*
X129194360Y-93141371D01*
X152775789Y-124379133D02*
X153209122Y-124379133D01*
X153209122Y-124379133D02*
X152975789Y-124645800D01*
X152975789Y-124645800D02*
X153075789Y-124645800D01*
X153075789Y-124645800D02*
X153142455Y-124679133D01*
X153142455Y-124679133D02*
X153175789Y-124712466D01*
X153175789Y-124712466D02*
X153209122Y-124779133D01*
X153209122Y-124779133D02*
X153209122Y-124945800D01*
X153209122Y-124945800D02*
X153175789Y-125012466D01*
X153175789Y-125012466D02*
X153142455Y-125045800D01*
X153142455Y-125045800D02*
X153075789Y-125079133D01*
X153075789Y-125079133D02*
X152875789Y-125079133D01*
X152875789Y-125079133D02*
X152809122Y-125045800D01*
X152809122Y-125045800D02*
X152775789Y-125012466D01*
X153875789Y-125079133D02*
X153475789Y-125079133D01*
X153675789Y-125079133D02*
X153675789Y-124379133D01*
X153675789Y-124379133D02*
X153609122Y-124479133D01*
X153609122Y-124479133D02*
X153542456Y-124545800D01*
X153542456Y-124545800D02*
X153475789Y-124579133D01*
X128057217Y-89611371D02*
X127676265Y-89611371D01*
X127676265Y-89611371D02*
X127638169Y-89897085D01*
X127638169Y-89897085D02*
X127676265Y-89868514D01*
X127676265Y-89868514D02*
X127752455Y-89839942D01*
X127752455Y-89839942D02*
X127942931Y-89839942D01*
X127942931Y-89839942D02*
X128019122Y-89868514D01*
X128019122Y-89868514D02*
X128057217Y-89897085D01*
X128057217Y-89897085D02*
X128095312Y-89954228D01*
X128095312Y-89954228D02*
X128095312Y-90097085D01*
X128095312Y-90097085D02*
X128057217Y-90154228D01*
X128057217Y-90154228D02*
X128019122Y-90182800D01*
X128019122Y-90182800D02*
X127942931Y-90211371D01*
X127942931Y-90211371D02*
X127752455Y-90211371D01*
X127752455Y-90211371D02*
X127676265Y-90182800D01*
X127676265Y-90182800D02*
X127638169Y-90154228D01*
X128323884Y-89611371D02*
X128590551Y-90211371D01*
X128590551Y-90211371D02*
X128857217Y-89611371D01*
D11*
X107794819Y-78383333D02*
X108509104Y-78383333D01*
X108509104Y-78383333D02*
X108651961Y-78430952D01*
X108651961Y-78430952D02*
X108747200Y-78526190D01*
X108747200Y-78526190D02*
X108794819Y-78669047D01*
X108794819Y-78669047D02*
X108794819Y-78764285D01*
X108223390Y-77764285D02*
X108175771Y-77859523D01*
X108175771Y-77859523D02*
X108128152Y-77907142D01*
X108128152Y-77907142D02*
X108032914Y-77954761D01*
X108032914Y-77954761D02*
X107985295Y-77954761D01*
X107985295Y-77954761D02*
X107890057Y-77907142D01*
X107890057Y-77907142D02*
X107842438Y-77859523D01*
X107842438Y-77859523D02*
X107794819Y-77764285D01*
X107794819Y-77764285D02*
X107794819Y-77573809D01*
X107794819Y-77573809D02*
X107842438Y-77478571D01*
X107842438Y-77478571D02*
X107890057Y-77430952D01*
X107890057Y-77430952D02*
X107985295Y-77383333D01*
X107985295Y-77383333D02*
X108032914Y-77383333D01*
X108032914Y-77383333D02*
X108128152Y-77430952D01*
X108128152Y-77430952D02*
X108175771Y-77478571D01*
X108175771Y-77478571D02*
X108223390Y-77573809D01*
X108223390Y-77573809D02*
X108223390Y-77764285D01*
X108223390Y-77764285D02*
X108271009Y-77859523D01*
X108271009Y-77859523D02*
X108318628Y-77907142D01*
X108318628Y-77907142D02*
X108413866Y-77954761D01*
X108413866Y-77954761D02*
X108604342Y-77954761D01*
X108604342Y-77954761D02*
X108699580Y-77907142D01*
X108699580Y-77907142D02*
X108747200Y-77859523D01*
X108747200Y-77859523D02*
X108794819Y-77764285D01*
X108794819Y-77764285D02*
X108794819Y-77573809D01*
X108794819Y-77573809D02*
X108747200Y-77478571D01*
X108747200Y-77478571D02*
X108699580Y-77430952D01*
X108699580Y-77430952D02*
X108604342Y-77383333D01*
X108604342Y-77383333D02*
X108413866Y-77383333D01*
X108413866Y-77383333D02*
X108318628Y-77430952D01*
X108318628Y-77430952D02*
X108271009Y-77478571D01*
X108271009Y-77478571D02*
X108223390Y-77573809D01*
X169316666Y-104084819D02*
X169316666Y-104799104D01*
X169316666Y-104799104D02*
X169269047Y-104941961D01*
X169269047Y-104941961D02*
X169173809Y-105037200D01*
X169173809Y-105037200D02*
X169030952Y-105084819D01*
X169030952Y-105084819D02*
X168935714Y-105084819D01*
X169697619Y-104084819D02*
X170316666Y-104084819D01*
X170316666Y-104084819D02*
X169983333Y-104465771D01*
X169983333Y-104465771D02*
X170126190Y-104465771D01*
X170126190Y-104465771D02*
X170221428Y-104513390D01*
X170221428Y-104513390D02*
X170269047Y-104561009D01*
X170269047Y-104561009D02*
X170316666Y-104656247D01*
X170316666Y-104656247D02*
X170316666Y-104894342D01*
X170316666Y-104894342D02*
X170269047Y-104989580D01*
X170269047Y-104989580D02*
X170221428Y-105037200D01*
X170221428Y-105037200D02*
X170126190Y-105084819D01*
X170126190Y-105084819D02*
X169840476Y-105084819D01*
X169840476Y-105084819D02*
X169745238Y-105037200D01*
X169745238Y-105037200D02*
X169697619Y-104989580D01*
X156329580Y-83122857D02*
X156377200Y-83170476D01*
X156377200Y-83170476D02*
X156424819Y-83313333D01*
X156424819Y-83313333D02*
X156424819Y-83408571D01*
X156424819Y-83408571D02*
X156377200Y-83551428D01*
X156377200Y-83551428D02*
X156281961Y-83646666D01*
X156281961Y-83646666D02*
X156186723Y-83694285D01*
X156186723Y-83694285D02*
X155996247Y-83741904D01*
X155996247Y-83741904D02*
X155853390Y-83741904D01*
X155853390Y-83741904D02*
X155662914Y-83694285D01*
X155662914Y-83694285D02*
X155567676Y-83646666D01*
X155567676Y-83646666D02*
X155472438Y-83551428D01*
X155472438Y-83551428D02*
X155424819Y-83408571D01*
X155424819Y-83408571D02*
X155424819Y-83313333D01*
X155424819Y-83313333D02*
X155472438Y-83170476D01*
X155472438Y-83170476D02*
X155520057Y-83122857D01*
X156424819Y-82170476D02*
X156424819Y-82741904D01*
X156424819Y-82456190D02*
X155424819Y-82456190D01*
X155424819Y-82456190D02*
X155567676Y-82551428D01*
X155567676Y-82551428D02*
X155662914Y-82646666D01*
X155662914Y-82646666D02*
X155710533Y-82741904D01*
X155520057Y-81789523D02*
X155472438Y-81741904D01*
X155472438Y-81741904D02*
X155424819Y-81646666D01*
X155424819Y-81646666D02*
X155424819Y-81408571D01*
X155424819Y-81408571D02*
X155472438Y-81313333D01*
X155472438Y-81313333D02*
X155520057Y-81265714D01*
X155520057Y-81265714D02*
X155615295Y-81218095D01*
X155615295Y-81218095D02*
X155710533Y-81218095D01*
X155710533Y-81218095D02*
X155853390Y-81265714D01*
X155853390Y-81265714D02*
X156424819Y-81837142D01*
X156424819Y-81837142D02*
X156424819Y-81218095D01*
X157412080Y-107379166D02*
X157459700Y-107426785D01*
X157459700Y-107426785D02*
X157507319Y-107569642D01*
X157507319Y-107569642D02*
X157507319Y-107664880D01*
X157507319Y-107664880D02*
X157459700Y-107807737D01*
X157459700Y-107807737D02*
X157364461Y-107902975D01*
X157364461Y-107902975D02*
X157269223Y-107950594D01*
X157269223Y-107950594D02*
X157078747Y-107998213D01*
X157078747Y-107998213D02*
X156935890Y-107998213D01*
X156935890Y-107998213D02*
X156745414Y-107950594D01*
X156745414Y-107950594D02*
X156650176Y-107902975D01*
X156650176Y-107902975D02*
X156554938Y-107807737D01*
X156554938Y-107807737D02*
X156507319Y-107664880D01*
X156507319Y-107664880D02*
X156507319Y-107569642D01*
X156507319Y-107569642D02*
X156554938Y-107426785D01*
X156554938Y-107426785D02*
X156602557Y-107379166D01*
X156507319Y-106474404D02*
X156507319Y-106950594D01*
X156507319Y-106950594D02*
X156983509Y-106998213D01*
X156983509Y-106998213D02*
X156935890Y-106950594D01*
X156935890Y-106950594D02*
X156888271Y-106855356D01*
X156888271Y-106855356D02*
X156888271Y-106617261D01*
X156888271Y-106617261D02*
X156935890Y-106522023D01*
X156935890Y-106522023D02*
X156983509Y-106474404D01*
X156983509Y-106474404D02*
X157078747Y-106426785D01*
X157078747Y-106426785D02*
X157316842Y-106426785D01*
X157316842Y-106426785D02*
X157412080Y-106474404D01*
X157412080Y-106474404D02*
X157459700Y-106522023D01*
X157459700Y-106522023D02*
X157507319Y-106617261D01*
X157507319Y-106617261D02*
X157507319Y-106855356D01*
X157507319Y-106855356D02*
X157459700Y-106950594D01*
X157459700Y-106950594D02*
X157412080Y-106998213D01*
X113088095Y-96101032D02*
X113088095Y-96910555D01*
X113088095Y-96910555D02*
X113135714Y-97005793D01*
X113135714Y-97005793D02*
X113183333Y-97053413D01*
X113183333Y-97053413D02*
X113278571Y-97101032D01*
X113278571Y-97101032D02*
X113469047Y-97101032D01*
X113469047Y-97101032D02*
X113564285Y-97053413D01*
X113564285Y-97053413D02*
X113611904Y-97005793D01*
X113611904Y-97005793D02*
X113659523Y-96910555D01*
X113659523Y-96910555D02*
X113659523Y-96101032D01*
X114040476Y-96101032D02*
X114707142Y-96101032D01*
X114707142Y-96101032D02*
X114278571Y-97101032D01*
X140634819Y-111166666D02*
X140158628Y-111499999D01*
X140634819Y-111738094D02*
X139634819Y-111738094D01*
X139634819Y-111738094D02*
X139634819Y-111357142D01*
X139634819Y-111357142D02*
X139682438Y-111261904D01*
X139682438Y-111261904D02*
X139730057Y-111214285D01*
X139730057Y-111214285D02*
X139825295Y-111166666D01*
X139825295Y-111166666D02*
X139968152Y-111166666D01*
X139968152Y-111166666D02*
X140063390Y-111214285D01*
X140063390Y-111214285D02*
X140111009Y-111261904D01*
X140111009Y-111261904D02*
X140158628Y-111357142D01*
X140158628Y-111357142D02*
X140158628Y-111738094D01*
X139634819Y-110833332D02*
X139634819Y-110214285D01*
X139634819Y-110214285D02*
X140015771Y-110547618D01*
X140015771Y-110547618D02*
X140015771Y-110404761D01*
X140015771Y-110404761D02*
X140063390Y-110309523D01*
X140063390Y-110309523D02*
X140111009Y-110261904D01*
X140111009Y-110261904D02*
X140206247Y-110214285D01*
X140206247Y-110214285D02*
X140444342Y-110214285D01*
X140444342Y-110214285D02*
X140539580Y-110261904D01*
X140539580Y-110261904D02*
X140587200Y-110309523D01*
X140587200Y-110309523D02*
X140634819Y-110404761D01*
X140634819Y-110404761D02*
X140634819Y-110690475D01*
X140634819Y-110690475D02*
X140587200Y-110785713D01*
X140587200Y-110785713D02*
X140539580Y-110833332D01*
X96738095Y-91556819D02*
X97309523Y-91556819D01*
X97023809Y-92556819D02*
X97023809Y-91556819D01*
X97642857Y-92556819D02*
X97642857Y-91556819D01*
X97642857Y-91556819D02*
X98023809Y-91556819D01*
X98023809Y-91556819D02*
X98119047Y-91604438D01*
X98119047Y-91604438D02*
X98166666Y-91652057D01*
X98166666Y-91652057D02*
X98214285Y-91747295D01*
X98214285Y-91747295D02*
X98214285Y-91890152D01*
X98214285Y-91890152D02*
X98166666Y-91985390D01*
X98166666Y-91985390D02*
X98119047Y-92033009D01*
X98119047Y-92033009D02*
X98023809Y-92080628D01*
X98023809Y-92080628D02*
X97642857Y-92080628D01*
X98595238Y-91652057D02*
X98642857Y-91604438D01*
X98642857Y-91604438D02*
X98738095Y-91556819D01*
X98738095Y-91556819D02*
X98976190Y-91556819D01*
X98976190Y-91556819D02*
X99071428Y-91604438D01*
X99071428Y-91604438D02*
X99119047Y-91652057D01*
X99119047Y-91652057D02*
X99166666Y-91747295D01*
X99166666Y-91747295D02*
X99166666Y-91842533D01*
X99166666Y-91842533D02*
X99119047Y-91985390D01*
X99119047Y-91985390D02*
X98547619Y-92556819D01*
X98547619Y-92556819D02*
X99166666Y-92556819D01*
X118954819Y-83761904D02*
X119764342Y-83761904D01*
X119764342Y-83761904D02*
X119859580Y-83714285D01*
X119859580Y-83714285D02*
X119907200Y-83666666D01*
X119907200Y-83666666D02*
X119954819Y-83571428D01*
X119954819Y-83571428D02*
X119954819Y-83380952D01*
X119954819Y-83380952D02*
X119907200Y-83285714D01*
X119907200Y-83285714D02*
X119859580Y-83238095D01*
X119859580Y-83238095D02*
X119764342Y-83190476D01*
X119764342Y-83190476D02*
X118954819Y-83190476D01*
X118954819Y-82238095D02*
X118954819Y-82714285D01*
X118954819Y-82714285D02*
X119431009Y-82761904D01*
X119431009Y-82761904D02*
X119383390Y-82714285D01*
X119383390Y-82714285D02*
X119335771Y-82619047D01*
X119335771Y-82619047D02*
X119335771Y-82380952D01*
X119335771Y-82380952D02*
X119383390Y-82285714D01*
X119383390Y-82285714D02*
X119431009Y-82238095D01*
X119431009Y-82238095D02*
X119526247Y-82190476D01*
X119526247Y-82190476D02*
X119764342Y-82190476D01*
X119764342Y-82190476D02*
X119859580Y-82238095D01*
X119859580Y-82238095D02*
X119907200Y-82285714D01*
X119907200Y-82285714D02*
X119954819Y-82380952D01*
X119954819Y-82380952D02*
X119954819Y-82619047D01*
X119954819Y-82619047D02*
X119907200Y-82714285D01*
X119907200Y-82714285D02*
X119859580Y-82761904D01*
X96738095Y-85056819D02*
X97309523Y-85056819D01*
X97023809Y-86056819D02*
X97023809Y-85056819D01*
X97642857Y-86056819D02*
X97642857Y-85056819D01*
X97642857Y-85056819D02*
X98023809Y-85056819D01*
X98023809Y-85056819D02*
X98119047Y-85104438D01*
X98119047Y-85104438D02*
X98166666Y-85152057D01*
X98166666Y-85152057D02*
X98214285Y-85247295D01*
X98214285Y-85247295D02*
X98214285Y-85390152D01*
X98214285Y-85390152D02*
X98166666Y-85485390D01*
X98166666Y-85485390D02*
X98119047Y-85533009D01*
X98119047Y-85533009D02*
X98023809Y-85580628D01*
X98023809Y-85580628D02*
X97642857Y-85580628D01*
X98547619Y-85056819D02*
X99166666Y-85056819D01*
X99166666Y-85056819D02*
X98833333Y-85437771D01*
X98833333Y-85437771D02*
X98976190Y-85437771D01*
X98976190Y-85437771D02*
X99071428Y-85485390D01*
X99071428Y-85485390D02*
X99119047Y-85533009D01*
X99119047Y-85533009D02*
X99166666Y-85628247D01*
X99166666Y-85628247D02*
X99166666Y-85866342D01*
X99166666Y-85866342D02*
X99119047Y-85961580D01*
X99119047Y-85961580D02*
X99071428Y-86009200D01*
X99071428Y-86009200D02*
X98976190Y-86056819D01*
X98976190Y-86056819D02*
X98690476Y-86056819D01*
X98690476Y-86056819D02*
X98595238Y-86009200D01*
X98595238Y-86009200D02*
X98547619Y-85961580D01*
X131954819Y-116359523D02*
X132669104Y-116359523D01*
X132669104Y-116359523D02*
X132811961Y-116407142D01*
X132811961Y-116407142D02*
X132907200Y-116502380D01*
X132907200Y-116502380D02*
X132954819Y-116645237D01*
X132954819Y-116645237D02*
X132954819Y-116740475D01*
X132954819Y-115883332D02*
X131954819Y-115883332D01*
X131954819Y-115883332D02*
X131954819Y-115502380D01*
X131954819Y-115502380D02*
X132002438Y-115407142D01*
X132002438Y-115407142D02*
X132050057Y-115359523D01*
X132050057Y-115359523D02*
X132145295Y-115311904D01*
X132145295Y-115311904D02*
X132288152Y-115311904D01*
X132288152Y-115311904D02*
X132383390Y-115359523D01*
X132383390Y-115359523D02*
X132431009Y-115407142D01*
X132431009Y-115407142D02*
X132478628Y-115502380D01*
X132478628Y-115502380D02*
X132478628Y-115883332D01*
X132954819Y-114359523D02*
X132954819Y-114930951D01*
X132954819Y-114645237D02*
X131954819Y-114645237D01*
X131954819Y-114645237D02*
X132097676Y-114740475D01*
X132097676Y-114740475D02*
X132192914Y-114835713D01*
X132192914Y-114835713D02*
X132240533Y-114930951D01*
X131954819Y-113454761D02*
X131954819Y-113930951D01*
X131954819Y-113930951D02*
X132431009Y-113978570D01*
X132431009Y-113978570D02*
X132383390Y-113930951D01*
X132383390Y-113930951D02*
X132335771Y-113835713D01*
X132335771Y-113835713D02*
X132335771Y-113597618D01*
X132335771Y-113597618D02*
X132383390Y-113502380D01*
X132383390Y-113502380D02*
X132431009Y-113454761D01*
X132431009Y-113454761D02*
X132526247Y-113407142D01*
X132526247Y-113407142D02*
X132764342Y-113407142D01*
X132764342Y-113407142D02*
X132859580Y-113454761D01*
X132859580Y-113454761D02*
X132907200Y-113502380D01*
X132907200Y-113502380D02*
X132954819Y-113597618D01*
X132954819Y-113597618D02*
X132954819Y-113835713D01*
X132954819Y-113835713D02*
X132907200Y-113930951D01*
X132907200Y-113930951D02*
X132859580Y-113978570D01*
X158424819Y-73572857D02*
X157948628Y-73906190D01*
X158424819Y-74144285D02*
X157424819Y-74144285D01*
X157424819Y-74144285D02*
X157424819Y-73763333D01*
X157424819Y-73763333D02*
X157472438Y-73668095D01*
X157472438Y-73668095D02*
X157520057Y-73620476D01*
X157520057Y-73620476D02*
X157615295Y-73572857D01*
X157615295Y-73572857D02*
X157758152Y-73572857D01*
X157758152Y-73572857D02*
X157853390Y-73620476D01*
X157853390Y-73620476D02*
X157901009Y-73668095D01*
X157901009Y-73668095D02*
X157948628Y-73763333D01*
X157948628Y-73763333D02*
X157948628Y-74144285D01*
X158424819Y-72620476D02*
X158424819Y-73191904D01*
X158424819Y-72906190D02*
X157424819Y-72906190D01*
X157424819Y-72906190D02*
X157567676Y-73001428D01*
X157567676Y-73001428D02*
X157662914Y-73096666D01*
X157662914Y-73096666D02*
X157710533Y-73191904D01*
X157424819Y-71715714D02*
X157424819Y-72191904D01*
X157424819Y-72191904D02*
X157901009Y-72239523D01*
X157901009Y-72239523D02*
X157853390Y-72191904D01*
X157853390Y-72191904D02*
X157805771Y-72096666D01*
X157805771Y-72096666D02*
X157805771Y-71858571D01*
X157805771Y-71858571D02*
X157853390Y-71763333D01*
X157853390Y-71763333D02*
X157901009Y-71715714D01*
X157901009Y-71715714D02*
X157996247Y-71668095D01*
X157996247Y-71668095D02*
X158234342Y-71668095D01*
X158234342Y-71668095D02*
X158329580Y-71715714D01*
X158329580Y-71715714D02*
X158377200Y-71763333D01*
X158377200Y-71763333D02*
X158424819Y-71858571D01*
X158424819Y-71858571D02*
X158424819Y-72096666D01*
X158424819Y-72096666D02*
X158377200Y-72191904D01*
X158377200Y-72191904D02*
X158329580Y-72239523D01*
X96738095Y-104556819D02*
X97309523Y-104556819D01*
X97023809Y-105556819D02*
X97023809Y-104556819D01*
X97642857Y-105556819D02*
X97642857Y-104556819D01*
X97642857Y-104556819D02*
X98023809Y-104556819D01*
X98023809Y-104556819D02*
X98119047Y-104604438D01*
X98119047Y-104604438D02*
X98166666Y-104652057D01*
X98166666Y-104652057D02*
X98214285Y-104747295D01*
X98214285Y-104747295D02*
X98214285Y-104890152D01*
X98214285Y-104890152D02*
X98166666Y-104985390D01*
X98166666Y-104985390D02*
X98119047Y-105033009D01*
X98119047Y-105033009D02*
X98023809Y-105080628D01*
X98023809Y-105080628D02*
X97642857Y-105080628D01*
X99071428Y-104890152D02*
X99071428Y-105556819D01*
X98833333Y-104509200D02*
X98595238Y-105223485D01*
X98595238Y-105223485D02*
X99214285Y-105223485D01*
X110238095Y-103004819D02*
X110238095Y-103814342D01*
X110238095Y-103814342D02*
X110285714Y-103909580D01*
X110285714Y-103909580D02*
X110333333Y-103957200D01*
X110333333Y-103957200D02*
X110428571Y-104004819D01*
X110428571Y-104004819D02*
X110619047Y-104004819D01*
X110619047Y-104004819D02*
X110714285Y-103957200D01*
X110714285Y-103957200D02*
X110761904Y-103909580D01*
X110761904Y-103909580D02*
X110809523Y-103814342D01*
X110809523Y-103814342D02*
X110809523Y-103004819D01*
X111809523Y-104004819D02*
X111238095Y-104004819D01*
X111523809Y-104004819D02*
X111523809Y-103004819D01*
X111523809Y-103004819D02*
X111428571Y-103147676D01*
X111428571Y-103147676D02*
X111333333Y-103242914D01*
X111333333Y-103242914D02*
X111238095Y-103290533D01*
X128815476Y-102154819D02*
X128815476Y-102869104D01*
X128815476Y-102869104D02*
X128767857Y-103011961D01*
X128767857Y-103011961D02*
X128672619Y-103107200D01*
X128672619Y-103107200D02*
X128529762Y-103154819D01*
X128529762Y-103154819D02*
X128434524Y-103154819D01*
X129291667Y-103154819D02*
X129291667Y-102154819D01*
X129291667Y-102154819D02*
X129672619Y-102154819D01*
X129672619Y-102154819D02*
X129767857Y-102202438D01*
X129767857Y-102202438D02*
X129815476Y-102250057D01*
X129815476Y-102250057D02*
X129863095Y-102345295D01*
X129863095Y-102345295D02*
X129863095Y-102488152D01*
X129863095Y-102488152D02*
X129815476Y-102583390D01*
X129815476Y-102583390D02*
X129767857Y-102631009D01*
X129767857Y-102631009D02*
X129672619Y-102678628D01*
X129672619Y-102678628D02*
X129291667Y-102678628D01*
X130815476Y-103154819D02*
X130244048Y-103154819D01*
X130529762Y-103154819D02*
X130529762Y-102154819D01*
X130529762Y-102154819D02*
X130434524Y-102297676D01*
X130434524Y-102297676D02*
X130339286Y-102392914D01*
X130339286Y-102392914D02*
X130244048Y-102440533D01*
X131386905Y-102583390D02*
X131291667Y-102535771D01*
X131291667Y-102535771D02*
X131244048Y-102488152D01*
X131244048Y-102488152D02*
X131196429Y-102392914D01*
X131196429Y-102392914D02*
X131196429Y-102345295D01*
X131196429Y-102345295D02*
X131244048Y-102250057D01*
X131244048Y-102250057D02*
X131291667Y-102202438D01*
X131291667Y-102202438D02*
X131386905Y-102154819D01*
X131386905Y-102154819D02*
X131577381Y-102154819D01*
X131577381Y-102154819D02*
X131672619Y-102202438D01*
X131672619Y-102202438D02*
X131720238Y-102250057D01*
X131720238Y-102250057D02*
X131767857Y-102345295D01*
X131767857Y-102345295D02*
X131767857Y-102392914D01*
X131767857Y-102392914D02*
X131720238Y-102488152D01*
X131720238Y-102488152D02*
X131672619Y-102535771D01*
X131672619Y-102535771D02*
X131577381Y-102583390D01*
X131577381Y-102583390D02*
X131386905Y-102583390D01*
X131386905Y-102583390D02*
X131291667Y-102631009D01*
X131291667Y-102631009D02*
X131244048Y-102678628D01*
X131244048Y-102678628D02*
X131196429Y-102773866D01*
X131196429Y-102773866D02*
X131196429Y-102964342D01*
X131196429Y-102964342D02*
X131244048Y-103059580D01*
X131244048Y-103059580D02*
X131291667Y-103107200D01*
X131291667Y-103107200D02*
X131386905Y-103154819D01*
X131386905Y-103154819D02*
X131577381Y-103154819D01*
X131577381Y-103154819D02*
X131672619Y-103107200D01*
X131672619Y-103107200D02*
X131720238Y-103059580D01*
X131720238Y-103059580D02*
X131767857Y-102964342D01*
X131767857Y-102964342D02*
X131767857Y-102773866D01*
X131767857Y-102773866D02*
X131720238Y-102678628D01*
X131720238Y-102678628D02*
X131672619Y-102631009D01*
X131672619Y-102631009D02*
X131577381Y-102583390D01*
X113654166Y-99154819D02*
X113654166Y-99869104D01*
X113654166Y-99869104D02*
X113606547Y-100011961D01*
X113606547Y-100011961D02*
X113511309Y-100107200D01*
X113511309Y-100107200D02*
X113368452Y-100154819D01*
X113368452Y-100154819D02*
X113273214Y-100154819D01*
X114130357Y-100154819D02*
X114130357Y-99154819D01*
X114130357Y-99154819D02*
X114511309Y-99154819D01*
X114511309Y-99154819D02*
X114606547Y-99202438D01*
X114606547Y-99202438D02*
X114654166Y-99250057D01*
X114654166Y-99250057D02*
X114701785Y-99345295D01*
X114701785Y-99345295D02*
X114701785Y-99488152D01*
X114701785Y-99488152D02*
X114654166Y-99583390D01*
X114654166Y-99583390D02*
X114606547Y-99631009D01*
X114606547Y-99631009D02*
X114511309Y-99678628D01*
X114511309Y-99678628D02*
X114130357Y-99678628D01*
X115654166Y-100154819D02*
X115082738Y-100154819D01*
X115368452Y-100154819D02*
X115368452Y-99154819D01*
X115368452Y-99154819D02*
X115273214Y-99297676D01*
X115273214Y-99297676D02*
X115177976Y-99392914D01*
X115177976Y-99392914D02*
X115082738Y-99440533D01*
X118734819Y-92762857D02*
X118258628Y-93096190D01*
X118734819Y-93334285D02*
X117734819Y-93334285D01*
X117734819Y-93334285D02*
X117734819Y-92953333D01*
X117734819Y-92953333D02*
X117782438Y-92858095D01*
X117782438Y-92858095D02*
X117830057Y-92810476D01*
X117830057Y-92810476D02*
X117925295Y-92762857D01*
X117925295Y-92762857D02*
X118068152Y-92762857D01*
X118068152Y-92762857D02*
X118163390Y-92810476D01*
X118163390Y-92810476D02*
X118211009Y-92858095D01*
X118211009Y-92858095D02*
X118258628Y-92953333D01*
X118258628Y-92953333D02*
X118258628Y-93334285D01*
X118734819Y-91810476D02*
X118734819Y-92381904D01*
X118734819Y-92096190D02*
X117734819Y-92096190D01*
X117734819Y-92096190D02*
X117877676Y-92191428D01*
X117877676Y-92191428D02*
X117972914Y-92286666D01*
X117972914Y-92286666D02*
X118020533Y-92381904D01*
X117830057Y-91429523D02*
X117782438Y-91381904D01*
X117782438Y-91381904D02*
X117734819Y-91286666D01*
X117734819Y-91286666D02*
X117734819Y-91048571D01*
X117734819Y-91048571D02*
X117782438Y-90953333D01*
X117782438Y-90953333D02*
X117830057Y-90905714D01*
X117830057Y-90905714D02*
X117925295Y-90858095D01*
X117925295Y-90858095D02*
X118020533Y-90858095D01*
X118020533Y-90858095D02*
X118163390Y-90905714D01*
X118163390Y-90905714D02*
X118734819Y-91477142D01*
X118734819Y-91477142D02*
X118734819Y-90858095D01*
X145779580Y-90902857D02*
X145827200Y-90950476D01*
X145827200Y-90950476D02*
X145874819Y-91093333D01*
X145874819Y-91093333D02*
X145874819Y-91188571D01*
X145874819Y-91188571D02*
X145827200Y-91331428D01*
X145827200Y-91331428D02*
X145731961Y-91426666D01*
X145731961Y-91426666D02*
X145636723Y-91474285D01*
X145636723Y-91474285D02*
X145446247Y-91521904D01*
X145446247Y-91521904D02*
X145303390Y-91521904D01*
X145303390Y-91521904D02*
X145112914Y-91474285D01*
X145112914Y-91474285D02*
X145017676Y-91426666D01*
X145017676Y-91426666D02*
X144922438Y-91331428D01*
X144922438Y-91331428D02*
X144874819Y-91188571D01*
X144874819Y-91188571D02*
X144874819Y-91093333D01*
X144874819Y-91093333D02*
X144922438Y-90950476D01*
X144922438Y-90950476D02*
X144970057Y-90902857D01*
X145874819Y-89950476D02*
X145874819Y-90521904D01*
X145874819Y-90236190D02*
X144874819Y-90236190D01*
X144874819Y-90236190D02*
X145017676Y-90331428D01*
X145017676Y-90331428D02*
X145112914Y-90426666D01*
X145112914Y-90426666D02*
X145160533Y-90521904D01*
X144874819Y-89617142D02*
X144874819Y-88998095D01*
X144874819Y-88998095D02*
X145255771Y-89331428D01*
X145255771Y-89331428D02*
X145255771Y-89188571D01*
X145255771Y-89188571D02*
X145303390Y-89093333D01*
X145303390Y-89093333D02*
X145351009Y-89045714D01*
X145351009Y-89045714D02*
X145446247Y-88998095D01*
X145446247Y-88998095D02*
X145684342Y-88998095D01*
X145684342Y-88998095D02*
X145779580Y-89045714D01*
X145779580Y-89045714D02*
X145827200Y-89093333D01*
X145827200Y-89093333D02*
X145874819Y-89188571D01*
X145874819Y-89188571D02*
X145874819Y-89474285D01*
X145874819Y-89474285D02*
X145827200Y-89569523D01*
X145827200Y-89569523D02*
X145779580Y-89617142D01*
X133994642Y-103359580D02*
X133947023Y-103407200D01*
X133947023Y-103407200D02*
X133804166Y-103454819D01*
X133804166Y-103454819D02*
X133708928Y-103454819D01*
X133708928Y-103454819D02*
X133566071Y-103407200D01*
X133566071Y-103407200D02*
X133470833Y-103311961D01*
X133470833Y-103311961D02*
X133423214Y-103216723D01*
X133423214Y-103216723D02*
X133375595Y-103026247D01*
X133375595Y-103026247D02*
X133375595Y-102883390D01*
X133375595Y-102883390D02*
X133423214Y-102692914D01*
X133423214Y-102692914D02*
X133470833Y-102597676D01*
X133470833Y-102597676D02*
X133566071Y-102502438D01*
X133566071Y-102502438D02*
X133708928Y-102454819D01*
X133708928Y-102454819D02*
X133804166Y-102454819D01*
X133804166Y-102454819D02*
X133947023Y-102502438D01*
X133947023Y-102502438D02*
X133994642Y-102550057D01*
X134947023Y-103454819D02*
X134375595Y-103454819D01*
X134661309Y-103454819D02*
X134661309Y-102454819D01*
X134661309Y-102454819D02*
X134566071Y-102597676D01*
X134566071Y-102597676D02*
X134470833Y-102692914D01*
X134470833Y-102692914D02*
X134375595Y-102740533D01*
X135423214Y-103454819D02*
X135613690Y-103454819D01*
X135613690Y-103454819D02*
X135708928Y-103407200D01*
X135708928Y-103407200D02*
X135756547Y-103359580D01*
X135756547Y-103359580D02*
X135851785Y-103216723D01*
X135851785Y-103216723D02*
X135899404Y-103026247D01*
X135899404Y-103026247D02*
X135899404Y-102645295D01*
X135899404Y-102645295D02*
X135851785Y-102550057D01*
X135851785Y-102550057D02*
X135804166Y-102502438D01*
X135804166Y-102502438D02*
X135708928Y-102454819D01*
X135708928Y-102454819D02*
X135518452Y-102454819D01*
X135518452Y-102454819D02*
X135423214Y-102502438D01*
X135423214Y-102502438D02*
X135375595Y-102550057D01*
X135375595Y-102550057D02*
X135327976Y-102645295D01*
X135327976Y-102645295D02*
X135327976Y-102883390D01*
X135327976Y-102883390D02*
X135375595Y-102978628D01*
X135375595Y-102978628D02*
X135423214Y-103026247D01*
X135423214Y-103026247D02*
X135518452Y-103073866D01*
X135518452Y-103073866D02*
X135708928Y-103073866D01*
X135708928Y-103073866D02*
X135804166Y-103026247D01*
X135804166Y-103026247D02*
X135851785Y-102978628D01*
X135851785Y-102978628D02*
X135899404Y-102883390D01*
X128965476Y-106654819D02*
X128965476Y-107369104D01*
X128965476Y-107369104D02*
X128917857Y-107511961D01*
X128917857Y-107511961D02*
X128822619Y-107607200D01*
X128822619Y-107607200D02*
X128679762Y-107654819D01*
X128679762Y-107654819D02*
X128584524Y-107654819D01*
X129441667Y-107654819D02*
X129441667Y-106654819D01*
X129441667Y-106654819D02*
X129822619Y-106654819D01*
X129822619Y-106654819D02*
X129917857Y-106702438D01*
X129917857Y-106702438D02*
X129965476Y-106750057D01*
X129965476Y-106750057D02*
X130013095Y-106845295D01*
X130013095Y-106845295D02*
X130013095Y-106988152D01*
X130013095Y-106988152D02*
X129965476Y-107083390D01*
X129965476Y-107083390D02*
X129917857Y-107131009D01*
X129917857Y-107131009D02*
X129822619Y-107178628D01*
X129822619Y-107178628D02*
X129441667Y-107178628D01*
X130965476Y-107654819D02*
X130394048Y-107654819D01*
X130679762Y-107654819D02*
X130679762Y-106654819D01*
X130679762Y-106654819D02*
X130584524Y-106797676D01*
X130584524Y-106797676D02*
X130489286Y-106892914D01*
X130489286Y-106892914D02*
X130394048Y-106940533D01*
X131822619Y-106654819D02*
X131632143Y-106654819D01*
X131632143Y-106654819D02*
X131536905Y-106702438D01*
X131536905Y-106702438D02*
X131489286Y-106750057D01*
X131489286Y-106750057D02*
X131394048Y-106892914D01*
X131394048Y-106892914D02*
X131346429Y-107083390D01*
X131346429Y-107083390D02*
X131346429Y-107464342D01*
X131346429Y-107464342D02*
X131394048Y-107559580D01*
X131394048Y-107559580D02*
X131441667Y-107607200D01*
X131441667Y-107607200D02*
X131536905Y-107654819D01*
X131536905Y-107654819D02*
X131727381Y-107654819D01*
X131727381Y-107654819D02*
X131822619Y-107607200D01*
X131822619Y-107607200D02*
X131870238Y-107559580D01*
X131870238Y-107559580D02*
X131917857Y-107464342D01*
X131917857Y-107464342D02*
X131917857Y-107226247D01*
X131917857Y-107226247D02*
X131870238Y-107131009D01*
X131870238Y-107131009D02*
X131822619Y-107083390D01*
X131822619Y-107083390D02*
X131727381Y-107035771D01*
X131727381Y-107035771D02*
X131536905Y-107035771D01*
X131536905Y-107035771D02*
X131441667Y-107083390D01*
X131441667Y-107083390D02*
X131394048Y-107131009D01*
X131394048Y-107131009D02*
X131346429Y-107226247D01*
X139340476Y-86654819D02*
X139340476Y-87369104D01*
X139340476Y-87369104D02*
X139292857Y-87511961D01*
X139292857Y-87511961D02*
X139197619Y-87607200D01*
X139197619Y-87607200D02*
X139054762Y-87654819D01*
X139054762Y-87654819D02*
X138959524Y-87654819D01*
X139816667Y-87654819D02*
X139816667Y-86654819D01*
X139816667Y-86654819D02*
X140197619Y-86654819D01*
X140197619Y-86654819D02*
X140292857Y-86702438D01*
X140292857Y-86702438D02*
X140340476Y-86750057D01*
X140340476Y-86750057D02*
X140388095Y-86845295D01*
X140388095Y-86845295D02*
X140388095Y-86988152D01*
X140388095Y-86988152D02*
X140340476Y-87083390D01*
X140340476Y-87083390D02*
X140292857Y-87131009D01*
X140292857Y-87131009D02*
X140197619Y-87178628D01*
X140197619Y-87178628D02*
X139816667Y-87178628D01*
X141340476Y-87654819D02*
X140769048Y-87654819D01*
X141054762Y-87654819D02*
X141054762Y-86654819D01*
X141054762Y-86654819D02*
X140959524Y-86797676D01*
X140959524Y-86797676D02*
X140864286Y-86892914D01*
X140864286Y-86892914D02*
X140769048Y-86940533D01*
X141959524Y-86654819D02*
X142054762Y-86654819D01*
X142054762Y-86654819D02*
X142150000Y-86702438D01*
X142150000Y-86702438D02*
X142197619Y-86750057D01*
X142197619Y-86750057D02*
X142245238Y-86845295D01*
X142245238Y-86845295D02*
X142292857Y-87035771D01*
X142292857Y-87035771D02*
X142292857Y-87273866D01*
X142292857Y-87273866D02*
X142245238Y-87464342D01*
X142245238Y-87464342D02*
X142197619Y-87559580D01*
X142197619Y-87559580D02*
X142150000Y-87607200D01*
X142150000Y-87607200D02*
X142054762Y-87654819D01*
X142054762Y-87654819D02*
X141959524Y-87654819D01*
X141959524Y-87654819D02*
X141864286Y-87607200D01*
X141864286Y-87607200D02*
X141816667Y-87559580D01*
X141816667Y-87559580D02*
X141769048Y-87464342D01*
X141769048Y-87464342D02*
X141721429Y-87273866D01*
X141721429Y-87273866D02*
X141721429Y-87035771D01*
X141721429Y-87035771D02*
X141769048Y-86845295D01*
X141769048Y-86845295D02*
X141816667Y-86750057D01*
X141816667Y-86750057D02*
X141864286Y-86702438D01*
X141864286Y-86702438D02*
X141959524Y-86654819D01*
X169316666Y-82099819D02*
X169316666Y-82814104D01*
X169316666Y-82814104D02*
X169269047Y-82956961D01*
X169269047Y-82956961D02*
X169173809Y-83052200D01*
X169173809Y-83052200D02*
X169030952Y-83099819D01*
X169030952Y-83099819D02*
X168935714Y-83099819D01*
X170221428Y-82099819D02*
X170030952Y-82099819D01*
X170030952Y-82099819D02*
X169935714Y-82147438D01*
X169935714Y-82147438D02*
X169888095Y-82195057D01*
X169888095Y-82195057D02*
X169792857Y-82337914D01*
X169792857Y-82337914D02*
X169745238Y-82528390D01*
X169745238Y-82528390D02*
X169745238Y-82909342D01*
X169745238Y-82909342D02*
X169792857Y-83004580D01*
X169792857Y-83004580D02*
X169840476Y-83052200D01*
X169840476Y-83052200D02*
X169935714Y-83099819D01*
X169935714Y-83099819D02*
X170126190Y-83099819D01*
X170126190Y-83099819D02*
X170221428Y-83052200D01*
X170221428Y-83052200D02*
X170269047Y-83004580D01*
X170269047Y-83004580D02*
X170316666Y-82909342D01*
X170316666Y-82909342D02*
X170316666Y-82671247D01*
X170316666Y-82671247D02*
X170269047Y-82576009D01*
X170269047Y-82576009D02*
X170221428Y-82528390D01*
X170221428Y-82528390D02*
X170126190Y-82480771D01*
X170126190Y-82480771D02*
X169935714Y-82480771D01*
X169935714Y-82480771D02*
X169840476Y-82528390D01*
X169840476Y-82528390D02*
X169792857Y-82576009D01*
X169792857Y-82576009D02*
X169745238Y-82671247D01*
X150420833Y-104384819D02*
X150087500Y-103908628D01*
X149849405Y-104384819D02*
X149849405Y-103384819D01*
X149849405Y-103384819D02*
X150230357Y-103384819D01*
X150230357Y-103384819D02*
X150325595Y-103432438D01*
X150325595Y-103432438D02*
X150373214Y-103480057D01*
X150373214Y-103480057D02*
X150420833Y-103575295D01*
X150420833Y-103575295D02*
X150420833Y-103718152D01*
X150420833Y-103718152D02*
X150373214Y-103813390D01*
X150373214Y-103813390D02*
X150325595Y-103861009D01*
X150325595Y-103861009D02*
X150230357Y-103908628D01*
X150230357Y-103908628D02*
X149849405Y-103908628D01*
X150754167Y-103384819D02*
X151420833Y-103384819D01*
X151420833Y-103384819D02*
X150992262Y-104384819D01*
X147016666Y-114154819D02*
X147016666Y-114869104D01*
X147016666Y-114869104D02*
X146969047Y-115011961D01*
X146969047Y-115011961D02*
X146873809Y-115107200D01*
X146873809Y-115107200D02*
X146730952Y-115154819D01*
X146730952Y-115154819D02*
X146635714Y-115154819D01*
X147492857Y-115154819D02*
X147492857Y-114154819D01*
X147492857Y-114154819D02*
X147873809Y-114154819D01*
X147873809Y-114154819D02*
X147969047Y-114202438D01*
X147969047Y-114202438D02*
X148016666Y-114250057D01*
X148016666Y-114250057D02*
X148064285Y-114345295D01*
X148064285Y-114345295D02*
X148064285Y-114488152D01*
X148064285Y-114488152D02*
X148016666Y-114583390D01*
X148016666Y-114583390D02*
X147969047Y-114631009D01*
X147969047Y-114631009D02*
X147873809Y-114678628D01*
X147873809Y-114678628D02*
X147492857Y-114678628D01*
X148445238Y-114250057D02*
X148492857Y-114202438D01*
X148492857Y-114202438D02*
X148588095Y-114154819D01*
X148588095Y-114154819D02*
X148826190Y-114154819D01*
X148826190Y-114154819D02*
X148921428Y-114202438D01*
X148921428Y-114202438D02*
X148969047Y-114250057D01*
X148969047Y-114250057D02*
X149016666Y-114345295D01*
X149016666Y-114345295D02*
X149016666Y-114440533D01*
X149016666Y-114440533D02*
X148969047Y-114583390D01*
X148969047Y-114583390D02*
X148397619Y-115154819D01*
X148397619Y-115154819D02*
X149016666Y-115154819D01*
X134766666Y-77659819D02*
X134766666Y-78374104D01*
X134766666Y-78374104D02*
X134719047Y-78516961D01*
X134719047Y-78516961D02*
X134623809Y-78612200D01*
X134623809Y-78612200D02*
X134480952Y-78659819D01*
X134480952Y-78659819D02*
X134385714Y-78659819D01*
X135147619Y-77659819D02*
X135814285Y-77659819D01*
X135814285Y-77659819D02*
X135385714Y-78659819D01*
D10*
X136155980Y-106726120D02*
X136155980Y-107130882D01*
X136155980Y-107130882D02*
X136179790Y-107178501D01*
X136179790Y-107178501D02*
X136203599Y-107202311D01*
X136203599Y-107202311D02*
X136251218Y-107226120D01*
X136251218Y-107226120D02*
X136346456Y-107226120D01*
X136346456Y-107226120D02*
X136394075Y-107202311D01*
X136394075Y-107202311D02*
X136417885Y-107178501D01*
X136417885Y-107178501D02*
X136441694Y-107130882D01*
X136441694Y-107130882D02*
X136441694Y-106726120D01*
X136941695Y-107226120D02*
X136655981Y-107226120D01*
X136798838Y-107226120D02*
X136798838Y-106726120D01*
X136798838Y-106726120D02*
X136751219Y-106797549D01*
X136751219Y-106797549D02*
X136703600Y-106845168D01*
X136703600Y-106845168D02*
X136655981Y-106868977D01*
X137132171Y-106773739D02*
X137155980Y-106749930D01*
X137155980Y-106749930D02*
X137203599Y-106726120D01*
X137203599Y-106726120D02*
X137322647Y-106726120D01*
X137322647Y-106726120D02*
X137370266Y-106749930D01*
X137370266Y-106749930D02*
X137394075Y-106773739D01*
X137394075Y-106773739D02*
X137417885Y-106821358D01*
X137417885Y-106821358D02*
X137417885Y-106868977D01*
X137417885Y-106868977D02*
X137394075Y-106940406D01*
X137394075Y-106940406D02*
X137108361Y-107226120D01*
X137108361Y-107226120D02*
X137417885Y-107226120D01*
D11*
X169316666Y-96756519D02*
X169316666Y-97470804D01*
X169316666Y-97470804D02*
X169269047Y-97613661D01*
X169269047Y-97613661D02*
X169173809Y-97708900D01*
X169173809Y-97708900D02*
X169030952Y-97756519D01*
X169030952Y-97756519D02*
X168935714Y-97756519D01*
X170221428Y-97089852D02*
X170221428Y-97756519D01*
X169983333Y-96708900D02*
X169745238Y-97423185D01*
X169745238Y-97423185D02*
X170364285Y-97423185D01*
X159440476Y-84434819D02*
X159440476Y-85149104D01*
X159440476Y-85149104D02*
X159392857Y-85291961D01*
X159392857Y-85291961D02*
X159297619Y-85387200D01*
X159297619Y-85387200D02*
X159154762Y-85434819D01*
X159154762Y-85434819D02*
X159059524Y-85434819D01*
X159916667Y-85434819D02*
X159916667Y-84434819D01*
X159916667Y-84434819D02*
X160297619Y-84434819D01*
X160297619Y-84434819D02*
X160392857Y-84482438D01*
X160392857Y-84482438D02*
X160440476Y-84530057D01*
X160440476Y-84530057D02*
X160488095Y-84625295D01*
X160488095Y-84625295D02*
X160488095Y-84768152D01*
X160488095Y-84768152D02*
X160440476Y-84863390D01*
X160440476Y-84863390D02*
X160392857Y-84911009D01*
X160392857Y-84911009D02*
X160297619Y-84958628D01*
X160297619Y-84958628D02*
X159916667Y-84958628D01*
X161440476Y-85434819D02*
X160869048Y-85434819D01*
X161154762Y-85434819D02*
X161154762Y-84434819D01*
X161154762Y-84434819D02*
X161059524Y-84577676D01*
X161059524Y-84577676D02*
X160964286Y-84672914D01*
X160964286Y-84672914D02*
X160869048Y-84720533D01*
X161821429Y-84530057D02*
X161869048Y-84482438D01*
X161869048Y-84482438D02*
X161964286Y-84434819D01*
X161964286Y-84434819D02*
X162202381Y-84434819D01*
X162202381Y-84434819D02*
X162297619Y-84482438D01*
X162297619Y-84482438D02*
X162345238Y-84530057D01*
X162345238Y-84530057D02*
X162392857Y-84625295D01*
X162392857Y-84625295D02*
X162392857Y-84720533D01*
X162392857Y-84720533D02*
X162345238Y-84863390D01*
X162345238Y-84863390D02*
X161773810Y-85434819D01*
X161773810Y-85434819D02*
X162392857Y-85434819D01*
X146761905Y-76054819D02*
X146761905Y-76864342D01*
X146761905Y-76864342D02*
X146809524Y-76959580D01*
X146809524Y-76959580D02*
X146857143Y-77007200D01*
X146857143Y-77007200D02*
X146952381Y-77054819D01*
X146952381Y-77054819D02*
X147142857Y-77054819D01*
X147142857Y-77054819D02*
X147238095Y-77007200D01*
X147238095Y-77007200D02*
X147285714Y-76959580D01*
X147285714Y-76959580D02*
X147333333Y-76864342D01*
X147333333Y-76864342D02*
X147333333Y-76054819D01*
X148333333Y-77054819D02*
X147761905Y-77054819D01*
X148047619Y-77054819D02*
X148047619Y-76054819D01*
X148047619Y-76054819D02*
X147952381Y-76197676D01*
X147952381Y-76197676D02*
X147857143Y-76292914D01*
X147857143Y-76292914D02*
X147761905Y-76340533D01*
X148952381Y-76054819D02*
X149047619Y-76054819D01*
X149047619Y-76054819D02*
X149142857Y-76102438D01*
X149142857Y-76102438D02*
X149190476Y-76150057D01*
X149190476Y-76150057D02*
X149238095Y-76245295D01*
X149238095Y-76245295D02*
X149285714Y-76435771D01*
X149285714Y-76435771D02*
X149285714Y-76673866D01*
X149285714Y-76673866D02*
X149238095Y-76864342D01*
X149238095Y-76864342D02*
X149190476Y-76959580D01*
X149190476Y-76959580D02*
X149142857Y-77007200D01*
X149142857Y-77007200D02*
X149047619Y-77054819D01*
X149047619Y-77054819D02*
X148952381Y-77054819D01*
X148952381Y-77054819D02*
X148857143Y-77007200D01*
X148857143Y-77007200D02*
X148809524Y-76959580D01*
X148809524Y-76959580D02*
X148761905Y-76864342D01*
X148761905Y-76864342D02*
X148714286Y-76673866D01*
X148714286Y-76673866D02*
X148714286Y-76435771D01*
X148714286Y-76435771D02*
X148761905Y-76245295D01*
X148761905Y-76245295D02*
X148809524Y-76150057D01*
X148809524Y-76150057D02*
X148857143Y-76102438D01*
X148857143Y-76102438D02*
X148952381Y-76054819D01*
X105306666Y-92384819D02*
X105306666Y-93099104D01*
X105306666Y-93099104D02*
X105259047Y-93241961D01*
X105259047Y-93241961D02*
X105163809Y-93337200D01*
X105163809Y-93337200D02*
X105020952Y-93384819D01*
X105020952Y-93384819D02*
X104925714Y-93384819D01*
X105782857Y-93384819D02*
X105782857Y-92384819D01*
X105782857Y-92384819D02*
X106163809Y-92384819D01*
X106163809Y-92384819D02*
X106259047Y-92432438D01*
X106259047Y-92432438D02*
X106306666Y-92480057D01*
X106306666Y-92480057D02*
X106354285Y-92575295D01*
X106354285Y-92575295D02*
X106354285Y-92718152D01*
X106354285Y-92718152D02*
X106306666Y-92813390D01*
X106306666Y-92813390D02*
X106259047Y-92861009D01*
X106259047Y-92861009D02*
X106163809Y-92908628D01*
X106163809Y-92908628D02*
X105782857Y-92908628D01*
X106925714Y-92813390D02*
X106830476Y-92765771D01*
X106830476Y-92765771D02*
X106782857Y-92718152D01*
X106782857Y-92718152D02*
X106735238Y-92622914D01*
X106735238Y-92622914D02*
X106735238Y-92575295D01*
X106735238Y-92575295D02*
X106782857Y-92480057D01*
X106782857Y-92480057D02*
X106830476Y-92432438D01*
X106830476Y-92432438D02*
X106925714Y-92384819D01*
X106925714Y-92384819D02*
X107116190Y-92384819D01*
X107116190Y-92384819D02*
X107211428Y-92432438D01*
X107211428Y-92432438D02*
X107259047Y-92480057D01*
X107259047Y-92480057D02*
X107306666Y-92575295D01*
X107306666Y-92575295D02*
X107306666Y-92622914D01*
X107306666Y-92622914D02*
X107259047Y-92718152D01*
X107259047Y-92718152D02*
X107211428Y-92765771D01*
X107211428Y-92765771D02*
X107116190Y-92813390D01*
X107116190Y-92813390D02*
X106925714Y-92813390D01*
X106925714Y-92813390D02*
X106830476Y-92861009D01*
X106830476Y-92861009D02*
X106782857Y-92908628D01*
X106782857Y-92908628D02*
X106735238Y-93003866D01*
X106735238Y-93003866D02*
X106735238Y-93194342D01*
X106735238Y-93194342D02*
X106782857Y-93289580D01*
X106782857Y-93289580D02*
X106830476Y-93337200D01*
X106830476Y-93337200D02*
X106925714Y-93384819D01*
X106925714Y-93384819D02*
X107116190Y-93384819D01*
X107116190Y-93384819D02*
X107211428Y-93337200D01*
X107211428Y-93337200D02*
X107259047Y-93289580D01*
X107259047Y-93289580D02*
X107306666Y-93194342D01*
X107306666Y-93194342D02*
X107306666Y-93003866D01*
X107306666Y-93003866D02*
X107259047Y-92908628D01*
X107259047Y-92908628D02*
X107211428Y-92861009D01*
X107211428Y-92861009D02*
X107116190Y-92813390D01*
X153359580Y-79642857D02*
X153407200Y-79690476D01*
X153407200Y-79690476D02*
X153454819Y-79833333D01*
X153454819Y-79833333D02*
X153454819Y-79928571D01*
X153454819Y-79928571D02*
X153407200Y-80071428D01*
X153407200Y-80071428D02*
X153311961Y-80166666D01*
X153311961Y-80166666D02*
X153216723Y-80214285D01*
X153216723Y-80214285D02*
X153026247Y-80261904D01*
X153026247Y-80261904D02*
X152883390Y-80261904D01*
X152883390Y-80261904D02*
X152692914Y-80214285D01*
X152692914Y-80214285D02*
X152597676Y-80166666D01*
X152597676Y-80166666D02*
X152502438Y-80071428D01*
X152502438Y-80071428D02*
X152454819Y-79928571D01*
X152454819Y-79928571D02*
X152454819Y-79833333D01*
X152454819Y-79833333D02*
X152502438Y-79690476D01*
X152502438Y-79690476D02*
X152550057Y-79642857D01*
X153454819Y-78690476D02*
X153454819Y-79261904D01*
X153454819Y-78976190D02*
X152454819Y-78976190D01*
X152454819Y-78976190D02*
X152597676Y-79071428D01*
X152597676Y-79071428D02*
X152692914Y-79166666D01*
X152692914Y-79166666D02*
X152740533Y-79261904D01*
X152454819Y-78357142D02*
X152454819Y-77690476D01*
X152454819Y-77690476D02*
X153454819Y-78119047D01*
X133494642Y-110859580D02*
X133447023Y-110907200D01*
X133447023Y-110907200D02*
X133304166Y-110954819D01*
X133304166Y-110954819D02*
X133208928Y-110954819D01*
X133208928Y-110954819D02*
X133066071Y-110907200D01*
X133066071Y-110907200D02*
X132970833Y-110811961D01*
X132970833Y-110811961D02*
X132923214Y-110716723D01*
X132923214Y-110716723D02*
X132875595Y-110526247D01*
X132875595Y-110526247D02*
X132875595Y-110383390D01*
X132875595Y-110383390D02*
X132923214Y-110192914D01*
X132923214Y-110192914D02*
X132970833Y-110097676D01*
X132970833Y-110097676D02*
X133066071Y-110002438D01*
X133066071Y-110002438D02*
X133208928Y-109954819D01*
X133208928Y-109954819D02*
X133304166Y-109954819D01*
X133304166Y-109954819D02*
X133447023Y-110002438D01*
X133447023Y-110002438D02*
X133494642Y-110050057D01*
X133875595Y-110050057D02*
X133923214Y-110002438D01*
X133923214Y-110002438D02*
X134018452Y-109954819D01*
X134018452Y-109954819D02*
X134256547Y-109954819D01*
X134256547Y-109954819D02*
X134351785Y-110002438D01*
X134351785Y-110002438D02*
X134399404Y-110050057D01*
X134399404Y-110050057D02*
X134447023Y-110145295D01*
X134447023Y-110145295D02*
X134447023Y-110240533D01*
X134447023Y-110240533D02*
X134399404Y-110383390D01*
X134399404Y-110383390D02*
X133827976Y-110954819D01*
X133827976Y-110954819D02*
X134447023Y-110954819D01*
X135399404Y-110954819D02*
X134827976Y-110954819D01*
X135113690Y-110954819D02*
X135113690Y-109954819D01*
X135113690Y-109954819D02*
X135018452Y-110097676D01*
X135018452Y-110097676D02*
X134923214Y-110192914D01*
X134923214Y-110192914D02*
X134827976Y-110240533D01*
X154420833Y-104384819D02*
X154087500Y-103908628D01*
X153849405Y-104384819D02*
X153849405Y-103384819D01*
X153849405Y-103384819D02*
X154230357Y-103384819D01*
X154230357Y-103384819D02*
X154325595Y-103432438D01*
X154325595Y-103432438D02*
X154373214Y-103480057D01*
X154373214Y-103480057D02*
X154420833Y-103575295D01*
X154420833Y-103575295D02*
X154420833Y-103718152D01*
X154420833Y-103718152D02*
X154373214Y-103813390D01*
X154373214Y-103813390D02*
X154325595Y-103861009D01*
X154325595Y-103861009D02*
X154230357Y-103908628D01*
X154230357Y-103908628D02*
X153849405Y-103908628D01*
X155277976Y-103384819D02*
X155087500Y-103384819D01*
X155087500Y-103384819D02*
X154992262Y-103432438D01*
X154992262Y-103432438D02*
X154944643Y-103480057D01*
X154944643Y-103480057D02*
X154849405Y-103622914D01*
X154849405Y-103622914D02*
X154801786Y-103813390D01*
X154801786Y-103813390D02*
X154801786Y-104194342D01*
X154801786Y-104194342D02*
X154849405Y-104289580D01*
X154849405Y-104289580D02*
X154897024Y-104337200D01*
X154897024Y-104337200D02*
X154992262Y-104384819D01*
X154992262Y-104384819D02*
X155182738Y-104384819D01*
X155182738Y-104384819D02*
X155277976Y-104337200D01*
X155277976Y-104337200D02*
X155325595Y-104289580D01*
X155325595Y-104289580D02*
X155373214Y-104194342D01*
X155373214Y-104194342D02*
X155373214Y-103956247D01*
X155373214Y-103956247D02*
X155325595Y-103861009D01*
X155325595Y-103861009D02*
X155277976Y-103813390D01*
X155277976Y-103813390D02*
X155182738Y-103765771D01*
X155182738Y-103765771D02*
X154992262Y-103765771D01*
X154992262Y-103765771D02*
X154897024Y-103813390D01*
X154897024Y-103813390D02*
X154849405Y-103861009D01*
X154849405Y-103861009D02*
X154801786Y-103956247D01*
X168647142Y-79359580D02*
X168599523Y-79407200D01*
X168599523Y-79407200D02*
X168456666Y-79454819D01*
X168456666Y-79454819D02*
X168361428Y-79454819D01*
X168361428Y-79454819D02*
X168218571Y-79407200D01*
X168218571Y-79407200D02*
X168123333Y-79311961D01*
X168123333Y-79311961D02*
X168075714Y-79216723D01*
X168075714Y-79216723D02*
X168028095Y-79026247D01*
X168028095Y-79026247D02*
X168028095Y-78883390D01*
X168028095Y-78883390D02*
X168075714Y-78692914D01*
X168075714Y-78692914D02*
X168123333Y-78597676D01*
X168123333Y-78597676D02*
X168218571Y-78502438D01*
X168218571Y-78502438D02*
X168361428Y-78454819D01*
X168361428Y-78454819D02*
X168456666Y-78454819D01*
X168456666Y-78454819D02*
X168599523Y-78502438D01*
X168599523Y-78502438D02*
X168647142Y-78550057D01*
X169599523Y-79454819D02*
X169028095Y-79454819D01*
X169313809Y-79454819D02*
X169313809Y-78454819D01*
X169313809Y-78454819D02*
X169218571Y-78597676D01*
X169218571Y-78597676D02*
X169123333Y-78692914D01*
X169123333Y-78692914D02*
X169028095Y-78740533D01*
X170504285Y-78454819D02*
X170028095Y-78454819D01*
X170028095Y-78454819D02*
X169980476Y-78931009D01*
X169980476Y-78931009D02*
X170028095Y-78883390D01*
X170028095Y-78883390D02*
X170123333Y-78835771D01*
X170123333Y-78835771D02*
X170361428Y-78835771D01*
X170361428Y-78835771D02*
X170456666Y-78883390D01*
X170456666Y-78883390D02*
X170504285Y-78931009D01*
X170504285Y-78931009D02*
X170551904Y-79026247D01*
X170551904Y-79026247D02*
X170551904Y-79264342D01*
X170551904Y-79264342D02*
X170504285Y-79359580D01*
X170504285Y-79359580D02*
X170456666Y-79407200D01*
X170456666Y-79407200D02*
X170361428Y-79454819D01*
X170361428Y-79454819D02*
X170123333Y-79454819D01*
X170123333Y-79454819D02*
X170028095Y-79407200D01*
X170028095Y-79407200D02*
X169980476Y-79359580D01*
X138490476Y-89954819D02*
X138823809Y-90954819D01*
X138823809Y-90954819D02*
X139157142Y-89954819D01*
X140061904Y-90954819D02*
X139728571Y-90478628D01*
X139490476Y-90954819D02*
X139490476Y-89954819D01*
X139490476Y-89954819D02*
X139871428Y-89954819D01*
X139871428Y-89954819D02*
X139966666Y-90002438D01*
X139966666Y-90002438D02*
X140014285Y-90050057D01*
X140014285Y-90050057D02*
X140061904Y-90145295D01*
X140061904Y-90145295D02*
X140061904Y-90288152D01*
X140061904Y-90288152D02*
X140014285Y-90383390D01*
X140014285Y-90383390D02*
X139966666Y-90431009D01*
X139966666Y-90431009D02*
X139871428Y-90478628D01*
X139871428Y-90478628D02*
X139490476Y-90478628D01*
X141014285Y-90954819D02*
X140442857Y-90954819D01*
X140728571Y-90954819D02*
X140728571Y-89954819D01*
X140728571Y-89954819D02*
X140633333Y-90097676D01*
X140633333Y-90097676D02*
X140538095Y-90192914D01*
X140538095Y-90192914D02*
X140442857Y-90240533D01*
X145654819Y-99183333D02*
X146369104Y-99183333D01*
X146369104Y-99183333D02*
X146511961Y-99230952D01*
X146511961Y-99230952D02*
X146607200Y-99326190D01*
X146607200Y-99326190D02*
X146654819Y-99469047D01*
X146654819Y-99469047D02*
X146654819Y-99564285D01*
X146654819Y-98707142D02*
X145654819Y-98707142D01*
X145654819Y-98707142D02*
X145654819Y-98326190D01*
X145654819Y-98326190D02*
X145702438Y-98230952D01*
X145702438Y-98230952D02*
X145750057Y-98183333D01*
X145750057Y-98183333D02*
X145845295Y-98135714D01*
X145845295Y-98135714D02*
X145988152Y-98135714D01*
X145988152Y-98135714D02*
X146083390Y-98183333D01*
X146083390Y-98183333D02*
X146131009Y-98230952D01*
X146131009Y-98230952D02*
X146178628Y-98326190D01*
X146178628Y-98326190D02*
X146178628Y-98707142D01*
X145654819Y-97230952D02*
X145654819Y-97707142D01*
X145654819Y-97707142D02*
X146131009Y-97754761D01*
X146131009Y-97754761D02*
X146083390Y-97707142D01*
X146083390Y-97707142D02*
X146035771Y-97611904D01*
X146035771Y-97611904D02*
X146035771Y-97373809D01*
X146035771Y-97373809D02*
X146083390Y-97278571D01*
X146083390Y-97278571D02*
X146131009Y-97230952D01*
X146131009Y-97230952D02*
X146226247Y-97183333D01*
X146226247Y-97183333D02*
X146464342Y-97183333D01*
X146464342Y-97183333D02*
X146559580Y-97230952D01*
X146559580Y-97230952D02*
X146607200Y-97278571D01*
X146607200Y-97278571D02*
X146654819Y-97373809D01*
X146654819Y-97373809D02*
X146654819Y-97611904D01*
X146654819Y-97611904D02*
X146607200Y-97707142D01*
X146607200Y-97707142D02*
X146559580Y-97754761D01*
X121804819Y-92762857D02*
X121328628Y-93096190D01*
X121804819Y-93334285D02*
X120804819Y-93334285D01*
X120804819Y-93334285D02*
X120804819Y-92953333D01*
X120804819Y-92953333D02*
X120852438Y-92858095D01*
X120852438Y-92858095D02*
X120900057Y-92810476D01*
X120900057Y-92810476D02*
X120995295Y-92762857D01*
X120995295Y-92762857D02*
X121138152Y-92762857D01*
X121138152Y-92762857D02*
X121233390Y-92810476D01*
X121233390Y-92810476D02*
X121281009Y-92858095D01*
X121281009Y-92858095D02*
X121328628Y-92953333D01*
X121328628Y-92953333D02*
X121328628Y-93334285D01*
X121804819Y-91810476D02*
X121804819Y-92381904D01*
X121804819Y-92096190D02*
X120804819Y-92096190D01*
X120804819Y-92096190D02*
X120947676Y-92191428D01*
X120947676Y-92191428D02*
X121042914Y-92286666D01*
X121042914Y-92286666D02*
X121090533Y-92381904D01*
X120804819Y-91477142D02*
X120804819Y-90858095D01*
X120804819Y-90858095D02*
X121185771Y-91191428D01*
X121185771Y-91191428D02*
X121185771Y-91048571D01*
X121185771Y-91048571D02*
X121233390Y-90953333D01*
X121233390Y-90953333D02*
X121281009Y-90905714D01*
X121281009Y-90905714D02*
X121376247Y-90858095D01*
X121376247Y-90858095D02*
X121614342Y-90858095D01*
X121614342Y-90858095D02*
X121709580Y-90905714D01*
X121709580Y-90905714D02*
X121757200Y-90953333D01*
X121757200Y-90953333D02*
X121804819Y-91048571D01*
X121804819Y-91048571D02*
X121804819Y-91334285D01*
X121804819Y-91334285D02*
X121757200Y-91429523D01*
X121757200Y-91429523D02*
X121709580Y-91477142D01*
X151238095Y-106954819D02*
X151238095Y-107764342D01*
X151238095Y-107764342D02*
X151285714Y-107859580D01*
X151285714Y-107859580D02*
X151333333Y-107907200D01*
X151333333Y-107907200D02*
X151428571Y-107954819D01*
X151428571Y-107954819D02*
X151619047Y-107954819D01*
X151619047Y-107954819D02*
X151714285Y-107907200D01*
X151714285Y-107907200D02*
X151761904Y-107859580D01*
X151761904Y-107859580D02*
X151809523Y-107764342D01*
X151809523Y-107764342D02*
X151809523Y-106954819D01*
X152238095Y-107050057D02*
X152285714Y-107002438D01*
X152285714Y-107002438D02*
X152380952Y-106954819D01*
X152380952Y-106954819D02*
X152619047Y-106954819D01*
X152619047Y-106954819D02*
X152714285Y-107002438D01*
X152714285Y-107002438D02*
X152761904Y-107050057D01*
X152761904Y-107050057D02*
X152809523Y-107145295D01*
X152809523Y-107145295D02*
X152809523Y-107240533D01*
X152809523Y-107240533D02*
X152761904Y-107383390D01*
X152761904Y-107383390D02*
X152190476Y-107954819D01*
X152190476Y-107954819D02*
X152809523Y-107954819D01*
X160437142Y-83364819D02*
X160103809Y-82888628D01*
X159865714Y-83364819D02*
X159865714Y-82364819D01*
X159865714Y-82364819D02*
X160246666Y-82364819D01*
X160246666Y-82364819D02*
X160341904Y-82412438D01*
X160341904Y-82412438D02*
X160389523Y-82460057D01*
X160389523Y-82460057D02*
X160437142Y-82555295D01*
X160437142Y-82555295D02*
X160437142Y-82698152D01*
X160437142Y-82698152D02*
X160389523Y-82793390D01*
X160389523Y-82793390D02*
X160341904Y-82841009D01*
X160341904Y-82841009D02*
X160246666Y-82888628D01*
X160246666Y-82888628D02*
X159865714Y-82888628D01*
X161389523Y-83364819D02*
X160818095Y-83364819D01*
X161103809Y-83364819D02*
X161103809Y-82364819D01*
X161103809Y-82364819D02*
X161008571Y-82507676D01*
X161008571Y-82507676D02*
X160913333Y-82602914D01*
X160913333Y-82602914D02*
X160818095Y-82650533D01*
X162246666Y-82364819D02*
X162056190Y-82364819D01*
X162056190Y-82364819D02*
X161960952Y-82412438D01*
X161960952Y-82412438D02*
X161913333Y-82460057D01*
X161913333Y-82460057D02*
X161818095Y-82602914D01*
X161818095Y-82602914D02*
X161770476Y-82793390D01*
X161770476Y-82793390D02*
X161770476Y-83174342D01*
X161770476Y-83174342D02*
X161818095Y-83269580D01*
X161818095Y-83269580D02*
X161865714Y-83317200D01*
X161865714Y-83317200D02*
X161960952Y-83364819D01*
X161960952Y-83364819D02*
X162151428Y-83364819D01*
X162151428Y-83364819D02*
X162246666Y-83317200D01*
X162246666Y-83317200D02*
X162294285Y-83269580D01*
X162294285Y-83269580D02*
X162341904Y-83174342D01*
X162341904Y-83174342D02*
X162341904Y-82936247D01*
X162341904Y-82936247D02*
X162294285Y-82841009D01*
X162294285Y-82841009D02*
X162246666Y-82793390D01*
X162246666Y-82793390D02*
X162151428Y-82745771D01*
X162151428Y-82745771D02*
X161960952Y-82745771D01*
X161960952Y-82745771D02*
X161865714Y-82793390D01*
X161865714Y-82793390D02*
X161818095Y-82841009D01*
X161818095Y-82841009D02*
X161770476Y-82936247D01*
X122857142Y-77454819D02*
X122523809Y-76978628D01*
X122285714Y-77454819D02*
X122285714Y-76454819D01*
X122285714Y-76454819D02*
X122666666Y-76454819D01*
X122666666Y-76454819D02*
X122761904Y-76502438D01*
X122761904Y-76502438D02*
X122809523Y-76550057D01*
X122809523Y-76550057D02*
X122857142Y-76645295D01*
X122857142Y-76645295D02*
X122857142Y-76788152D01*
X122857142Y-76788152D02*
X122809523Y-76883390D01*
X122809523Y-76883390D02*
X122761904Y-76931009D01*
X122761904Y-76931009D02*
X122666666Y-76978628D01*
X122666666Y-76978628D02*
X122285714Y-76978628D01*
X123809523Y-77454819D02*
X123238095Y-77454819D01*
X123523809Y-77454819D02*
X123523809Y-76454819D01*
X123523809Y-76454819D02*
X123428571Y-76597676D01*
X123428571Y-76597676D02*
X123333333Y-76692914D01*
X123333333Y-76692914D02*
X123238095Y-76740533D01*
X124428571Y-76454819D02*
X124523809Y-76454819D01*
X124523809Y-76454819D02*
X124619047Y-76502438D01*
X124619047Y-76502438D02*
X124666666Y-76550057D01*
X124666666Y-76550057D02*
X124714285Y-76645295D01*
X124714285Y-76645295D02*
X124761904Y-76835771D01*
X124761904Y-76835771D02*
X124761904Y-77073866D01*
X124761904Y-77073866D02*
X124714285Y-77264342D01*
X124714285Y-77264342D02*
X124666666Y-77359580D01*
X124666666Y-77359580D02*
X124619047Y-77407200D01*
X124619047Y-77407200D02*
X124523809Y-77454819D01*
X124523809Y-77454819D02*
X124428571Y-77454819D01*
X124428571Y-77454819D02*
X124333333Y-77407200D01*
X124333333Y-77407200D02*
X124285714Y-77359580D01*
X124285714Y-77359580D02*
X124238095Y-77264342D01*
X124238095Y-77264342D02*
X124190476Y-77073866D01*
X124190476Y-77073866D02*
X124190476Y-76835771D01*
X124190476Y-76835771D02*
X124238095Y-76645295D01*
X124238095Y-76645295D02*
X124285714Y-76550057D01*
X124285714Y-76550057D02*
X124333333Y-76502438D01*
X124333333Y-76502438D02*
X124428571Y-76454819D01*
X113533333Y-113194580D02*
X113485714Y-113242200D01*
X113485714Y-113242200D02*
X113342857Y-113289819D01*
X113342857Y-113289819D02*
X113247619Y-113289819D01*
X113247619Y-113289819D02*
X113104762Y-113242200D01*
X113104762Y-113242200D02*
X113009524Y-113146961D01*
X113009524Y-113146961D02*
X112961905Y-113051723D01*
X112961905Y-113051723D02*
X112914286Y-112861247D01*
X112914286Y-112861247D02*
X112914286Y-112718390D01*
X112914286Y-112718390D02*
X112961905Y-112527914D01*
X112961905Y-112527914D02*
X113009524Y-112432676D01*
X113009524Y-112432676D02*
X113104762Y-112337438D01*
X113104762Y-112337438D02*
X113247619Y-112289819D01*
X113247619Y-112289819D02*
X113342857Y-112289819D01*
X113342857Y-112289819D02*
X113485714Y-112337438D01*
X113485714Y-112337438D02*
X113533333Y-112385057D01*
X113914286Y-112385057D02*
X113961905Y-112337438D01*
X113961905Y-112337438D02*
X114057143Y-112289819D01*
X114057143Y-112289819D02*
X114295238Y-112289819D01*
X114295238Y-112289819D02*
X114390476Y-112337438D01*
X114390476Y-112337438D02*
X114438095Y-112385057D01*
X114438095Y-112385057D02*
X114485714Y-112480295D01*
X114485714Y-112480295D02*
X114485714Y-112575533D01*
X114485714Y-112575533D02*
X114438095Y-112718390D01*
X114438095Y-112718390D02*
X113866667Y-113289819D01*
X113866667Y-113289819D02*
X114485714Y-113289819D01*
X117377976Y-99029819D02*
X117377976Y-99744104D01*
X117377976Y-99744104D02*
X117330357Y-99886961D01*
X117330357Y-99886961D02*
X117235119Y-99982200D01*
X117235119Y-99982200D02*
X117092262Y-100029819D01*
X117092262Y-100029819D02*
X116997024Y-100029819D01*
X117854167Y-100029819D02*
X117854167Y-99029819D01*
X117854167Y-99029819D02*
X118235119Y-99029819D01*
X118235119Y-99029819D02*
X118330357Y-99077438D01*
X118330357Y-99077438D02*
X118377976Y-99125057D01*
X118377976Y-99125057D02*
X118425595Y-99220295D01*
X118425595Y-99220295D02*
X118425595Y-99363152D01*
X118425595Y-99363152D02*
X118377976Y-99458390D01*
X118377976Y-99458390D02*
X118330357Y-99506009D01*
X118330357Y-99506009D02*
X118235119Y-99553628D01*
X118235119Y-99553628D02*
X117854167Y-99553628D01*
X119377976Y-100029819D02*
X118806548Y-100029819D01*
X119092262Y-100029819D02*
X119092262Y-99029819D01*
X119092262Y-99029819D02*
X118997024Y-99172676D01*
X118997024Y-99172676D02*
X118901786Y-99267914D01*
X118901786Y-99267914D02*
X118806548Y-99315533D01*
X119711310Y-99029819D02*
X120377976Y-99029819D01*
X120377976Y-99029819D02*
X119949405Y-100029819D01*
X110654895Y-81551677D02*
X111464418Y-81551677D01*
X111464418Y-81551677D02*
X111559656Y-81504058D01*
X111559656Y-81504058D02*
X111607276Y-81456439D01*
X111607276Y-81456439D02*
X111654895Y-81361201D01*
X111654895Y-81361201D02*
X111654895Y-81170725D01*
X111654895Y-81170725D02*
X111607276Y-81075487D01*
X111607276Y-81075487D02*
X111559656Y-81027868D01*
X111559656Y-81027868D02*
X111464418Y-80980249D01*
X111464418Y-80980249D02*
X110654895Y-80980249D01*
X110654895Y-80075487D02*
X110654895Y-80265963D01*
X110654895Y-80265963D02*
X110702514Y-80361201D01*
X110702514Y-80361201D02*
X110750133Y-80408820D01*
X110750133Y-80408820D02*
X110892990Y-80504058D01*
X110892990Y-80504058D02*
X111083466Y-80551677D01*
X111083466Y-80551677D02*
X111464418Y-80551677D01*
X111464418Y-80551677D02*
X111559656Y-80504058D01*
X111559656Y-80504058D02*
X111607276Y-80456439D01*
X111607276Y-80456439D02*
X111654895Y-80361201D01*
X111654895Y-80361201D02*
X111654895Y-80170725D01*
X111654895Y-80170725D02*
X111607276Y-80075487D01*
X111607276Y-80075487D02*
X111559656Y-80027868D01*
X111559656Y-80027868D02*
X111464418Y-79980249D01*
X111464418Y-79980249D02*
X111226323Y-79980249D01*
X111226323Y-79980249D02*
X111131085Y-80027868D01*
X111131085Y-80027868D02*
X111083466Y-80075487D01*
X111083466Y-80075487D02*
X111035847Y-80170725D01*
X111035847Y-80170725D02*
X111035847Y-80361201D01*
X111035847Y-80361201D02*
X111083466Y-80456439D01*
X111083466Y-80456439D02*
X111131085Y-80504058D01*
X111131085Y-80504058D02*
X111226323Y-80551677D01*
X109707142Y-90144819D02*
X109373809Y-89668628D01*
X109135714Y-90144819D02*
X109135714Y-89144819D01*
X109135714Y-89144819D02*
X109516666Y-89144819D01*
X109516666Y-89144819D02*
X109611904Y-89192438D01*
X109611904Y-89192438D02*
X109659523Y-89240057D01*
X109659523Y-89240057D02*
X109707142Y-89335295D01*
X109707142Y-89335295D02*
X109707142Y-89478152D01*
X109707142Y-89478152D02*
X109659523Y-89573390D01*
X109659523Y-89573390D02*
X109611904Y-89621009D01*
X109611904Y-89621009D02*
X109516666Y-89668628D01*
X109516666Y-89668628D02*
X109135714Y-89668628D01*
X110659523Y-90144819D02*
X110088095Y-90144819D01*
X110373809Y-90144819D02*
X110373809Y-89144819D01*
X110373809Y-89144819D02*
X110278571Y-89287676D01*
X110278571Y-89287676D02*
X110183333Y-89382914D01*
X110183333Y-89382914D02*
X110088095Y-89430533D01*
X111611904Y-90144819D02*
X111040476Y-90144819D01*
X111326190Y-90144819D02*
X111326190Y-89144819D01*
X111326190Y-89144819D02*
X111230952Y-89287676D01*
X111230952Y-89287676D02*
X111135714Y-89382914D01*
X111135714Y-89382914D02*
X111040476Y-89430533D01*
X116183333Y-89479580D02*
X116135714Y-89527200D01*
X116135714Y-89527200D02*
X115992857Y-89574819D01*
X115992857Y-89574819D02*
X115897619Y-89574819D01*
X115897619Y-89574819D02*
X115754762Y-89527200D01*
X115754762Y-89527200D02*
X115659524Y-89431961D01*
X115659524Y-89431961D02*
X115611905Y-89336723D01*
X115611905Y-89336723D02*
X115564286Y-89146247D01*
X115564286Y-89146247D02*
X115564286Y-89003390D01*
X115564286Y-89003390D02*
X115611905Y-88812914D01*
X115611905Y-88812914D02*
X115659524Y-88717676D01*
X115659524Y-88717676D02*
X115754762Y-88622438D01*
X115754762Y-88622438D02*
X115897619Y-88574819D01*
X115897619Y-88574819D02*
X115992857Y-88574819D01*
X115992857Y-88574819D02*
X116135714Y-88622438D01*
X116135714Y-88622438D02*
X116183333Y-88670057D01*
X116659524Y-89574819D02*
X116850000Y-89574819D01*
X116850000Y-89574819D02*
X116945238Y-89527200D01*
X116945238Y-89527200D02*
X116992857Y-89479580D01*
X116992857Y-89479580D02*
X117088095Y-89336723D01*
X117088095Y-89336723D02*
X117135714Y-89146247D01*
X117135714Y-89146247D02*
X117135714Y-88765295D01*
X117135714Y-88765295D02*
X117088095Y-88670057D01*
X117088095Y-88670057D02*
X117040476Y-88622438D01*
X117040476Y-88622438D02*
X116945238Y-88574819D01*
X116945238Y-88574819D02*
X116754762Y-88574819D01*
X116754762Y-88574819D02*
X116659524Y-88622438D01*
X116659524Y-88622438D02*
X116611905Y-88670057D01*
X116611905Y-88670057D02*
X116564286Y-88765295D01*
X116564286Y-88765295D02*
X116564286Y-89003390D01*
X116564286Y-89003390D02*
X116611905Y-89098628D01*
X116611905Y-89098628D02*
X116659524Y-89146247D01*
X116659524Y-89146247D02*
X116754762Y-89193866D01*
X116754762Y-89193866D02*
X116945238Y-89193866D01*
X116945238Y-89193866D02*
X117040476Y-89146247D01*
X117040476Y-89146247D02*
X117088095Y-89098628D01*
X117088095Y-89098628D02*
X117135714Y-89003390D01*
X116707142Y-94979580D02*
X116659523Y-95027200D01*
X116659523Y-95027200D02*
X116516666Y-95074819D01*
X116516666Y-95074819D02*
X116421428Y-95074819D01*
X116421428Y-95074819D02*
X116278571Y-95027200D01*
X116278571Y-95027200D02*
X116183333Y-94931961D01*
X116183333Y-94931961D02*
X116135714Y-94836723D01*
X116135714Y-94836723D02*
X116088095Y-94646247D01*
X116088095Y-94646247D02*
X116088095Y-94503390D01*
X116088095Y-94503390D02*
X116135714Y-94312914D01*
X116135714Y-94312914D02*
X116183333Y-94217676D01*
X116183333Y-94217676D02*
X116278571Y-94122438D01*
X116278571Y-94122438D02*
X116421428Y-94074819D01*
X116421428Y-94074819D02*
X116516666Y-94074819D01*
X116516666Y-94074819D02*
X116659523Y-94122438D01*
X116659523Y-94122438D02*
X116707142Y-94170057D01*
X117088095Y-94170057D02*
X117135714Y-94122438D01*
X117135714Y-94122438D02*
X117230952Y-94074819D01*
X117230952Y-94074819D02*
X117469047Y-94074819D01*
X117469047Y-94074819D02*
X117564285Y-94122438D01*
X117564285Y-94122438D02*
X117611904Y-94170057D01*
X117611904Y-94170057D02*
X117659523Y-94265295D01*
X117659523Y-94265295D02*
X117659523Y-94360533D01*
X117659523Y-94360533D02*
X117611904Y-94503390D01*
X117611904Y-94503390D02*
X117040476Y-95074819D01*
X117040476Y-95074819D02*
X117659523Y-95074819D01*
X118278571Y-94074819D02*
X118373809Y-94074819D01*
X118373809Y-94074819D02*
X118469047Y-94122438D01*
X118469047Y-94122438D02*
X118516666Y-94170057D01*
X118516666Y-94170057D02*
X118564285Y-94265295D01*
X118564285Y-94265295D02*
X118611904Y-94455771D01*
X118611904Y-94455771D02*
X118611904Y-94693866D01*
X118611904Y-94693866D02*
X118564285Y-94884342D01*
X118564285Y-94884342D02*
X118516666Y-94979580D01*
X118516666Y-94979580D02*
X118469047Y-95027200D01*
X118469047Y-95027200D02*
X118373809Y-95074819D01*
X118373809Y-95074819D02*
X118278571Y-95074819D01*
X118278571Y-95074819D02*
X118183333Y-95027200D01*
X118183333Y-95027200D02*
X118135714Y-94979580D01*
X118135714Y-94979580D02*
X118088095Y-94884342D01*
X118088095Y-94884342D02*
X118040476Y-94693866D01*
X118040476Y-94693866D02*
X118040476Y-94455771D01*
X118040476Y-94455771D02*
X118088095Y-94265295D01*
X118088095Y-94265295D02*
X118135714Y-94170057D01*
X118135714Y-94170057D02*
X118183333Y-94122438D01*
X118183333Y-94122438D02*
X118278571Y-94074819D01*
X147354819Y-91183333D02*
X148069104Y-91183333D01*
X148069104Y-91183333D02*
X148211961Y-91230952D01*
X148211961Y-91230952D02*
X148307200Y-91326190D01*
X148307200Y-91326190D02*
X148354819Y-91469047D01*
X148354819Y-91469047D02*
X148354819Y-91564285D01*
X148354819Y-90707142D02*
X147354819Y-90707142D01*
X147354819Y-90707142D02*
X147354819Y-90326190D01*
X147354819Y-90326190D02*
X147402438Y-90230952D01*
X147402438Y-90230952D02*
X147450057Y-90183333D01*
X147450057Y-90183333D02*
X147545295Y-90135714D01*
X147545295Y-90135714D02*
X147688152Y-90135714D01*
X147688152Y-90135714D02*
X147783390Y-90183333D01*
X147783390Y-90183333D02*
X147831009Y-90230952D01*
X147831009Y-90230952D02*
X147878628Y-90326190D01*
X147878628Y-90326190D02*
X147878628Y-90707142D01*
X147688152Y-89278571D02*
X148354819Y-89278571D01*
X147307200Y-89516666D02*
X148021485Y-89754761D01*
X148021485Y-89754761D02*
X148021485Y-89135714D01*
X170064819Y-118113333D02*
X170779104Y-118113333D01*
X170779104Y-118113333D02*
X170921961Y-118160952D01*
X170921961Y-118160952D02*
X171017200Y-118256190D01*
X171017200Y-118256190D02*
X171064819Y-118399047D01*
X171064819Y-118399047D02*
X171064819Y-118494285D01*
X170160057Y-117684761D02*
X170112438Y-117637142D01*
X170112438Y-117637142D02*
X170064819Y-117541904D01*
X170064819Y-117541904D02*
X170064819Y-117303809D01*
X170064819Y-117303809D02*
X170112438Y-117208571D01*
X170112438Y-117208571D02*
X170160057Y-117160952D01*
X170160057Y-117160952D02*
X170255295Y-117113333D01*
X170255295Y-117113333D02*
X170350533Y-117113333D01*
X170350533Y-117113333D02*
X170493390Y-117160952D01*
X170493390Y-117160952D02*
X171064819Y-117732380D01*
X171064819Y-117732380D02*
X171064819Y-117113333D01*
X133690476Y-86454819D02*
X133690476Y-87169104D01*
X133690476Y-87169104D02*
X133642857Y-87311961D01*
X133642857Y-87311961D02*
X133547619Y-87407200D01*
X133547619Y-87407200D02*
X133404762Y-87454819D01*
X133404762Y-87454819D02*
X133309524Y-87454819D01*
X134166667Y-87454819D02*
X134166667Y-86454819D01*
X134166667Y-86454819D02*
X134547619Y-86454819D01*
X134547619Y-86454819D02*
X134642857Y-86502438D01*
X134642857Y-86502438D02*
X134690476Y-86550057D01*
X134690476Y-86550057D02*
X134738095Y-86645295D01*
X134738095Y-86645295D02*
X134738095Y-86788152D01*
X134738095Y-86788152D02*
X134690476Y-86883390D01*
X134690476Y-86883390D02*
X134642857Y-86931009D01*
X134642857Y-86931009D02*
X134547619Y-86978628D01*
X134547619Y-86978628D02*
X134166667Y-86978628D01*
X135690476Y-87454819D02*
X135119048Y-87454819D01*
X135404762Y-87454819D02*
X135404762Y-86454819D01*
X135404762Y-86454819D02*
X135309524Y-86597676D01*
X135309524Y-86597676D02*
X135214286Y-86692914D01*
X135214286Y-86692914D02*
X135119048Y-86740533D01*
X136642857Y-87454819D02*
X136071429Y-87454819D01*
X136357143Y-87454819D02*
X136357143Y-86454819D01*
X136357143Y-86454819D02*
X136261905Y-86597676D01*
X136261905Y-86597676D02*
X136166667Y-86692914D01*
X136166667Y-86692914D02*
X136071429Y-86740533D01*
X115557166Y-86149507D02*
X115509547Y-86197127D01*
X115509547Y-86197127D02*
X115366690Y-86244746D01*
X115366690Y-86244746D02*
X115271452Y-86244746D01*
X115271452Y-86244746D02*
X115128595Y-86197127D01*
X115128595Y-86197127D02*
X115033357Y-86101888D01*
X115033357Y-86101888D02*
X114985738Y-86006650D01*
X114985738Y-86006650D02*
X114938119Y-85816174D01*
X114938119Y-85816174D02*
X114938119Y-85673317D01*
X114938119Y-85673317D02*
X114985738Y-85482841D01*
X114985738Y-85482841D02*
X115033357Y-85387603D01*
X115033357Y-85387603D02*
X115128595Y-85292365D01*
X115128595Y-85292365D02*
X115271452Y-85244746D01*
X115271452Y-85244746D02*
X115366690Y-85244746D01*
X115366690Y-85244746D02*
X115509547Y-85292365D01*
X115509547Y-85292365D02*
X115557166Y-85339984D01*
X116509547Y-86244746D02*
X115938119Y-86244746D01*
X116223833Y-86244746D02*
X116223833Y-85244746D01*
X116223833Y-85244746D02*
X116128595Y-85387603D01*
X116128595Y-85387603D02*
X116033357Y-85482841D01*
X116033357Y-85482841D02*
X115938119Y-85530460D01*
X117461928Y-86244746D02*
X116890500Y-86244746D01*
X117176214Y-86244746D02*
X117176214Y-85244746D01*
X117176214Y-85244746D02*
X117080976Y-85387603D01*
X117080976Y-85387603D02*
X116985738Y-85482841D01*
X116985738Y-85482841D02*
X116890500Y-85530460D01*
X119359580Y-115692857D02*
X119407200Y-115740476D01*
X119407200Y-115740476D02*
X119454819Y-115883333D01*
X119454819Y-115883333D02*
X119454819Y-115978571D01*
X119454819Y-115978571D02*
X119407200Y-116121428D01*
X119407200Y-116121428D02*
X119311961Y-116216666D01*
X119311961Y-116216666D02*
X119216723Y-116264285D01*
X119216723Y-116264285D02*
X119026247Y-116311904D01*
X119026247Y-116311904D02*
X118883390Y-116311904D01*
X118883390Y-116311904D02*
X118692914Y-116264285D01*
X118692914Y-116264285D02*
X118597676Y-116216666D01*
X118597676Y-116216666D02*
X118502438Y-116121428D01*
X118502438Y-116121428D02*
X118454819Y-115978571D01*
X118454819Y-115978571D02*
X118454819Y-115883333D01*
X118454819Y-115883333D02*
X118502438Y-115740476D01*
X118502438Y-115740476D02*
X118550057Y-115692857D01*
X119454819Y-114740476D02*
X119454819Y-115311904D01*
X119454819Y-115026190D02*
X118454819Y-115026190D01*
X118454819Y-115026190D02*
X118597676Y-115121428D01*
X118597676Y-115121428D02*
X118692914Y-115216666D01*
X118692914Y-115216666D02*
X118740533Y-115311904D01*
X118883390Y-114169047D02*
X118835771Y-114264285D01*
X118835771Y-114264285D02*
X118788152Y-114311904D01*
X118788152Y-114311904D02*
X118692914Y-114359523D01*
X118692914Y-114359523D02*
X118645295Y-114359523D01*
X118645295Y-114359523D02*
X118550057Y-114311904D01*
X118550057Y-114311904D02*
X118502438Y-114264285D01*
X118502438Y-114264285D02*
X118454819Y-114169047D01*
X118454819Y-114169047D02*
X118454819Y-113978571D01*
X118454819Y-113978571D02*
X118502438Y-113883333D01*
X118502438Y-113883333D02*
X118550057Y-113835714D01*
X118550057Y-113835714D02*
X118645295Y-113788095D01*
X118645295Y-113788095D02*
X118692914Y-113788095D01*
X118692914Y-113788095D02*
X118788152Y-113835714D01*
X118788152Y-113835714D02*
X118835771Y-113883333D01*
X118835771Y-113883333D02*
X118883390Y-113978571D01*
X118883390Y-113978571D02*
X118883390Y-114169047D01*
X118883390Y-114169047D02*
X118931009Y-114264285D01*
X118931009Y-114264285D02*
X118978628Y-114311904D01*
X118978628Y-114311904D02*
X119073866Y-114359523D01*
X119073866Y-114359523D02*
X119264342Y-114359523D01*
X119264342Y-114359523D02*
X119359580Y-114311904D01*
X119359580Y-114311904D02*
X119407200Y-114264285D01*
X119407200Y-114264285D02*
X119454819Y-114169047D01*
X119454819Y-114169047D02*
X119454819Y-113978571D01*
X119454819Y-113978571D02*
X119407200Y-113883333D01*
X119407200Y-113883333D02*
X119359580Y-113835714D01*
X119359580Y-113835714D02*
X119264342Y-113788095D01*
X119264342Y-113788095D02*
X119073866Y-113788095D01*
X119073866Y-113788095D02*
X118978628Y-113835714D01*
X118978628Y-113835714D02*
X118931009Y-113883333D01*
X118931009Y-113883333D02*
X118883390Y-113978571D01*
X153238095Y-94054819D02*
X153238095Y-94864342D01*
X153238095Y-94864342D02*
X153285714Y-94959580D01*
X153285714Y-94959580D02*
X153333333Y-95007200D01*
X153333333Y-95007200D02*
X153428571Y-95054819D01*
X153428571Y-95054819D02*
X153619047Y-95054819D01*
X153619047Y-95054819D02*
X153714285Y-95007200D01*
X153714285Y-95007200D02*
X153761904Y-94959580D01*
X153761904Y-94959580D02*
X153809523Y-94864342D01*
X153809523Y-94864342D02*
X153809523Y-94054819D01*
X154714285Y-94388152D02*
X154714285Y-95054819D01*
X154476190Y-94007200D02*
X154238095Y-94721485D01*
X154238095Y-94721485D02*
X154857142Y-94721485D01*
X147123333Y-109069580D02*
X147075714Y-109117200D01*
X147075714Y-109117200D02*
X146932857Y-109164819D01*
X146932857Y-109164819D02*
X146837619Y-109164819D01*
X146837619Y-109164819D02*
X146694762Y-109117200D01*
X146694762Y-109117200D02*
X146599524Y-109021961D01*
X146599524Y-109021961D02*
X146551905Y-108926723D01*
X146551905Y-108926723D02*
X146504286Y-108736247D01*
X146504286Y-108736247D02*
X146504286Y-108593390D01*
X146504286Y-108593390D02*
X146551905Y-108402914D01*
X146551905Y-108402914D02*
X146599524Y-108307676D01*
X146599524Y-108307676D02*
X146694762Y-108212438D01*
X146694762Y-108212438D02*
X146837619Y-108164819D01*
X146837619Y-108164819D02*
X146932857Y-108164819D01*
X146932857Y-108164819D02*
X147075714Y-108212438D01*
X147075714Y-108212438D02*
X147123333Y-108260057D01*
X147980476Y-108498152D02*
X147980476Y-109164819D01*
X147742381Y-108117200D02*
X147504286Y-108831485D01*
X147504286Y-108831485D02*
X148123333Y-108831485D01*
X143359580Y-79642857D02*
X143407200Y-79690476D01*
X143407200Y-79690476D02*
X143454819Y-79833333D01*
X143454819Y-79833333D02*
X143454819Y-79928571D01*
X143454819Y-79928571D02*
X143407200Y-80071428D01*
X143407200Y-80071428D02*
X143311961Y-80166666D01*
X143311961Y-80166666D02*
X143216723Y-80214285D01*
X143216723Y-80214285D02*
X143026247Y-80261904D01*
X143026247Y-80261904D02*
X142883390Y-80261904D01*
X142883390Y-80261904D02*
X142692914Y-80214285D01*
X142692914Y-80214285D02*
X142597676Y-80166666D01*
X142597676Y-80166666D02*
X142502438Y-80071428D01*
X142502438Y-80071428D02*
X142454819Y-79928571D01*
X142454819Y-79928571D02*
X142454819Y-79833333D01*
X142454819Y-79833333D02*
X142502438Y-79690476D01*
X142502438Y-79690476D02*
X142550057Y-79642857D01*
X143454819Y-78690476D02*
X143454819Y-79261904D01*
X143454819Y-78976190D02*
X142454819Y-78976190D01*
X142454819Y-78976190D02*
X142597676Y-79071428D01*
X142597676Y-79071428D02*
X142692914Y-79166666D01*
X142692914Y-79166666D02*
X142740533Y-79261904D01*
X142454819Y-77833333D02*
X142454819Y-78023809D01*
X142454819Y-78023809D02*
X142502438Y-78119047D01*
X142502438Y-78119047D02*
X142550057Y-78166666D01*
X142550057Y-78166666D02*
X142692914Y-78261904D01*
X142692914Y-78261904D02*
X142883390Y-78309523D01*
X142883390Y-78309523D02*
X143264342Y-78309523D01*
X143264342Y-78309523D02*
X143359580Y-78261904D01*
X143359580Y-78261904D02*
X143407200Y-78214285D01*
X143407200Y-78214285D02*
X143454819Y-78119047D01*
X143454819Y-78119047D02*
X143454819Y-77928571D01*
X143454819Y-77928571D02*
X143407200Y-77833333D01*
X143407200Y-77833333D02*
X143359580Y-77785714D01*
X143359580Y-77785714D02*
X143264342Y-77738095D01*
X143264342Y-77738095D02*
X143026247Y-77738095D01*
X143026247Y-77738095D02*
X142931009Y-77785714D01*
X142931009Y-77785714D02*
X142883390Y-77833333D01*
X142883390Y-77833333D02*
X142835771Y-77928571D01*
X142835771Y-77928571D02*
X142835771Y-78119047D01*
X142835771Y-78119047D02*
X142883390Y-78214285D01*
X142883390Y-78214285D02*
X142931009Y-78261904D01*
X142931009Y-78261904D02*
X143026247Y-78309523D01*
X160859580Y-99666666D02*
X160907200Y-99714285D01*
X160907200Y-99714285D02*
X160954819Y-99857142D01*
X160954819Y-99857142D02*
X160954819Y-99952380D01*
X160954819Y-99952380D02*
X160907200Y-100095237D01*
X160907200Y-100095237D02*
X160811961Y-100190475D01*
X160811961Y-100190475D02*
X160716723Y-100238094D01*
X160716723Y-100238094D02*
X160526247Y-100285713D01*
X160526247Y-100285713D02*
X160383390Y-100285713D01*
X160383390Y-100285713D02*
X160192914Y-100238094D01*
X160192914Y-100238094D02*
X160097676Y-100190475D01*
X160097676Y-100190475D02*
X160002438Y-100095237D01*
X160002438Y-100095237D02*
X159954819Y-99952380D01*
X159954819Y-99952380D02*
X159954819Y-99857142D01*
X159954819Y-99857142D02*
X160002438Y-99714285D01*
X160002438Y-99714285D02*
X160050057Y-99666666D01*
X159954819Y-99333332D02*
X159954819Y-98666666D01*
X159954819Y-98666666D02*
X160954819Y-99095237D01*
X158333333Y-104289580D02*
X158285714Y-104337200D01*
X158285714Y-104337200D02*
X158142857Y-104384819D01*
X158142857Y-104384819D02*
X158047619Y-104384819D01*
X158047619Y-104384819D02*
X157904762Y-104337200D01*
X157904762Y-104337200D02*
X157809524Y-104241961D01*
X157809524Y-104241961D02*
X157761905Y-104146723D01*
X157761905Y-104146723D02*
X157714286Y-103956247D01*
X157714286Y-103956247D02*
X157714286Y-103813390D01*
X157714286Y-103813390D02*
X157761905Y-103622914D01*
X157761905Y-103622914D02*
X157809524Y-103527676D01*
X157809524Y-103527676D02*
X157904762Y-103432438D01*
X157904762Y-103432438D02*
X158047619Y-103384819D01*
X158047619Y-103384819D02*
X158142857Y-103384819D01*
X158142857Y-103384819D02*
X158285714Y-103432438D01*
X158285714Y-103432438D02*
X158333333Y-103480057D01*
X158904762Y-103813390D02*
X158809524Y-103765771D01*
X158809524Y-103765771D02*
X158761905Y-103718152D01*
X158761905Y-103718152D02*
X158714286Y-103622914D01*
X158714286Y-103622914D02*
X158714286Y-103575295D01*
X158714286Y-103575295D02*
X158761905Y-103480057D01*
X158761905Y-103480057D02*
X158809524Y-103432438D01*
X158809524Y-103432438D02*
X158904762Y-103384819D01*
X158904762Y-103384819D02*
X159095238Y-103384819D01*
X159095238Y-103384819D02*
X159190476Y-103432438D01*
X159190476Y-103432438D02*
X159238095Y-103480057D01*
X159238095Y-103480057D02*
X159285714Y-103575295D01*
X159285714Y-103575295D02*
X159285714Y-103622914D01*
X159285714Y-103622914D02*
X159238095Y-103718152D01*
X159238095Y-103718152D02*
X159190476Y-103765771D01*
X159190476Y-103765771D02*
X159095238Y-103813390D01*
X159095238Y-103813390D02*
X158904762Y-103813390D01*
X158904762Y-103813390D02*
X158809524Y-103861009D01*
X158809524Y-103861009D02*
X158761905Y-103908628D01*
X158761905Y-103908628D02*
X158714286Y-104003866D01*
X158714286Y-104003866D02*
X158714286Y-104194342D01*
X158714286Y-104194342D02*
X158761905Y-104289580D01*
X158761905Y-104289580D02*
X158809524Y-104337200D01*
X158809524Y-104337200D02*
X158904762Y-104384819D01*
X158904762Y-104384819D02*
X159095238Y-104384819D01*
X159095238Y-104384819D02*
X159190476Y-104337200D01*
X159190476Y-104337200D02*
X159238095Y-104289580D01*
X159238095Y-104289580D02*
X159285714Y-104194342D01*
X159285714Y-104194342D02*
X159285714Y-104003866D01*
X159285714Y-104003866D02*
X159238095Y-103908628D01*
X159238095Y-103908628D02*
X159190476Y-103861009D01*
X159190476Y-103861009D02*
X159095238Y-103813390D01*
X119953357Y-76004846D02*
X119620024Y-75528655D01*
X119381929Y-76004846D02*
X119381929Y-75004846D01*
X119381929Y-75004846D02*
X119762881Y-75004846D01*
X119762881Y-75004846D02*
X119858119Y-75052465D01*
X119858119Y-75052465D02*
X119905738Y-75100084D01*
X119905738Y-75100084D02*
X119953357Y-75195322D01*
X119953357Y-75195322D02*
X119953357Y-75338179D01*
X119953357Y-75338179D02*
X119905738Y-75433417D01*
X119905738Y-75433417D02*
X119858119Y-75481036D01*
X119858119Y-75481036D02*
X119762881Y-75528655D01*
X119762881Y-75528655D02*
X119381929Y-75528655D01*
X120429548Y-76004846D02*
X120620024Y-76004846D01*
X120620024Y-76004846D02*
X120715262Y-75957227D01*
X120715262Y-75957227D02*
X120762881Y-75909607D01*
X120762881Y-75909607D02*
X120858119Y-75766750D01*
X120858119Y-75766750D02*
X120905738Y-75576274D01*
X120905738Y-75576274D02*
X120905738Y-75195322D01*
X120905738Y-75195322D02*
X120858119Y-75100084D01*
X120858119Y-75100084D02*
X120810500Y-75052465D01*
X120810500Y-75052465D02*
X120715262Y-75004846D01*
X120715262Y-75004846D02*
X120524786Y-75004846D01*
X120524786Y-75004846D02*
X120429548Y-75052465D01*
X120429548Y-75052465D02*
X120381929Y-75100084D01*
X120381929Y-75100084D02*
X120334310Y-75195322D01*
X120334310Y-75195322D02*
X120334310Y-75433417D01*
X120334310Y-75433417D02*
X120381929Y-75528655D01*
X120381929Y-75528655D02*
X120429548Y-75576274D01*
X120429548Y-75576274D02*
X120524786Y-75623893D01*
X120524786Y-75623893D02*
X120715262Y-75623893D01*
X120715262Y-75623893D02*
X120810500Y-75576274D01*
X120810500Y-75576274D02*
X120858119Y-75528655D01*
X120858119Y-75528655D02*
X120905738Y-75433417D01*
X111183357Y-88574746D02*
X110850024Y-88098555D01*
X110611929Y-88574746D02*
X110611929Y-87574746D01*
X110611929Y-87574746D02*
X110992881Y-87574746D01*
X110992881Y-87574746D02*
X111088119Y-87622365D01*
X111088119Y-87622365D02*
X111135738Y-87669984D01*
X111135738Y-87669984D02*
X111183357Y-87765222D01*
X111183357Y-87765222D02*
X111183357Y-87908079D01*
X111183357Y-87908079D02*
X111135738Y-88003317D01*
X111135738Y-88003317D02*
X111088119Y-88050936D01*
X111088119Y-88050936D02*
X110992881Y-88098555D01*
X110992881Y-88098555D02*
X110611929Y-88098555D01*
X111754786Y-88003317D02*
X111659548Y-87955698D01*
X111659548Y-87955698D02*
X111611929Y-87908079D01*
X111611929Y-87908079D02*
X111564310Y-87812841D01*
X111564310Y-87812841D02*
X111564310Y-87765222D01*
X111564310Y-87765222D02*
X111611929Y-87669984D01*
X111611929Y-87669984D02*
X111659548Y-87622365D01*
X111659548Y-87622365D02*
X111754786Y-87574746D01*
X111754786Y-87574746D02*
X111945262Y-87574746D01*
X111945262Y-87574746D02*
X112040500Y-87622365D01*
X112040500Y-87622365D02*
X112088119Y-87669984D01*
X112088119Y-87669984D02*
X112135738Y-87765222D01*
X112135738Y-87765222D02*
X112135738Y-87812841D01*
X112135738Y-87812841D02*
X112088119Y-87908079D01*
X112088119Y-87908079D02*
X112040500Y-87955698D01*
X112040500Y-87955698D02*
X111945262Y-88003317D01*
X111945262Y-88003317D02*
X111754786Y-88003317D01*
X111754786Y-88003317D02*
X111659548Y-88050936D01*
X111659548Y-88050936D02*
X111611929Y-88098555D01*
X111611929Y-88098555D02*
X111564310Y-88193793D01*
X111564310Y-88193793D02*
X111564310Y-88384269D01*
X111564310Y-88384269D02*
X111611929Y-88479507D01*
X111611929Y-88479507D02*
X111659548Y-88527127D01*
X111659548Y-88527127D02*
X111754786Y-88574746D01*
X111754786Y-88574746D02*
X111945262Y-88574746D01*
X111945262Y-88574746D02*
X112040500Y-88527127D01*
X112040500Y-88527127D02*
X112088119Y-88479507D01*
X112088119Y-88479507D02*
X112135738Y-88384269D01*
X112135738Y-88384269D02*
X112135738Y-88193793D01*
X112135738Y-88193793D02*
X112088119Y-88098555D01*
X112088119Y-88098555D02*
X112040500Y-88050936D01*
X112040500Y-88050936D02*
X111945262Y-88003317D01*
X154066666Y-71764819D02*
X154066666Y-72479104D01*
X154066666Y-72479104D02*
X154019047Y-72621961D01*
X154019047Y-72621961D02*
X153923809Y-72717200D01*
X153923809Y-72717200D02*
X153780952Y-72764819D01*
X153780952Y-72764819D02*
X153685714Y-72764819D01*
X154542857Y-72764819D02*
X154542857Y-71764819D01*
X154542857Y-71764819D02*
X154923809Y-71764819D01*
X154923809Y-71764819D02*
X155019047Y-71812438D01*
X155019047Y-71812438D02*
X155066666Y-71860057D01*
X155066666Y-71860057D02*
X155114285Y-71955295D01*
X155114285Y-71955295D02*
X155114285Y-72098152D01*
X155114285Y-72098152D02*
X155066666Y-72193390D01*
X155066666Y-72193390D02*
X155019047Y-72241009D01*
X155019047Y-72241009D02*
X154923809Y-72288628D01*
X154923809Y-72288628D02*
X154542857Y-72288628D01*
X155590476Y-72764819D02*
X155780952Y-72764819D01*
X155780952Y-72764819D02*
X155876190Y-72717200D01*
X155876190Y-72717200D02*
X155923809Y-72669580D01*
X155923809Y-72669580D02*
X156019047Y-72526723D01*
X156019047Y-72526723D02*
X156066666Y-72336247D01*
X156066666Y-72336247D02*
X156066666Y-71955295D01*
X156066666Y-71955295D02*
X156019047Y-71860057D01*
X156019047Y-71860057D02*
X155971428Y-71812438D01*
X155971428Y-71812438D02*
X155876190Y-71764819D01*
X155876190Y-71764819D02*
X155685714Y-71764819D01*
X155685714Y-71764819D02*
X155590476Y-71812438D01*
X155590476Y-71812438D02*
X155542857Y-71860057D01*
X155542857Y-71860057D02*
X155495238Y-71955295D01*
X155495238Y-71955295D02*
X155495238Y-72193390D01*
X155495238Y-72193390D02*
X155542857Y-72288628D01*
X155542857Y-72288628D02*
X155590476Y-72336247D01*
X155590476Y-72336247D02*
X155685714Y-72383866D01*
X155685714Y-72383866D02*
X155876190Y-72383866D01*
X155876190Y-72383866D02*
X155971428Y-72336247D01*
X155971428Y-72336247D02*
X156019047Y-72288628D01*
X156019047Y-72288628D02*
X156066666Y-72193390D01*
X143833333Y-105134819D02*
X143500000Y-104658628D01*
X143261905Y-105134819D02*
X143261905Y-104134819D01*
X143261905Y-104134819D02*
X143642857Y-104134819D01*
X143642857Y-104134819D02*
X143738095Y-104182438D01*
X143738095Y-104182438D02*
X143785714Y-104230057D01*
X143785714Y-104230057D02*
X143833333Y-104325295D01*
X143833333Y-104325295D02*
X143833333Y-104468152D01*
X143833333Y-104468152D02*
X143785714Y-104563390D01*
X143785714Y-104563390D02*
X143738095Y-104611009D01*
X143738095Y-104611009D02*
X143642857Y-104658628D01*
X143642857Y-104658628D02*
X143261905Y-104658628D01*
X144690476Y-104468152D02*
X144690476Y-105134819D01*
X144452381Y-104087200D02*
X144214286Y-104801485D01*
X144214286Y-104801485D02*
X144833333Y-104801485D01*
X147190476Y-71954819D02*
X147190476Y-72669104D01*
X147190476Y-72669104D02*
X147142857Y-72811961D01*
X147142857Y-72811961D02*
X147047619Y-72907200D01*
X147047619Y-72907200D02*
X146904762Y-72954819D01*
X146904762Y-72954819D02*
X146809524Y-72954819D01*
X147666667Y-72954819D02*
X147666667Y-71954819D01*
X147666667Y-71954819D02*
X148047619Y-71954819D01*
X148047619Y-71954819D02*
X148142857Y-72002438D01*
X148142857Y-72002438D02*
X148190476Y-72050057D01*
X148190476Y-72050057D02*
X148238095Y-72145295D01*
X148238095Y-72145295D02*
X148238095Y-72288152D01*
X148238095Y-72288152D02*
X148190476Y-72383390D01*
X148190476Y-72383390D02*
X148142857Y-72431009D01*
X148142857Y-72431009D02*
X148047619Y-72478628D01*
X148047619Y-72478628D02*
X147666667Y-72478628D01*
X149190476Y-72954819D02*
X148619048Y-72954819D01*
X148904762Y-72954819D02*
X148904762Y-71954819D01*
X148904762Y-71954819D02*
X148809524Y-72097676D01*
X148809524Y-72097676D02*
X148714286Y-72192914D01*
X148714286Y-72192914D02*
X148619048Y-72240533D01*
X149523810Y-71954819D02*
X150142857Y-71954819D01*
X150142857Y-71954819D02*
X149809524Y-72335771D01*
X149809524Y-72335771D02*
X149952381Y-72335771D01*
X149952381Y-72335771D02*
X150047619Y-72383390D01*
X150047619Y-72383390D02*
X150095238Y-72431009D01*
X150095238Y-72431009D02*
X150142857Y-72526247D01*
X150142857Y-72526247D02*
X150142857Y-72764342D01*
X150142857Y-72764342D02*
X150095238Y-72859580D01*
X150095238Y-72859580D02*
X150047619Y-72907200D01*
X150047619Y-72907200D02*
X149952381Y-72954819D01*
X149952381Y-72954819D02*
X149666667Y-72954819D01*
X149666667Y-72954819D02*
X149571429Y-72907200D01*
X149571429Y-72907200D02*
X149523810Y-72859580D01*
X103815833Y-113769819D02*
X103482500Y-113293628D01*
X103244405Y-113769819D02*
X103244405Y-112769819D01*
X103244405Y-112769819D02*
X103625357Y-112769819D01*
X103625357Y-112769819D02*
X103720595Y-112817438D01*
X103720595Y-112817438D02*
X103768214Y-112865057D01*
X103768214Y-112865057D02*
X103815833Y-112960295D01*
X103815833Y-112960295D02*
X103815833Y-113103152D01*
X103815833Y-113103152D02*
X103768214Y-113198390D01*
X103768214Y-113198390D02*
X103720595Y-113246009D01*
X103720595Y-113246009D02*
X103625357Y-113293628D01*
X103625357Y-113293628D02*
X103244405Y-113293628D01*
X104196786Y-112865057D02*
X104244405Y-112817438D01*
X104244405Y-112817438D02*
X104339643Y-112769819D01*
X104339643Y-112769819D02*
X104577738Y-112769819D01*
X104577738Y-112769819D02*
X104672976Y-112817438D01*
X104672976Y-112817438D02*
X104720595Y-112865057D01*
X104720595Y-112865057D02*
X104768214Y-112960295D01*
X104768214Y-112960295D02*
X104768214Y-113055533D01*
X104768214Y-113055533D02*
X104720595Y-113198390D01*
X104720595Y-113198390D02*
X104149167Y-113769819D01*
X104149167Y-113769819D02*
X104768214Y-113769819D01*
X163248095Y-71704819D02*
X163248095Y-72514342D01*
X163248095Y-72514342D02*
X163295714Y-72609580D01*
X163295714Y-72609580D02*
X163343333Y-72657200D01*
X163343333Y-72657200D02*
X163438571Y-72704819D01*
X163438571Y-72704819D02*
X163629047Y-72704819D01*
X163629047Y-72704819D02*
X163724285Y-72657200D01*
X163724285Y-72657200D02*
X163771904Y-72609580D01*
X163771904Y-72609580D02*
X163819523Y-72514342D01*
X163819523Y-72514342D02*
X163819523Y-71704819D01*
X164438571Y-72133390D02*
X164343333Y-72085771D01*
X164343333Y-72085771D02*
X164295714Y-72038152D01*
X164295714Y-72038152D02*
X164248095Y-71942914D01*
X164248095Y-71942914D02*
X164248095Y-71895295D01*
X164248095Y-71895295D02*
X164295714Y-71800057D01*
X164295714Y-71800057D02*
X164343333Y-71752438D01*
X164343333Y-71752438D02*
X164438571Y-71704819D01*
X164438571Y-71704819D02*
X164629047Y-71704819D01*
X164629047Y-71704819D02*
X164724285Y-71752438D01*
X164724285Y-71752438D02*
X164771904Y-71800057D01*
X164771904Y-71800057D02*
X164819523Y-71895295D01*
X164819523Y-71895295D02*
X164819523Y-71942914D01*
X164819523Y-71942914D02*
X164771904Y-72038152D01*
X164771904Y-72038152D02*
X164724285Y-72085771D01*
X164724285Y-72085771D02*
X164629047Y-72133390D01*
X164629047Y-72133390D02*
X164438571Y-72133390D01*
X164438571Y-72133390D02*
X164343333Y-72181009D01*
X164343333Y-72181009D02*
X164295714Y-72228628D01*
X164295714Y-72228628D02*
X164248095Y-72323866D01*
X164248095Y-72323866D02*
X164248095Y-72514342D01*
X164248095Y-72514342D02*
X164295714Y-72609580D01*
X164295714Y-72609580D02*
X164343333Y-72657200D01*
X164343333Y-72657200D02*
X164438571Y-72704819D01*
X164438571Y-72704819D02*
X164629047Y-72704819D01*
X164629047Y-72704819D02*
X164724285Y-72657200D01*
X164724285Y-72657200D02*
X164771904Y-72609580D01*
X164771904Y-72609580D02*
X164819523Y-72514342D01*
X164819523Y-72514342D02*
X164819523Y-72323866D01*
X164819523Y-72323866D02*
X164771904Y-72228628D01*
X164771904Y-72228628D02*
X164724285Y-72181009D01*
X164724285Y-72181009D02*
X164629047Y-72133390D01*
X108833333Y-113184580D02*
X108785714Y-113232200D01*
X108785714Y-113232200D02*
X108642857Y-113279819D01*
X108642857Y-113279819D02*
X108547619Y-113279819D01*
X108547619Y-113279819D02*
X108404762Y-113232200D01*
X108404762Y-113232200D02*
X108309524Y-113136961D01*
X108309524Y-113136961D02*
X108261905Y-113041723D01*
X108261905Y-113041723D02*
X108214286Y-112851247D01*
X108214286Y-112851247D02*
X108214286Y-112708390D01*
X108214286Y-112708390D02*
X108261905Y-112517914D01*
X108261905Y-112517914D02*
X108309524Y-112422676D01*
X108309524Y-112422676D02*
X108404762Y-112327438D01*
X108404762Y-112327438D02*
X108547619Y-112279819D01*
X108547619Y-112279819D02*
X108642857Y-112279819D01*
X108642857Y-112279819D02*
X108785714Y-112327438D01*
X108785714Y-112327438D02*
X108833333Y-112375057D01*
X109785714Y-113279819D02*
X109214286Y-113279819D01*
X109500000Y-113279819D02*
X109500000Y-112279819D01*
X109500000Y-112279819D02*
X109404762Y-112422676D01*
X109404762Y-112422676D02*
X109309524Y-112517914D01*
X109309524Y-112517914D02*
X109214286Y-112565533D01*
X116516766Y-70654719D02*
X116516766Y-71369004D01*
X116516766Y-71369004D02*
X116469147Y-71511861D01*
X116469147Y-71511861D02*
X116373909Y-71607100D01*
X116373909Y-71607100D02*
X116231052Y-71654719D01*
X116231052Y-71654719D02*
X116135814Y-71654719D01*
X116992957Y-71654719D02*
X116992957Y-70654719D01*
X116992957Y-70654719D02*
X117373909Y-70654719D01*
X117373909Y-70654719D02*
X117469147Y-70702338D01*
X117469147Y-70702338D02*
X117516766Y-70749957D01*
X117516766Y-70749957D02*
X117564385Y-70845195D01*
X117564385Y-70845195D02*
X117564385Y-70988052D01*
X117564385Y-70988052D02*
X117516766Y-71083290D01*
X117516766Y-71083290D02*
X117469147Y-71130909D01*
X117469147Y-71130909D02*
X117373909Y-71178528D01*
X117373909Y-71178528D02*
X116992957Y-71178528D01*
X117897719Y-70654719D02*
X118564385Y-70654719D01*
X118564385Y-70654719D02*
X118135814Y-71654719D01*
X109264819Y-122603333D02*
X109979104Y-122603333D01*
X109979104Y-122603333D02*
X110121961Y-122650952D01*
X110121961Y-122650952D02*
X110217200Y-122746190D01*
X110217200Y-122746190D02*
X110264819Y-122889047D01*
X110264819Y-122889047D02*
X110264819Y-122984285D01*
X110264819Y-121603333D02*
X110264819Y-122174761D01*
X110264819Y-121889047D02*
X109264819Y-121889047D01*
X109264819Y-121889047D02*
X109407676Y-121984285D01*
X109407676Y-121984285D02*
X109502914Y-122079523D01*
X109502914Y-122079523D02*
X109550533Y-122174761D01*
X149690476Y-83954819D02*
X149690476Y-84669104D01*
X149690476Y-84669104D02*
X149642857Y-84811961D01*
X149642857Y-84811961D02*
X149547619Y-84907200D01*
X149547619Y-84907200D02*
X149404762Y-84954819D01*
X149404762Y-84954819D02*
X149309524Y-84954819D01*
X150166667Y-84954819D02*
X150166667Y-83954819D01*
X150166667Y-83954819D02*
X150547619Y-83954819D01*
X150547619Y-83954819D02*
X150642857Y-84002438D01*
X150642857Y-84002438D02*
X150690476Y-84050057D01*
X150690476Y-84050057D02*
X150738095Y-84145295D01*
X150738095Y-84145295D02*
X150738095Y-84288152D01*
X150738095Y-84288152D02*
X150690476Y-84383390D01*
X150690476Y-84383390D02*
X150642857Y-84431009D01*
X150642857Y-84431009D02*
X150547619Y-84478628D01*
X150547619Y-84478628D02*
X150166667Y-84478628D01*
X151690476Y-84954819D02*
X151119048Y-84954819D01*
X151404762Y-84954819D02*
X151404762Y-83954819D01*
X151404762Y-83954819D02*
X151309524Y-84097676D01*
X151309524Y-84097676D02*
X151214286Y-84192914D01*
X151214286Y-84192914D02*
X151119048Y-84240533D01*
X152547619Y-84288152D02*
X152547619Y-84954819D01*
X152309524Y-83907200D02*
X152071429Y-84621485D01*
X152071429Y-84621485D02*
X152690476Y-84621485D01*
X161656666Y-93894819D02*
X161656666Y-94609104D01*
X161656666Y-94609104D02*
X161609047Y-94751961D01*
X161609047Y-94751961D02*
X161513809Y-94847200D01*
X161513809Y-94847200D02*
X161370952Y-94894819D01*
X161370952Y-94894819D02*
X161275714Y-94894819D01*
X162132857Y-94894819D02*
X162132857Y-93894819D01*
X162132857Y-93894819D02*
X162513809Y-93894819D01*
X162513809Y-93894819D02*
X162609047Y-93942438D01*
X162609047Y-93942438D02*
X162656666Y-93990057D01*
X162656666Y-93990057D02*
X162704285Y-94085295D01*
X162704285Y-94085295D02*
X162704285Y-94228152D01*
X162704285Y-94228152D02*
X162656666Y-94323390D01*
X162656666Y-94323390D02*
X162609047Y-94371009D01*
X162609047Y-94371009D02*
X162513809Y-94418628D01*
X162513809Y-94418628D02*
X162132857Y-94418628D01*
X163037619Y-93894819D02*
X163656666Y-93894819D01*
X163656666Y-93894819D02*
X163323333Y-94275771D01*
X163323333Y-94275771D02*
X163466190Y-94275771D01*
X163466190Y-94275771D02*
X163561428Y-94323390D01*
X163561428Y-94323390D02*
X163609047Y-94371009D01*
X163609047Y-94371009D02*
X163656666Y-94466247D01*
X163656666Y-94466247D02*
X163656666Y-94704342D01*
X163656666Y-94704342D02*
X163609047Y-94799580D01*
X163609047Y-94799580D02*
X163561428Y-94847200D01*
X163561428Y-94847200D02*
X163466190Y-94894819D01*
X163466190Y-94894819D02*
X163180476Y-94894819D01*
X163180476Y-94894819D02*
X163085238Y-94847200D01*
X163085238Y-94847200D02*
X163037619Y-94799580D01*
X117789580Y-107491666D02*
X117837200Y-107539285D01*
X117837200Y-107539285D02*
X117884819Y-107682142D01*
X117884819Y-107682142D02*
X117884819Y-107777380D01*
X117884819Y-107777380D02*
X117837200Y-107920237D01*
X117837200Y-107920237D02*
X117741961Y-108015475D01*
X117741961Y-108015475D02*
X117646723Y-108063094D01*
X117646723Y-108063094D02*
X117456247Y-108110713D01*
X117456247Y-108110713D02*
X117313390Y-108110713D01*
X117313390Y-108110713D02*
X117122914Y-108063094D01*
X117122914Y-108063094D02*
X117027676Y-108015475D01*
X117027676Y-108015475D02*
X116932438Y-107920237D01*
X116932438Y-107920237D02*
X116884819Y-107777380D01*
X116884819Y-107777380D02*
X116884819Y-107682142D01*
X116884819Y-107682142D02*
X116932438Y-107539285D01*
X116932438Y-107539285D02*
X116980057Y-107491666D01*
X116884819Y-107158332D02*
X116884819Y-106539285D01*
X116884819Y-106539285D02*
X117265771Y-106872618D01*
X117265771Y-106872618D02*
X117265771Y-106729761D01*
X117265771Y-106729761D02*
X117313390Y-106634523D01*
X117313390Y-106634523D02*
X117361009Y-106586904D01*
X117361009Y-106586904D02*
X117456247Y-106539285D01*
X117456247Y-106539285D02*
X117694342Y-106539285D01*
X117694342Y-106539285D02*
X117789580Y-106586904D01*
X117789580Y-106586904D02*
X117837200Y-106634523D01*
X117837200Y-106634523D02*
X117884819Y-106729761D01*
X117884819Y-106729761D02*
X117884819Y-107015475D01*
X117884819Y-107015475D02*
X117837200Y-107110713D01*
X117837200Y-107110713D02*
X117789580Y-107158332D01*
X138327142Y-101689580D02*
X138279523Y-101737200D01*
X138279523Y-101737200D02*
X138136666Y-101784819D01*
X138136666Y-101784819D02*
X138041428Y-101784819D01*
X138041428Y-101784819D02*
X137898571Y-101737200D01*
X137898571Y-101737200D02*
X137803333Y-101641961D01*
X137803333Y-101641961D02*
X137755714Y-101546723D01*
X137755714Y-101546723D02*
X137708095Y-101356247D01*
X137708095Y-101356247D02*
X137708095Y-101213390D01*
X137708095Y-101213390D02*
X137755714Y-101022914D01*
X137755714Y-101022914D02*
X137803333Y-100927676D01*
X137803333Y-100927676D02*
X137898571Y-100832438D01*
X137898571Y-100832438D02*
X138041428Y-100784819D01*
X138041428Y-100784819D02*
X138136666Y-100784819D01*
X138136666Y-100784819D02*
X138279523Y-100832438D01*
X138279523Y-100832438D02*
X138327142Y-100880057D01*
X139279523Y-101784819D02*
X138708095Y-101784819D01*
X138993809Y-101784819D02*
X138993809Y-100784819D01*
X138993809Y-100784819D02*
X138898571Y-100927676D01*
X138898571Y-100927676D02*
X138803333Y-101022914D01*
X138803333Y-101022914D02*
X138708095Y-101070533D01*
X140136666Y-101118152D02*
X140136666Y-101784819D01*
X139898571Y-100737200D02*
X139660476Y-101451485D01*
X139660476Y-101451485D02*
X140279523Y-101451485D01*
X164008095Y-80624819D02*
X164008095Y-81434342D01*
X164008095Y-81434342D02*
X164055714Y-81529580D01*
X164055714Y-81529580D02*
X164103333Y-81577200D01*
X164103333Y-81577200D02*
X164198571Y-81624819D01*
X164198571Y-81624819D02*
X164389047Y-81624819D01*
X164389047Y-81624819D02*
X164484285Y-81577200D01*
X164484285Y-81577200D02*
X164531904Y-81529580D01*
X164531904Y-81529580D02*
X164579523Y-81434342D01*
X164579523Y-81434342D02*
X164579523Y-80624819D01*
X165103333Y-81624819D02*
X165293809Y-81624819D01*
X165293809Y-81624819D02*
X165389047Y-81577200D01*
X165389047Y-81577200D02*
X165436666Y-81529580D01*
X165436666Y-81529580D02*
X165531904Y-81386723D01*
X165531904Y-81386723D02*
X165579523Y-81196247D01*
X165579523Y-81196247D02*
X165579523Y-80815295D01*
X165579523Y-80815295D02*
X165531904Y-80720057D01*
X165531904Y-80720057D02*
X165484285Y-80672438D01*
X165484285Y-80672438D02*
X165389047Y-80624819D01*
X165389047Y-80624819D02*
X165198571Y-80624819D01*
X165198571Y-80624819D02*
X165103333Y-80672438D01*
X165103333Y-80672438D02*
X165055714Y-80720057D01*
X165055714Y-80720057D02*
X165008095Y-80815295D01*
X165008095Y-80815295D02*
X165008095Y-81053390D01*
X165008095Y-81053390D02*
X165055714Y-81148628D01*
X165055714Y-81148628D02*
X165103333Y-81196247D01*
X165103333Y-81196247D02*
X165198571Y-81243866D01*
X165198571Y-81243866D02*
X165389047Y-81243866D01*
X165389047Y-81243866D02*
X165484285Y-81196247D01*
X165484285Y-81196247D02*
X165531904Y-81148628D01*
X165531904Y-81148628D02*
X165579523Y-81053390D01*
X124261905Y-112004819D02*
X124261905Y-112814342D01*
X124261905Y-112814342D02*
X124309524Y-112909580D01*
X124309524Y-112909580D02*
X124357143Y-112957200D01*
X124357143Y-112957200D02*
X124452381Y-113004819D01*
X124452381Y-113004819D02*
X124642857Y-113004819D01*
X124642857Y-113004819D02*
X124738095Y-112957200D01*
X124738095Y-112957200D02*
X124785714Y-112909580D01*
X124785714Y-112909580D02*
X124833333Y-112814342D01*
X124833333Y-112814342D02*
X124833333Y-112004819D01*
X125833333Y-113004819D02*
X125261905Y-113004819D01*
X125547619Y-113004819D02*
X125547619Y-112004819D01*
X125547619Y-112004819D02*
X125452381Y-112147676D01*
X125452381Y-112147676D02*
X125357143Y-112242914D01*
X125357143Y-112242914D02*
X125261905Y-112290533D01*
X126785714Y-113004819D02*
X126214286Y-113004819D01*
X126500000Y-113004819D02*
X126500000Y-112004819D01*
X126500000Y-112004819D02*
X126404762Y-112147676D01*
X126404762Y-112147676D02*
X126309524Y-112242914D01*
X126309524Y-112242914D02*
X126214286Y-112290533D01*
X155543333Y-86694819D02*
X155210000Y-86218628D01*
X154971905Y-86694819D02*
X154971905Y-85694819D01*
X154971905Y-85694819D02*
X155352857Y-85694819D01*
X155352857Y-85694819D02*
X155448095Y-85742438D01*
X155448095Y-85742438D02*
X155495714Y-85790057D01*
X155495714Y-85790057D02*
X155543333Y-85885295D01*
X155543333Y-85885295D02*
X155543333Y-86028152D01*
X155543333Y-86028152D02*
X155495714Y-86123390D01*
X155495714Y-86123390D02*
X155448095Y-86171009D01*
X155448095Y-86171009D02*
X155352857Y-86218628D01*
X155352857Y-86218628D02*
X154971905Y-86218628D01*
X156448095Y-85694819D02*
X155971905Y-85694819D01*
X155971905Y-85694819D02*
X155924286Y-86171009D01*
X155924286Y-86171009D02*
X155971905Y-86123390D01*
X155971905Y-86123390D02*
X156067143Y-86075771D01*
X156067143Y-86075771D02*
X156305238Y-86075771D01*
X156305238Y-86075771D02*
X156400476Y-86123390D01*
X156400476Y-86123390D02*
X156448095Y-86171009D01*
X156448095Y-86171009D02*
X156495714Y-86266247D01*
X156495714Y-86266247D02*
X156495714Y-86504342D01*
X156495714Y-86504342D02*
X156448095Y-86599580D01*
X156448095Y-86599580D02*
X156400476Y-86647200D01*
X156400476Y-86647200D02*
X156305238Y-86694819D01*
X156305238Y-86694819D02*
X156067143Y-86694819D01*
X156067143Y-86694819D02*
X155971905Y-86647200D01*
X155971905Y-86647200D02*
X155924286Y-86599580D01*
X130507142Y-80799580D02*
X130459523Y-80847200D01*
X130459523Y-80847200D02*
X130316666Y-80894819D01*
X130316666Y-80894819D02*
X130221428Y-80894819D01*
X130221428Y-80894819D02*
X130078571Y-80847200D01*
X130078571Y-80847200D02*
X129983333Y-80751961D01*
X129983333Y-80751961D02*
X129935714Y-80656723D01*
X129935714Y-80656723D02*
X129888095Y-80466247D01*
X129888095Y-80466247D02*
X129888095Y-80323390D01*
X129888095Y-80323390D02*
X129935714Y-80132914D01*
X129935714Y-80132914D02*
X129983333Y-80037676D01*
X129983333Y-80037676D02*
X130078571Y-79942438D01*
X130078571Y-79942438D02*
X130221428Y-79894819D01*
X130221428Y-79894819D02*
X130316666Y-79894819D01*
X130316666Y-79894819D02*
X130459523Y-79942438D01*
X130459523Y-79942438D02*
X130507142Y-79990057D01*
X131459523Y-80894819D02*
X130888095Y-80894819D01*
X131173809Y-80894819D02*
X131173809Y-79894819D01*
X131173809Y-79894819D02*
X131078571Y-80037676D01*
X131078571Y-80037676D02*
X130983333Y-80132914D01*
X130983333Y-80132914D02*
X130888095Y-80180533D01*
X132078571Y-79894819D02*
X132173809Y-79894819D01*
X132173809Y-79894819D02*
X132269047Y-79942438D01*
X132269047Y-79942438D02*
X132316666Y-79990057D01*
X132316666Y-79990057D02*
X132364285Y-80085295D01*
X132364285Y-80085295D02*
X132411904Y-80275771D01*
X132411904Y-80275771D02*
X132411904Y-80513866D01*
X132411904Y-80513866D02*
X132364285Y-80704342D01*
X132364285Y-80704342D02*
X132316666Y-80799580D01*
X132316666Y-80799580D02*
X132269047Y-80847200D01*
X132269047Y-80847200D02*
X132173809Y-80894819D01*
X132173809Y-80894819D02*
X132078571Y-80894819D01*
X132078571Y-80894819D02*
X131983333Y-80847200D01*
X131983333Y-80847200D02*
X131935714Y-80799580D01*
X131935714Y-80799580D02*
X131888095Y-80704342D01*
X131888095Y-80704342D02*
X131840476Y-80513866D01*
X131840476Y-80513866D02*
X131840476Y-80275771D01*
X131840476Y-80275771D02*
X131888095Y-80085295D01*
X131888095Y-80085295D02*
X131935714Y-79990057D01*
X131935714Y-79990057D02*
X131983333Y-79942438D01*
X131983333Y-79942438D02*
X132078571Y-79894819D01*
X102134819Y-106991666D02*
X101658628Y-107324999D01*
X102134819Y-107563094D02*
X101134819Y-107563094D01*
X101134819Y-107563094D02*
X101134819Y-107182142D01*
X101134819Y-107182142D02*
X101182438Y-107086904D01*
X101182438Y-107086904D02*
X101230057Y-107039285D01*
X101230057Y-107039285D02*
X101325295Y-106991666D01*
X101325295Y-106991666D02*
X101468152Y-106991666D01*
X101468152Y-106991666D02*
X101563390Y-107039285D01*
X101563390Y-107039285D02*
X101611009Y-107086904D01*
X101611009Y-107086904D02*
X101658628Y-107182142D01*
X101658628Y-107182142D02*
X101658628Y-107563094D01*
X102134819Y-106039285D02*
X102134819Y-106610713D01*
X102134819Y-106324999D02*
X101134819Y-106324999D01*
X101134819Y-106324999D02*
X101277676Y-106420237D01*
X101277676Y-106420237D02*
X101372914Y-106515475D01*
X101372914Y-106515475D02*
X101420533Y-106610713D01*
X170194819Y-73726666D02*
X170194819Y-74202856D01*
X170194819Y-74202856D02*
X169194819Y-74202856D01*
X170194819Y-72869523D02*
X170194819Y-73440951D01*
X170194819Y-73155237D02*
X169194819Y-73155237D01*
X169194819Y-73155237D02*
X169337676Y-73250475D01*
X169337676Y-73250475D02*
X169432914Y-73345713D01*
X169432914Y-73345713D02*
X169480533Y-73440951D01*
X157359580Y-111666666D02*
X157407200Y-111714285D01*
X157407200Y-111714285D02*
X157454819Y-111857142D01*
X157454819Y-111857142D02*
X157454819Y-111952380D01*
X157454819Y-111952380D02*
X157407200Y-112095237D01*
X157407200Y-112095237D02*
X157311961Y-112190475D01*
X157311961Y-112190475D02*
X157216723Y-112238094D01*
X157216723Y-112238094D02*
X157026247Y-112285713D01*
X157026247Y-112285713D02*
X156883390Y-112285713D01*
X156883390Y-112285713D02*
X156692914Y-112238094D01*
X156692914Y-112238094D02*
X156597676Y-112190475D01*
X156597676Y-112190475D02*
X156502438Y-112095237D01*
X156502438Y-112095237D02*
X156454819Y-111952380D01*
X156454819Y-111952380D02*
X156454819Y-111857142D01*
X156454819Y-111857142D02*
X156502438Y-111714285D01*
X156502438Y-111714285D02*
X156550057Y-111666666D01*
X156454819Y-110809523D02*
X156454819Y-110999999D01*
X156454819Y-110999999D02*
X156502438Y-111095237D01*
X156502438Y-111095237D02*
X156550057Y-111142856D01*
X156550057Y-111142856D02*
X156692914Y-111238094D01*
X156692914Y-111238094D02*
X156883390Y-111285713D01*
X156883390Y-111285713D02*
X157264342Y-111285713D01*
X157264342Y-111285713D02*
X157359580Y-111238094D01*
X157359580Y-111238094D02*
X157407200Y-111190475D01*
X157407200Y-111190475D02*
X157454819Y-111095237D01*
X157454819Y-111095237D02*
X157454819Y-110904761D01*
X157454819Y-110904761D02*
X157407200Y-110809523D01*
X157407200Y-110809523D02*
X157359580Y-110761904D01*
X157359580Y-110761904D02*
X157264342Y-110714285D01*
X157264342Y-110714285D02*
X157026247Y-110714285D01*
X157026247Y-110714285D02*
X156931009Y-110761904D01*
X156931009Y-110761904D02*
X156883390Y-110809523D01*
X156883390Y-110809523D02*
X156835771Y-110904761D01*
X156835771Y-110904761D02*
X156835771Y-111095237D01*
X156835771Y-111095237D02*
X156883390Y-111190475D01*
X156883390Y-111190475D02*
X156931009Y-111238094D01*
X156931009Y-111238094D02*
X157026247Y-111285713D01*
X96748095Y-111076819D02*
X97319523Y-111076819D01*
X97033809Y-112076819D02*
X97033809Y-111076819D01*
X97652857Y-112076819D02*
X97652857Y-111076819D01*
X97652857Y-111076819D02*
X98033809Y-111076819D01*
X98033809Y-111076819D02*
X98129047Y-111124438D01*
X98129047Y-111124438D02*
X98176666Y-111172057D01*
X98176666Y-111172057D02*
X98224285Y-111267295D01*
X98224285Y-111267295D02*
X98224285Y-111410152D01*
X98224285Y-111410152D02*
X98176666Y-111505390D01*
X98176666Y-111505390D02*
X98129047Y-111553009D01*
X98129047Y-111553009D02*
X98033809Y-111600628D01*
X98033809Y-111600628D02*
X97652857Y-111600628D01*
X99176666Y-112076819D02*
X98605238Y-112076819D01*
X98890952Y-112076819D02*
X98890952Y-111076819D01*
X98890952Y-111076819D02*
X98795714Y-111219676D01*
X98795714Y-111219676D02*
X98700476Y-111314914D01*
X98700476Y-111314914D02*
X98605238Y-111362533D01*
X96738095Y-98056819D02*
X97309523Y-98056819D01*
X97023809Y-99056819D02*
X97023809Y-98056819D01*
X97642857Y-99056819D02*
X97642857Y-98056819D01*
X97642857Y-98056819D02*
X98023809Y-98056819D01*
X98023809Y-98056819D02*
X98119047Y-98104438D01*
X98119047Y-98104438D02*
X98166666Y-98152057D01*
X98166666Y-98152057D02*
X98214285Y-98247295D01*
X98214285Y-98247295D02*
X98214285Y-98390152D01*
X98214285Y-98390152D02*
X98166666Y-98485390D01*
X98166666Y-98485390D02*
X98119047Y-98533009D01*
X98119047Y-98533009D02*
X98023809Y-98580628D01*
X98023809Y-98580628D02*
X97642857Y-98580628D01*
X99119047Y-98056819D02*
X98642857Y-98056819D01*
X98642857Y-98056819D02*
X98595238Y-98533009D01*
X98595238Y-98533009D02*
X98642857Y-98485390D01*
X98642857Y-98485390D02*
X98738095Y-98437771D01*
X98738095Y-98437771D02*
X98976190Y-98437771D01*
X98976190Y-98437771D02*
X99071428Y-98485390D01*
X99071428Y-98485390D02*
X99119047Y-98533009D01*
X99119047Y-98533009D02*
X99166666Y-98628247D01*
X99166666Y-98628247D02*
X99166666Y-98866342D01*
X99166666Y-98866342D02*
X99119047Y-98961580D01*
X99119047Y-98961580D02*
X99071428Y-99009200D01*
X99071428Y-99009200D02*
X98976190Y-99056819D01*
X98976190Y-99056819D02*
X98738095Y-99056819D01*
X98738095Y-99056819D02*
X98642857Y-99009200D01*
X98642857Y-99009200D02*
X98595238Y-98961580D01*
X169316666Y-89428119D02*
X169316666Y-90142404D01*
X169316666Y-90142404D02*
X169269047Y-90285261D01*
X169269047Y-90285261D02*
X169173809Y-90380500D01*
X169173809Y-90380500D02*
X169030952Y-90428119D01*
X169030952Y-90428119D02*
X168935714Y-90428119D01*
X170269047Y-89428119D02*
X169792857Y-89428119D01*
X169792857Y-89428119D02*
X169745238Y-89904309D01*
X169745238Y-89904309D02*
X169792857Y-89856690D01*
X169792857Y-89856690D02*
X169888095Y-89809071D01*
X169888095Y-89809071D02*
X170126190Y-89809071D01*
X170126190Y-89809071D02*
X170221428Y-89856690D01*
X170221428Y-89856690D02*
X170269047Y-89904309D01*
X170269047Y-89904309D02*
X170316666Y-89999547D01*
X170316666Y-89999547D02*
X170316666Y-90237642D01*
X170316666Y-90237642D02*
X170269047Y-90332880D01*
X170269047Y-90332880D02*
X170221428Y-90380500D01*
X170221428Y-90380500D02*
X170126190Y-90428119D01*
X170126190Y-90428119D02*
X169888095Y-90428119D01*
X169888095Y-90428119D02*
X169792857Y-90380500D01*
X169792857Y-90380500D02*
X169745238Y-90332880D01*
X126127319Y-92373333D02*
X126841604Y-92373333D01*
X126841604Y-92373333D02*
X126984461Y-92420952D01*
X126984461Y-92420952D02*
X127079700Y-92516190D01*
X127079700Y-92516190D02*
X127127319Y-92659047D01*
X127127319Y-92659047D02*
X127127319Y-92754285D01*
X127127319Y-91897142D02*
X126127319Y-91897142D01*
X126127319Y-91897142D02*
X126127319Y-91516190D01*
X126127319Y-91516190D02*
X126174938Y-91420952D01*
X126174938Y-91420952D02*
X126222557Y-91373333D01*
X126222557Y-91373333D02*
X126317795Y-91325714D01*
X126317795Y-91325714D02*
X126460652Y-91325714D01*
X126460652Y-91325714D02*
X126555890Y-91373333D01*
X126555890Y-91373333D02*
X126603509Y-91420952D01*
X126603509Y-91420952D02*
X126651128Y-91516190D01*
X126651128Y-91516190D02*
X126651128Y-91897142D01*
X126127319Y-90468571D02*
X126127319Y-90659047D01*
X126127319Y-90659047D02*
X126174938Y-90754285D01*
X126174938Y-90754285D02*
X126222557Y-90801904D01*
X126222557Y-90801904D02*
X126365414Y-90897142D01*
X126365414Y-90897142D02*
X126555890Y-90944761D01*
X126555890Y-90944761D02*
X126936842Y-90944761D01*
X126936842Y-90944761D02*
X127032080Y-90897142D01*
X127032080Y-90897142D02*
X127079700Y-90849523D01*
X127079700Y-90849523D02*
X127127319Y-90754285D01*
X127127319Y-90754285D02*
X127127319Y-90563809D01*
X127127319Y-90563809D02*
X127079700Y-90468571D01*
X127079700Y-90468571D02*
X127032080Y-90420952D01*
X127032080Y-90420952D02*
X126936842Y-90373333D01*
X126936842Y-90373333D02*
X126698747Y-90373333D01*
X126698747Y-90373333D02*
X126603509Y-90420952D01*
X126603509Y-90420952D02*
X126555890Y-90468571D01*
X126555890Y-90468571D02*
X126508271Y-90563809D01*
X126508271Y-90563809D02*
X126508271Y-90754285D01*
X126508271Y-90754285D02*
X126555890Y-90849523D01*
X126555890Y-90849523D02*
X126603509Y-90897142D01*
X126603509Y-90897142D02*
X126698747Y-90944761D01*
X158694819Y-78650357D02*
X158218628Y-78983690D01*
X158694819Y-79221785D02*
X157694819Y-79221785D01*
X157694819Y-79221785D02*
X157694819Y-78840833D01*
X157694819Y-78840833D02*
X157742438Y-78745595D01*
X157742438Y-78745595D02*
X157790057Y-78697976D01*
X157790057Y-78697976D02*
X157885295Y-78650357D01*
X157885295Y-78650357D02*
X158028152Y-78650357D01*
X158028152Y-78650357D02*
X158123390Y-78697976D01*
X158123390Y-78697976D02*
X158171009Y-78745595D01*
X158171009Y-78745595D02*
X158218628Y-78840833D01*
X158218628Y-78840833D02*
X158218628Y-79221785D01*
X158694819Y-77697976D02*
X158694819Y-78269404D01*
X158694819Y-77983690D02*
X157694819Y-77983690D01*
X157694819Y-77983690D02*
X157837676Y-78078928D01*
X157837676Y-78078928D02*
X157932914Y-78174166D01*
X157932914Y-78174166D02*
X157980533Y-78269404D01*
X158028152Y-76840833D02*
X158694819Y-76840833D01*
X157647200Y-77078928D02*
X158361485Y-77317023D01*
X158361485Y-77317023D02*
X158361485Y-76697976D01*
X123761905Y-71024819D02*
X123761905Y-70024819D01*
X123761905Y-70024819D02*
X124000000Y-70024819D01*
X124000000Y-70024819D02*
X124142857Y-70072438D01*
X124142857Y-70072438D02*
X124238095Y-70167676D01*
X124238095Y-70167676D02*
X124285714Y-70262914D01*
X124285714Y-70262914D02*
X124333333Y-70453390D01*
X124333333Y-70453390D02*
X124333333Y-70596247D01*
X124333333Y-70596247D02*
X124285714Y-70786723D01*
X124285714Y-70786723D02*
X124238095Y-70881961D01*
X124238095Y-70881961D02*
X124142857Y-70977200D01*
X124142857Y-70977200D02*
X124000000Y-71024819D01*
X124000000Y-71024819D02*
X123761905Y-71024819D01*
X125285714Y-71024819D02*
X124714286Y-71024819D01*
X125000000Y-71024819D02*
X125000000Y-70024819D01*
X125000000Y-70024819D02*
X124904762Y-70167676D01*
X124904762Y-70167676D02*
X124809524Y-70262914D01*
X124809524Y-70262914D02*
X124714286Y-70310533D01*
D12*
%TO.C,J8*%
X104300000Y-79380000D02*
X99160000Y-79380000D01*
X106900000Y-79380000D02*
X105570000Y-79380000D01*
X106900000Y-78050000D02*
X106900000Y-79380000D01*
X99160000Y-76720000D02*
X99160000Y-79380000D01*
X104300000Y-76720000D02*
X104300000Y-79380000D01*
X104300000Y-76720000D02*
X99160000Y-76720000D01*
%TO.C,J3*%
X168320000Y-105630000D02*
X169650000Y-105630000D01*
X168320000Y-106960000D02*
X168320000Y-105630000D01*
X168320000Y-108230000D02*
X168320000Y-110830000D01*
X168320000Y-108230000D02*
X170980000Y-108230000D01*
X168320000Y-110830000D02*
X170980000Y-110830000D01*
X170980000Y-108230000D02*
X170980000Y-110830000D01*
%TO.C,C12*%
X155580000Y-79276267D02*
X155580000Y-78983733D01*
X156600000Y-79276267D02*
X156600000Y-78983733D01*
%TO.C,C5*%
X155042500Y-107358767D02*
X155042500Y-107066233D01*
X156062500Y-107358767D02*
X156062500Y-107066233D01*
D13*
%TO.C,U7*%
X113123787Y-91593787D02*
X114576213Y-91593787D01*
X113123787Y-93575398D02*
X113123787Y-92664602D01*
X113123787Y-94646213D02*
X114576213Y-94646213D01*
X114576213Y-91593787D02*
X114576213Y-92625410D01*
X114576213Y-94646213D02*
X114576213Y-93614590D01*
D14*
X112679997Y-91669987D02*
G75*
G02*
X112620003Y-91669987I-29997J0D01*
G01*
X112620003Y-91669987D02*
G75*
G02*
X112679997Y-91669987I29997J0D01*
G01*
D12*
%TO.C,R3*%
X141090000Y-111727064D02*
X141090000Y-110272936D01*
X142910000Y-111727064D02*
X142910000Y-110272936D01*
%TO.C,TP2*%
X99750000Y-94500000D02*
G75*
G02*
X96250000Y-94500000I-1750000J0D01*
G01*
X96250000Y-94500000D02*
G75*
G02*
X99750000Y-94500000I1750000J0D01*
G01*
D15*
%TO.C,U5*%
X120450089Y-81449962D02*
X125550165Y-81449962D01*
X120450089Y-82699898D02*
X120450089Y-81449962D01*
X120450089Y-84300102D02*
X120450089Y-85550038D01*
X125549911Y-81449962D02*
X125549911Y-85550038D01*
X125549911Y-85550038D02*
X120449835Y-85550038D01*
X120500127Y-82699898D02*
G75*
G02*
X120500127Y-84300102I-375289J-800102D01*
G01*
X120140208Y-86000127D02*
G75*
G02*
X119799848Y-86000127I-170180J0D01*
G01*
X119799848Y-86000127D02*
G75*
G02*
X120140208Y-86000127I170180J0D01*
G01*
D14*
X120575819Y-86449962D02*
G75*
G02*
X120515875Y-86449962I-29972J0D01*
G01*
X120515875Y-86449962D02*
G75*
G02*
X120575819Y-86449962I29972J0D01*
G01*
D12*
%TO.C,TP3*%
X99750000Y-88000000D02*
G75*
G02*
X96250000Y-88000000I-1750000J0D01*
G01*
X96250000Y-88000000D02*
G75*
G02*
X99750000Y-88000000I1750000J0D01*
G01*
%TO.C,JP15*%
X129000000Y-115600000D02*
X129000000Y-114200000D01*
X129700000Y-113500000D02*
X130300000Y-113500000D01*
X130300000Y-116300000D02*
X129700000Y-116300000D01*
X131000000Y-114200000D02*
X131000000Y-115600000D01*
X129000000Y-114200000D02*
G75*
G02*
X129700000Y-113500000I700000J0D01*
G01*
X129700000Y-116300000D02*
G75*
G02*
X129000000Y-115600000I-1J699999D01*
G01*
X130300000Y-113500000D02*
G75*
G02*
X131000000Y-114200000I0J-700000D01*
G01*
X131000000Y-115600000D02*
G75*
G02*
X130300000Y-116300000I-699999J-1D01*
G01*
%TO.C,R15*%
X158877500Y-73184724D02*
X158877500Y-72675276D01*
X159922500Y-73184724D02*
X159922500Y-72675276D01*
%TO.C,TP4*%
X99750000Y-107500000D02*
G75*
G02*
X96250000Y-107500000I-1750000J0D01*
G01*
X96250000Y-107500000D02*
G75*
G02*
X99750000Y-107500000I1750000J0D01*
G01*
%TO.C,U1*%
X111000000Y-104265000D02*
X108800000Y-104265000D01*
X111000000Y-104265000D02*
X113200000Y-104265000D01*
X111000000Y-109735000D02*
X108800000Y-109735000D01*
X111000000Y-109735000D02*
X113200000Y-109735000D01*
X107140000Y-104725000D02*
X106810000Y-104965000D01*
X106810000Y-104485000D01*
X107140000Y-104725000D01*
G36*
X107140000Y-104725000D02*
G01*
X106810000Y-104965000D01*
X106810000Y-104485000D01*
X107140000Y-104725000D01*
G37*
%TO.C,JP18*%
X128725000Y-104800000D02*
X128725000Y-104200000D01*
X129425000Y-103500000D02*
X130825000Y-103500000D01*
X130825000Y-105500000D02*
X129425000Y-105500000D01*
X131525000Y-104200000D02*
X131525000Y-104800000D01*
X128725000Y-104200000D02*
G75*
G02*
X129425000Y-103500000I699999J1D01*
G01*
X129425000Y-105500000D02*
G75*
G02*
X128725000Y-104800000I-1J699999D01*
G01*
X130825000Y-103500000D02*
G75*
G02*
X131525000Y-104200000I0J-700000D01*
G01*
X131525000Y-104800000D02*
G75*
G02*
X130825000Y-105500000I-700000J0D01*
G01*
%TO.C,JP1*%
X113087500Y-102000000D02*
X113087500Y-101400000D01*
X113787500Y-100700000D02*
X115187500Y-100700000D01*
X115187500Y-102700000D02*
X113787500Y-102700000D01*
X115887500Y-101400000D02*
X115887500Y-102000000D01*
X113087500Y-101400000D02*
G75*
G02*
X113787500Y-100700000I700000J0D01*
G01*
X113787500Y-102700000D02*
G75*
G02*
X113087500Y-102000000I0J700000D01*
G01*
X115187500Y-100700000D02*
G75*
G02*
X115887500Y-101400000I1J-699999D01*
G01*
X115887500Y-102000000D02*
G75*
G02*
X115187500Y-102700000I-699999J-1D01*
G01*
%TO.C,R12*%
X116327500Y-91865276D02*
X116327500Y-92374724D01*
X117372500Y-91865276D02*
X117372500Y-92374724D01*
%TO.C,C13*%
X143480000Y-90113733D02*
X143480000Y-90406267D01*
X144500000Y-90113733D02*
X144500000Y-90406267D01*
%TO.C,C19*%
X134783767Y-103990000D02*
X134491233Y-103990000D01*
X134783767Y-105010000D02*
X134491233Y-105010000D01*
%TO.C,JP16*%
X128875000Y-109300000D02*
X128875000Y-108700000D01*
X129575000Y-108000000D02*
X130975000Y-108000000D01*
X130975000Y-110000000D02*
X129575000Y-110000000D01*
X131675000Y-108700000D02*
X131675000Y-109300000D01*
X128875000Y-108700000D02*
G75*
G02*
X129575000Y-108000000I699999J1D01*
G01*
X129575000Y-110000000D02*
G75*
G02*
X128875000Y-109300000I-1J699999D01*
G01*
X130975000Y-108000000D02*
G75*
G02*
X131675000Y-108700000I0J-700000D01*
G01*
X131675000Y-109300000D02*
G75*
G02*
X130975000Y-110000000I-700000J0D01*
G01*
%TO.C,JP10*%
X139250000Y-89300000D02*
X139250000Y-88700000D01*
X139950000Y-88000000D02*
X141350000Y-88000000D01*
X141350000Y-90000000D02*
X139950000Y-90000000D01*
X142050000Y-88700000D02*
X142050000Y-89300000D01*
X139250000Y-88700000D02*
G75*
G02*
X139950000Y-88000000I699999J1D01*
G01*
X139950000Y-90000000D02*
G75*
G02*
X139250000Y-89300000I-1J699999D01*
G01*
X141350000Y-88000000D02*
G75*
G02*
X142050000Y-88700000I0J-700000D01*
G01*
X142050000Y-89300000D02*
G75*
G02*
X141350000Y-90000000I-700000J0D01*
G01*
%TO.C,J6*%
X168320000Y-83645000D02*
X169650000Y-83645000D01*
X168320000Y-84975000D02*
X168320000Y-83645000D01*
X168320000Y-86245000D02*
X168320000Y-88845000D01*
X168320000Y-86245000D02*
X170980000Y-86245000D01*
X168320000Y-88845000D02*
X170980000Y-88845000D01*
X170980000Y-86245000D02*
X170980000Y-88845000D01*
%TO.C,R7*%
X150842224Y-101977500D02*
X150332776Y-101977500D01*
X150842224Y-103022500D02*
X150332776Y-103022500D01*
%TO.C,JP2*%
X146450000Y-116800000D02*
X146450000Y-116200000D01*
X147150000Y-115500000D02*
X148550000Y-115500000D01*
X148550000Y-117500000D02*
X147150000Y-117500000D01*
X149250000Y-116200000D02*
X149250000Y-116800000D01*
X146450000Y-116200000D02*
G75*
G02*
X147150000Y-115500000I699999J1D01*
G01*
X147150000Y-117500000D02*
G75*
G02*
X146450000Y-116800000I-1J699999D01*
G01*
X148550000Y-115500000D02*
G75*
G02*
X149250000Y-116200000I0J-700000D01*
G01*
X149250000Y-116800000D02*
G75*
G02*
X148550000Y-117500000I-700000J0D01*
G01*
D16*
%TO.C,J7*%
X128780000Y-68400000D02*
X128780000Y-69830000D01*
X128780000Y-73850000D02*
X128780000Y-72170000D01*
X137720000Y-68400000D02*
X128780000Y-68400000D01*
X137720000Y-68400000D02*
X137720000Y-69830000D01*
X137720000Y-73850000D02*
X137720000Y-72170000D01*
D17*
X136550000Y-77000000D02*
G75*
G02*
X136350000Y-77000000I-100000J0D01*
G01*
X136350000Y-77000000D02*
G75*
G02*
X136550000Y-77000000I100000J0D01*
G01*
D18*
%TO.C,U12*%
X133705076Y-106050024D02*
X133705076Y-106143902D01*
X133705076Y-107356171D02*
X133705076Y-107449998D01*
X133705076Y-107449998D02*
X135305127Y-107449998D01*
X135305127Y-106050024D02*
X133705076Y-106050024D01*
X135305127Y-106050024D02*
X135305127Y-106143902D01*
X135305127Y-107356171D02*
X135305127Y-107449998D01*
X133455139Y-106149948D02*
G75*
G02*
X133355115Y-106149948I-50012J0D01*
G01*
X133355115Y-106149948D02*
G75*
G02*
X133455139Y-106149948I50012J0D01*
G01*
D14*
X133735073Y-106149973D02*
G75*
G02*
X133675079Y-106149973I-29997J0D01*
G01*
X133675079Y-106149973D02*
G75*
G02*
X133735073Y-106149973I29997J0D01*
G01*
D12*
%TO.C,J4*%
X168320000Y-98301700D02*
X169650000Y-98301700D01*
X168320000Y-99631700D02*
X168320000Y-98301700D01*
X168320000Y-100901700D02*
X168320000Y-103501700D01*
X168320000Y-100901700D02*
X170980000Y-100901700D01*
X168320000Y-103501700D02*
X170980000Y-103501700D01*
X170980000Y-100901700D02*
X170980000Y-103501700D01*
%TO.C,JP12*%
X162050000Y-87140000D02*
X162050000Y-86540000D01*
X162750000Y-85840000D02*
X164150000Y-85840000D01*
X164150000Y-87840000D02*
X162750000Y-87840000D01*
X164850000Y-86540000D02*
X164850000Y-87140000D01*
X162050000Y-86540000D02*
G75*
G02*
X162750000Y-85840000I699999J1D01*
G01*
X162750000Y-87840000D02*
G75*
G02*
X162050000Y-87140000I-1J699999D01*
G01*
X164150000Y-85840000D02*
G75*
G02*
X164850000Y-86540000I0J-700000D01*
G01*
X164850000Y-87140000D02*
G75*
G02*
X164150000Y-87840000I-700000J0D01*
G01*
%TO.C,U10*%
X148000000Y-77440000D02*
X147200000Y-77440000D01*
X148000000Y-77440000D02*
X148800000Y-77440000D01*
X148000000Y-80560000D02*
X147200000Y-80560000D01*
X148000000Y-80560000D02*
X148800000Y-80560000D01*
X146700000Y-77490000D02*
X146460000Y-77160000D01*
X146940000Y-77160000D01*
X146700000Y-77490000D01*
G36*
X146700000Y-77490000D02*
G01*
X146460000Y-77160000D01*
X146940000Y-77160000D01*
X146700000Y-77490000D01*
G37*
%TO.C,JP8*%
X104740000Y-95030000D02*
X104740000Y-94430000D01*
X105440000Y-93730000D02*
X106840000Y-93730000D01*
X106840000Y-95730000D02*
X105440000Y-95730000D01*
X107540000Y-94430000D02*
X107540000Y-95030000D01*
X104740000Y-94430000D02*
G75*
G02*
X105440000Y-93730000I699999J1D01*
G01*
X105440000Y-95730000D02*
G75*
G02*
X104740000Y-95030000I-1J699999D01*
G01*
X106840000Y-93730000D02*
G75*
G02*
X107540000Y-94430000I0J-700000D01*
G01*
X107540000Y-95030000D02*
G75*
G02*
X106840000Y-95730000I-700000J0D01*
G01*
%TO.C,C17*%
X150990000Y-79008767D02*
X150990000Y-78716233D01*
X152010000Y-79008767D02*
X152010000Y-78716233D01*
%TO.C,C21*%
X133991233Y-108490000D02*
X134283767Y-108490000D01*
X133991233Y-109510000D02*
X134283767Y-109510000D01*
%TO.C,R6*%
X154842224Y-101977500D02*
X154332776Y-101977500D01*
X154842224Y-103022500D02*
X154332776Y-103022500D01*
%TO.C,C15*%
X169143733Y-76990000D02*
X169436267Y-76990000D01*
X169143733Y-78010000D02*
X169436267Y-78010000D01*
D16*
%TO.C,VR1*%
X137150000Y-91750000D02*
X140650000Y-91750000D01*
X137150000Y-98250000D02*
X140650000Y-98250000D01*
X140650000Y-91750000D02*
X140650000Y-92990000D01*
X140650000Y-98250000D02*
X140650000Y-97010000D01*
D17*
X134400000Y-92700000D02*
G75*
G02*
X134200000Y-92700000I-100000J0D01*
G01*
X134200000Y-92700000D02*
G75*
G02*
X134400000Y-92700000I100000J0D01*
G01*
D12*
%TO.C,JP5*%
X147000000Y-99050000D02*
X147000000Y-97650000D01*
X147700000Y-96950000D02*
X148300000Y-96950000D01*
X148300000Y-99750000D02*
X147700000Y-99750000D01*
X149000000Y-97650000D02*
X149000000Y-99050000D01*
X147000000Y-97650000D02*
G75*
G02*
X147700000Y-96950000I700000J0D01*
G01*
X147700000Y-99750000D02*
G75*
G02*
X147000000Y-99050000I-1J699999D01*
G01*
X148300000Y-96950000D02*
G75*
G02*
X149000000Y-97650000I0J-700000D01*
G01*
X149000000Y-99050000D02*
G75*
G02*
X148300000Y-99750000I-699999J-1D01*
G01*
%TO.C,R13*%
X119327500Y-92374724D02*
X119327500Y-91865276D01*
X120372500Y-92374724D02*
X120372500Y-91865276D01*
%TO.C,U2*%
X150000000Y-108265000D02*
X147800000Y-108265000D01*
X150000000Y-108265000D02*
X152200000Y-108265000D01*
X150000000Y-113735000D02*
X147800000Y-113735000D01*
X150000000Y-113735000D02*
X152200000Y-113735000D01*
X146140000Y-108725000D02*
X145810000Y-108965000D01*
X145810000Y-108485000D01*
X146140000Y-108725000D01*
G36*
X146140000Y-108725000D02*
G01*
X145810000Y-108965000D01*
X145810000Y-108485000D01*
X146140000Y-108725000D01*
G37*
%TO.C,R16*%
X161334724Y-80957500D02*
X160825276Y-80957500D01*
X161334724Y-82002500D02*
X160825276Y-82002500D01*
%TO.C,R10*%
X123754724Y-77977500D02*
X123245276Y-77977500D01*
X123754724Y-79022500D02*
X123245276Y-79022500D01*
%TO.C,C2*%
X113553733Y-110825000D02*
X113846267Y-110825000D01*
X113553733Y-111845000D02*
X113846267Y-111845000D01*
%TO.C,JP17*%
X117287500Y-101675000D02*
X117287500Y-101075000D01*
X117987500Y-100375000D02*
X119387500Y-100375000D01*
X119387500Y-102375000D02*
X117987500Y-102375000D01*
X120087500Y-101075000D02*
X120087500Y-101675000D01*
X117287500Y-101075000D02*
G75*
G02*
X117987500Y-100375000I699999J1D01*
G01*
X117987500Y-102375000D02*
G75*
G02*
X117287500Y-101675000I-1J699999D01*
G01*
X119387500Y-100375000D02*
G75*
G02*
X120087500Y-101075000I0J-700000D01*
G01*
X120087500Y-101675000D02*
G75*
G02*
X119387500Y-102375000I-700000J0D01*
G01*
D19*
%TO.C,U6*%
X112200000Y-78839938D02*
X117200000Y-78839938D01*
X112200000Y-79969910D02*
X112200000Y-78839938D01*
X112200000Y-80209890D02*
X112200000Y-79969910D01*
X112200000Y-81269936D02*
X112300025Y-81269936D01*
X112200000Y-82739913D02*
X112200000Y-81269936D01*
X112200000Y-82739913D02*
X117200000Y-82739913D01*
X112239980Y-80249895D02*
X112200000Y-80209890D01*
X117200000Y-82739913D02*
X117200000Y-78839938D01*
X112240005Y-80249895D02*
G75*
G02*
X112780011Y-80789901I43927J-496079D01*
G01*
X112780010Y-80789900D02*
G75*
G02*
X112300000Y-81269910I-480011J1D01*
G01*
D14*
X112279959Y-83790027D02*
G75*
G02*
X112220015Y-83790027I-29972J0D01*
G01*
X112220015Y-83790027D02*
G75*
G02*
X112279959Y-83790027I29972J0D01*
G01*
D19*
X113064313Y-82050124D02*
G75*
G02*
X112495859Y-82050124I-284227J0D01*
G01*
X112495859Y-82050124D02*
G75*
G02*
X113064313Y-82050124I284227J0D01*
G01*
D12*
%TO.C,R11*%
X110095276Y-90597500D02*
X110604724Y-90597500D01*
X110095276Y-91642500D02*
X110604724Y-91642500D01*
%TO.C,C9*%
X119496267Y-88610000D02*
X119203733Y-88610000D01*
X119496267Y-89630000D02*
X119203733Y-89630000D01*
%TO.C,C20*%
X117633767Y-95610000D02*
X117341233Y-95610000D01*
X117633767Y-96630000D02*
X117341233Y-96630000D01*
%TO.C,JP4*%
X148700000Y-91050000D02*
X148700000Y-89650000D01*
X149400000Y-88950000D02*
X150000000Y-88950000D01*
X150000000Y-91750000D02*
X149400000Y-91750000D01*
X150700000Y-89650000D02*
X150700000Y-91050000D01*
X148700000Y-89650000D02*
G75*
G02*
X149400000Y-88950000I700000J0D01*
G01*
X149400000Y-91750000D02*
G75*
G02*
X148700000Y-91050000I-1J699999D01*
G01*
X150000000Y-88950000D02*
G75*
G02*
X150700000Y-89650000I0J-700000D01*
G01*
X150700000Y-91050000D02*
G75*
G02*
X150000000Y-91750000I-699999J-1D01*
G01*
%TO.C,J2*%
X161700000Y-114720000D02*
X161700000Y-120840000D01*
X161700000Y-117280000D02*
X166060000Y-117280000D01*
X161700000Y-120840000D02*
X169520000Y-120840000D01*
X163960000Y-115480000D02*
X163960000Y-116480000D01*
X163960000Y-115980000D02*
X161700000Y-115980000D01*
X163960000Y-116480000D02*
X161700000Y-116480000D01*
X163960000Y-116480000D02*
X165560000Y-116480000D01*
X163960000Y-119080000D02*
X165560000Y-119080000D01*
X163960000Y-120080000D02*
X163960000Y-119080000D01*
X165560000Y-115480000D02*
X163960000Y-115480000D01*
X165560000Y-116480000D02*
X165560000Y-115480000D01*
X165560000Y-119080000D02*
X165560000Y-120080000D01*
X165560000Y-120080000D02*
X163960000Y-120080000D01*
X166060000Y-117280000D02*
X166060000Y-118280000D01*
X166060000Y-118280000D02*
X161700000Y-118280000D01*
X167920000Y-114720000D02*
X167920000Y-115640000D01*
X167920000Y-115640000D02*
X169520000Y-115640000D01*
X167920000Y-115920000D02*
X167920000Y-115640000D01*
X167920000Y-115920000D02*
X169135000Y-115920000D01*
X167920000Y-119920000D02*
X167920000Y-119640000D01*
X167920000Y-120840000D02*
X167920000Y-119920000D01*
X169520000Y-114720000D02*
X161700000Y-114720000D01*
X169520000Y-115640000D02*
X169520000Y-114720000D01*
X169520000Y-119920000D02*
X167920000Y-119920000D01*
X169520000Y-120840000D02*
X169520000Y-119920000D01*
%TO.C,JP11*%
X133600000Y-89300000D02*
X133600000Y-88700000D01*
X134300000Y-88000000D02*
X135700000Y-88000000D01*
X135700000Y-90000000D02*
X134300000Y-90000000D01*
X136400000Y-88700000D02*
X136400000Y-89300000D01*
X133600000Y-88700000D02*
G75*
G02*
X134300000Y-88000000I700000J0D01*
G01*
X134300000Y-90000000D02*
G75*
G02*
X133600000Y-89300000I0J700000D01*
G01*
X135700000Y-88000000D02*
G75*
G02*
X136400000Y-88700000I1J-699999D01*
G01*
X136400000Y-89300000D02*
G75*
G02*
X135700000Y-90000000I-699999J-1D01*
G01*
%TO.C,C11*%
X112916333Y-85279800D02*
X113208867Y-85279800D01*
X112916333Y-86299800D02*
X113208867Y-86299800D01*
%TO.C,C18*%
X120490000Y-114903733D02*
X120490000Y-115196267D01*
X121510000Y-114903733D02*
X121510000Y-115196267D01*
%TO.C,U4*%
X154000000Y-95440000D02*
X152050000Y-95440000D01*
X154000000Y-95440000D02*
X155950000Y-95440000D01*
X154000000Y-100560000D02*
X152050000Y-100560000D01*
X154000000Y-100560000D02*
X155950000Y-100560000D01*
X151300000Y-95535000D02*
X151060000Y-95205000D01*
X151540000Y-95205000D01*
X151300000Y-95535000D01*
G36*
X151300000Y-95535000D02*
G01*
X151060000Y-95205000D01*
X151540000Y-95205000D01*
X151300000Y-95535000D01*
G37*
%TO.C,C4*%
X148853733Y-106490000D02*
X149146267Y-106490000D01*
X148853733Y-107510000D02*
X149146267Y-107510000D01*
%TO.C,C16*%
X143990000Y-78853733D02*
X143990000Y-79146267D01*
X145010000Y-78853733D02*
X145010000Y-79146267D01*
%TO.C,C7*%
X158490000Y-99646267D02*
X158490000Y-99353733D01*
X159510000Y-99646267D02*
X159510000Y-99353733D01*
%TO.C,C8*%
X158646267Y-101990000D02*
X158353733Y-101990000D01*
X158646267Y-103010000D02*
X158353733Y-103010000D01*
%TO.C,R9*%
X117667324Y-74977400D02*
X117157876Y-74977400D01*
X117667324Y-76022400D02*
X117157876Y-76022400D01*
%TO.C,R8*%
X108692324Y-87597300D02*
X108182876Y-87597300D01*
X108692324Y-88642300D02*
X108182876Y-88642300D01*
%TO.C,JP9*%
X153500000Y-74410000D02*
X153500000Y-73810000D01*
X154200000Y-73110000D02*
X155600000Y-73110000D01*
X155600000Y-75110000D02*
X154200000Y-75110000D01*
X156300000Y-73810000D02*
X156300000Y-74410000D01*
X153500000Y-73810000D02*
G75*
G02*
X154200000Y-73110000I699999J1D01*
G01*
X154200000Y-75110000D02*
G75*
G02*
X153500000Y-74410000I-1J699999D01*
G01*
X155600000Y-73110000D02*
G75*
G02*
X156300000Y-73810000I0J-700000D01*
G01*
X156300000Y-74410000D02*
G75*
G02*
X155600000Y-75110000I-700000J0D01*
G01*
%TO.C,R4*%
X143272936Y-105590000D02*
X144727064Y-105590000D01*
X143272936Y-107410000D02*
X144727064Y-107410000D01*
%TO.C,JP13*%
X146950000Y-74800000D02*
X146950000Y-74200000D01*
X147650000Y-73500000D02*
X149050000Y-73500000D01*
X149050000Y-75500000D02*
X147650000Y-75500000D01*
X149750000Y-74200000D02*
X149750000Y-74800000D01*
X146950000Y-74200000D02*
G75*
G02*
X147650000Y-73500000I700000J0D01*
G01*
X147650000Y-75500000D02*
G75*
G02*
X146950000Y-74800000I0J700000D01*
G01*
X149050000Y-73500000D02*
G75*
G02*
X149750000Y-74200000I1J-699999D01*
G01*
X149750000Y-74800000D02*
G75*
G02*
X149050000Y-75500000I-699999J-1D01*
G01*
%TO.C,R2*%
X103305436Y-110405000D02*
X104759564Y-110405000D01*
X103305436Y-112225000D02*
X104759564Y-112225000D01*
%TO.C,U8*%
X164010000Y-73090000D02*
X163210000Y-73090000D01*
X164010000Y-73090000D02*
X164810000Y-73090000D01*
X164010000Y-76210000D02*
X163210000Y-76210000D01*
X164010000Y-76210000D02*
X164810000Y-76210000D01*
X162710000Y-73140000D02*
X162470000Y-72810000D01*
X162950000Y-72810000D01*
X162710000Y-73140000D01*
G36*
X162710000Y-73140000D02*
G01*
X162470000Y-72810000D01*
X162950000Y-72810000D01*
X162710000Y-73140000D01*
G37*
%TO.C,C1*%
X108991233Y-110815000D02*
X109283767Y-110815000D01*
X108991233Y-111835000D02*
X109283767Y-111835000D01*
%TO.C,JP7*%
X115950100Y-73299900D02*
X115950100Y-72699900D01*
X116650100Y-71999900D02*
X118050100Y-71999900D01*
X118050100Y-73999900D02*
X116650100Y-73999900D01*
X118750100Y-72699900D02*
X118750100Y-73299900D01*
X115950100Y-72699900D02*
G75*
G02*
X116650100Y-71999900I699999J1D01*
G01*
X116650100Y-73999900D02*
G75*
G02*
X115950100Y-73299900I-1J699999D01*
G01*
X118050100Y-71999900D02*
G75*
G02*
X118750100Y-72699900I0J-700000D01*
G01*
X118750100Y-73299900D02*
G75*
G02*
X118050100Y-73999900I-700000J0D01*
G01*
%TO.C,J1*%
X110810000Y-119670000D02*
X151570000Y-119670000D01*
X110810000Y-122270000D02*
X110810000Y-119670000D01*
X110810000Y-124870000D02*
X110810000Y-123540000D01*
X112140000Y-124870000D02*
X110810000Y-124870000D01*
X113410000Y-122270000D02*
X110810000Y-122270000D01*
X113410000Y-124870000D02*
X113410000Y-122270000D01*
X113410000Y-124870000D02*
X151570000Y-124870000D01*
X151570000Y-124870000D02*
X151570000Y-119670000D01*
%TO.C,JP14*%
X149450000Y-82800000D02*
X149450000Y-82200000D01*
X150150000Y-81500000D02*
X151550000Y-81500000D01*
X151550000Y-83500000D02*
X150150000Y-83500000D01*
X152250000Y-82200000D02*
X152250000Y-82800000D01*
X149450000Y-82200000D02*
G75*
G02*
X150150000Y-81500000I699999J1D01*
G01*
X150150000Y-83500000D02*
G75*
G02*
X149450000Y-82800000I-1J699999D01*
G01*
X151550000Y-81500000D02*
G75*
G02*
X152250000Y-82200000I0J-700000D01*
G01*
X152250000Y-82800000D02*
G75*
G02*
X151550000Y-83500000I-700000J0D01*
G01*
%TO.C,JP3*%
X161090000Y-96540000D02*
X161090000Y-95940000D01*
X161790000Y-95240000D02*
X163190000Y-95240000D01*
X163190000Y-97240000D02*
X161790000Y-97240000D01*
X163890000Y-95940000D02*
X163890000Y-96540000D01*
X161090000Y-95940000D02*
G75*
G02*
X161790000Y-95240000I699999J1D01*
G01*
X161790000Y-97240000D02*
G75*
G02*
X161090000Y-96540000I-1J699999D01*
G01*
X163190000Y-95240000D02*
G75*
G02*
X163890000Y-95940000I0J-700000D01*
G01*
X163890000Y-96540000D02*
G75*
G02*
X163190000Y-97240000I-700000J0D01*
G01*
%TO.C,C3*%
X115490000Y-107178733D02*
X115490000Y-107471267D01*
X116510000Y-107178733D02*
X116510000Y-107471267D01*
%TO.C,C14*%
X138823733Y-99320000D02*
X139116267Y-99320000D01*
X138823733Y-100340000D02*
X139116267Y-100340000D01*
D15*
%TO.C,U9*%
X163249959Y-78223467D02*
X166249959Y-78223467D01*
X163263320Y-80103147D02*
X166263320Y-80103147D01*
X164007998Y-79170000D02*
X165532002Y-79170000D01*
X164261999Y-78661999D02*
X164261999Y-79678001D01*
X164261999Y-79170000D02*
X165278001Y-78763599D01*
X165278001Y-78763599D02*
X165278001Y-79576401D01*
X165278001Y-79576401D02*
X164261999Y-79170000D01*
D14*
X162950010Y-80019987D02*
G75*
G02*
X162890016Y-80019987I-29997J0D01*
G01*
X162890016Y-80019987D02*
G75*
G02*
X162950010Y-80019987I29997J0D01*
G01*
D16*
%TO.C,U11*%
X124455000Y-116560000D02*
X126055000Y-116560000D01*
X126055000Y-113440000D02*
X124455000Y-113440000D01*
D17*
X122855000Y-114050000D02*
G75*
G02*
X122655000Y-114050000I-100000J0D01*
G01*
X122655000Y-114050000D02*
G75*
G02*
X122855000Y-114050000I100000J0D01*
G01*
D12*
%TO.C,R5*%
X153532936Y-87150000D02*
X157887064Y-87150000D01*
X153532936Y-90570000D02*
X157887064Y-90570000D01*
%TO.C,C10*%
X127763733Y-79790000D02*
X128056267Y-79790000D01*
X127763733Y-80810000D02*
X128056267Y-80810000D01*
%TO.C,R1*%
X102590000Y-107552064D02*
X102590000Y-106097936D01*
X104410000Y-107552064D02*
X104410000Y-106097936D01*
%TO.C,L1*%
X167730000Y-73731267D02*
X167730000Y-73388733D01*
X168750000Y-73731267D02*
X168750000Y-73388733D01*
%TO.C,C6*%
X154990000Y-111353733D02*
X154990000Y-111646267D01*
X156010000Y-111353733D02*
X156010000Y-111646267D01*
%TO.C,TP1*%
X99760000Y-114020000D02*
G75*
G02*
X96260000Y-114020000I-1750000J0D01*
G01*
X96260000Y-114020000D02*
G75*
G02*
X99760000Y-114020000I1750000J0D01*
G01*
%TO.C,TP5*%
X99750000Y-101000000D02*
G75*
G02*
X96250000Y-101000000I-1750000J0D01*
G01*
X96250000Y-101000000D02*
G75*
G02*
X99750000Y-101000000I1750000J0D01*
G01*
%TO.C,J5*%
X168320000Y-90973300D02*
X169650000Y-90973300D01*
X168320000Y-92303300D02*
X168320000Y-90973300D01*
X168320000Y-93573300D02*
X168320000Y-96173300D01*
X168320000Y-93573300D02*
X170980000Y-93573300D01*
X168320000Y-96173300D02*
X170980000Y-96173300D01*
X170980000Y-93573300D02*
X170980000Y-96173300D01*
%TO.C,JP6*%
X123372500Y-89940000D02*
X123372500Y-90540000D01*
X123672500Y-90240000D02*
X123372500Y-89940000D01*
X123672500Y-90240000D02*
X123372500Y-90540000D01*
X123872500Y-89490000D02*
X125872500Y-89490000D01*
X123872500Y-93590000D02*
X123872500Y-89490000D01*
X125872500Y-89490000D02*
X125872500Y-93590000D01*
X125872500Y-93590000D02*
X123872500Y-93590000D01*
%TO.C,R14*%
X159217500Y-77752776D02*
X159217500Y-78262224D01*
X160262500Y-77752776D02*
X160262500Y-78262224D01*
%TO.C,D1*%
X122840000Y-71265000D02*
X122840000Y-72735000D01*
X122840000Y-72735000D02*
X125300000Y-72735000D01*
X125300000Y-71265000D02*
X122840000Y-71265000D01*
%TD*%
%LPC*%
D20*
%TO.C,J7*%
X130400000Y-76370000D02*
X129700000Y-76370000D01*
X129700000Y-75130000D01*
X130400000Y-75130000D01*
X130400000Y-76370000D01*
G36*
X130400000Y-76370000D02*
G01*
X129700000Y-76370000D01*
X129700000Y-75130000D01*
X130400000Y-75130000D01*
X130400000Y-76370000D01*
G37*
X131200000Y-76370000D02*
X130500000Y-76370000D01*
X130500000Y-75130000D01*
X131200000Y-75130000D01*
X131200000Y-76370000D01*
G36*
X131200000Y-76370000D02*
G01*
X130500000Y-76370000D01*
X130500000Y-75130000D01*
X131200000Y-75130000D01*
X131200000Y-76370000D01*
G37*
X131700000Y-76370000D02*
X131300000Y-76370000D01*
X131300000Y-75130000D01*
X131700000Y-75130000D01*
X131700000Y-76370000D01*
G36*
X131700000Y-76370000D02*
G01*
X131300000Y-76370000D01*
X131300000Y-75130000D01*
X131700000Y-75130000D01*
X131700000Y-76370000D01*
G37*
X132200000Y-76370000D02*
X131800000Y-76370000D01*
X131800000Y-75130000D01*
X132200000Y-75130000D01*
X132200000Y-76370000D01*
G36*
X132200000Y-76370000D02*
G01*
X131800000Y-76370000D01*
X131800000Y-75130000D01*
X132200000Y-75130000D01*
X132200000Y-76370000D01*
G37*
X132700000Y-76370000D02*
X132300000Y-76370000D01*
X132300000Y-75130000D01*
X132700000Y-75130000D01*
X132700000Y-76370000D01*
G36*
X132700000Y-76370000D02*
G01*
X132300000Y-76370000D01*
X132300000Y-75130000D01*
X132700000Y-75130000D01*
X132700000Y-76370000D01*
G37*
X133200000Y-76370000D02*
X132800000Y-76370000D01*
X132800000Y-75130000D01*
X133200000Y-75130000D01*
X133200000Y-76370000D01*
G36*
X133200000Y-76370000D02*
G01*
X132800000Y-76370000D01*
X132800000Y-75130000D01*
X133200000Y-75130000D01*
X133200000Y-76370000D01*
G37*
X133700000Y-76370000D02*
X133300000Y-76370000D01*
X133300000Y-75130000D01*
X133700000Y-75130000D01*
X133700000Y-76370000D01*
G36*
X133700000Y-76370000D02*
G01*
X133300000Y-76370000D01*
X133300000Y-75130000D01*
X133700000Y-75130000D01*
X133700000Y-76370000D01*
G37*
X134200000Y-76370000D02*
X133800000Y-76370000D01*
X133800000Y-75130000D01*
X134200000Y-75130000D01*
X134200000Y-76370000D01*
G36*
X134200000Y-76370000D02*
G01*
X133800000Y-76370000D01*
X133800000Y-75130000D01*
X134200000Y-75130000D01*
X134200000Y-76370000D01*
G37*
X134700000Y-76370000D02*
X134300000Y-76370000D01*
X134300000Y-75130000D01*
X134700000Y-75130000D01*
X134700000Y-76370000D01*
G36*
X134700000Y-76370000D02*
G01*
X134300000Y-76370000D01*
X134300000Y-75130000D01*
X134700000Y-75130000D01*
X134700000Y-76370000D01*
G37*
X135200000Y-76370000D02*
X134800000Y-76370000D01*
X134800000Y-75130000D01*
X135200000Y-75130000D01*
X135200000Y-76370000D01*
G36*
X135200000Y-76370000D02*
G01*
X134800000Y-76370000D01*
X134800000Y-75130000D01*
X135200000Y-75130000D01*
X135200000Y-76370000D01*
G37*
X136000000Y-76370000D02*
X135300000Y-76370000D01*
X135300000Y-75130000D01*
X136000000Y-75130000D01*
X136000000Y-76370000D01*
G36*
X136000000Y-76370000D02*
G01*
X135300000Y-76370000D01*
X135300000Y-75130000D01*
X136000000Y-75130000D01*
X136000000Y-76370000D01*
G37*
X136800000Y-76370000D02*
X136100000Y-76370000D01*
X136100000Y-75130000D01*
X136800000Y-75130000D01*
X136800000Y-76370000D01*
G36*
X136800000Y-76370000D02*
G01*
X136100000Y-76370000D01*
X136100000Y-75130000D01*
X136800000Y-75130000D01*
X136800000Y-76370000D01*
G37*
%TD*%
D21*
%TO.C,J8*%
X100490000Y-78050000D03*
X103030000Y-78050000D03*
D22*
X105570000Y-78050000D03*
%TD*%
%TO.C,J3*%
X169650000Y-106960000D03*
D21*
X169650000Y-109500000D03*
%TD*%
D23*
%TO.C,C12*%
X156090000Y-79992500D03*
X156090000Y-78267500D03*
%TD*%
%TO.C,C5*%
X155552500Y-108075000D03*
X155552500Y-106350000D03*
%TD*%
D24*
%TO.C,U7*%
X112850000Y-92170038D03*
X112850000Y-94069962D03*
X114850000Y-93120000D03*
%TD*%
D25*
%TO.C,R3*%
X142000000Y-112550000D03*
X142000000Y-109450000D03*
%TD*%
D26*
%TO.C,TP2*%
X98000000Y-94500000D03*
%TD*%
D27*
%TO.C,U5*%
X121094996Y-86408306D03*
X122364999Y-86408306D03*
X123635001Y-86408306D03*
X124905004Y-86408306D03*
X124905004Y-80591694D03*
X123635001Y-80591694D03*
X122364999Y-80591694D03*
X121094996Y-80591694D03*
D28*
X123000000Y-83500000D03*
%TD*%
D26*
%TO.C,TP3*%
X98000000Y-88000000D03*
%TD*%
D29*
%TO.C,JP15*%
X130000000Y-115550000D03*
D30*
X130000000Y-114250000D03*
%TD*%
D31*
%TO.C,R15*%
X159400000Y-73842500D03*
X159400000Y-72017500D03*
%TD*%
D26*
%TO.C,TP4*%
X98000000Y-107500000D03*
%TD*%
D32*
%TO.C,U1*%
X108137500Y-104725000D03*
X108137500Y-105375000D03*
X108137500Y-106025000D03*
X108137500Y-106675000D03*
X108137500Y-107325000D03*
X108137500Y-107975000D03*
X108137500Y-108625000D03*
X108137500Y-109275000D03*
X113862500Y-109275000D03*
X113862500Y-108625000D03*
X113862500Y-107975000D03*
X113862500Y-107325000D03*
X113862500Y-106675000D03*
X113862500Y-106025000D03*
X113862500Y-105375000D03*
X113862500Y-104725000D03*
%TD*%
D33*
%TO.C,JP18*%
X129475000Y-104500000D03*
D34*
X130775000Y-104500000D03*
%TD*%
D35*
%TO.C,JP1*%
X115137500Y-101700000D03*
D36*
X113837500Y-101700000D03*
%TD*%
D37*
%TO.C,R12*%
X116850000Y-91207500D03*
X116850000Y-93032500D03*
%TD*%
D38*
%TO.C,C13*%
X143990000Y-89397500D03*
X143990000Y-91122500D03*
%TD*%
D39*
%TO.C,C19*%
X135500000Y-104500000D03*
X133775000Y-104500000D03*
%TD*%
D33*
%TO.C,JP16*%
X129625000Y-109000000D03*
D34*
X130925000Y-109000000D03*
%TD*%
D33*
%TO.C,JP10*%
X140000000Y-89000000D03*
D34*
X141300000Y-89000000D03*
%TD*%
D22*
%TO.C,J6*%
X169650000Y-84975000D03*
D21*
X169650000Y-87515000D03*
%TD*%
D40*
%TO.C,R7*%
X151500000Y-102500000D03*
X149675000Y-102500000D03*
%TD*%
D33*
%TO.C,JP2*%
X147200000Y-116500000D03*
D34*
X148500000Y-116500000D03*
%TD*%
D41*
%TO.C,J7*%
X136140000Y-74680000D03*
X130360000Y-74680000D03*
D42*
X137575000Y-75170000D03*
X128925000Y-75170000D03*
D43*
X137575000Y-71000000D03*
X128925000Y-71000000D03*
%TD*%
D44*
%TO.C,U12*%
X133775028Y-106500164D03*
X133775028Y-107000011D03*
X135234997Y-107000011D03*
X135234997Y-106500164D03*
D45*
X134505025Y-106750125D03*
%TD*%
D22*
%TO.C,J4*%
X169650000Y-99631700D03*
D21*
X169650000Y-102171700D03*
%TD*%
D33*
%TO.C,JP12*%
X162800000Y-86840000D03*
D34*
X164100000Y-86840000D03*
%TD*%
D46*
%TO.C,U10*%
X146862500Y-78050000D03*
X146862500Y-79000000D03*
X146862500Y-79950000D03*
X149137500Y-79950000D03*
X149137500Y-78050000D03*
%TD*%
D33*
%TO.C,JP8*%
X105490000Y-94730000D03*
D34*
X106790000Y-94730000D03*
%TD*%
D23*
%TO.C,C17*%
X151500000Y-79725000D03*
X151500000Y-78000000D03*
%TD*%
D47*
%TO.C,C21*%
X133275000Y-109000000D03*
X135000000Y-109000000D03*
%TD*%
D40*
%TO.C,R6*%
X155500000Y-102500000D03*
X153675000Y-102500000D03*
%TD*%
D47*
%TO.C,C15*%
X168427500Y-77500000D03*
X170152500Y-77500000D03*
%TD*%
D48*
%TO.C,VR1*%
X136000000Y-92700000D03*
X136000000Y-95000000D03*
X136000000Y-97300000D03*
D49*
X141800000Y-95000000D03*
%TD*%
D29*
%TO.C,JP5*%
X148000000Y-99000000D03*
D30*
X148000000Y-97700000D03*
%TD*%
D31*
%TO.C,R13*%
X119850000Y-93032500D03*
X119850000Y-91207500D03*
%TD*%
D32*
%TO.C,U2*%
X147137500Y-108725000D03*
X147137500Y-109375000D03*
X147137500Y-110025000D03*
X147137500Y-110675000D03*
X147137500Y-111325000D03*
X147137500Y-111975000D03*
X147137500Y-112625000D03*
X147137500Y-113275000D03*
X152862500Y-113275000D03*
X152862500Y-112625000D03*
X152862500Y-111975000D03*
X152862500Y-111325000D03*
X152862500Y-110675000D03*
X152862500Y-110025000D03*
X152862500Y-109375000D03*
X152862500Y-108725000D03*
%TD*%
D40*
%TO.C,R16*%
X161992500Y-81480000D03*
X160167500Y-81480000D03*
%TD*%
%TO.C,R10*%
X124412500Y-78500000D03*
X122587500Y-78500000D03*
%TD*%
D47*
%TO.C,C2*%
X112837500Y-111335000D03*
X114562500Y-111335000D03*
%TD*%
D33*
%TO.C,JP17*%
X118037500Y-101375000D03*
D34*
X119337500Y-101375000D03*
%TD*%
D50*
%TO.C,U6*%
X112700076Y-83790027D03*
X113700076Y-83790027D03*
X114700076Y-83790027D03*
X115700076Y-83790027D03*
X116700076Y-83790027D03*
X116700076Y-77790027D03*
X115700076Y-77789773D03*
X114700076Y-77789773D03*
X113700076Y-77789773D03*
X112700076Y-77790027D03*
D51*
X114700076Y-80789773D03*
%TD*%
D52*
%TO.C,R11*%
X109437500Y-91120000D03*
X111262500Y-91120000D03*
%TD*%
D39*
%TO.C,C9*%
X120212500Y-89120000D03*
X118487500Y-89120000D03*
%TD*%
%TO.C,C20*%
X118350000Y-96120000D03*
X116625000Y-96120000D03*
%TD*%
D29*
%TO.C,JP4*%
X149700000Y-91000000D03*
D30*
X149700000Y-89700000D03*
%TD*%
D53*
%TO.C,J2*%
X168060000Y-116780000D03*
D54*
X168060000Y-118780000D03*
%TD*%
D35*
%TO.C,JP11*%
X135650000Y-89000000D03*
D36*
X134350000Y-89000000D03*
%TD*%
D47*
%TO.C,C11*%
X112200100Y-85789800D03*
X113925100Y-85789800D03*
%TD*%
D38*
%TO.C,C18*%
X121000000Y-114187500D03*
X121000000Y-115912500D03*
%TD*%
D55*
%TO.C,U4*%
X151525000Y-96095000D03*
X151525000Y-97365000D03*
X151525000Y-98635000D03*
X151525000Y-99905000D03*
X156475000Y-99905000D03*
X156475000Y-98635000D03*
X156475000Y-97365000D03*
X156475000Y-96095000D03*
%TD*%
D47*
%TO.C,C4*%
X148137500Y-107000000D03*
X149862500Y-107000000D03*
%TD*%
D38*
%TO.C,C16*%
X144500000Y-78137500D03*
X144500000Y-79862500D03*
%TD*%
D23*
%TO.C,C7*%
X159000000Y-100362500D03*
X159000000Y-98637500D03*
%TD*%
D39*
%TO.C,C8*%
X159362500Y-102500000D03*
X157637500Y-102500000D03*
%TD*%
D40*
%TO.C,R9*%
X118325100Y-75499900D03*
X116500100Y-75499900D03*
%TD*%
%TO.C,R8*%
X109350100Y-88119800D03*
X107525100Y-88119800D03*
%TD*%
D33*
%TO.C,JP9*%
X154250000Y-74110000D03*
D34*
X155550000Y-74110000D03*
%TD*%
D56*
%TO.C,R4*%
X142450000Y-106500000D03*
X145550000Y-106500000D03*
%TD*%
D35*
%TO.C,JP13*%
X149000000Y-74500000D03*
D36*
X147700000Y-74500000D03*
%TD*%
D56*
%TO.C,R2*%
X102482500Y-111315000D03*
X105582500Y-111315000D03*
%TD*%
D46*
%TO.C,U8*%
X162872500Y-73700000D03*
X162872500Y-74650000D03*
X162872500Y-75600000D03*
X165147500Y-75600000D03*
X165147500Y-74650000D03*
X165147500Y-73700000D03*
%TD*%
D47*
%TO.C,C1*%
X108275000Y-111325000D03*
X110000000Y-111325000D03*
%TD*%
D33*
%TO.C,JP7*%
X116700100Y-72999900D03*
D34*
X118000100Y-72999900D03*
%TD*%
D22*
%TO.C,J1*%
X112140000Y-123540000D03*
D21*
X112140000Y-121000000D03*
X114680000Y-123540000D03*
X114680000Y-121000000D03*
X117220000Y-123540000D03*
X117220000Y-121000000D03*
X119760000Y-123540000D03*
X119760000Y-121000000D03*
X122300000Y-123540000D03*
X122300000Y-121000000D03*
X124840000Y-123540000D03*
X124840000Y-121000000D03*
X127380000Y-123540000D03*
X127380000Y-121000000D03*
X129920000Y-123540000D03*
X129920000Y-121000000D03*
X132460000Y-123540000D03*
X132460000Y-121000000D03*
X135000000Y-123540000D03*
X135000000Y-121000000D03*
X137540000Y-123540000D03*
X137540000Y-121000000D03*
X140080000Y-123540000D03*
X140080000Y-121000000D03*
X142620000Y-123540000D03*
X142620000Y-121000000D03*
X145160000Y-123540000D03*
X145160000Y-121000000D03*
X147700000Y-123540000D03*
X147700000Y-121000000D03*
X150240000Y-123540000D03*
X150240000Y-121000000D03*
%TD*%
D33*
%TO.C,JP14*%
X150200000Y-82500000D03*
D34*
X151500000Y-82500000D03*
%TD*%
D33*
%TO.C,JP3*%
X161840000Y-96240000D03*
D34*
X163140000Y-96240000D03*
%TD*%
D38*
%TO.C,C3*%
X116000000Y-106462500D03*
X116000000Y-108187500D03*
%TD*%
D47*
%TO.C,C14*%
X138107500Y-99830000D03*
X139832500Y-99830000D03*
%TD*%
D57*
%TO.C,U9*%
X163220089Y-79170000D03*
X166319911Y-79170000D03*
%TD*%
D58*
%TO.C,U11*%
X124000000Y-114050000D03*
X124000000Y-115000000D03*
X124000000Y-115950000D03*
X126510000Y-115950000D03*
X126510000Y-115000000D03*
X126510000Y-114050000D03*
%TD*%
D59*
%TO.C,R5*%
X152660000Y-88860000D03*
X158760000Y-88860000D03*
%TD*%
D47*
%TO.C,C10*%
X127047500Y-80300000D03*
X128772500Y-80300000D03*
%TD*%
D25*
%TO.C,R1*%
X103500000Y-108375000D03*
X103500000Y-105275000D03*
%TD*%
D60*
%TO.C,L1*%
X168240000Y-74435000D03*
X168240000Y-72685000D03*
%TD*%
D38*
%TO.C,C6*%
X155500000Y-110637500D03*
X155500000Y-112362500D03*
%TD*%
D26*
%TO.C,TP1*%
X98010000Y-114020000D03*
%TD*%
%TO.C,TP5*%
X98000000Y-101000000D03*
%TD*%
D22*
%TO.C,J5*%
X169650000Y-92303300D03*
D21*
X169650000Y-94843300D03*
%TD*%
D61*
%TO.C,JP6*%
X124872500Y-90240000D03*
X124872500Y-91540000D03*
X124872500Y-92840000D03*
%TD*%
D37*
%TO.C,R14*%
X159740000Y-77095000D03*
X159740000Y-78920000D03*
%TD*%
D62*
%TO.C,D1*%
X123625000Y-72000000D03*
X125375000Y-72000000D03*
%TD*%
%LPD*%
M02*
