%TF.GenerationSoftware,KiCad,Pcbnew,8.0.8*%
%TF.CreationDate,2025-03-28T16:38:00+02:00*%
%TF.ProjectId,Power_Module,506f7765-725f-44d6-9f64-756c652e6b69,1*%
%TF.SameCoordinates,Original*%
%TF.FileFunction,Soldermask,Bot*%
%TF.FilePolarity,Negative*%
%FSLAX46Y46*%
G04 Gerber Fmt 4.6, Leading zero omitted, Abs format (unit mm)*
G04 Created by KiCad (PCBNEW 8.0.8) date 2025-03-28 16:38:00*
%MOMM*%
%LPD*%
G01*
G04 APERTURE LIST*
G04 Aperture macros list*
%AMRoundRect*
0 Rectangle with rounded corners*
0 $1 Rounding radius*
0 $2 $3 $4 $5 $6 $7 $8 $9 X,Y pos of 4 corners*
0 Add a 4 corners polygon primitive as box body*
4,1,4,$2,$3,$4,$5,$6,$7,$8,$9,$2,$3,0*
0 Add four circle primitives for the rounded corners*
1,1,$1+$1,$2,$3*
1,1,$1+$1,$4,$5*
1,1,$1+$1,$6,$7*
1,1,$1+$1,$8,$9*
0 Add four rect primitives between the rounded corners*
20,1,$1+$1,$2,$3,$4,$5,0*
20,1,$1+$1,$4,$5,$6,$7,0*
20,1,$1+$1,$6,$7,$8,$9,0*
20,1,$1+$1,$8,$9,$2,$3,0*%
G04 Aperture macros list end*
%ADD10R,1.700000X1.700000*%
%ADD11O,1.700000X1.700000*%
%ADD12C,0.600000*%
%ADD13O,1.104000X2.204000*%
%ADD14O,1.104000X1.904000*%
%ADD15RoundRect,0.250000X-0.625000X0.350000X-0.625000X-0.350000X0.625000X-0.350000X0.625000X0.350000X0*%
%ADD16O,1.750000X1.200000*%
%ADD17R,2.500000X3.000000*%
%ADD18C,3.000000*%
G04 APERTURE END LIST*
D10*
%TO.C,J3*%
X169650000Y-106960000D03*
D11*
X169650000Y-109500000D03*
%TD*%
D10*
%TO.C,J6*%
X169650000Y-84975000D03*
D11*
X169650000Y-87515000D03*
%TD*%
D12*
%TO.C,J7*%
X136140000Y-74680000D03*
X130360000Y-74680000D03*
D13*
X137575000Y-75170000D03*
X128925000Y-75170000D03*
D14*
X137575000Y-71000000D03*
X128925000Y-71000000D03*
%TD*%
D10*
%TO.C,J4*%
X169650000Y-99631700D03*
D11*
X169650000Y-102171700D03*
%TD*%
D15*
%TO.C,J2*%
X168060000Y-116780000D03*
D16*
X168060000Y-118780000D03*
%TD*%
D10*
%TO.C,J1*%
X112140000Y-123540000D03*
D11*
X112140000Y-121000000D03*
X114680000Y-123540000D03*
X114680000Y-121000000D03*
X117220000Y-123540000D03*
X117220000Y-121000000D03*
X119760000Y-123540000D03*
X119760000Y-121000000D03*
X122300000Y-123540000D03*
X122300000Y-121000000D03*
X124840000Y-123540000D03*
X124840000Y-121000000D03*
X127380000Y-123540000D03*
X127380000Y-121000000D03*
X129920000Y-123540000D03*
X129920000Y-121000000D03*
X132460000Y-123540000D03*
X132460000Y-121000000D03*
X135000000Y-123540000D03*
X135000000Y-121000000D03*
X137540000Y-123540000D03*
X137540000Y-121000000D03*
X140080000Y-123540000D03*
X140080000Y-121000000D03*
X142620000Y-123540000D03*
X142620000Y-121000000D03*
X145160000Y-123540000D03*
X145160000Y-121000000D03*
X147700000Y-123540000D03*
X147700000Y-121000000D03*
X150240000Y-123540000D03*
X150240000Y-121000000D03*
%TD*%
D17*
%TO.C,U12*%
X107225025Y-79583500D03*
D18*
X102525000Y-79583500D03*
X97824975Y-79583500D03*
%TD*%
D10*
%TO.C,J5*%
X169650000Y-92303300D03*
D11*
X169650000Y-94843300D03*
%TD*%
M02*
