M48
; DRILL file {KiCad 8.0.8} date 2025-03-28T16:38:00+0200
; FORMAT={-:-/ absolute / inch / decimal}
; #@! TF.CreationDate,2025-03-28T16:38:00+02:00
; #@! TF.GenerationSoftware,Kicad,Pcbnew,8.0.8
; #@! TF.FileFunction,Plated,1,2,PTH
FMAT,2
INCH
; #@! TA.AperFunction,Plated,PTH,ViaDrill
T1C0.0118
; #@! TA.AperFunction,Plated,PTH,ComponentDrill
T2C0.0236
; #@! TA.AperFunction,Plated,PTH,ComponentDrill
T3C0.0295
; #@! TA.AperFunction,Plated,PTH,ComponentDrill
T4C0.0394
; #@! TA.AperFunction,Plated,PTH,ComponentDrill
T5C0.0709
; #@! TA.AperFunction,Plated,PTH,ViaDrill
T6C0.1260
%
G90
G05
T1
X4.0364Y-4.489
X4.2078Y-4.1278
X4.2079Y-4.1998
X4.2432Y-4.9109
X4.299Y-4.9375
X4.3069Y-4.2254
X4.3282Y-3.6262
X4.3307Y-4.2766
X4.4333Y-4.1486
X4.504Y-4.0669
X4.515Y-4.3298
X4.5321Y-4.1383
X4.591Y-4.3776
X4.6056Y-3.4936
X4.615Y-4.2926
X4.6489Y-3.0645
X4.6622Y-4.4374
X4.7051Y-4.349
X4.7292Y-4.0607
X4.7437Y-3.5472
X4.7681Y-4.6057
X4.7813Y-2.9825
X4.7913Y-2.8451
X4.7939Y-3.5528
X4.8149Y-4.6303
X4.8181Y-3.6205
X4.8524Y-4.6381
X4.8699Y-3.7376
X4.9184Y-4.6541
X4.9279Y-3.2874
X4.9334Y-4.4881
X4.9371Y-3.0939
X4.9891Y-3.397
X5.015Y-3.1227
X5.015Y-4.6763
X5.0657Y-4.3244
X5.0715Y-3.349
X5.13Y-4.6086
X5.1502Y-3.0251
X5.1686Y-4.533
X5.1768Y-2.9331
X5.2152Y-3.0255
X5.2389Y-2.9398
X5.2389Y-3.2274
X5.2456Y-4.3007
X5.3149Y-4.5636
X5.3161Y-2.9309
X5.3406Y-3.0255
X5.3642Y-3.9358
X5.3911Y-3.4412
X5.415Y-3.516
X5.4314Y-4.533
X5.515Y-4.25
X5.5899Y-3.0886
X5.6216Y-3.4494
X5.7111Y-4.3776
X5.7161Y-4.6729
X5.7275Y-4.3423
X5.7652Y-4.6232
X5.8303Y-3.7571
X5.8421Y-4.3061
X5.8624Y-3.9333
X5.8746Y-4.3655
X5.8776Y-4.5372
X5.9101Y-3.121
X5.9332Y-4.2805
X5.9462Y-3.2983
X5.9488Y-3.7515
X5.9489Y-2.977
X5.961Y-4.9375
X5.9699Y-3.5749
X6.016Y-4.0086
X6.0644Y-2.9674
X6.0644Y-3.4493
X6.2786Y-3.3781
X6.5035Y-2.8616
X6.5084Y-3.1169
T3
X6.6165Y-4.5976
X6.6165Y-4.6764
T4
X4.415Y-4.7638
X4.415Y-4.8638
X4.515Y-4.7638
X4.515Y-4.8638
X4.615Y-4.7638
X4.615Y-4.8638
X4.715Y-4.7638
X4.715Y-4.8638
X4.815Y-4.7638
X4.815Y-4.8638
X4.915Y-4.7638
X4.915Y-4.8638
X5.015Y-4.7638
X5.015Y-4.8638
X5.115Y-4.7638
X5.115Y-4.8638
X5.215Y-4.7638
X5.215Y-4.8638
X5.315Y-4.7638
X5.315Y-4.8638
X5.415Y-4.7638
X5.415Y-4.8638
X5.515Y-4.7638
X5.515Y-4.8638
X5.615Y-4.7638
X5.615Y-4.8638
X5.715Y-4.7638
X5.715Y-4.8638
X5.815Y-4.7638
X5.815Y-4.8638
X5.915Y-4.7638
X5.915Y-4.8638
X6.6791Y-3.3455
X6.6791Y-3.4455
X6.6791Y-3.634
X6.6791Y-3.734
X6.6791Y-3.9225
X6.6791Y-4.0225
X6.6791Y-4.211
X6.6791Y-4.311
T5
X3.8514Y-3.1332
X4.0364Y-3.1332
X4.2215Y-3.1332
T6
X5.1646Y-3.7823
T2
G00X5.0758Y-2.811
M15
G01X5.0758Y-2.7795
M16
G05
G00X5.0758Y-2.9811
M15
G01X5.0758Y-2.9378
M16
G05
G00X5.4163Y-2.811
M15
G01X5.4163Y-2.7795
M16
G05
G00X5.4163Y-2.9811
M15
G01X5.4163Y-2.9378
M16
G05
M30
