%TF.GenerationSoftware,KiCad,Pcbnew,8.0.8*%
%TF.CreationDate,2025-03-28T11:16:55+02:00*%
%TF.ProjectId,Power_Module,506f7765-725f-44d6-9f64-756c652e6b69,1*%
%TF.SameCoordinates,Original*%
%TF.FileFunction,Profile,NP*%
%FSLAX46Y46*%
G04 Gerber Fmt 4.6, Leading zero omitted, Abs format (unit mm)*
G04 Created by KiCad (PCBNEW 8.0.8) date 2025-03-28 11:16:55*
%MOMM*%
%LPD*%
G01*
G04 APERTURE LIST*
%TA.AperFunction,Profile*%
%ADD10C,0.050000*%
%TD*%
%ADD11C,0.150000*%
G04 APERTURE END LIST*
D10*
X171000000Y-68000000D02*
G75*
G02*
X173000000Y-70000000I0J-2000000D01*
G01*
X173000000Y-124000000D02*
X173000000Y-123000000D01*
X173000000Y-124000000D02*
G75*
G02*
X171000000Y-126000000I-2000000J0D01*
G01*
X171000000Y-68000000D02*
X96000000Y-68000000D01*
X96000000Y-126000000D02*
G75*
G02*
X94000000Y-124000000I0J2000000D01*
G01*
X94000000Y-70000000D02*
G75*
G02*
X96000000Y-68000000I2000000J0D01*
G01*
X94000000Y-70000000D02*
X94000000Y-124000000D01*
X173000000Y-123000000D02*
X173000000Y-70000000D01*
X96000000Y-126000000D02*
X171000000Y-126000000D01*
D11*
X207911264Y-92680520D02*
X207908800Y-92204336D01*
X207908800Y-92204336D02*
X207432370Y-92159182D01*
X207432370Y-92159182D02*
X207480234Y-92206554D01*
X207480234Y-92206554D02*
X207528345Y-92301544D01*
X207528345Y-92301544D02*
X207529577Y-92539636D01*
X207529577Y-92539636D02*
X207482452Y-92635119D01*
X207482452Y-92635119D02*
X207435080Y-92682984D01*
X207435080Y-92682984D02*
X207340089Y-92731095D01*
X207340089Y-92731095D02*
X207101997Y-92732327D01*
X207101997Y-92732327D02*
X207006514Y-92685202D01*
X207006514Y-92685202D02*
X206958649Y-92637830D01*
X206958649Y-92637830D02*
X206910538Y-92542839D01*
X206910538Y-92542839D02*
X206909306Y-92304747D01*
X206909306Y-92304747D02*
X206956432Y-92209264D01*
X206956432Y-92209264D02*
X207003804Y-92161399D01*
X207913235Y-93061468D02*
X207916684Y-93728125D01*
X207916684Y-93728125D02*
X206914480Y-93304734D01*
X206966534Y-94161619D02*
X206918915Y-94161865D01*
X206918915Y-94161865D02*
X206823432Y-94114740D01*
X206823432Y-94114740D02*
X206775567Y-94067367D01*
X206921379Y-94638049D02*
X206922365Y-94828522D01*
X206922365Y-94828522D02*
X206970476Y-94923513D01*
X206970476Y-94923513D02*
X207018341Y-94970885D01*
X207018341Y-94970885D02*
X207161689Y-95065383D01*
X207161689Y-95065383D02*
X207352409Y-95112015D01*
X207352409Y-95112015D02*
X207733356Y-95110044D01*
X207733356Y-95110044D02*
X207828346Y-95061933D01*
X207828346Y-95061933D02*
X207875718Y-95014068D01*
X207875718Y-95014068D02*
X207922844Y-94918585D01*
X207922844Y-94918585D02*
X207921859Y-94728111D01*
X207921859Y-94728111D02*
X207873747Y-94633121D01*
X207873747Y-94633121D02*
X207825883Y-94585749D01*
X207825883Y-94585749D02*
X207730399Y-94538623D01*
X207730399Y-94538623D02*
X207492307Y-94539855D01*
X207492307Y-94539855D02*
X207397317Y-94587966D01*
X207397317Y-94587966D02*
X207349945Y-94635831D01*
X207349945Y-94635831D02*
X207302819Y-94731314D01*
X207302819Y-94731314D02*
X207303805Y-94921788D01*
X207303805Y-94921788D02*
X207351916Y-95016779D01*
X207351916Y-95016779D02*
X207399781Y-95064151D01*
X207399781Y-95064151D02*
X207495264Y-95111276D01*
X207498221Y-95682697D02*
X207545346Y-95587214D01*
X207545346Y-95587214D02*
X207592718Y-95539349D01*
X207592718Y-95539349D02*
X207687709Y-95491238D01*
X207687709Y-95491238D02*
X207735327Y-95490992D01*
X207735327Y-95490992D02*
X207830810Y-95538117D01*
X207830810Y-95538117D02*
X207878675Y-95585489D01*
X207878675Y-95585489D02*
X207926786Y-95680480D01*
X207926786Y-95680480D02*
X207927772Y-95870953D01*
X207927772Y-95870953D02*
X207880646Y-95966437D01*
X207880646Y-95966437D02*
X207833274Y-96014301D01*
X207833274Y-96014301D02*
X207738284Y-96062413D01*
X207738284Y-96062413D02*
X207690665Y-96062659D01*
X207690665Y-96062659D02*
X207595182Y-96015533D01*
X207595182Y-96015533D02*
X207547317Y-95968161D01*
X207547317Y-95968161D02*
X207499206Y-95873171D01*
X207499206Y-95873171D02*
X207498221Y-95682697D01*
X207498221Y-95682697D02*
X207450109Y-95587707D01*
X207450109Y-95587707D02*
X207402245Y-95540335D01*
X207402245Y-95540335D02*
X207306761Y-95493209D01*
X207306761Y-95493209D02*
X207116288Y-95494195D01*
X207116288Y-95494195D02*
X207021297Y-95542306D01*
X207021297Y-95542306D02*
X206973925Y-95590171D01*
X206973925Y-95590171D02*
X206926800Y-95685654D01*
X206926800Y-95685654D02*
X206927785Y-95876127D01*
X206927785Y-95876127D02*
X206975896Y-95971118D01*
X206975896Y-95971118D02*
X207023761Y-96018490D01*
X207023761Y-96018490D02*
X207119244Y-96065616D01*
X207119244Y-96065616D02*
X207309718Y-96064630D01*
X207309718Y-96064630D02*
X207404708Y-96016519D01*
X207404708Y-96016519D02*
X207452080Y-95968654D01*
X207452080Y-95968654D02*
X207499206Y-95873171D01*
X207931960Y-96680466D02*
X207932453Y-96775703D01*
X207932453Y-96775703D02*
X207885328Y-96871186D01*
X207885328Y-96871186D02*
X207837955Y-96919051D01*
X207837955Y-96919051D02*
X207742965Y-96967162D01*
X207742965Y-96967162D02*
X207552738Y-97015766D01*
X207552738Y-97015766D02*
X207314646Y-97016998D01*
X207314646Y-97016998D02*
X207123926Y-96970365D01*
X207123926Y-96970365D02*
X207028443Y-96923240D01*
X207028443Y-96923240D02*
X206980578Y-96875868D01*
X206980578Y-96875868D02*
X206932467Y-96780877D01*
X206932467Y-96780877D02*
X206931974Y-96685640D01*
X206931974Y-96685640D02*
X206979099Y-96590157D01*
X206979099Y-96590157D02*
X207026471Y-96542292D01*
X207026471Y-96542292D02*
X207121462Y-96494181D01*
X207121462Y-96494181D02*
X207311689Y-96445577D01*
X207311689Y-96445577D02*
X207549781Y-96444345D01*
X207549781Y-96444345D02*
X207740501Y-96490978D01*
X207740501Y-96490978D02*
X207835984Y-96538104D01*
X207835984Y-96538104D02*
X207883849Y-96585476D01*
X207883849Y-96585476D02*
X207931960Y-96680466D01*
X207508076Y-97587434D02*
X207555202Y-97491950D01*
X207555202Y-97491950D02*
X207602574Y-97444086D01*
X207602574Y-97444086D02*
X207697564Y-97395975D01*
X207697564Y-97395975D02*
X207745183Y-97395728D01*
X207745183Y-97395728D02*
X207840666Y-97442854D01*
X207840666Y-97442854D02*
X207888531Y-97490226D01*
X207888531Y-97490226D02*
X207936642Y-97585216D01*
X207936642Y-97585216D02*
X207937627Y-97775690D01*
X207937627Y-97775690D02*
X207890502Y-97871173D01*
X207890502Y-97871173D02*
X207843130Y-97919038D01*
X207843130Y-97919038D02*
X207748139Y-97967149D01*
X207748139Y-97967149D02*
X207700521Y-97967395D01*
X207700521Y-97967395D02*
X207605038Y-97920270D01*
X207605038Y-97920270D02*
X207557173Y-97872898D01*
X207557173Y-97872898D02*
X207509062Y-97777907D01*
X207509062Y-97777907D02*
X207508076Y-97587434D01*
X207508076Y-97587434D02*
X207459965Y-97492443D01*
X207459965Y-97492443D02*
X207412100Y-97445071D01*
X207412100Y-97445071D02*
X207316617Y-97397946D01*
X207316617Y-97397946D02*
X207126143Y-97398931D01*
X207126143Y-97398931D02*
X207031153Y-97447042D01*
X207031153Y-97447042D02*
X206983781Y-97494907D01*
X206983781Y-97494907D02*
X206936655Y-97590390D01*
X206936655Y-97590390D02*
X206937641Y-97780864D01*
X206937641Y-97780864D02*
X206985752Y-97875854D01*
X206985752Y-97875854D02*
X207033617Y-97923226D01*
X207033617Y-97923226D02*
X207129100Y-97970352D01*
X207129100Y-97970352D02*
X207319574Y-97969367D01*
X207319574Y-97969367D02*
X207414564Y-97921255D01*
X207414564Y-97921255D02*
X207461936Y-97873391D01*
X207461936Y-97873391D02*
X207509062Y-97777907D01*
X206944786Y-99161798D02*
X207611444Y-99158349D01*
X207516207Y-99158842D02*
X207564072Y-99206214D01*
X207564072Y-99206214D02*
X207612183Y-99301204D01*
X207612183Y-99301204D02*
X207612922Y-99444059D01*
X207612922Y-99444059D02*
X207565796Y-99539542D01*
X207565796Y-99539542D02*
X207470806Y-99587654D01*
X207470806Y-99587654D02*
X206947003Y-99590364D01*
X207470806Y-99587654D02*
X207566289Y-99634779D01*
X207566289Y-99634779D02*
X207614400Y-99729770D01*
X207614400Y-99729770D02*
X207615139Y-99872625D01*
X207615139Y-99872625D02*
X207568014Y-99968108D01*
X207568014Y-99968108D02*
X207473023Y-100016219D01*
X207473023Y-100016219D02*
X206949221Y-100018930D01*
X206951685Y-100495113D02*
X207618342Y-100491664D01*
X207523106Y-100492157D02*
X207570970Y-100539529D01*
X207570970Y-100539529D02*
X207619082Y-100634519D01*
X207619082Y-100634519D02*
X207619821Y-100777374D01*
X207619821Y-100777374D02*
X207572695Y-100872858D01*
X207572695Y-100872858D02*
X207477705Y-100920969D01*
X207477705Y-100920969D02*
X206953902Y-100923679D01*
X207477705Y-100920969D02*
X207573188Y-100968094D01*
X207573188Y-100968094D02*
X207621299Y-101063085D01*
X207621299Y-101063085D02*
X207622038Y-101205940D01*
X207622038Y-101205940D02*
X207574913Y-101301423D01*
X207574913Y-101301423D02*
X207479922Y-101349534D01*
X207479922Y-101349534D02*
X206956120Y-101352245D01*
D10*
X155269993Y-68057413D02*
X206673707Y-67791440D01*
X155569993Y-126037413D02*
X206973707Y-125771440D01*
X206087295Y-67794474D02*
X206387295Y-125774474D01*
X206087295Y-67794474D02*
X206387295Y-125774474D01*
X206087295Y-67794474D02*
X206679537Y-68917928D01*
X206087295Y-67794474D02*
X205506711Y-68923997D01*
X206387295Y-125774474D02*
X205795053Y-124651020D01*
X206387295Y-125774474D02*
X206967879Y-124644951D01*
D11*
X128737207Y-49163835D02*
X129403867Y-49160966D01*
X129403867Y-49160966D02*
X128979603Y-50162801D01*
X129836738Y-50159113D02*
X130027212Y-50158293D01*
X130027212Y-50158293D02*
X130122245Y-50110265D01*
X130122245Y-50110265D02*
X130169658Y-50062441D01*
X130169658Y-50062441D02*
X130264281Y-49919176D01*
X130264281Y-49919176D02*
X130311080Y-49728496D01*
X130311080Y-49728496D02*
X130309441Y-49347547D01*
X130309441Y-49347547D02*
X130261412Y-49252515D01*
X130261412Y-49252515D02*
X130213589Y-49205101D01*
X130213589Y-49205101D02*
X130118146Y-49157893D01*
X130118146Y-49157893D02*
X129927672Y-49158712D01*
X129927672Y-49158712D02*
X129832640Y-49206741D01*
X129832640Y-49206741D02*
X129785226Y-49254564D01*
X129785226Y-49254564D02*
X129738017Y-49350006D01*
X129738017Y-49350006D02*
X129739042Y-49588099D01*
X129739042Y-49588099D02*
X129787070Y-49683132D01*
X129787070Y-49683132D02*
X129834894Y-49730545D01*
X129834894Y-49730545D02*
X129930336Y-49777754D01*
X129930336Y-49777754D02*
X130120810Y-49776935D01*
X130120810Y-49776935D02*
X130215843Y-49728906D01*
X130215843Y-49728906D02*
X130263256Y-49681083D01*
X130263256Y-49681083D02*
X130310465Y-49585641D01*
X130788905Y-50107396D02*
X130789110Y-50155015D01*
X130789110Y-50155015D02*
X130741901Y-50250457D01*
X130741901Y-50250457D02*
X130694488Y-50298280D01*
X131403848Y-49152360D02*
X131499086Y-49151950D01*
X131499086Y-49151950D02*
X131594528Y-49199159D01*
X131594528Y-49199159D02*
X131642351Y-49246573D01*
X131642351Y-49246573D02*
X131690380Y-49341605D01*
X131690380Y-49341605D02*
X131738818Y-49531874D01*
X131738818Y-49531874D02*
X131739843Y-49769968D01*
X131739843Y-49769968D02*
X131693044Y-49960647D01*
X131693044Y-49960647D02*
X131645835Y-50056089D01*
X131645835Y-50056089D02*
X131598421Y-50103912D01*
X131598421Y-50103912D02*
X131503389Y-50151941D01*
X131503389Y-50151941D02*
X131408152Y-50152351D01*
X131408152Y-50152351D02*
X131312710Y-50105142D01*
X131312710Y-50105142D02*
X131264886Y-50057728D01*
X131264886Y-50057728D02*
X131216858Y-49962696D01*
X131216858Y-49962696D02*
X131168419Y-49772426D01*
X131168419Y-49772426D02*
X131167395Y-49534333D01*
X131167395Y-49534333D02*
X131214194Y-49343654D01*
X131214194Y-49343654D02*
X131261402Y-49248212D01*
X131261402Y-49248212D02*
X131308816Y-49200388D01*
X131308816Y-49200388D02*
X131403848Y-49152360D01*
X132693854Y-50146818D02*
X132122431Y-50149277D01*
X132408142Y-50148048D02*
X132403839Y-49148057D01*
X132403839Y-49148057D02*
X132309217Y-49291322D01*
X132309217Y-49291322D02*
X132214389Y-49386969D01*
X132214389Y-49386969D02*
X132119357Y-49434998D01*
X133308593Y-49144163D02*
X133403830Y-49143754D01*
X133403830Y-49143754D02*
X133499272Y-49190962D01*
X133499272Y-49190962D02*
X133547096Y-49238376D01*
X133547096Y-49238376D02*
X133595124Y-49333408D01*
X133595124Y-49333408D02*
X133643562Y-49523678D01*
X133643562Y-49523678D02*
X133644587Y-49761771D01*
X133644587Y-49761771D02*
X133597788Y-49952450D01*
X133597788Y-49952450D02*
X133550579Y-50047892D01*
X133550579Y-50047892D02*
X133503166Y-50095716D01*
X133503166Y-50095716D02*
X133408133Y-50143744D01*
X133408133Y-50143744D02*
X133312896Y-50144154D01*
X133312896Y-50144154D02*
X133217454Y-50096945D01*
X133217454Y-50096945D02*
X133169630Y-50049532D01*
X133169630Y-50049532D02*
X133121602Y-49954499D01*
X133121602Y-49954499D02*
X133073164Y-49764230D01*
X133073164Y-49764230D02*
X133072139Y-49526137D01*
X133072139Y-49526137D02*
X133118938Y-49335458D01*
X133118938Y-49335458D02*
X133166147Y-49240015D01*
X133166147Y-49240015D02*
X133213560Y-49192192D01*
X133213560Y-49192192D02*
X133308593Y-49144163D01*
X133975253Y-49141295D02*
X134641914Y-49138426D01*
X134641914Y-49138426D02*
X134217650Y-50140261D01*
X135789064Y-50133499D02*
X135786195Y-49466838D01*
X135786605Y-49562075D02*
X135834019Y-49514252D01*
X135834019Y-49514252D02*
X135929051Y-49466223D01*
X135929051Y-49466223D02*
X136071907Y-49465609D01*
X136071907Y-49465609D02*
X136167349Y-49512817D01*
X136167349Y-49512817D02*
X136215377Y-49607850D01*
X136215377Y-49607850D02*
X136217631Y-50131654D01*
X136215377Y-49607850D02*
X136262586Y-49512408D01*
X136262586Y-49512408D02*
X136357618Y-49464379D01*
X136357618Y-49464379D02*
X136500474Y-49463764D01*
X136500474Y-49463764D02*
X136595916Y-49510973D01*
X136595916Y-49510973D02*
X136643945Y-49606005D01*
X136643945Y-49606005D02*
X136646199Y-50129810D01*
X137122385Y-50127761D02*
X137119516Y-49461100D01*
X137119926Y-49556338D02*
X137167339Y-49508514D01*
X137167339Y-49508514D02*
X137262372Y-49460486D01*
X137262372Y-49460486D02*
X137405227Y-49459871D01*
X137405227Y-49459871D02*
X137500669Y-49507080D01*
X137500669Y-49507080D02*
X137548698Y-49602112D01*
X137548698Y-49602112D02*
X137550952Y-50125917D01*
X137548698Y-49602112D02*
X137595907Y-49506670D01*
X137595907Y-49506670D02*
X137690939Y-49458641D01*
X137690939Y-49458641D02*
X137833795Y-49458027D01*
X137833795Y-49458027D02*
X137929237Y-49505236D01*
X137929237Y-49505236D02*
X137977265Y-49600268D01*
X137977265Y-49600268D02*
X137979519Y-50124073D01*
D10*
X93987848Y-70000005D02*
X93903601Y-50422505D01*
X172997848Y-69660005D02*
X172913601Y-50082505D01*
X93906125Y-51008919D02*
X172916125Y-50668919D01*
X93906125Y-51008919D02*
X172916125Y-50668919D01*
X93906125Y-51008919D02*
X95030095Y-50417656D01*
X93906125Y-51008919D02*
X95035142Y-51590487D01*
X172916125Y-50668919D02*
X171792155Y-51260182D01*
X172916125Y-50668919D02*
X171787108Y-50087351D01*
M02*
