%TF.GenerationSoftware,KiCad,Pcbnew,8.0.8*%
%TF.CreationDate,2025-03-27T00:48:41+02:00*%
%TF.ProjectId,Power_Module,506f7765-725f-44d6-9f64-756c652e6b69,rev?*%
%TF.SameCoordinates,Original*%
%TF.FileFunction,Soldermask,Bot*%
%TF.FilePolarity,Negative*%
%FSLAX46Y46*%
G04 Gerber Fmt 4.6, Leading zero omitted, Abs format (unit mm)*
G04 Created by KiCad (PCBNEW 8.0.8) date 2025-03-27 00:48:41*
%MOMM*%
%LPD*%
G01*
G04 APERTURE LIST*
G04 Aperture macros list*
%AMRoundRect*
0 Rectangle with rounded corners*
0 $1 Rounding radius*
0 $2 $3 $4 $5 $6 $7 $8 $9 X,Y pos of 4 corners*
0 Add a 4 corners polygon primitive as box body*
4,1,4,$2,$3,$4,$5,$6,$7,$8,$9,$2,$3,0*
0 Add four circle primitives for the rounded corners*
1,1,$1+$1,$2,$3*
1,1,$1+$1,$4,$5*
1,1,$1+$1,$6,$7*
1,1,$1+$1,$8,$9*
0 Add four rect primitives between the rounded corners*
20,1,$1+$1,$2,$3,$4,$5,0*
20,1,$1+$1,$4,$5,$6,$7,0*
20,1,$1+$1,$6,$7,$8,$9,0*
20,1,$1+$1,$8,$9,$2,$3,0*%
G04 Aperture macros list end*
%ADD10R,1.500000X1.500000*%
%ADD11C,1.600000*%
%ADD12R,1.700000X1.700000*%
%ADD13O,1.700000X1.700000*%
%ADD14RoundRect,0.250000X-0.350000X-0.625000X0.350000X-0.625000X0.350000X0.625000X-0.350000X0.625000X0*%
%ADD15O,1.200000X1.750000*%
%ADD16C,0.600000*%
%ADD17O,1.104000X2.204000*%
%ADD18O,1.104000X1.904000*%
G04 APERTURE END LIST*
D10*
%TO.C,SW1*%
X141250000Y-126450000D03*
D11*
X138710000Y-126450000D03*
X143790000Y-126450000D03*
%TD*%
D12*
%TO.C,J7*%
X131150000Y-102640000D03*
D13*
X131150000Y-105180000D03*
%TD*%
D12*
%TO.C,J6*%
X126500000Y-102640000D03*
D13*
X126500000Y-105180000D03*
%TD*%
D12*
%TO.C,J5*%
X121850000Y-102640000D03*
D13*
X121850000Y-105180000D03*
%TD*%
D12*
%TO.C,J4*%
X117200000Y-102640000D03*
D13*
X117200000Y-105180000D03*
%TD*%
D14*
%TO.C,J3*%
X117850000Y-109890000D03*
D15*
X119850000Y-109890000D03*
%TD*%
D12*
%TO.C,J2*%
X110000000Y-77390000D03*
D13*
X112540000Y-77390000D03*
X110000000Y-79930000D03*
X112540000Y-79930000D03*
X110000000Y-82470000D03*
X112540000Y-82470000D03*
X110000000Y-85010000D03*
X112540000Y-85010000D03*
X110000000Y-87550000D03*
X112540000Y-87550000D03*
X110000000Y-90090000D03*
X112540000Y-90090000D03*
X110000000Y-92630000D03*
X112540000Y-92630000D03*
X110000000Y-95170000D03*
X112540000Y-95170000D03*
X110000000Y-97710000D03*
X112540000Y-97710000D03*
X110000000Y-100250000D03*
X112540000Y-100250000D03*
X110000000Y-102790000D03*
X112540000Y-102790000D03*
X110000000Y-105330000D03*
X112540000Y-105330000D03*
X110000000Y-107870000D03*
X112540000Y-107870000D03*
X110000000Y-110410000D03*
X112540000Y-110410000D03*
X110000000Y-112950000D03*
X112540000Y-112950000D03*
X110000000Y-115490000D03*
X112540000Y-115490000D03*
%TD*%
D16*
%TO.C,J1*%
X115198500Y-122835000D03*
X120978500Y-122835000D03*
D17*
X113763500Y-122345000D03*
X122413500Y-122345000D03*
D18*
X113763500Y-126515000D03*
X122413500Y-126515000D03*
%TD*%
M02*
