%TF.GenerationSoftware,KiCad,Pcbnew,8.0.8*%
%TF.CreationDate,2025-03-27T00:48:40+02:00*%
%TF.ProjectId,Power_Module,506f7765-725f-44d6-9f64-756c652e6b69,rev?*%
%TF.SameCoordinates,Original*%
%TF.FileFunction,Soldermask,Top*%
%TF.FilePolarity,Negative*%
%FSLAX46Y46*%
G04 Gerber Fmt 4.6, Leading zero omitted, Abs format (unit mm)*
G04 Created by KiCad (PCBNEW 8.0.8) date 2025-03-27 00:48:40*
%MOMM*%
%LPD*%
G01*
G04 APERTURE LIST*
G04 Aperture macros list*
%AMRoundRect*
0 Rectangle with rounded corners*
0 $1 Rounding radius*
0 $2 $3 $4 $5 $6 $7 $8 $9 X,Y pos of 4 corners*
0 Add a 4 corners polygon primitive as box body*
4,1,4,$2,$3,$4,$5,$6,$7,$8,$9,$2,$3,0*
0 Add four circle primitives for the rounded corners*
1,1,$1+$1,$2,$3*
1,1,$1+$1,$4,$5*
1,1,$1+$1,$6,$7*
1,1,$1+$1,$8,$9*
0 Add four rect primitives between the rounded corners*
20,1,$1+$1,$2,$3,$4,$5,0*
20,1,$1+$1,$4,$5,$6,$7,0*
20,1,$1+$1,$6,$7,$8,$9,0*
20,1,$1+$1,$8,$9,$2,$3,0*%
%AMFreePoly0*
4,1,19,0.500000,-0.750000,0.000000,-0.750000,0.000000,-0.744911,-0.071157,-0.744911,-0.207708,-0.704816,-0.327430,-0.627875,-0.420627,-0.520320,-0.479746,-0.390866,-0.500000,-0.250000,-0.500000,0.250000,-0.479746,0.390866,-0.420627,0.520320,-0.327430,0.627875,-0.207708,0.704816,-0.071157,0.744911,0.000000,0.744911,0.000000,0.750000,0.500000,0.750000,0.500000,-0.750000,0.500000,-0.750000,
$1*%
%AMFreePoly1*
4,1,19,0.000000,0.744911,0.071157,0.744911,0.207708,0.704816,0.327430,0.627875,0.420627,0.520320,0.479746,0.390866,0.500000,0.250000,0.500000,-0.250000,0.479746,-0.390866,0.420627,-0.520320,0.327430,-0.627875,0.207708,-0.704816,0.071157,-0.744911,0.000000,-0.744911,0.000000,-0.750000,-0.500000,-0.750000,-0.500000,0.750000,0.000000,0.750000,0.000000,0.744911,0.000000,0.744911,
$1*%
G04 Aperture macros list end*
%ADD10C,0.010000*%
%ADD11RoundRect,0.102000X-1.075000X-0.475000X1.075000X-0.475000X1.075000X0.475000X-1.075000X0.475000X0*%
%ADD12RoundRect,0.102000X-1.075000X-1.625000X1.075000X-1.625000X1.075000X1.625000X-1.075000X1.625000X0*%
%ADD13R,1.460500X0.558800*%
%ADD14R,2.362200X3.251200*%
%ADD15RoundRect,0.150000X-0.512500X-0.150000X0.512500X-0.150000X0.512500X0.150000X-0.512500X0.150000X0*%
%ADD16RoundRect,0.100000X-0.225000X-0.100000X0.225000X-0.100000X0.225000X0.100000X-0.225000X0.100000X0*%
%ADD17RoundRect,0.100000X-0.637500X-0.100000X0.637500X-0.100000X0.637500X0.100000X-0.637500X0.100000X0*%
%ADD18RoundRect,0.150000X-0.825000X-0.150000X0.825000X-0.150000X0.825000X0.150000X-0.825000X0.150000X0*%
%ADD19RoundRect,0.150000X-0.687500X-0.150000X0.687500X-0.150000X0.687500X0.150000X-0.687500X0.150000X0*%
%ADD20R,2.100000X3.300000*%
%ADD21C,3.000000*%
%ADD22R,1.500000X1.500000*%
%ADD23C,1.600000*%
%ADD24RoundRect,0.250000X-0.400000X-0.625000X0.400000X-0.625000X0.400000X0.625000X-0.400000X0.625000X0*%
%ADD25RoundRect,0.237500X-0.250000X-0.237500X0.250000X-0.237500X0.250000X0.237500X-0.250000X0.237500X0*%
%ADD26RoundRect,0.249999X-0.450001X-1.425001X0.450001X-1.425001X0.450001X1.425001X-0.450001X1.425001X0*%
%ADD27RoundRect,0.150000X-0.587500X-0.150000X0.587500X-0.150000X0.587500X0.150000X-0.587500X0.150000X0*%
%ADD28RoundRect,0.237500X-0.287500X-0.237500X0.287500X-0.237500X0.287500X0.237500X-0.287500X0.237500X0*%
%ADD29FreePoly0,0.000000*%
%ADD30FreePoly1,0.000000*%
%ADD31R,1.700000X1.700000*%
%ADD32O,1.700000X1.700000*%
%ADD33RoundRect,0.250000X-0.350000X-0.625000X0.350000X-0.625000X0.350000X0.625000X-0.350000X0.625000X0*%
%ADD34O,1.200000X1.750000*%
%ADD35C,0.600000*%
%ADD36O,1.104000X2.204000*%
%ADD37O,1.104000X1.904000*%
%ADD38RoundRect,0.102000X-0.455000X-0.610000X0.455000X-0.610000X0.455000X0.610000X-0.455000X0.610000X0*%
%ADD39RoundRect,0.237500X-0.300000X-0.237500X0.300000X-0.237500X0.300000X0.237500X-0.300000X0.237500X0*%
G04 APERTURE END LIST*
D10*
%TO.C,J1*%
X116538500Y-122385000D02*
X116138500Y-122385000D01*
X116138500Y-121145000D01*
X116538500Y-121145000D01*
X116538500Y-122385000D01*
G36*
X116538500Y-122385000D02*
G01*
X116138500Y-122385000D01*
X116138500Y-121145000D01*
X116538500Y-121145000D01*
X116538500Y-122385000D01*
G37*
X117038500Y-122385000D02*
X116638500Y-122385000D01*
X116638500Y-121145000D01*
X117038500Y-121145000D01*
X117038500Y-122385000D01*
G36*
X117038500Y-122385000D02*
G01*
X116638500Y-122385000D01*
X116638500Y-121145000D01*
X117038500Y-121145000D01*
X117038500Y-122385000D01*
G37*
X117538500Y-122385000D02*
X117138500Y-122385000D01*
X117138500Y-121145000D01*
X117538500Y-121145000D01*
X117538500Y-122385000D01*
G36*
X117538500Y-122385000D02*
G01*
X117138500Y-122385000D01*
X117138500Y-121145000D01*
X117538500Y-121145000D01*
X117538500Y-122385000D01*
G37*
X120038500Y-122385000D02*
X119638500Y-122385000D01*
X119638500Y-121145000D01*
X120038500Y-121145000D01*
X120038500Y-122385000D01*
G36*
X120038500Y-122385000D02*
G01*
X119638500Y-122385000D01*
X119638500Y-121145000D01*
X120038500Y-121145000D01*
X120038500Y-122385000D01*
G37*
X119538500Y-122385000D02*
X119138500Y-122385000D01*
X119138500Y-121145000D01*
X119538500Y-121145000D01*
X119538500Y-122385000D01*
G36*
X119538500Y-122385000D02*
G01*
X119138500Y-122385000D01*
X119138500Y-121145000D01*
X119538500Y-121145000D01*
X119538500Y-122385000D01*
G37*
X119038500Y-122385000D02*
X118638500Y-122385000D01*
X118638500Y-121145000D01*
X119038500Y-121145000D01*
X119038500Y-122385000D01*
G36*
X119038500Y-122385000D02*
G01*
X118638500Y-122385000D01*
X118638500Y-121145000D01*
X119038500Y-121145000D01*
X119038500Y-122385000D01*
G37*
X118038500Y-122385000D02*
X117638500Y-122385000D01*
X117638500Y-121145000D01*
X118038500Y-121145000D01*
X118038500Y-122385000D01*
G36*
X118038500Y-122385000D02*
G01*
X117638500Y-122385000D01*
X117638500Y-121145000D01*
X118038500Y-121145000D01*
X118038500Y-122385000D01*
G37*
X118538500Y-122385000D02*
X118138500Y-122385000D01*
X118138500Y-121145000D01*
X118538500Y-121145000D01*
X118538500Y-122385000D01*
G36*
X118538500Y-122385000D02*
G01*
X118138500Y-122385000D01*
X118138500Y-121145000D01*
X118538500Y-121145000D01*
X118538500Y-122385000D01*
G37*
X115238500Y-122385000D02*
X114538500Y-122385000D01*
X114538500Y-121145000D01*
X115238500Y-121145000D01*
X115238500Y-122385000D01*
G36*
X115238500Y-122385000D02*
G01*
X114538500Y-122385000D01*
X114538500Y-121145000D01*
X115238500Y-121145000D01*
X115238500Y-122385000D01*
G37*
X121638500Y-122385000D02*
X120938500Y-122385000D01*
X120938500Y-121145000D01*
X121638500Y-121145000D01*
X121638500Y-122385000D01*
G36*
X121638500Y-122385000D02*
G01*
X120938500Y-122385000D01*
X120938500Y-121145000D01*
X121638500Y-121145000D01*
X121638500Y-122385000D01*
G37*
X116038500Y-122385000D02*
X115338500Y-122385000D01*
X115338500Y-121145000D01*
X116038500Y-121145000D01*
X116038500Y-122385000D01*
G36*
X116038500Y-122385000D02*
G01*
X115338500Y-122385000D01*
X115338500Y-121145000D01*
X116038500Y-121145000D01*
X116038500Y-122385000D01*
G37*
X120838500Y-122385000D02*
X120138500Y-122385000D01*
X120138500Y-121145000D01*
X120838500Y-121145000D01*
X120838500Y-122385000D01*
G36*
X120838500Y-122385000D02*
G01*
X120138500Y-122385000D01*
X120138500Y-121145000D01*
X120838500Y-121145000D01*
X120838500Y-122385000D01*
G37*
%TD*%
D11*
%TO.C,VR1*%
X146575000Y-99050000D03*
X146575000Y-101350000D03*
X146575000Y-103650000D03*
D12*
X152375000Y-101350000D03*
%TD*%
D13*
%TO.C,U10*%
X113585450Y-131362900D03*
X113585450Y-132632900D03*
X113585450Y-133902900D03*
X113585450Y-135172900D03*
X119033750Y-135172900D03*
X119033750Y-133902900D03*
X119033750Y-132632900D03*
X119033750Y-131362900D03*
D14*
X116309600Y-133267900D03*
%TD*%
D15*
%TO.C,U9*%
X145612500Y-111450000D03*
X145612500Y-112400000D03*
X145612500Y-113350000D03*
X147887500Y-113350000D03*
X147887500Y-111450000D03*
%TD*%
%TO.C,U8*%
X145612500Y-106825000D03*
X145612500Y-107775000D03*
X145612500Y-108725000D03*
X147887500Y-108725000D03*
X147887500Y-107775000D03*
X147887500Y-106825000D03*
%TD*%
D16*
%TO.C,U7*%
X165100000Y-129700000D03*
X165100000Y-130350000D03*
X165100000Y-131000000D03*
X167000000Y-131000000D03*
X167000000Y-130350000D03*
X167000000Y-129700000D03*
%TD*%
%TO.C,U6*%
X165100000Y-125775000D03*
X165100000Y-126425000D03*
X165100000Y-127075000D03*
X167000000Y-127075000D03*
X167000000Y-126425000D03*
X167000000Y-125775000D03*
%TD*%
D17*
%TO.C,U4*%
X137362500Y-82675000D03*
X137362500Y-83325000D03*
X137362500Y-83975000D03*
X137362500Y-84625000D03*
X137362500Y-85275000D03*
X137362500Y-85925000D03*
X137362500Y-86575000D03*
X137362500Y-87225000D03*
X143087500Y-87225000D03*
X143087500Y-86575000D03*
X143087500Y-85925000D03*
X143087500Y-85275000D03*
X143087500Y-84625000D03*
X143087500Y-83975000D03*
X143087500Y-83325000D03*
X143087500Y-82675000D03*
%TD*%
%TO.C,U3*%
X137362500Y-76085000D03*
X137362500Y-76735000D03*
X137362500Y-77385000D03*
X137362500Y-78035000D03*
X137362500Y-78685000D03*
X137362500Y-79335000D03*
X137362500Y-79985000D03*
X137362500Y-80635000D03*
X143087500Y-80635000D03*
X143087500Y-79985000D03*
X143087500Y-79335000D03*
X143087500Y-78685000D03*
X143087500Y-78035000D03*
X143087500Y-77385000D03*
X143087500Y-76735000D03*
X143087500Y-76085000D03*
%TD*%
D18*
%TO.C,U2*%
X145925000Y-134815000D03*
X145925000Y-136085000D03*
X145925000Y-137355000D03*
X145925000Y-138625000D03*
X150875000Y-138625000D03*
X150875000Y-137355000D03*
X150875000Y-136085000D03*
X150875000Y-134815000D03*
%TD*%
D19*
%TO.C,U1*%
X113632500Y-138095000D03*
X113632500Y-139095000D03*
X113632500Y-140095000D03*
X113632500Y-141095000D03*
X113632500Y-142095000D03*
X118907500Y-142095000D03*
X118907500Y-141095000D03*
X118907500Y-140095000D03*
X118907500Y-139095000D03*
X118907500Y-138095000D03*
D20*
X116270000Y-140095000D03*
%TD*%
D21*
%TO.C,TP5*%
X117400000Y-97790000D03*
%TD*%
%TO.C,TP4*%
X117400000Y-92740000D03*
%TD*%
%TO.C,TP3*%
X117400000Y-87690000D03*
%TD*%
%TO.C,TP2*%
X117400000Y-82640000D03*
%TD*%
%TO.C,TP1*%
X117400000Y-77590000D03*
%TD*%
D22*
%TO.C,SW1*%
X141250000Y-126450000D03*
D23*
X138710000Y-126450000D03*
X143790000Y-126450000D03*
%TD*%
D24*
%TO.C,R17*%
X150370000Y-86580000D03*
X153470000Y-86580000D03*
%TD*%
%TO.C,R16*%
X150370000Y-83290000D03*
X153470000Y-83290000D03*
%TD*%
%TO.C,R15*%
X150370000Y-80000000D03*
X153470000Y-80000000D03*
%TD*%
%TO.C,R13*%
X150370000Y-76710000D03*
X153470000Y-76710000D03*
%TD*%
D25*
%TO.C,R12*%
X108937500Y-141150000D03*
X110762500Y-141150000D03*
%TD*%
%TO.C,R11*%
X136737500Y-121170000D03*
X138562500Y-121170000D03*
%TD*%
%TO.C,R10*%
X136737500Y-118660000D03*
X138562500Y-118660000D03*
%TD*%
%TO.C,R9*%
X136737500Y-116150000D03*
X138562500Y-116150000D03*
%TD*%
%TO.C,R8*%
X108937500Y-138640000D03*
X110762500Y-138640000D03*
%TD*%
%TO.C,R7*%
X108937500Y-136130000D03*
X110762500Y-136130000D03*
%TD*%
%TO.C,R6*%
X108937500Y-133620000D03*
X110762500Y-133620000D03*
%TD*%
%TO.C,R5*%
X141087500Y-137260000D03*
X142912500Y-137260000D03*
%TD*%
%TO.C,R4*%
X141087500Y-134750000D03*
X142912500Y-134750000D03*
%TD*%
D26*
%TO.C,R3*%
X145650000Y-130920000D03*
X151750000Y-130920000D03*
%TD*%
D25*
%TO.C,R2*%
X108937500Y-131110000D03*
X110762500Y-131110000D03*
%TD*%
%TO.C,R1*%
X108937500Y-128600000D03*
X110762500Y-128600000D03*
%TD*%
D27*
%TO.C,Q1*%
X122092500Y-138435000D03*
X122092500Y-140335000D03*
X123967500Y-139385000D03*
%TD*%
D28*
%TO.C,L1*%
X136775000Y-113640000D03*
X138525000Y-113640000D03*
%TD*%
D29*
%TO.C,JP17*%
X137000000Y-137350000D03*
D30*
X138300000Y-137350000D03*
%TD*%
D29*
%TO.C,JP16*%
X137000000Y-133800000D03*
D30*
X138300000Y-133800000D03*
%TD*%
D29*
%TO.C,JP15*%
X122110000Y-135210000D03*
D30*
X123410000Y-135210000D03*
%TD*%
D29*
%TO.C,JP14*%
X122110000Y-131660000D03*
D30*
X123410000Y-131660000D03*
%TD*%
D29*
%TO.C,JP13*%
X150470000Y-93550000D03*
D30*
X151770000Y-93550000D03*
%TD*%
D29*
%TO.C,JP12*%
X150470000Y-90000000D03*
D30*
X151770000Y-90000000D03*
%TD*%
D29*
%TO.C,JP11*%
X137000000Y-130250000D03*
D30*
X138300000Y-130250000D03*
%TD*%
D29*
%TO.C,JP10*%
X141350000Y-116850000D03*
D30*
X142650000Y-116850000D03*
%TD*%
D29*
%TO.C,JP9*%
X141350000Y-113300000D03*
D30*
X142650000Y-113300000D03*
%TD*%
D29*
%TO.C,JP8*%
X141350000Y-109750000D03*
D30*
X142650000Y-109750000D03*
%TD*%
D29*
%TO.C,JP7*%
X141350000Y-106200000D03*
D30*
X142650000Y-106200000D03*
%TD*%
D29*
%TO.C,JP6*%
X141350000Y-102650000D03*
D30*
X142650000Y-102650000D03*
%TD*%
D29*
%TO.C,JP5*%
X141350000Y-99100000D03*
D30*
X142650000Y-99100000D03*
%TD*%
D29*
%TO.C,JP4*%
X156750000Y-136850000D03*
D30*
X158050000Y-136850000D03*
%TD*%
D29*
%TO.C,JP3*%
X156750000Y-133300000D03*
D30*
X158050000Y-133300000D03*
%TD*%
D29*
%TO.C,JP2*%
X156750000Y-129750000D03*
D30*
X158050000Y-129750000D03*
%TD*%
D29*
%TO.C,JP1*%
X156750000Y-126200000D03*
D30*
X158050000Y-126200000D03*
%TD*%
D31*
%TO.C,J7*%
X131150000Y-102640000D03*
D32*
X131150000Y-105180000D03*
%TD*%
D31*
%TO.C,J6*%
X126500000Y-102640000D03*
D32*
X126500000Y-105180000D03*
%TD*%
D31*
%TO.C,J5*%
X121850000Y-102640000D03*
D32*
X121850000Y-105180000D03*
%TD*%
D31*
%TO.C,J4*%
X117200000Y-102640000D03*
D32*
X117200000Y-105180000D03*
%TD*%
D33*
%TO.C,J3*%
X117850000Y-109890000D03*
D34*
X119850000Y-109890000D03*
%TD*%
D31*
%TO.C,J2*%
X110000000Y-77390000D03*
D32*
X112540000Y-77390000D03*
X110000000Y-79930000D03*
X112540000Y-79930000D03*
X110000000Y-82470000D03*
X112540000Y-82470000D03*
X110000000Y-85010000D03*
X112540000Y-85010000D03*
X110000000Y-87550000D03*
X112540000Y-87550000D03*
X110000000Y-90090000D03*
X112540000Y-90090000D03*
X110000000Y-92630000D03*
X112540000Y-92630000D03*
X110000000Y-95170000D03*
X112540000Y-95170000D03*
X110000000Y-97710000D03*
X112540000Y-97710000D03*
X110000000Y-100250000D03*
X112540000Y-100250000D03*
X110000000Y-102790000D03*
X112540000Y-102790000D03*
X110000000Y-105330000D03*
X112540000Y-105330000D03*
X110000000Y-107870000D03*
X112540000Y-107870000D03*
X110000000Y-110410000D03*
X112540000Y-110410000D03*
X110000000Y-112950000D03*
X112540000Y-112950000D03*
X110000000Y-115490000D03*
X112540000Y-115490000D03*
%TD*%
D35*
%TO.C,J1*%
X115198500Y-122835000D03*
X120978500Y-122835000D03*
D36*
X113763500Y-122345000D03*
X122413500Y-122345000D03*
D37*
X113763500Y-126515000D03*
X122413500Y-126515000D03*
%TD*%
D38*
%TO.C,D3*%
X148380000Y-116026600D03*
X145130000Y-116026600D03*
%TD*%
D28*
%TO.C,D1*%
X126280000Y-131180000D03*
X128030000Y-131180000D03*
%TD*%
D39*
%TO.C,C21*%
X141137500Y-132240000D03*
X142862500Y-132240000D03*
%TD*%
%TO.C,C20*%
X141137500Y-129730000D03*
X142862500Y-129730000D03*
%TD*%
%TO.C,C19*%
X136787500Y-111130000D03*
X138512500Y-111130000D03*
%TD*%
%TO.C,C18*%
X136787500Y-108620000D03*
X138512500Y-108620000D03*
%TD*%
%TO.C,C17*%
X136787500Y-106110000D03*
X138512500Y-106110000D03*
%TD*%
%TO.C,C16*%
X136787500Y-103600000D03*
X138512500Y-103600000D03*
%TD*%
%TO.C,C15*%
X136787500Y-101090000D03*
X138512500Y-101090000D03*
%TD*%
%TO.C,C14*%
X136787500Y-98580000D03*
X138512500Y-98580000D03*
%TD*%
%TO.C,C13*%
X160887500Y-133210000D03*
X162612500Y-133210000D03*
%TD*%
%TO.C,C12*%
X160887500Y-130700000D03*
X162612500Y-130700000D03*
%TD*%
%TO.C,C11*%
X160887500Y-128190000D03*
X162612500Y-128190000D03*
%TD*%
%TO.C,C10*%
X160887500Y-125680000D03*
X162612500Y-125680000D03*
%TD*%
%TO.C,C9*%
X108987500Y-126090000D03*
X110712500Y-126090000D03*
%TD*%
%TO.C,C8*%
X108987500Y-123580000D03*
X110712500Y-123580000D03*
%TD*%
%TO.C,C7*%
X145907500Y-88870000D03*
X147632500Y-88870000D03*
%TD*%
%TO.C,C6*%
X145907500Y-86360000D03*
X147632500Y-86360000D03*
%TD*%
%TO.C,C5*%
X145907500Y-83850000D03*
X147632500Y-83850000D03*
%TD*%
%TO.C,C4*%
X145907500Y-81340000D03*
X147632500Y-81340000D03*
%TD*%
%TO.C,C3*%
X145907500Y-78830000D03*
X147632500Y-78830000D03*
%TD*%
%TO.C,C2*%
X145907500Y-76320000D03*
X147632500Y-76320000D03*
%TD*%
%TO.C,C1*%
X108987500Y-121070000D03*
X110712500Y-121070000D03*
%TD*%
M02*
