%TF.GenerationSoftware,KiCad,Pcbnew,8.0.8*%
%TF.CreationDate,2025-03-28T16:38:00+02:00*%
%TF.ProjectId,Power_Module,506f7765-725f-44d6-9f64-756c652e6b69,1*%
%TF.SameCoordinates,Original*%
%TF.FileFunction,Copper,L2,Bot*%
%TF.FilePolarity,Positive*%
%FSLAX46Y46*%
G04 Gerber Fmt 4.6, Leading zero omitted, Abs format (unit mm)*
G04 Created by KiCad (PCBNEW 8.0.8) date 2025-03-28 16:38:00*
%MOMM*%
%LPD*%
G01*
G04 APERTURE LIST*
G04 Aperture macros list*
%AMRoundRect*
0 Rectangle with rounded corners*
0 $1 Rounding radius*
0 $2 $3 $4 $5 $6 $7 $8 $9 X,Y pos of 4 corners*
0 Add a 4 corners polygon primitive as box body*
4,1,4,$2,$3,$4,$5,$6,$7,$8,$9,$2,$3,0*
0 Add four circle primitives for the rounded corners*
1,1,$1+$1,$2,$3*
1,1,$1+$1,$4,$5*
1,1,$1+$1,$6,$7*
1,1,$1+$1,$8,$9*
0 Add four rect primitives between the rounded corners*
20,1,$1+$1,$2,$3,$4,$5,0*
20,1,$1+$1,$4,$5,$6,$7,0*
20,1,$1+$1,$6,$7,$8,$9,0*
20,1,$1+$1,$8,$9,$2,$3,0*%
G04 Aperture macros list end*
%TA.AperFunction,ComponentPad*%
%ADD10R,1.700000X1.700000*%
%TD*%
%TA.AperFunction,ComponentPad*%
%ADD11O,1.700000X1.700000*%
%TD*%
%TA.AperFunction,ComponentPad*%
%ADD12O,0.900000X2.000000*%
%TD*%
%TA.AperFunction,ComponentPad*%
%ADD13O,0.900000X1.700000*%
%TD*%
%TA.AperFunction,ComponentPad*%
%ADD14RoundRect,0.250000X-0.625000X0.350000X-0.625000X-0.350000X0.625000X-0.350000X0.625000X0.350000X0*%
%TD*%
%TA.AperFunction,ComponentPad*%
%ADD15O,1.750000X1.200000*%
%TD*%
%TA.AperFunction,ComponentPad*%
%ADD16R,2.500000X3.000000*%
%TD*%
%TA.AperFunction,ComponentPad*%
%ADD17C,3.000000*%
%TD*%
%TA.AperFunction,ViaPad*%
%ADD18C,0.600000*%
%TD*%
%TA.AperFunction,ViaPad*%
%ADD19C,3.400000*%
%TD*%
%TA.AperFunction,Conductor*%
%ADD20C,0.200000*%
%TD*%
G04 APERTURE END LIST*
D10*
%TO.P,J3,1,Pin_1*%
%TO.N,+3.3V*%
X169650000Y-106960000D03*
D11*
%TO.P,J3,2,Pin_2*%
%TO.N,GND*%
X169650000Y-109500000D03*
%TD*%
D10*
%TO.P,J6,1,Pin_1*%
%TO.N,5V_out*%
X169650000Y-84975000D03*
D11*
%TO.P,J6,2,Pin_2*%
%TO.N,GND*%
X169650000Y-87515000D03*
%TD*%
D12*
%TO.P,J7,S1,SHIELD*%
%TO.N,unconnected-(J7-SHIELD-PadS1)*%
X137575000Y-75170000D03*
%TO.P,J7,S2,SHIELD*%
%TO.N,unconnected-(J7-SHIELD-PadS1)_2*%
X128925000Y-75170000D03*
D13*
%TO.P,J7,S3,SHIELD*%
%TO.N,unconnected-(J7-SHIELD-PadS1)_1*%
X137575000Y-71000000D03*
%TO.P,J7,S4,SHIELD*%
%TO.N,unconnected-(J7-SHIELD-PadS1)_3*%
X128925000Y-71000000D03*
%TD*%
D10*
%TO.P,J4,1,Pin_1*%
%TO.N,+5V*%
X169650000Y-99631700D03*
D11*
%TO.P,J4,2,Pin_2*%
%TO.N,GND*%
X169650000Y-102171700D03*
%TD*%
D14*
%TO.P,J2,1,Pin_1*%
%TO.N,+BATT*%
X168060000Y-116780000D03*
D15*
%TO.P,J2,2,Pin_2*%
%TO.N,GND*%
X168060000Y-118780000D03*
%TD*%
D10*
%TO.P,J1,1,Pin_1*%
%TO.N,M2_B_OUT*%
X112140000Y-123540000D03*
D11*
%TO.P,J1,2,Pin_2*%
%TO.N,M2_A_OUT*%
X112140000Y-121000000D03*
%TO.P,J1,3,Pin_3*%
%TO.N,M4_A_OUT*%
X114680000Y-123540000D03*
%TO.P,J1,4,Pin_4*%
%TO.N,M2_A_IN*%
X114680000Y-121000000D03*
%TO.P,J1,5,Pin_5*%
%TO.N,M4_B_OUT*%
X117220000Y-123540000D03*
%TO.P,J1,6,Pin_6*%
%TO.N,M2_B_IN*%
X117220000Y-121000000D03*
%TO.P,J1,7,Pin_7*%
%TO.N,LCTRL2*%
X119760000Y-123540000D03*
%TO.P,J1,8,Pin_8*%
%TO.N,M4_A_IN*%
X119760000Y-121000000D03*
%TO.P,J1,9,Pin_9*%
%TO.N,unconnected-(J1-Pin_9-Pad9)*%
X122300000Y-123540000D03*
%TO.P,J1,10,Pin_10*%
%TO.N,M4_B_IN*%
X122300000Y-121000000D03*
%TO.P,J1,11,Pin_11*%
%TO.N,LOUT2*%
X124840000Y-123540000D03*
%TO.P,J1,12,Pin_12*%
%TO.N,unconnected-(J1-Pin_12-Pad12)*%
X124840000Y-121000000D03*
%TO.P,J1,13,Pin_13*%
%TO.N,FAST_CHRG_CTRL*%
X127380000Y-123540000D03*
%TO.P,J1,14,Pin_14*%
%TO.N,+BATT*%
X127380000Y-121000000D03*
%TO.P,J1,15,Pin_15*%
%TO.N,unconnected-(J1-Pin_15-Pad15)*%
X129920000Y-123540000D03*
%TO.P,J1,16,Pin_16*%
%TO.N,SCL*%
X129920000Y-121000000D03*
%TO.P,J1,17,Pin_17*%
%TO.N,SDA*%
X132460000Y-123540000D03*
%TO.P,J1,18,Pin_18*%
%TO.N,+3.3V*%
X132460000Y-121000000D03*
%TO.P,J1,19,Pin_19*%
%TO.N,GND*%
X135000000Y-123540000D03*
%TO.P,J1,20,Pin_20*%
%TO.N,5V_out*%
X135000000Y-121000000D03*
%TO.P,J1,21,Pin_21*%
%TO.N,LOUT1*%
X137540000Y-123540000D03*
%TO.P,J1,22,Pin_22*%
%TO.N,+9V*%
X137540000Y-121000000D03*
%TO.P,J1,23,Pin_23*%
%TO.N,GND*%
X140080000Y-123540000D03*
%TO.P,J1,24,Pin_24*%
%TO.N,M3_A_IN*%
X140080000Y-121000000D03*
%TO.P,J1,25,Pin_25*%
%TO.N,LCTRL1*%
X142620000Y-123540000D03*
%TO.P,J1,26,Pin_26*%
%TO.N,M3_B_IN*%
X142620000Y-121000000D03*
%TO.P,J1,27,Pin_27*%
%TO.N,M3_A_OUT*%
X145160000Y-123540000D03*
%TO.P,J1,28,Pin_28*%
%TO.N,M1_A_IN*%
X145160000Y-121000000D03*
%TO.P,J1,29,Pin_29*%
%TO.N,M3_B_OUT*%
X147700000Y-123540000D03*
%TO.P,J1,30,Pin_30*%
%TO.N,M1_B_IN*%
X147700000Y-121000000D03*
%TO.P,J1,31,Pin_31*%
%TO.N,M1_B_OUT*%
X150240000Y-123540000D03*
%TO.P,J1,32,Pin_32*%
%TO.N,M1_A_OUT*%
X150240000Y-121000000D03*
%TD*%
D16*
%TO.P,U12,1,1*%
%TO.N,Net-(U4-IN+)*%
X107225025Y-79583500D03*
D17*
%TO.P,U12,2,2*%
%TO.N,+BATT*%
X102525000Y-79583500D03*
%TO.P,U12,3,3*%
%TO.N,unconnected-(U12-Pad3)*%
X97824975Y-79583500D03*
%TD*%
D10*
%TO.P,J5,1,Pin_1*%
%TO.N,+9V*%
X169650000Y-92303300D03*
D11*
%TO.P,J5,2,Pin_2*%
%TO.N,GND*%
X169650000Y-94843300D03*
%TD*%
D18*
%TO.N,+9V*%
X131490000Y-74500000D03*
X135030000Y-74445100D03*
%TO.N,+5V*%
X116981500Y-88736300D03*
X159476500Y-85805000D03*
X121764700Y-90240000D03*
D19*
%TO.N,GND*%
X131180000Y-96070000D03*
D18*
%TO.N,+BATT*%
X127380000Y-118778300D03*
X102525000Y-114020000D03*
X127380000Y-79315800D03*
%TO.N,Net-(D1-A)*%
X120490700Y-90098200D03*
X121445200Y-75755700D03*
%TO.N,Net-(D1-K)*%
X121699900Y-72265000D03*
X125403000Y-78584900D03*
%TO.N,Net-(U8-SW)*%
X165188000Y-72685000D03*
X165313000Y-79170000D03*
%TO.N,/Usb_Charging/DP*%
X128816300Y-85063700D03*
X132467100Y-76848900D03*
%TO.N,/Usb_Charging/DM*%
X133068800Y-74671600D03*
X133068800Y-81976600D03*
%TO.N,+9V*%
X137540000Y-89307000D03*
X135650000Y-76847600D03*
X130814000Y-76838400D03*
%TO.N,FAST_CHRG_CTRL*%
X109935800Y-92105900D03*
%TO.N,M3_B_IN*%
X148389200Y-109375000D03*
%TO.N,M1_A_OUT*%
X106878300Y-104846300D03*
X151409100Y-125413100D03*
X109195600Y-125413100D03*
%TO.N,M4_B_OUT*%
X121108900Y-116983600D03*
%TO.N,+3.3V*%
X151100100Y-95287700D03*
X151033600Y-83775700D03*
X126723700Y-86285000D03*
X123694900Y-94934300D03*
%TO.N,M4_B_IN*%
X122298400Y-117609400D03*
%TO.N,M3_B_OUT*%
X149214100Y-110884800D03*
%TO.N,SCL*%
X146436300Y-117429400D03*
X130301200Y-117058800D03*
X148905000Y-99905000D03*
%TO.N,M2_B_IN*%
X117220000Y-109033300D03*
%TO.N,M3_A_IN*%
X140080000Y-107950300D03*
%TO.N,M4_A_OUT*%
X118419100Y-112710800D03*
%TO.N,M4_A_IN*%
X123251400Y-117808900D03*
%TO.N,LOUT2*%
X128668700Y-109838700D03*
%TO.N,M1_B_OUT*%
X106880400Y-106675000D03*
X107776200Y-124736300D03*
%TO.N,M3_A_OUT*%
X145479400Y-110294100D03*
%TO.N,5V_out*%
X134998400Y-115915000D03*
X136933800Y-87405700D03*
X133238400Y-109237000D03*
%TO.N,SDA*%
X131281500Y-115137500D03*
X148089700Y-95429100D03*
X137956700Y-115137500D03*
%TO.N,M2_B_OUT*%
X109395500Y-107325000D03*
%TO.N,M2_A_OUT*%
X110000700Y-108625000D03*
%TO.N,M1_A_IN*%
X115116500Y-105111800D03*
X145188000Y-118691500D03*
X124927200Y-118214300D03*
%TO.N,M1_B_IN*%
X145062300Y-111191500D03*
X112606600Y-105375000D03*
X116611400Y-111191500D03*
%TO.N,M2_A_IN*%
X114680000Y-109977200D03*
%TO.N,LOUT1*%
X136250100Y-99969400D03*
%TO.N,LOAD*%
X150703500Y-108725000D03*
X154034700Y-87613100D03*
X119508700Y-110464100D03*
X149289800Y-115244000D03*
X154034700Y-75372900D03*
X114400900Y-103298300D03*
%TO.N,Net-(JP13-B)*%
X151101300Y-75615000D03*
X150116300Y-79274000D03*
%TO.N,Net-(JP17-A)*%
X120121900Y-103142900D03*
X125309400Y-113997900D03*
%TO.N,Net-(JP4-B)*%
X151635300Y-90802800D03*
X152805700Y-101819000D03*
%TO.N,Net-(JP6-C)*%
X122379000Y-91960000D03*
X125167500Y-83500000D03*
%TO.N,Net-(U4-IN+)*%
X141982400Y-78449600D03*
X118081300Y-77839500D03*
X142787800Y-87613700D03*
%TD*%
D20*
%TO.N,+9V*%
X132800000Y-73190000D02*
X133890000Y-73190000D01*
X133890000Y-73190000D02*
X135030000Y-74330000D01*
X131490000Y-74500000D02*
X132800000Y-73190000D01*
X135030000Y-74330000D02*
X135030000Y-74445100D01*
%TO.N,+5V*%
X169650000Y-98480000D02*
X159476500Y-88306500D01*
X118980000Y-90734800D02*
X121269900Y-90734800D01*
X159476500Y-88306500D02*
X159476500Y-85805000D01*
X169650000Y-99631700D02*
X169650000Y-98480000D01*
X116981500Y-88736300D02*
X118980000Y-90734800D01*
X121269900Y-90734800D02*
X121764700Y-90240000D01*
%TO.N,GND*%
X169650000Y-94267400D02*
X169650000Y-93691600D01*
X168498300Y-93331700D02*
X168498300Y-91328300D01*
X170464500Y-101020000D02*
X169650000Y-101020000D01*
X168060000Y-118780000D02*
X168060000Y-117878300D01*
X168060000Y-117878300D02*
X168736300Y-117878300D01*
X170441800Y-108348300D02*
X170801700Y-107988400D01*
X170801700Y-101357200D02*
X170464500Y-101020000D01*
X169650000Y-109500000D02*
X169650000Y-108348300D01*
X170801700Y-107988400D02*
X170801700Y-101357200D01*
X169650000Y-94267400D02*
X169650000Y-94843300D01*
X168498300Y-91328300D02*
X168900100Y-90926500D01*
X169650000Y-108348300D02*
X170441800Y-108348300D01*
X168900200Y-90926500D02*
X168900200Y-89416500D01*
X169650000Y-116964600D02*
X169650000Y-109500000D01*
X170801700Y-97146700D02*
X170801700Y-100682800D01*
X168900200Y-89416500D02*
X169650000Y-88666700D01*
X168900100Y-90926500D02*
X168900200Y-90926500D01*
X169650000Y-93691600D02*
X168858200Y-93691600D01*
X169650000Y-95995000D02*
X170801700Y-97146700D01*
X168858200Y-93691600D02*
X168498300Y-93331700D01*
X169650000Y-87515000D02*
X169650000Y-88666700D01*
X170801700Y-100682800D02*
X170464500Y-101020000D01*
X169650000Y-94843300D02*
X169650000Y-95995000D01*
X168736300Y-117878300D02*
X169650000Y-116964600D01*
X169650000Y-102171700D02*
X169650000Y-101020000D01*
%TO.N,+BATT*%
X127380000Y-79315800D02*
X127380000Y-118778300D01*
X102525000Y-79583500D02*
X102525000Y-114020000D01*
X127380000Y-121000000D02*
X127380000Y-118778300D01*
%TO.N,Net-(D1-A)*%
X121445200Y-89143700D02*
X121445200Y-75755700D01*
X120490700Y-90098200D02*
X121445200Y-89143700D01*
%TO.N,Net-(D1-K)*%
X121699900Y-74881800D02*
X125403000Y-78584900D01*
X121699900Y-72265000D02*
X121699900Y-74881800D01*
%TO.N,Net-(U8-SW)*%
X165313000Y-79170000D02*
X165313000Y-72810000D01*
X165313000Y-72810000D02*
X165188000Y-72685000D01*
%TO.N,/Usb_Charging/DP*%
X128816300Y-85063700D02*
X128816300Y-80499700D01*
X128816300Y-80499700D02*
X132467100Y-76848900D01*
%TO.N,/Usb_Charging/DM*%
X133068800Y-81976600D02*
X133068800Y-74671600D01*
%TO.N,+9V*%
X137354300Y-89492700D02*
X137354300Y-119662600D01*
X132738600Y-74065800D02*
X130814000Y-75990400D01*
X135650000Y-76847600D02*
X135650000Y-76288300D01*
X135650000Y-76288300D02*
X133427500Y-74065800D01*
X137354300Y-119662600D02*
X137540000Y-119848300D01*
X137540000Y-121000000D02*
X137540000Y-119848300D01*
X137540000Y-78737600D02*
X135650000Y-76847600D01*
X133427500Y-74065800D02*
X132738600Y-74065800D01*
X137540000Y-89307000D02*
X137540000Y-78737600D01*
X137540000Y-89307000D02*
X137354300Y-89492700D01*
X130814000Y-75990400D02*
X130814000Y-76838400D01*
%TO.N,FAST_CHRG_CTRL*%
X109935800Y-92105900D02*
X126217500Y-108387600D01*
X127092000Y-122388300D02*
X127380000Y-122388300D01*
X126217500Y-121513800D02*
X127092000Y-122388300D01*
X126217500Y-108387600D02*
X126217500Y-121513800D01*
X127380000Y-123540000D02*
X127380000Y-122388300D01*
%TO.N,M3_B_IN*%
X142620000Y-112215000D02*
X142620000Y-121000000D01*
X148389200Y-109375000D02*
X145460000Y-109375000D01*
X145460000Y-109375000D02*
X142620000Y-112215000D01*
%TO.N,M1_A_OUT*%
X108177900Y-117093200D02*
X108177900Y-106145900D01*
X150240000Y-121000000D02*
X150240000Y-122151700D01*
X109195600Y-118110900D02*
X108177900Y-117093200D01*
X109195600Y-125413100D02*
X109195600Y-118110900D01*
X151409100Y-123032900D02*
X151409100Y-125413100D01*
X108177900Y-106145900D02*
X106878300Y-104846300D01*
X150240000Y-122151700D02*
X150527900Y-122151700D01*
X150527900Y-122151700D02*
X151409100Y-123032900D01*
%TO.N,M4_B_OUT*%
X121108900Y-121339400D02*
X121108900Y-116983600D01*
X119235400Y-122388300D02*
X120060000Y-122388300D01*
X117220000Y-123540000D02*
X118371700Y-123540000D01*
X118371700Y-123252000D02*
X119235400Y-122388300D01*
X118371700Y-123540000D02*
X118371700Y-123252000D01*
X120060000Y-122388300D02*
X121108900Y-121339400D01*
%TO.N,+3.3V*%
X139661600Y-122270000D02*
X140498300Y-122270000D01*
X141279100Y-105108700D02*
X151100100Y-95287700D01*
X151100100Y-95287700D02*
X151033600Y-95221200D01*
X133611700Y-121288000D02*
X134475400Y-122151700D01*
X132460000Y-121000000D02*
X133611700Y-121000000D01*
X134475400Y-122151700D02*
X135275800Y-122151700D01*
X141279100Y-121489200D02*
X141279100Y-105108700D01*
X136270000Y-123145900D02*
X136270000Y-123932500D01*
X140498300Y-122270000D02*
X141279100Y-121489200D01*
X138042800Y-124736300D02*
X138810000Y-123969100D01*
X137073800Y-124736300D02*
X138042800Y-124736300D01*
X136270000Y-123932500D02*
X137073800Y-124736300D01*
X138810000Y-123121600D02*
X139661600Y-122270000D01*
X126723700Y-86285000D02*
X123694900Y-89313800D01*
X135275800Y-122151700D02*
X136270000Y-123145900D01*
X151033600Y-95221200D02*
X151033600Y-83775700D01*
X123694900Y-89313800D02*
X123694900Y-94934300D01*
X133611700Y-121000000D02*
X133611700Y-121288000D01*
X138810000Y-123969100D02*
X138810000Y-123121600D01*
%TO.N,M4_B_IN*%
X122298400Y-117609400D02*
X122298400Y-119846700D01*
X122298400Y-119846700D02*
X122300000Y-119848300D01*
X122300000Y-121000000D02*
X122300000Y-119848300D01*
%TO.N,M3_B_OUT*%
X148851700Y-115656700D02*
X148851700Y-121524600D01*
X148688100Y-115493100D02*
X148851700Y-115656700D01*
X148851700Y-121524600D02*
X147988000Y-122388300D01*
X147700000Y-123540000D02*
X147700000Y-122388300D01*
X148688100Y-111410800D02*
X148688100Y-115493100D01*
X147988000Y-122388300D02*
X147700000Y-122388300D01*
X149214100Y-110884800D02*
X148688100Y-111410800D01*
%TO.N,SCL*%
X129920000Y-117440000D02*
X130301200Y-117058800D01*
X149053700Y-100053700D02*
X149053700Y-110152200D01*
X129920000Y-121000000D02*
X129920000Y-117440000D01*
X148905000Y-99905000D02*
X149053700Y-100053700D01*
X146436300Y-112769600D02*
X146436300Y-117429400D01*
X149053700Y-110152200D02*
X146436300Y-112769600D01*
%TO.N,M2_B_IN*%
X117220000Y-121000000D02*
X117220000Y-109033300D01*
%TO.N,M3_A_IN*%
X140080000Y-121000000D02*
X140080000Y-107950300D01*
%TO.N,M4_A_OUT*%
X116695400Y-122388300D02*
X117520000Y-122388300D01*
X114680000Y-123540000D02*
X115831700Y-123540000D01*
X117520000Y-122388300D02*
X118419100Y-121489200D01*
X115831700Y-123252000D02*
X116695400Y-122388300D01*
X115831700Y-123540000D02*
X115831700Y-123252000D01*
X118419100Y-121489200D02*
X118419100Y-112710800D01*
%TO.N,M4_A_IN*%
X119760000Y-121000000D02*
X119760000Y-117443100D01*
X120836900Y-116366200D02*
X121952400Y-116366200D01*
X123251400Y-117665200D02*
X123251400Y-117808900D01*
X119760000Y-117443100D02*
X120836900Y-116366200D01*
X121952400Y-116366200D02*
X123251400Y-117665200D01*
%TO.N,LOUT2*%
X124840000Y-123540000D02*
X125991700Y-123540000D01*
X125991700Y-123827900D02*
X126924500Y-124760700D01*
X126924500Y-124760700D02*
X127898300Y-124760700D01*
X127898300Y-124760700D02*
X128668700Y-123990300D01*
X125991700Y-123540000D02*
X125991700Y-123827900D01*
X128668700Y-123990300D02*
X128668700Y-109838700D01*
%TO.N,M1_B_OUT*%
X107776200Y-107570800D02*
X107776200Y-124736300D01*
X106880400Y-106675000D02*
X107776200Y-107570800D01*
%TO.N,M3_A_OUT*%
X145160000Y-123540000D02*
X145160000Y-122388300D01*
X144001400Y-111772100D02*
X144001400Y-121517600D01*
X145479400Y-110294100D02*
X145183700Y-110589800D01*
X144813200Y-110589800D02*
X144460600Y-110942400D01*
X144001400Y-121517600D02*
X144872100Y-122388300D01*
X144460600Y-110942400D02*
X144460600Y-111312900D01*
X144460600Y-111312900D02*
X144001400Y-111772100D01*
X145183700Y-110589800D02*
X144813200Y-110589800D01*
X144872100Y-122388300D02*
X145160000Y-122388300D01*
%TO.N,5V_out*%
X135000000Y-115916600D02*
X134998400Y-115915000D01*
X133238400Y-109237000D02*
X133238400Y-91101100D01*
X134998400Y-115915000D02*
X134998400Y-110997000D01*
X134998400Y-110997000D02*
X133238400Y-109237000D01*
X135000000Y-121000000D02*
X135000000Y-115916600D01*
X133238400Y-91101100D02*
X136933800Y-87405700D01*
%TO.N,SDA*%
X148089700Y-95429100D02*
X137956700Y-105562100D01*
X132460000Y-123540000D02*
X132460000Y-122388300D01*
X132172100Y-122388300D02*
X131281500Y-121497700D01*
X131281500Y-121497700D02*
X131281500Y-115137500D01*
X132460000Y-122388300D02*
X132172100Y-122388300D01*
X137956700Y-105562100D02*
X137956700Y-115137500D01*
%TO.N,M2_B_OUT*%
X109797200Y-117944700D02*
X109395500Y-117543000D01*
X111852100Y-122388300D02*
X109797200Y-120333400D01*
X112140000Y-123540000D02*
X112140000Y-122388300D01*
X112140000Y-122388300D02*
X111852100Y-122388300D01*
X109797200Y-120333400D02*
X109797200Y-117944700D01*
X109395500Y-117543000D02*
X109395500Y-107325000D01*
%TO.N,M2_A_OUT*%
X112140000Y-110764300D02*
X110000700Y-108625000D01*
X112140000Y-119848300D02*
X112140000Y-110764300D01*
X112140000Y-121000000D02*
X112140000Y-119848300D01*
%TO.N,M1_A_IN*%
X145160000Y-121000000D02*
X145160000Y-119848300D01*
X118437800Y-111724900D02*
X124927200Y-118214300D01*
X145160000Y-119848300D02*
X145188000Y-119820300D01*
X118437800Y-108433100D02*
X118437800Y-111724900D01*
X145188000Y-119820300D02*
X145188000Y-118691500D01*
X115116500Y-105111800D02*
X118437800Y-108433100D01*
%TO.N,M1_B_IN*%
X116611400Y-109379800D02*
X112606600Y-105375000D01*
X147700000Y-119848300D02*
X145062300Y-117210600D01*
X145062300Y-117210600D02*
X145062300Y-111191500D01*
X116611400Y-111191500D02*
X116611400Y-109379800D01*
X147700000Y-121000000D02*
X147700000Y-119848300D01*
%TO.N,M2_A_IN*%
X114680000Y-121000000D02*
X114680000Y-109977200D01*
%TO.N,LOUT1*%
X137540000Y-123540000D02*
X137540000Y-122388300D01*
X137540000Y-122388300D02*
X137252000Y-122388300D01*
X136250100Y-121386400D02*
X136250100Y-99969400D01*
X137252000Y-122388300D02*
X136250100Y-121386400D01*
%TO.N,LOAD*%
X119508700Y-110464100D02*
X119508700Y-108406100D01*
X154034700Y-75372900D02*
X154034700Y-87613100D01*
X150703500Y-113830300D02*
X149289800Y-115244000D01*
X154034700Y-105393800D02*
X150703500Y-108725000D01*
X150703500Y-108725000D02*
X150703500Y-113830300D01*
X154034700Y-87613100D02*
X154034700Y-105393800D01*
X119508700Y-108406100D02*
X114400900Y-103298300D01*
%TO.N,Net-(JP13-B)*%
X151101300Y-78289000D02*
X150116300Y-79274000D01*
X151101300Y-75615000D02*
X151101300Y-78289000D01*
%TO.N,Net-(JP17-A)*%
X125309400Y-108330400D02*
X120121900Y-103142900D01*
X125309400Y-113997900D02*
X125309400Y-108330400D01*
%TO.N,Net-(JP4-B)*%
X151635300Y-90802800D02*
X152805700Y-91973200D01*
X152805700Y-91973200D02*
X152805700Y-101819000D01*
%TO.N,Net-(JP6-C)*%
X122379000Y-91960000D02*
X122379000Y-86288500D01*
X122379000Y-86288500D02*
X125167500Y-83500000D01*
%TO.N,Net-(U4-IN+)*%
X107225000Y-79583500D02*
X116337300Y-79583500D01*
X142787800Y-79255000D02*
X142787800Y-87613700D01*
X116337300Y-79583500D02*
X118081300Y-77839500D01*
X141982400Y-78449600D02*
X142787800Y-79255000D01*
%TD*%
%TA.AperFunction,Conductor*%
%TO.N,GND*%
G36*
X155014738Y-68516794D02*
G01*
X155069690Y-68548143D01*
X155069692Y-68548143D01*
X155069693Y-68548144D01*
X155203530Y-68583264D01*
X171008689Y-68501484D01*
X171018145Y-68501797D01*
X171204561Y-68515130D01*
X171222066Y-68517648D01*
X171413793Y-68559355D01*
X171430755Y-68564334D01*
X171614609Y-68632909D01*
X171630701Y-68640259D01*
X171802904Y-68734288D01*
X171817784Y-68743849D01*
X171974867Y-68861441D01*
X171988237Y-68873027D01*
X172126972Y-69011762D01*
X172138558Y-69025132D01*
X172232394Y-69150482D01*
X172256146Y-69182210D01*
X172265711Y-69197095D01*
X172359740Y-69369298D01*
X172367090Y-69385390D01*
X172435662Y-69569236D01*
X172440646Y-69586212D01*
X172482351Y-69777931D01*
X172484869Y-69795442D01*
X172487376Y-69830493D01*
X172499077Y-69994092D01*
X172499184Y-69995580D01*
X172499500Y-70004427D01*
X172499500Y-123738307D01*
X172484829Y-123796815D01*
X171674039Y-125311865D01*
X171625051Y-125361685D01*
X171608044Y-125369539D01*
X171467244Y-125422055D01*
X171424552Y-125429871D01*
X157968040Y-125499498D01*
X157967398Y-125499500D01*
X152335213Y-125499500D01*
X152268174Y-125479815D01*
X152222419Y-125427011D01*
X152211993Y-125389383D01*
X152194469Y-125233850D01*
X152194468Y-125233845D01*
X152157927Y-125129416D01*
X152134889Y-125063578D01*
X152038916Y-124910838D01*
X152038914Y-124910836D01*
X152038913Y-124910834D01*
X152036650Y-124907996D01*
X152035759Y-124905815D01*
X152035211Y-124904942D01*
X152035364Y-124904845D01*
X152010244Y-124843309D01*
X152009600Y-124830687D01*
X152009600Y-123121959D01*
X152009601Y-123121946D01*
X152009601Y-122953845D01*
X152009601Y-122953843D01*
X151968677Y-122801115D01*
X151939465Y-122750519D01*
X151889620Y-122664184D01*
X151777816Y-122552380D01*
X151777815Y-122552379D01*
X151773485Y-122548049D01*
X151773474Y-122548039D01*
X151275346Y-122049911D01*
X151241861Y-121988588D01*
X151246845Y-121918896D01*
X151275348Y-121874547D01*
X151278495Y-121871401D01*
X151414035Y-121677830D01*
X151513903Y-121463663D01*
X151575063Y-121235408D01*
X151595659Y-121000000D01*
X151575063Y-120764592D01*
X151513903Y-120536337D01*
X151414035Y-120322171D01*
X151408425Y-120314158D01*
X151278494Y-120128597D01*
X151111402Y-119961506D01*
X151111395Y-119961501D01*
X150917834Y-119825967D01*
X150917830Y-119825965D01*
X150912085Y-119823286D01*
X150703663Y-119726097D01*
X150703659Y-119726096D01*
X150703655Y-119726094D01*
X150475413Y-119664938D01*
X150475403Y-119664936D01*
X150240001Y-119644341D01*
X150239999Y-119644341D01*
X150004596Y-119664936D01*
X150004586Y-119664938D01*
X149776344Y-119726094D01*
X149776335Y-119726098D01*
X149628605Y-119794986D01*
X149559527Y-119805478D01*
X149495743Y-119776958D01*
X149457504Y-119718482D01*
X149452200Y-119682604D01*
X149452200Y-116379983D01*
X166684500Y-116379983D01*
X166684500Y-117180001D01*
X166684501Y-117180019D01*
X166695000Y-117282796D01*
X166695001Y-117282799D01*
X166750185Y-117449331D01*
X166750187Y-117449336D01*
X166774350Y-117488510D01*
X166842288Y-117598656D01*
X166966344Y-117722712D01*
X167030981Y-117762580D01*
X167077705Y-117814526D01*
X167088928Y-117883489D01*
X167061085Y-117947571D01*
X167053566Y-117955799D01*
X166945964Y-118063401D01*
X166844195Y-118203475D01*
X166765591Y-118357744D01*
X166712085Y-118522415D01*
X166710884Y-118529999D01*
X166710885Y-118530000D01*
X167779670Y-118530000D01*
X167759925Y-118549745D01*
X167710556Y-118635255D01*
X167685000Y-118730630D01*
X167685000Y-118829370D01*
X167710556Y-118924745D01*
X167759925Y-119010255D01*
X167779670Y-119030000D01*
X166710885Y-119030000D01*
X166712085Y-119037584D01*
X166765591Y-119202255D01*
X166844195Y-119356524D01*
X166945967Y-119496602D01*
X167068397Y-119619032D01*
X167208475Y-119720804D01*
X167362742Y-119799408D01*
X167527415Y-119852914D01*
X167698429Y-119880000D01*
X167810000Y-119880000D01*
X167810000Y-119060330D01*
X167829745Y-119080075D01*
X167915255Y-119129444D01*
X168010630Y-119155000D01*
X168109370Y-119155000D01*
X168204745Y-119129444D01*
X168290255Y-119080075D01*
X168310000Y-119060330D01*
X168310000Y-119880000D01*
X168421571Y-119880000D01*
X168592584Y-119852914D01*
X168757257Y-119799408D01*
X168911524Y-119720804D01*
X169051602Y-119619032D01*
X169174032Y-119496602D01*
X169275804Y-119356524D01*
X169354408Y-119202255D01*
X169407914Y-119037584D01*
X169409115Y-119030000D01*
X168340330Y-119030000D01*
X168360075Y-119010255D01*
X168409444Y-118924745D01*
X168435000Y-118829370D01*
X168435000Y-118730630D01*
X168409444Y-118635255D01*
X168360075Y-118549745D01*
X168340330Y-118530000D01*
X169409115Y-118530000D01*
X169409115Y-118529999D01*
X169407914Y-118522415D01*
X169354408Y-118357744D01*
X169275804Y-118203475D01*
X169174032Y-118063397D01*
X169066434Y-117955799D01*
X169032949Y-117894476D01*
X169037933Y-117824784D01*
X169079805Y-117768851D01*
X169088995Y-117762594D01*
X169153656Y-117722712D01*
X169277712Y-117598656D01*
X169369814Y-117449334D01*
X169424999Y-117282797D01*
X169435500Y-117180009D01*
X169435499Y-116379992D01*
X169424999Y-116277203D01*
X169369814Y-116110666D01*
X169277712Y-115961344D01*
X169153656Y-115837288D01*
X169037591Y-115765699D01*
X169004336Y-115745187D01*
X169004331Y-115745185D01*
X168975843Y-115735745D01*
X168837797Y-115690001D01*
X168837795Y-115690000D01*
X168735010Y-115679500D01*
X167384998Y-115679500D01*
X167384981Y-115679501D01*
X167282203Y-115690000D01*
X167282200Y-115690001D01*
X167115668Y-115745185D01*
X167115663Y-115745187D01*
X166966342Y-115837289D01*
X166842289Y-115961342D01*
X166750187Y-116110663D01*
X166750186Y-116110666D01*
X166695001Y-116277203D01*
X166695001Y-116277204D01*
X166695000Y-116277204D01*
X166684500Y-116379983D01*
X149452200Y-116379983D01*
X149452200Y-116123249D01*
X149471885Y-116056210D01*
X149524689Y-116010455D01*
X149535245Y-116006207D01*
X149639322Y-115969789D01*
X149792062Y-115873816D01*
X149919616Y-115746262D01*
X150015589Y-115593522D01*
X150075168Y-115423255D01*
X150084961Y-115336329D01*
X150112026Y-115271918D01*
X150120490Y-115262543D01*
X151184020Y-114199016D01*
X151263077Y-114062084D01*
X151304001Y-113909357D01*
X151304001Y-113751242D01*
X151304001Y-113743647D01*
X151304000Y-113743629D01*
X151304000Y-109307412D01*
X151323685Y-109240373D01*
X151331055Y-109230097D01*
X151333310Y-109227267D01*
X151333316Y-109227262D01*
X151429289Y-109074522D01*
X151488868Y-108904255D01*
X151498661Y-108817329D01*
X151525726Y-108752918D01*
X151534190Y-108743543D01*
X154215599Y-106062135D01*
X168299500Y-106062135D01*
X168299500Y-107857870D01*
X168299501Y-107857876D01*
X168305908Y-107917483D01*
X168356202Y-108052328D01*
X168356206Y-108052335D01*
X168442452Y-108167544D01*
X168442455Y-108167547D01*
X168557664Y-108253793D01*
X168557671Y-108253797D01*
X168619902Y-108277007D01*
X168689598Y-108303002D01*
X168745531Y-108344873D01*
X168769949Y-108410337D01*
X168755098Y-108478610D01*
X168733947Y-108506865D01*
X168611886Y-108628926D01*
X168476400Y-108822420D01*
X168476399Y-108822422D01*
X168376570Y-109036507D01*
X168376567Y-109036513D01*
X168319364Y-109249999D01*
X168319364Y-109250000D01*
X169216988Y-109250000D01*
X169184075Y-109307007D01*
X169150000Y-109434174D01*
X169150000Y-109565826D01*
X169184075Y-109692993D01*
X169216988Y-109750000D01*
X168319364Y-109750000D01*
X168376567Y-109963486D01*
X168376570Y-109963492D01*
X168476399Y-110177578D01*
X168611894Y-110371082D01*
X168778917Y-110538105D01*
X168972421Y-110673600D01*
X169186507Y-110773429D01*
X169186516Y-110773433D01*
X169400000Y-110830634D01*
X169400000Y-109933012D01*
X169457007Y-109965925D01*
X169584174Y-110000000D01*
X169715826Y-110000000D01*
X169842993Y-109965925D01*
X169900000Y-109933012D01*
X169900000Y-110830633D01*
X170113483Y-110773433D01*
X170113492Y-110773429D01*
X170327578Y-110673600D01*
X170521082Y-110538105D01*
X170688105Y-110371082D01*
X170823600Y-110177578D01*
X170923429Y-109963492D01*
X170923432Y-109963486D01*
X170980636Y-109750000D01*
X170083012Y-109750000D01*
X170115925Y-109692993D01*
X170150000Y-109565826D01*
X170150000Y-109434174D01*
X170115925Y-109307007D01*
X170083012Y-109250000D01*
X170980636Y-109250000D01*
X170980635Y-109249999D01*
X170923432Y-109036513D01*
X170923429Y-109036507D01*
X170823600Y-108822422D01*
X170823599Y-108822420D01*
X170688113Y-108628926D01*
X170688108Y-108628920D01*
X170566053Y-108506865D01*
X170532568Y-108445542D01*
X170537552Y-108375850D01*
X170579424Y-108319917D01*
X170610400Y-108303002D01*
X170742331Y-108253796D01*
X170857546Y-108167546D01*
X170943796Y-108052331D01*
X170994091Y-107917483D01*
X171000500Y-107857873D01*
X171000499Y-106062128D01*
X170994091Y-106002517D01*
X170961119Y-105914115D01*
X170943797Y-105867671D01*
X170943793Y-105867664D01*
X170857547Y-105752455D01*
X170857544Y-105752452D01*
X170742335Y-105666206D01*
X170742328Y-105666202D01*
X170607482Y-105615908D01*
X170607483Y-105615908D01*
X170547883Y-105609501D01*
X170547881Y-105609500D01*
X170547873Y-105609500D01*
X170547864Y-105609500D01*
X168752129Y-105609500D01*
X168752123Y-105609501D01*
X168692516Y-105615908D01*
X168557671Y-105666202D01*
X168557664Y-105666206D01*
X168442455Y-105752452D01*
X168442452Y-105752455D01*
X168356206Y-105867664D01*
X168356202Y-105867671D01*
X168305908Y-106002517D01*
X168299501Y-106062116D01*
X168299501Y-106062123D01*
X168299500Y-106062135D01*
X154215599Y-106062135D01*
X154393206Y-105884528D01*
X154393211Y-105884524D01*
X154403414Y-105874320D01*
X154403416Y-105874320D01*
X154515220Y-105762516D01*
X154579104Y-105651865D01*
X154594277Y-105625585D01*
X154635200Y-105472858D01*
X154635200Y-105314743D01*
X154635200Y-88195512D01*
X154654885Y-88128473D01*
X154662255Y-88118197D01*
X154664510Y-88115367D01*
X154664516Y-88115362D01*
X154760489Y-87962622D01*
X154820068Y-87792355D01*
X154823150Y-87765000D01*
X154840265Y-87613103D01*
X154840265Y-87613096D01*
X154820069Y-87433850D01*
X154820068Y-87433845D01*
X154774453Y-87303486D01*
X154760489Y-87263578D01*
X154756123Y-87256630D01*
X154725563Y-87207993D01*
X154664516Y-87110838D01*
X154664514Y-87110836D01*
X154664513Y-87110834D01*
X154662250Y-87107996D01*
X154661359Y-87105815D01*
X154660811Y-87104942D01*
X154660964Y-87104845D01*
X154635844Y-87043309D01*
X154635200Y-87030687D01*
X154635200Y-85804996D01*
X158670935Y-85804996D01*
X158670935Y-85805003D01*
X158691130Y-85984249D01*
X158691131Y-85984254D01*
X158750711Y-86154523D01*
X158801771Y-86235784D01*
X158822515Y-86268798D01*
X158846685Y-86307263D01*
X158848945Y-86310097D01*
X158849834Y-86312275D01*
X158850389Y-86313158D01*
X158850234Y-86313255D01*
X158875355Y-86374783D01*
X158876000Y-86387412D01*
X158876000Y-88219830D01*
X158875999Y-88219848D01*
X158875999Y-88385554D01*
X158875998Y-88385554D01*
X158916923Y-88538286D01*
X158916924Y-88538287D01*
X158940708Y-88579482D01*
X158995981Y-88675217D01*
X159114849Y-88794085D01*
X159114855Y-88794090D01*
X168514240Y-98193476D01*
X168547725Y-98254799D01*
X168542741Y-98324491D01*
X168500870Y-98380423D01*
X168442455Y-98424152D01*
X168442452Y-98424155D01*
X168356206Y-98539364D01*
X168356202Y-98539371D01*
X168305908Y-98674217D01*
X168299501Y-98733816D01*
X168299501Y-98733823D01*
X168299500Y-98733835D01*
X168299500Y-100529570D01*
X168299501Y-100529576D01*
X168305908Y-100589183D01*
X168356202Y-100724028D01*
X168356206Y-100724035D01*
X168442452Y-100839244D01*
X168442455Y-100839247D01*
X168557664Y-100925493D01*
X168557671Y-100925497D01*
X168557674Y-100925498D01*
X168689598Y-100974702D01*
X168745531Y-101016573D01*
X168769949Y-101082037D01*
X168755098Y-101150310D01*
X168733947Y-101178565D01*
X168611886Y-101300626D01*
X168476400Y-101494120D01*
X168476399Y-101494122D01*
X168376570Y-101708207D01*
X168376567Y-101708213D01*
X168319364Y-101921699D01*
X168319364Y-101921700D01*
X169216988Y-101921700D01*
X169184075Y-101978707D01*
X169150000Y-102105874D01*
X169150000Y-102237526D01*
X169184075Y-102364693D01*
X169216988Y-102421700D01*
X168319364Y-102421700D01*
X168376567Y-102635186D01*
X168376570Y-102635192D01*
X168476399Y-102849278D01*
X168611894Y-103042782D01*
X168778917Y-103209805D01*
X168972421Y-103345300D01*
X169186507Y-103445129D01*
X169186516Y-103445133D01*
X169400000Y-103502334D01*
X169400000Y-102604712D01*
X169457007Y-102637625D01*
X169584174Y-102671700D01*
X169715826Y-102671700D01*
X169842993Y-102637625D01*
X169900000Y-102604712D01*
X169900000Y-103502333D01*
X170113483Y-103445133D01*
X170113492Y-103445129D01*
X170327578Y-103345300D01*
X170521082Y-103209805D01*
X170688105Y-103042782D01*
X170823600Y-102849278D01*
X170923429Y-102635192D01*
X170923432Y-102635186D01*
X170980636Y-102421700D01*
X170083012Y-102421700D01*
X170115925Y-102364693D01*
X170150000Y-102237526D01*
X170150000Y-102105874D01*
X170115925Y-101978707D01*
X170083012Y-101921700D01*
X170980636Y-101921700D01*
X170980635Y-101921699D01*
X170923432Y-101708213D01*
X170923429Y-101708207D01*
X170823600Y-101494122D01*
X170823599Y-101494120D01*
X170688113Y-101300626D01*
X170688108Y-101300620D01*
X170566053Y-101178565D01*
X170532568Y-101117242D01*
X170537552Y-101047550D01*
X170579424Y-100991617D01*
X170610400Y-100974702D01*
X170742331Y-100925496D01*
X170857546Y-100839246D01*
X170943796Y-100724031D01*
X170994091Y-100589183D01*
X171000500Y-100529573D01*
X171000499Y-98733828D01*
X170994091Y-98674217D01*
X170943796Y-98539369D01*
X170943795Y-98539368D01*
X170943793Y-98539364D01*
X170857547Y-98424155D01*
X170857544Y-98424152D01*
X170742335Y-98337906D01*
X170742328Y-98337902D01*
X170607482Y-98287608D01*
X170607483Y-98287608D01*
X170547883Y-98281201D01*
X170547881Y-98281200D01*
X170547873Y-98281200D01*
X170547865Y-98281200D01*
X170300212Y-98281200D01*
X170233173Y-98261515D01*
X170192825Y-98219199D01*
X170130524Y-98111290D01*
X170130518Y-98111282D01*
X163424671Y-91405435D01*
X168299500Y-91405435D01*
X168299500Y-93201170D01*
X168299501Y-93201176D01*
X168305908Y-93260783D01*
X168356202Y-93395628D01*
X168356206Y-93395635D01*
X168442452Y-93510844D01*
X168442455Y-93510847D01*
X168557664Y-93597093D01*
X168557671Y-93597097D01*
X168557674Y-93597098D01*
X168689598Y-93646302D01*
X168745531Y-93688173D01*
X168769949Y-93753637D01*
X168755098Y-93821910D01*
X168733947Y-93850165D01*
X168611886Y-93972226D01*
X168476400Y-94165720D01*
X168476399Y-94165722D01*
X168376570Y-94379807D01*
X168376567Y-94379813D01*
X168319364Y-94593299D01*
X168319364Y-94593300D01*
X169216988Y-94593300D01*
X169184075Y-94650307D01*
X169150000Y-94777474D01*
X169150000Y-94909126D01*
X169184075Y-95036293D01*
X169216988Y-95093300D01*
X168319364Y-95093300D01*
X168376567Y-95306786D01*
X168376570Y-95306792D01*
X168476399Y-95520878D01*
X168611894Y-95714382D01*
X168778917Y-95881405D01*
X168972421Y-96016900D01*
X169186507Y-96116729D01*
X169186516Y-96116733D01*
X169400000Y-96173934D01*
X169400000Y-95276312D01*
X169457007Y-95309225D01*
X169584174Y-95343300D01*
X169715826Y-95343300D01*
X169842993Y-95309225D01*
X169900000Y-95276312D01*
X169900000Y-96173933D01*
X170113483Y-96116733D01*
X170113492Y-96116729D01*
X170327578Y-96016900D01*
X170521082Y-95881405D01*
X170688105Y-95714382D01*
X170823600Y-95520878D01*
X170923429Y-95306792D01*
X170923432Y-95306786D01*
X170980636Y-95093300D01*
X170083012Y-95093300D01*
X170115925Y-95036293D01*
X170150000Y-94909126D01*
X170150000Y-94777474D01*
X170115925Y-94650307D01*
X170083012Y-94593300D01*
X170980636Y-94593300D01*
X170980635Y-94593299D01*
X170923432Y-94379813D01*
X170923429Y-94379807D01*
X170823600Y-94165722D01*
X170823599Y-94165720D01*
X170688113Y-93972226D01*
X170688108Y-93972220D01*
X170566053Y-93850165D01*
X170532568Y-93788842D01*
X170537552Y-93719150D01*
X170579424Y-93663217D01*
X170610400Y-93646302D01*
X170742331Y-93597096D01*
X170857546Y-93510846D01*
X170943796Y-93395631D01*
X170994091Y-93260783D01*
X171000500Y-93201173D01*
X171000499Y-91405428D01*
X170994091Y-91345817D01*
X170990168Y-91335300D01*
X170943797Y-91210971D01*
X170943793Y-91210964D01*
X170857547Y-91095755D01*
X170857544Y-91095752D01*
X170742335Y-91009506D01*
X170742328Y-91009502D01*
X170607482Y-90959208D01*
X170607483Y-90959208D01*
X170547883Y-90952801D01*
X170547881Y-90952800D01*
X170547873Y-90952800D01*
X170547864Y-90952800D01*
X168752129Y-90952800D01*
X168752123Y-90952801D01*
X168692516Y-90959208D01*
X168557671Y-91009502D01*
X168557664Y-91009506D01*
X168442455Y-91095752D01*
X168442452Y-91095755D01*
X168356206Y-91210964D01*
X168356202Y-91210971D01*
X168305908Y-91345817D01*
X168299955Y-91401197D01*
X168299501Y-91405423D01*
X168299500Y-91405435D01*
X163424671Y-91405435D01*
X160113319Y-88094083D01*
X160079834Y-88032760D01*
X160077000Y-88006402D01*
X160077000Y-86387412D01*
X160096685Y-86320373D01*
X160104055Y-86310097D01*
X160106310Y-86307267D01*
X160106316Y-86307262D01*
X160202289Y-86154522D01*
X160261868Y-85984255D01*
X160267364Y-85935478D01*
X160282065Y-85805003D01*
X160282065Y-85804996D01*
X160261869Y-85625750D01*
X160261868Y-85625745D01*
X160234155Y-85546546D01*
X160202289Y-85455478D01*
X160106316Y-85302738D01*
X159978762Y-85175184D01*
X159826023Y-85079211D01*
X159655754Y-85019631D01*
X159655749Y-85019630D01*
X159476504Y-84999435D01*
X159476496Y-84999435D01*
X159297250Y-85019630D01*
X159297245Y-85019631D01*
X159126976Y-85079211D01*
X158974237Y-85175184D01*
X158846684Y-85302737D01*
X158750711Y-85455476D01*
X158691131Y-85625745D01*
X158691130Y-85625750D01*
X158670935Y-85804996D01*
X154635200Y-85804996D01*
X154635200Y-84077135D01*
X168299500Y-84077135D01*
X168299500Y-85872870D01*
X168299501Y-85872876D01*
X168305908Y-85932483D01*
X168356202Y-86067328D01*
X168356206Y-86067335D01*
X168442452Y-86182544D01*
X168442455Y-86182547D01*
X168557664Y-86268793D01*
X168557671Y-86268797D01*
X168557674Y-86268798D01*
X168689598Y-86318002D01*
X168745531Y-86359873D01*
X168769949Y-86425337D01*
X168755098Y-86493610D01*
X168733947Y-86521865D01*
X168611886Y-86643926D01*
X168476400Y-86837420D01*
X168476399Y-86837422D01*
X168376570Y-87051507D01*
X168376567Y-87051513D01*
X168319364Y-87264999D01*
X168319364Y-87265000D01*
X169216988Y-87265000D01*
X169184075Y-87322007D01*
X169150000Y-87449174D01*
X169150000Y-87580826D01*
X169184075Y-87707993D01*
X169216988Y-87765000D01*
X168319364Y-87765000D01*
X168376567Y-87978486D01*
X168376570Y-87978492D01*
X168476399Y-88192578D01*
X168611894Y-88386082D01*
X168778917Y-88553105D01*
X168972421Y-88688600D01*
X169186507Y-88788429D01*
X169186516Y-88788433D01*
X169400000Y-88845634D01*
X169400000Y-87948012D01*
X169457007Y-87980925D01*
X169584174Y-88015000D01*
X169715826Y-88015000D01*
X169842993Y-87980925D01*
X169900000Y-87948012D01*
X169900000Y-88845633D01*
X170113483Y-88788433D01*
X170113492Y-88788429D01*
X170327578Y-88688600D01*
X170521082Y-88553105D01*
X170688105Y-88386082D01*
X170823600Y-88192578D01*
X170923429Y-87978492D01*
X170923432Y-87978486D01*
X170980636Y-87765000D01*
X170083012Y-87765000D01*
X170115925Y-87707993D01*
X170150000Y-87580826D01*
X170150000Y-87449174D01*
X170115925Y-87322007D01*
X170083012Y-87265000D01*
X170980636Y-87265000D01*
X170980635Y-87264999D01*
X170923432Y-87051513D01*
X170923429Y-87051507D01*
X170823600Y-86837422D01*
X170823599Y-86837420D01*
X170688113Y-86643926D01*
X170688108Y-86643920D01*
X170566053Y-86521865D01*
X170532568Y-86460542D01*
X170537552Y-86390850D01*
X170579424Y-86334917D01*
X170610400Y-86318002D01*
X170742331Y-86268796D01*
X170857546Y-86182546D01*
X170943796Y-86067331D01*
X170994091Y-85932483D01*
X171000500Y-85872873D01*
X171000499Y-84077128D01*
X170994091Y-84017517D01*
X170988401Y-84002262D01*
X170943797Y-83882671D01*
X170943793Y-83882664D01*
X170857547Y-83767455D01*
X170857544Y-83767452D01*
X170742335Y-83681206D01*
X170742328Y-83681202D01*
X170607482Y-83630908D01*
X170607483Y-83630908D01*
X170547883Y-83624501D01*
X170547881Y-83624500D01*
X170547873Y-83624500D01*
X170547864Y-83624500D01*
X168752129Y-83624500D01*
X168752123Y-83624501D01*
X168692516Y-83630908D01*
X168557671Y-83681202D01*
X168557664Y-83681206D01*
X168442455Y-83767452D01*
X168442452Y-83767455D01*
X168356206Y-83882664D01*
X168356202Y-83882671D01*
X168305908Y-84017517D01*
X168299501Y-84077116D01*
X168299501Y-84077123D01*
X168299500Y-84077135D01*
X154635200Y-84077135D01*
X154635200Y-75955312D01*
X154654885Y-75888273D01*
X154662255Y-75877997D01*
X154664510Y-75875167D01*
X154664516Y-75875162D01*
X154760489Y-75722422D01*
X154820068Y-75552155D01*
X154820069Y-75552149D01*
X154840265Y-75372903D01*
X154840265Y-75372896D01*
X154820069Y-75193650D01*
X154820068Y-75193645D01*
X154815468Y-75180499D01*
X154760489Y-75023378D01*
X154760126Y-75022801D01*
X154690773Y-74912426D01*
X154664516Y-74870638D01*
X154536962Y-74743084D01*
X154384223Y-74647111D01*
X154213954Y-74587531D01*
X154213949Y-74587530D01*
X154034704Y-74567335D01*
X154034696Y-74567335D01*
X153855450Y-74587530D01*
X153855445Y-74587531D01*
X153685176Y-74647111D01*
X153532437Y-74743084D01*
X153404884Y-74870637D01*
X153308911Y-75023376D01*
X153249331Y-75193645D01*
X153249330Y-75193650D01*
X153229135Y-75372896D01*
X153229135Y-75372903D01*
X153249330Y-75552149D01*
X153249331Y-75552154D01*
X153308911Y-75722423D01*
X153404885Y-75875163D01*
X153407145Y-75877997D01*
X153408034Y-75880175D01*
X153408589Y-75881058D01*
X153408434Y-75881155D01*
X153433555Y-75942683D01*
X153434200Y-75955312D01*
X153434200Y-87030687D01*
X153414515Y-87097726D01*
X153407150Y-87107996D01*
X153404886Y-87110834D01*
X153308911Y-87263576D01*
X153249331Y-87433845D01*
X153249330Y-87433850D01*
X153229135Y-87613096D01*
X153229135Y-87613103D01*
X153249330Y-87792349D01*
X153249331Y-87792354D01*
X153308911Y-87962623D01*
X153404885Y-88115363D01*
X153407145Y-88118197D01*
X153408034Y-88120375D01*
X153408589Y-88121258D01*
X153408434Y-88121355D01*
X153433555Y-88182883D01*
X153434200Y-88195512D01*
X153434200Y-91453102D01*
X153414515Y-91520141D01*
X153361711Y-91565896D01*
X153292553Y-91575840D01*
X153228997Y-91546815D01*
X153222519Y-91540783D01*
X152466000Y-90784265D01*
X152432515Y-90722942D01*
X152430463Y-90710486D01*
X152420668Y-90623545D01*
X152361089Y-90453278D01*
X152265116Y-90300538D01*
X152137562Y-90172984D01*
X152066214Y-90128153D01*
X151984823Y-90077011D01*
X151814554Y-90017431D01*
X151814550Y-90017430D01*
X151744216Y-90009506D01*
X151679802Y-89982439D01*
X151640247Y-89924844D01*
X151634100Y-89886286D01*
X151634100Y-84358112D01*
X151653785Y-84291073D01*
X151661155Y-84280797D01*
X151663410Y-84277967D01*
X151663416Y-84277962D01*
X151759389Y-84125222D01*
X151818968Y-83954955D01*
X151818969Y-83954949D01*
X151839165Y-83775703D01*
X151839165Y-83775696D01*
X151818969Y-83596450D01*
X151818968Y-83596445D01*
X151775451Y-83472081D01*
X151759389Y-83426178D01*
X151663416Y-83273438D01*
X151535862Y-83145884D01*
X151383123Y-83049911D01*
X151212854Y-82990331D01*
X151212849Y-82990330D01*
X151033604Y-82970135D01*
X151033596Y-82970135D01*
X150854350Y-82990330D01*
X150854345Y-82990331D01*
X150684076Y-83049911D01*
X150531337Y-83145884D01*
X150403784Y-83273437D01*
X150307811Y-83426176D01*
X150248231Y-83596445D01*
X150248230Y-83596450D01*
X150228035Y-83775696D01*
X150228035Y-83775703D01*
X150248230Y-83954949D01*
X150248231Y-83954954D01*
X150307811Y-84125223D01*
X150368115Y-84221196D01*
X150371001Y-84225789D01*
X150403785Y-84277963D01*
X150406045Y-84280797D01*
X150406934Y-84282975D01*
X150407489Y-84283858D01*
X150407334Y-84283955D01*
X150432455Y-84345483D01*
X150433100Y-84358112D01*
X150433100Y-94808891D01*
X150414094Y-94874862D01*
X150374311Y-94938176D01*
X150314730Y-95108450D01*
X150304937Y-95195368D01*
X150277870Y-95259782D01*
X150269398Y-95269165D01*
X140910386Y-104628178D01*
X140798581Y-104739982D01*
X140798577Y-104739987D01*
X140759729Y-104807276D01*
X140759729Y-104807277D01*
X140719523Y-104876914D01*
X140719523Y-104876915D01*
X140678599Y-105029643D01*
X140678599Y-105029645D01*
X140678599Y-105197746D01*
X140678600Y-105197759D01*
X140678600Y-107156655D01*
X140658915Y-107223694D01*
X140606111Y-107269449D01*
X140536953Y-107279393D01*
X140488629Y-107261649D01*
X140429525Y-107224512D01*
X140259254Y-107164931D01*
X140259249Y-107164930D01*
X140080004Y-107144735D01*
X140079996Y-107144735D01*
X139900750Y-107164930D01*
X139900745Y-107164931D01*
X139730476Y-107224511D01*
X139577737Y-107320484D01*
X139450184Y-107448037D01*
X139354211Y-107600776D01*
X139294631Y-107771045D01*
X139294630Y-107771050D01*
X139274435Y-107950296D01*
X139274435Y-107950303D01*
X139294630Y-108129549D01*
X139294631Y-108129554D01*
X139354211Y-108299823D01*
X139414515Y-108395796D01*
X139449460Y-108451410D01*
X139450185Y-108452563D01*
X139452445Y-108455397D01*
X139453334Y-108457575D01*
X139453889Y-108458458D01*
X139453734Y-108458555D01*
X139478855Y-108520083D01*
X139479500Y-108532712D01*
X139479500Y-119710908D01*
X139459815Y-119777947D01*
X139407914Y-119823286D01*
X139402173Y-119825963D01*
X139402169Y-119825965D01*
X139208597Y-119961505D01*
X139041505Y-120128597D01*
X138911575Y-120314158D01*
X138856998Y-120357783D01*
X138787500Y-120364977D01*
X138725145Y-120333454D01*
X138708425Y-120314158D01*
X138578494Y-120128597D01*
X138411402Y-119961506D01*
X138411395Y-119961501D01*
X138217831Y-119825965D01*
X138217829Y-119825964D01*
X138199231Y-119817292D01*
X138146792Y-119771120D01*
X138131861Y-119737003D01*
X138112551Y-119664936D01*
X138099577Y-119616516D01*
X138099576Y-119616513D01*
X138020524Y-119479590D01*
X138020518Y-119479582D01*
X137991119Y-119450183D01*
X137957634Y-119388860D01*
X137954800Y-119362502D01*
X137954800Y-116054092D01*
X137974485Y-115987053D01*
X138027289Y-115941298D01*
X138064918Y-115930872D01*
X138135949Y-115922869D01*
X138135952Y-115922868D01*
X138135955Y-115922868D01*
X138306222Y-115863289D01*
X138458962Y-115767316D01*
X138586516Y-115639762D01*
X138682489Y-115487022D01*
X138742068Y-115316755D01*
X138742069Y-115316749D01*
X138762265Y-115137503D01*
X138762265Y-115137496D01*
X138742069Y-114958250D01*
X138742068Y-114958245D01*
X138682488Y-114787976D01*
X138649345Y-114735230D01*
X138586516Y-114635238D01*
X138586514Y-114635236D01*
X138586513Y-114635234D01*
X138584250Y-114632396D01*
X138583359Y-114630215D01*
X138582811Y-114629342D01*
X138582964Y-114629245D01*
X138557844Y-114567709D01*
X138557200Y-114555087D01*
X138557200Y-105862196D01*
X138576885Y-105795157D01*
X138593514Y-105774520D01*
X148108235Y-96259798D01*
X148169556Y-96226315D01*
X148182011Y-96224263D01*
X148268955Y-96214468D01*
X148439222Y-96154889D01*
X148591962Y-96058916D01*
X148719516Y-95931362D01*
X148815489Y-95778622D01*
X148875068Y-95608355D01*
X148875069Y-95608349D01*
X148895265Y-95429103D01*
X148895265Y-95429096D01*
X148875069Y-95249850D01*
X148875068Y-95249845D01*
X148827378Y-95113555D01*
X148815489Y-95079578D01*
X148719516Y-94926838D01*
X148591962Y-94799284D01*
X148557252Y-94777474D01*
X148439223Y-94703311D01*
X148268954Y-94643731D01*
X148268949Y-94643730D01*
X148089704Y-94623535D01*
X148089696Y-94623535D01*
X147910450Y-94643730D01*
X147910445Y-94643731D01*
X147740176Y-94703311D01*
X147587437Y-94799284D01*
X147459884Y-94926837D01*
X147363910Y-95079578D01*
X147304330Y-95249850D01*
X147294537Y-95336768D01*
X147267470Y-95401182D01*
X147258998Y-95410565D01*
X138166481Y-104503083D01*
X138105158Y-104536568D01*
X138035466Y-104531584D01*
X137979533Y-104489712D01*
X137955116Y-104424248D01*
X137954800Y-104415402D01*
X137954800Y-90060304D01*
X137974485Y-89993265D01*
X138012829Y-89955310D01*
X138042259Y-89936818D01*
X138042259Y-89936817D01*
X138042262Y-89936816D01*
X138169816Y-89809262D01*
X138265789Y-89656522D01*
X138325368Y-89486255D01*
X138335891Y-89392860D01*
X138345565Y-89307003D01*
X138345565Y-89306996D01*
X138325369Y-89127750D01*
X138325368Y-89127745D01*
X138310699Y-89085823D01*
X138265789Y-88957478D01*
X138258001Y-88945084D01*
X138222845Y-88889133D01*
X138169816Y-88804738D01*
X138169814Y-88804736D01*
X138169813Y-88804734D01*
X138167550Y-88801896D01*
X138166659Y-88799715D01*
X138166111Y-88798842D01*
X138166264Y-88798745D01*
X138141144Y-88737209D01*
X138140500Y-88724587D01*
X138140500Y-78826660D01*
X138140501Y-78826647D01*
X138140501Y-78658544D01*
X138140501Y-78658543D01*
X138099577Y-78505816D01*
X138078504Y-78469316D01*
X138067119Y-78449596D01*
X141176835Y-78449596D01*
X141176835Y-78449603D01*
X141197030Y-78628849D01*
X141197031Y-78628854D01*
X141256611Y-78799123D01*
X141311382Y-78886290D01*
X141352584Y-78951862D01*
X141480138Y-79079416D01*
X141632878Y-79175389D01*
X141803145Y-79234968D01*
X141890069Y-79244761D01*
X141954480Y-79271826D01*
X141963865Y-79280300D01*
X142150981Y-79467416D01*
X142184466Y-79528739D01*
X142187300Y-79555097D01*
X142187300Y-87031287D01*
X142167615Y-87098326D01*
X142160250Y-87108596D01*
X142157986Y-87111434D01*
X142062011Y-87264176D01*
X142002431Y-87434445D01*
X142002430Y-87434450D01*
X141982235Y-87613696D01*
X141982235Y-87613703D01*
X142002430Y-87792949D01*
X142002431Y-87792954D01*
X142062011Y-87963223D01*
X142144236Y-88094083D01*
X142157984Y-88115962D01*
X142285538Y-88243516D01*
X142438278Y-88339489D01*
X142573422Y-88386778D01*
X142608545Y-88399068D01*
X142608550Y-88399069D01*
X142787796Y-88419265D01*
X142787800Y-88419265D01*
X142787804Y-88419265D01*
X142967049Y-88399069D01*
X142967052Y-88399068D01*
X142967055Y-88399068D01*
X143137322Y-88339489D01*
X143290062Y-88243516D01*
X143417616Y-88115962D01*
X143513589Y-87963222D01*
X143573168Y-87792955D01*
X143573236Y-87792354D01*
X143593365Y-87613703D01*
X143593365Y-87613696D01*
X143573169Y-87434450D01*
X143573168Y-87434445D01*
X143527343Y-87303486D01*
X143513589Y-87264178D01*
X143417616Y-87111438D01*
X143417614Y-87111436D01*
X143417613Y-87111434D01*
X143415350Y-87108596D01*
X143414459Y-87106415D01*
X143413911Y-87105542D01*
X143414064Y-87105445D01*
X143388944Y-87043909D01*
X143388300Y-87031287D01*
X143388300Y-79344060D01*
X143388301Y-79344047D01*
X143388301Y-79273996D01*
X149310735Y-79273996D01*
X149310735Y-79274003D01*
X149330930Y-79453249D01*
X149330931Y-79453254D01*
X149390511Y-79623523D01*
X149416776Y-79665323D01*
X149486484Y-79776262D01*
X149614038Y-79903816D01*
X149766778Y-79999789D01*
X149937045Y-80059368D01*
X149937050Y-80059369D01*
X150116296Y-80079565D01*
X150116300Y-80079565D01*
X150116304Y-80079565D01*
X150295549Y-80059369D01*
X150295552Y-80059368D01*
X150295555Y-80059368D01*
X150465822Y-79999789D01*
X150618562Y-79903816D01*
X150746116Y-79776262D01*
X150842089Y-79623522D01*
X150901668Y-79453255D01*
X150911461Y-79366329D01*
X150938526Y-79301918D01*
X150946990Y-79292543D01*
X151459806Y-78779728D01*
X151459811Y-78779724D01*
X151470014Y-78769520D01*
X151470016Y-78769520D01*
X151581820Y-78657716D01*
X151660877Y-78520784D01*
X151701134Y-78370543D01*
X151701135Y-78370543D01*
X151701135Y-78370537D01*
X151701800Y-78368058D01*
X151701800Y-78209943D01*
X151701800Y-76197412D01*
X151721485Y-76130373D01*
X151728855Y-76120097D01*
X151731110Y-76117267D01*
X151731116Y-76117262D01*
X151827089Y-75964522D01*
X151886668Y-75794255D01*
X151891013Y-75755696D01*
X151906865Y-75615003D01*
X151906865Y-75614996D01*
X151886669Y-75435750D01*
X151886668Y-75435745D01*
X151827089Y-75265478D01*
X151731116Y-75112738D01*
X151603562Y-74985184D01*
X151543369Y-74947362D01*
X151450823Y-74889211D01*
X151280554Y-74829631D01*
X151280549Y-74829630D01*
X151101304Y-74809435D01*
X151101296Y-74809435D01*
X150922050Y-74829630D01*
X150922045Y-74829631D01*
X150751776Y-74889211D01*
X150599037Y-74985184D01*
X150471484Y-75112737D01*
X150375511Y-75265476D01*
X150315931Y-75435745D01*
X150315930Y-75435750D01*
X150295735Y-75614996D01*
X150295735Y-75615003D01*
X150315930Y-75794249D01*
X150315931Y-75794254D01*
X150375511Y-75964523D01*
X150425117Y-76043470D01*
X150463919Y-76105223D01*
X150471485Y-76117263D01*
X150473745Y-76120097D01*
X150474634Y-76122275D01*
X150475189Y-76123158D01*
X150475034Y-76123255D01*
X150500155Y-76184783D01*
X150500800Y-76197412D01*
X150500800Y-77988902D01*
X150481115Y-78055941D01*
X150464481Y-78076583D01*
X150097765Y-78443298D01*
X150036442Y-78476783D01*
X150023968Y-78478837D01*
X149937050Y-78488630D01*
X149766778Y-78548210D01*
X149614037Y-78644184D01*
X149486484Y-78771737D01*
X149390511Y-78924476D01*
X149330931Y-79094745D01*
X149330930Y-79094750D01*
X149310735Y-79273996D01*
X143388301Y-79273996D01*
X143388301Y-79175944D01*
X143388301Y-79175943D01*
X143347377Y-79023216D01*
X143326084Y-78986335D01*
X143268324Y-78886290D01*
X143268318Y-78886282D01*
X143043781Y-78661745D01*
X142813099Y-78431064D01*
X142779615Y-78369742D01*
X142777563Y-78357286D01*
X142767768Y-78270345D01*
X142708189Y-78100078D01*
X142612216Y-77947338D01*
X142484662Y-77819784D01*
X142380283Y-77754198D01*
X142331923Y-77723811D01*
X142161654Y-77664231D01*
X142161649Y-77664230D01*
X141982404Y-77644035D01*
X141982396Y-77644035D01*
X141803150Y-77664230D01*
X141803145Y-77664231D01*
X141632876Y-77723811D01*
X141480137Y-77819784D01*
X141352584Y-77947337D01*
X141256611Y-78100076D01*
X141197031Y-78270345D01*
X141197030Y-78270350D01*
X141176835Y-78449596D01*
X138067119Y-78449596D01*
X138020524Y-78368890D01*
X138020518Y-78368882D01*
X137264206Y-77612570D01*
X136480699Y-76829064D01*
X136447215Y-76767742D01*
X136445163Y-76755286D01*
X136435368Y-76668345D01*
X136375789Y-76498078D01*
X136279816Y-76345338D01*
X136279815Y-76345337D01*
X136277555Y-76342503D01*
X136276665Y-76340324D01*
X136276111Y-76339442D01*
X136276265Y-76339344D01*
X136251146Y-76277816D01*
X136250501Y-76265189D01*
X136250501Y-76209244D01*
X136240049Y-76170237D01*
X136209577Y-76056516D01*
X136175356Y-75997243D01*
X136130524Y-75919590D01*
X136130518Y-75919582D01*
X135490884Y-75279948D01*
X135457399Y-75218625D01*
X135462383Y-75148933D01*
X135504255Y-75093000D01*
X135512569Y-75087289D01*
X135532262Y-75074916D01*
X135592001Y-75015177D01*
X135653324Y-74981692D01*
X135723016Y-74986676D01*
X135767363Y-75015177D01*
X135832686Y-75080500D01*
X135946814Y-75146392D01*
X136074108Y-75180500D01*
X136074110Y-75180500D01*
X136205890Y-75180500D01*
X136205892Y-75180500D01*
X136333186Y-75146392D01*
X136438503Y-75085587D01*
X136506399Y-75069115D01*
X136572426Y-75091967D01*
X136615617Y-75146888D01*
X136624500Y-75192975D01*
X136624500Y-75813620D01*
X136661025Y-75997243D01*
X136661027Y-75997251D01*
X136732676Y-76170228D01*
X136732681Y-76170237D01*
X136836697Y-76325907D01*
X136836700Y-76325911D01*
X136969088Y-76458299D01*
X136969092Y-76458302D01*
X137124762Y-76562318D01*
X137124768Y-76562321D01*
X137124769Y-76562322D01*
X137297749Y-76633973D01*
X137470540Y-76668343D01*
X137481379Y-76670499D01*
X137481383Y-76670500D01*
X137481384Y-76670500D01*
X137668617Y-76670500D01*
X137668618Y-76670499D01*
X137852251Y-76633973D01*
X138025231Y-76562322D01*
X138180908Y-76458302D01*
X138313302Y-76325908D01*
X138417322Y-76170231D01*
X138488973Y-75997251D01*
X138525500Y-75813616D01*
X138525500Y-74526384D01*
X138488973Y-74342749D01*
X138421353Y-74179500D01*
X138417323Y-74169771D01*
X138417318Y-74169762D01*
X138313302Y-74014092D01*
X138313299Y-74014088D01*
X138180911Y-73881700D01*
X138180907Y-73881697D01*
X138025237Y-73777681D01*
X138025228Y-73777676D01*
X137852251Y-73706027D01*
X137852243Y-73706025D01*
X137668620Y-73669500D01*
X137668616Y-73669500D01*
X137481384Y-73669500D01*
X137481379Y-73669500D01*
X137297756Y-73706025D01*
X137297748Y-73706027D01*
X137124771Y-73777676D01*
X137124762Y-73777681D01*
X136969092Y-73881697D01*
X136969088Y-73881700D01*
X136836700Y-74014088D01*
X136836697Y-74014092D01*
X136732681Y-74169762D01*
X136732676Y-74169771D01*
X136687975Y-74277691D01*
X136644134Y-74332094D01*
X136577840Y-74354159D01*
X136510140Y-74336880D01*
X136485733Y-74317919D01*
X136447316Y-74279502D01*
X136447314Y-74279500D01*
X136344036Y-74219872D01*
X136333187Y-74213608D01*
X136269539Y-74196554D01*
X136205892Y-74179500D01*
X136074108Y-74179500D01*
X135946814Y-74213608D01*
X135946813Y-74213608D01*
X135946811Y-74213609D01*
X135939300Y-74216720D01*
X135938178Y-74214013D01*
X135883956Y-74227163D01*
X135817931Y-74204306D01*
X135774744Y-74149382D01*
X135772823Y-74144258D01*
X135755789Y-74095578D01*
X135659815Y-73942837D01*
X135532262Y-73815284D01*
X135379523Y-73719311D01*
X135235524Y-73668924D01*
X135188798Y-73639563D01*
X134377590Y-72828355D01*
X134377588Y-72828352D01*
X134258717Y-72709481D01*
X134258716Y-72709480D01*
X134216308Y-72684996D01*
X164382435Y-72684996D01*
X164382435Y-72685003D01*
X164402630Y-72864249D01*
X164402631Y-72864254D01*
X164462211Y-73034523D01*
X164558184Y-73187262D01*
X164676181Y-73305259D01*
X164709666Y-73366582D01*
X164712500Y-73392940D01*
X164712500Y-78587587D01*
X164692815Y-78654626D01*
X164685450Y-78664896D01*
X164683186Y-78667734D01*
X164587211Y-78820476D01*
X164527631Y-78990745D01*
X164527630Y-78990750D01*
X164507435Y-79169996D01*
X164507435Y-79170003D01*
X164527630Y-79349249D01*
X164527631Y-79349254D01*
X164587211Y-79519523D01*
X164652559Y-79623523D01*
X164683184Y-79672262D01*
X164810738Y-79799816D01*
X164963478Y-79895789D01*
X165095573Y-79942011D01*
X165133745Y-79955368D01*
X165133750Y-79955369D01*
X165312996Y-79975565D01*
X165313000Y-79975565D01*
X165313004Y-79975565D01*
X165492249Y-79955369D01*
X165492252Y-79955368D01*
X165492255Y-79955368D01*
X165662522Y-79895789D01*
X165815262Y-79799816D01*
X165942816Y-79672262D01*
X166038789Y-79519522D01*
X166098368Y-79349255D01*
X166098369Y-79349249D01*
X166118565Y-79170003D01*
X166118565Y-79169996D01*
X166098369Y-78990750D01*
X166098368Y-78990745D01*
X166070293Y-78910511D01*
X166038789Y-78820478D01*
X166034428Y-78813538D01*
X165994714Y-78750333D01*
X165942816Y-78667738D01*
X165942814Y-78667736D01*
X165942813Y-78667734D01*
X165940550Y-78664896D01*
X165939659Y-78662715D01*
X165939111Y-78661842D01*
X165939264Y-78661745D01*
X165914144Y-78600209D01*
X165913500Y-78587587D01*
X165913500Y-73056416D01*
X165920459Y-73015461D01*
X165973366Y-72864262D01*
X165973369Y-72864249D01*
X165993565Y-72685003D01*
X165993565Y-72684996D01*
X165973369Y-72505750D01*
X165973368Y-72505745D01*
X165913788Y-72335476D01*
X165817815Y-72182737D01*
X165690262Y-72055184D01*
X165537523Y-71959211D01*
X165367254Y-71899631D01*
X165367249Y-71899630D01*
X165188004Y-71879435D01*
X165187996Y-71879435D01*
X165008750Y-71899630D01*
X165008745Y-71899631D01*
X164838476Y-71959211D01*
X164685737Y-72055184D01*
X164558184Y-72182737D01*
X164462211Y-72335476D01*
X164402631Y-72505745D01*
X164402630Y-72505750D01*
X164382435Y-72684996D01*
X134216308Y-72684996D01*
X134171904Y-72659360D01*
X134171904Y-72659359D01*
X134171900Y-72659358D01*
X134121785Y-72630423D01*
X133969057Y-72589499D01*
X133810943Y-72589499D01*
X133803347Y-72589499D01*
X133803331Y-72589500D01*
X132886670Y-72589500D01*
X132886654Y-72589499D01*
X132879058Y-72589499D01*
X132720943Y-72589499D01*
X132644579Y-72609961D01*
X132568214Y-72630423D01*
X132568209Y-72630426D01*
X132431290Y-72709475D01*
X132431282Y-72709481D01*
X131471465Y-73669298D01*
X131410142Y-73702783D01*
X131397668Y-73704837D01*
X131310750Y-73714630D01*
X131140478Y-73774210D01*
X130987737Y-73870184D01*
X130860184Y-73997737D01*
X130764212Y-74150475D01*
X130764209Y-74150481D01*
X130759794Y-74163098D01*
X130719070Y-74219872D01*
X130654115Y-74245616D01*
X130585554Y-74232156D01*
X130580756Y-74229525D01*
X130553187Y-74213608D01*
X130489539Y-74196554D01*
X130425892Y-74179500D01*
X130294108Y-74179500D01*
X130166812Y-74213608D01*
X130052686Y-74279500D01*
X130052682Y-74279503D01*
X130014265Y-74317920D01*
X129952942Y-74351405D01*
X129883250Y-74346419D01*
X129827317Y-74304547D01*
X129812025Y-74277691D01*
X129771353Y-74179500D01*
X129767325Y-74169775D01*
X129767318Y-74169762D01*
X129663302Y-74014092D01*
X129663299Y-74014088D01*
X129530911Y-73881700D01*
X129530907Y-73881697D01*
X129375237Y-73777681D01*
X129375228Y-73777676D01*
X129202251Y-73706027D01*
X129202243Y-73706025D01*
X129018620Y-73669500D01*
X129018616Y-73669500D01*
X128831384Y-73669500D01*
X128831379Y-73669500D01*
X128647756Y-73706025D01*
X128647748Y-73706027D01*
X128474771Y-73777676D01*
X128474762Y-73777681D01*
X128319092Y-73881697D01*
X128319088Y-73881700D01*
X128186700Y-74014088D01*
X128186697Y-74014092D01*
X128082681Y-74169762D01*
X128082676Y-74169771D01*
X128011027Y-74342748D01*
X128011025Y-74342756D01*
X127974500Y-74526379D01*
X127974500Y-75813620D01*
X128011025Y-75997243D01*
X128011027Y-75997251D01*
X128082676Y-76170228D01*
X128082681Y-76170237D01*
X128186697Y-76325907D01*
X128186700Y-76325911D01*
X128319088Y-76458299D01*
X128319092Y-76458302D01*
X128474762Y-76562318D01*
X128474768Y-76562321D01*
X128474769Y-76562322D01*
X128647749Y-76633973D01*
X128820540Y-76668343D01*
X128831379Y-76670499D01*
X128831383Y-76670500D01*
X128831384Y-76670500D01*
X129018617Y-76670500D01*
X129018618Y-76670499D01*
X129202251Y-76633973D01*
X129375231Y-76562322D01*
X129530908Y-76458302D01*
X129663302Y-76325908D01*
X129767322Y-76170231D01*
X129838973Y-75997251D01*
X129875500Y-75813616D01*
X129875500Y-75192975D01*
X129895185Y-75125936D01*
X129947989Y-75080181D01*
X130017147Y-75070237D01*
X130061495Y-75085585D01*
X130166814Y-75146392D01*
X130294108Y-75180500D01*
X130294110Y-75180500D01*
X130425890Y-75180500D01*
X130425892Y-75180500D01*
X130455319Y-75172615D01*
X130525166Y-75174276D01*
X130583030Y-75213438D01*
X130610535Y-75277666D01*
X130598949Y-75346568D01*
X130575094Y-75380070D01*
X130445286Y-75509878D01*
X130333481Y-75621682D01*
X130333475Y-75621690D01*
X130295308Y-75687799D01*
X130295308Y-75687800D01*
X130254423Y-75758615D01*
X130213499Y-75911343D01*
X130213499Y-75911345D01*
X130213499Y-76079446D01*
X130213500Y-76079459D01*
X130213500Y-76255987D01*
X130193815Y-76323026D01*
X130186450Y-76333296D01*
X130184186Y-76336134D01*
X130088211Y-76488876D01*
X130028631Y-76659145D01*
X130028630Y-76659150D01*
X130008435Y-76838396D01*
X130008435Y-76838403D01*
X130028630Y-77017649D01*
X130028631Y-77017654D01*
X130088211Y-77187923D01*
X130182032Y-77337237D01*
X130184184Y-77340662D01*
X130311738Y-77468216D01*
X130326380Y-77477416D01*
X130464478Y-77564189D01*
X130602743Y-77612570D01*
X130659519Y-77653292D01*
X130685267Y-77718245D01*
X130671811Y-77786806D01*
X130649470Y-77817293D01*
X128447586Y-80019178D01*
X128335781Y-80130982D01*
X128335779Y-80130984D01*
X128314265Y-80168249D01*
X128305171Y-80184001D01*
X128256723Y-80267915D01*
X128224273Y-80389014D01*
X128187910Y-80448673D01*
X128125062Y-80479202D01*
X128055687Y-80470907D01*
X128001809Y-80426422D01*
X127980535Y-80359869D01*
X127980500Y-80356919D01*
X127980500Y-79898212D01*
X128000185Y-79831173D01*
X128007555Y-79820897D01*
X128009810Y-79818067D01*
X128009816Y-79818062D01*
X128105789Y-79665322D01*
X128165368Y-79495055D01*
X128170078Y-79453254D01*
X128185565Y-79315803D01*
X128185565Y-79315796D01*
X128165369Y-79136550D01*
X128165368Y-79136545D01*
X128150743Y-79094750D01*
X128105789Y-78966278D01*
X128093475Y-78946681D01*
X128018053Y-78826647D01*
X128009816Y-78813538D01*
X127882262Y-78685984D01*
X127853224Y-78667738D01*
X127729523Y-78590011D01*
X127559254Y-78530431D01*
X127559249Y-78530430D01*
X127380004Y-78510235D01*
X127379996Y-78510235D01*
X127200750Y-78530430D01*
X127200745Y-78530431D01*
X127030476Y-78590011D01*
X126877737Y-78685984D01*
X126750184Y-78813537D01*
X126654211Y-78966276D01*
X126594631Y-79136545D01*
X126594630Y-79136550D01*
X126574435Y-79315796D01*
X126574435Y-79315803D01*
X126594630Y-79495049D01*
X126594631Y-79495054D01*
X126654211Y-79665323D01*
X126714515Y-79761296D01*
X126738719Y-79799816D01*
X126750185Y-79818063D01*
X126752445Y-79820897D01*
X126753334Y-79823075D01*
X126753889Y-79823958D01*
X126753734Y-79824055D01*
X126778855Y-79885583D01*
X126779500Y-79898212D01*
X126779500Y-85362334D01*
X126759815Y-85429373D01*
X126707011Y-85475128D01*
X126669384Y-85485554D01*
X126544449Y-85499630D01*
X126544445Y-85499631D01*
X126374176Y-85559211D01*
X126221437Y-85655184D01*
X126093884Y-85782737D01*
X125997910Y-85935478D01*
X125938330Y-86105750D01*
X125928537Y-86192668D01*
X125901470Y-86257082D01*
X125892998Y-86266465D01*
X123326186Y-88833278D01*
X123214381Y-88945082D01*
X123214375Y-88945090D01*
X123210886Y-88951134D01*
X123160319Y-88999349D01*
X123091712Y-89012571D01*
X123026847Y-88986603D01*
X122986319Y-88929688D01*
X122979500Y-88889133D01*
X122979500Y-86588597D01*
X122999185Y-86521558D01*
X123015819Y-86500916D01*
X124087362Y-85429373D01*
X125186036Y-84330698D01*
X125247357Y-84297215D01*
X125259810Y-84295163D01*
X125346755Y-84285368D01*
X125517022Y-84225789D01*
X125669762Y-84129816D01*
X125797316Y-84002262D01*
X125893289Y-83849522D01*
X125952868Y-83679255D01*
X125952869Y-83679249D01*
X125973065Y-83500003D01*
X125973065Y-83499996D01*
X125952869Y-83320750D01*
X125952868Y-83320745D01*
X125893289Y-83150478D01*
X125890402Y-83145884D01*
X125854082Y-83088080D01*
X125797316Y-82997738D01*
X125669762Y-82870184D01*
X125517023Y-82774211D01*
X125346754Y-82714631D01*
X125346749Y-82714630D01*
X125167504Y-82694435D01*
X125167496Y-82694435D01*
X124988250Y-82714630D01*
X124988245Y-82714631D01*
X124817976Y-82774211D01*
X124665237Y-82870184D01*
X124537684Y-82997737D01*
X124441710Y-83150478D01*
X124382130Y-83320750D01*
X124372337Y-83407667D01*
X124345270Y-83472081D01*
X124336798Y-83481464D01*
X122257381Y-85560882D01*
X122196058Y-85594367D01*
X122126366Y-85589383D01*
X122070433Y-85547511D01*
X122046016Y-85482047D01*
X122045700Y-85473201D01*
X122045700Y-76376197D01*
X122065385Y-76309158D01*
X122118189Y-76263403D01*
X122187347Y-76253459D01*
X122250903Y-76282484D01*
X122257381Y-76288516D01*
X124572298Y-78603433D01*
X124605783Y-78664756D01*
X124607837Y-78677230D01*
X124617630Y-78764149D01*
X124677210Y-78934421D01*
X124733003Y-79023214D01*
X124773184Y-79087162D01*
X124900738Y-79214716D01*
X124932969Y-79234968D01*
X125033388Y-79298066D01*
X125053478Y-79310689D01*
X125212499Y-79366333D01*
X125223745Y-79370268D01*
X125223750Y-79370269D01*
X125402996Y-79390465D01*
X125403000Y-79390465D01*
X125403004Y-79390465D01*
X125582249Y-79370269D01*
X125582252Y-79370268D01*
X125582255Y-79370268D01*
X125752522Y-79310689D01*
X125905262Y-79214716D01*
X126032816Y-79087162D01*
X126128789Y-78934422D01*
X126188368Y-78764155D01*
X126189925Y-78750339D01*
X126208565Y-78584903D01*
X126208565Y-78584896D01*
X126188369Y-78405650D01*
X126188368Y-78405645D01*
X126140943Y-78270112D01*
X126128789Y-78235378D01*
X126032816Y-78082638D01*
X125905262Y-77955084D01*
X125892933Y-77947337D01*
X125752521Y-77859110D01*
X125582249Y-77799530D01*
X125495330Y-77789737D01*
X125430916Y-77762670D01*
X125421533Y-77754198D01*
X122336719Y-74669384D01*
X122303234Y-74608061D01*
X122300400Y-74581703D01*
X122300400Y-72847412D01*
X122320085Y-72780373D01*
X122327455Y-72770097D01*
X122329710Y-72767267D01*
X122329716Y-72767262D01*
X122425689Y-72614522D01*
X122485268Y-72444255D01*
X122497524Y-72335478D01*
X122505465Y-72265003D01*
X122505465Y-72264996D01*
X122485269Y-72085750D01*
X122485268Y-72085745D01*
X122425688Y-71915476D01*
X122329715Y-71762737D01*
X122202162Y-71635184D01*
X122049423Y-71539211D01*
X121879154Y-71479631D01*
X121879149Y-71479630D01*
X121699904Y-71459435D01*
X121699896Y-71459435D01*
X121520650Y-71479630D01*
X121520645Y-71479631D01*
X121350376Y-71539211D01*
X121197637Y-71635184D01*
X121070084Y-71762737D01*
X120974111Y-71915476D01*
X120914531Y-72085745D01*
X120914530Y-72085750D01*
X120894335Y-72264996D01*
X120894335Y-72265003D01*
X120914530Y-72444249D01*
X120914531Y-72444254D01*
X120974111Y-72614523D01*
X121070085Y-72767263D01*
X121072345Y-72770097D01*
X121073234Y-72772275D01*
X121073789Y-72773158D01*
X121073634Y-72773255D01*
X121098755Y-72834783D01*
X121099400Y-72847412D01*
X121099400Y-74795130D01*
X121099399Y-74795148D01*
X121099399Y-74959040D01*
X121079714Y-75026079D01*
X121041372Y-75064033D01*
X120942939Y-75125882D01*
X120815384Y-75253437D01*
X120719411Y-75406176D01*
X120659831Y-75576445D01*
X120659830Y-75576450D01*
X120639635Y-75755696D01*
X120639635Y-75755703D01*
X120659830Y-75934949D01*
X120659831Y-75934954D01*
X120719411Y-76105223D01*
X120815385Y-76257963D01*
X120817645Y-76260797D01*
X120818534Y-76262975D01*
X120819089Y-76263858D01*
X120818934Y-76263955D01*
X120844055Y-76325483D01*
X120844700Y-76338112D01*
X120844700Y-88843602D01*
X120825015Y-88910641D01*
X120808381Y-88931283D01*
X120472165Y-89267498D01*
X120410842Y-89300983D01*
X120398368Y-89303037D01*
X120311450Y-89312830D01*
X120141178Y-89372410D01*
X119988437Y-89468384D01*
X119860884Y-89595937D01*
X119764911Y-89748676D01*
X119705331Y-89918945D01*
X119705330Y-89918950D01*
X119693474Y-90024183D01*
X119666408Y-90088597D01*
X119608813Y-90128153D01*
X119570254Y-90134300D01*
X119280098Y-90134300D01*
X119213059Y-90114615D01*
X119192417Y-90097981D01*
X117812200Y-88717765D01*
X117778715Y-88656442D01*
X117776663Y-88643986D01*
X117766868Y-88557045D01*
X117707289Y-88386778D01*
X117611316Y-88234038D01*
X117483762Y-88106484D01*
X117406225Y-88057764D01*
X117331023Y-88010511D01*
X117160754Y-87950931D01*
X117160749Y-87950930D01*
X116981504Y-87930735D01*
X116981496Y-87930735D01*
X116802250Y-87950930D01*
X116802245Y-87950931D01*
X116631976Y-88010511D01*
X116479237Y-88106484D01*
X116351684Y-88234037D01*
X116255711Y-88386776D01*
X116196131Y-88557045D01*
X116196130Y-88557050D01*
X116175935Y-88736296D01*
X116175935Y-88736303D01*
X116196130Y-88915549D01*
X116196131Y-88915554D01*
X116255711Y-89085823D01*
X116282053Y-89127745D01*
X116351684Y-89238562D01*
X116479238Y-89366116D01*
X116631978Y-89462089D01*
X116802245Y-89521668D01*
X116889169Y-89531461D01*
X116953580Y-89558526D01*
X116962964Y-89566999D01*
X118611284Y-91215320D01*
X118748215Y-91294377D01*
X118900943Y-91335301D01*
X118900946Y-91335301D01*
X119066654Y-91335301D01*
X119066670Y-91335300D01*
X121183231Y-91335300D01*
X121183247Y-91335301D01*
X121190843Y-91335301D01*
X121348954Y-91335301D01*
X121348957Y-91335301D01*
X121501685Y-91294377D01*
X121551804Y-91265439D01*
X121592503Y-91241942D01*
X121660400Y-91225470D01*
X121726427Y-91248323D01*
X121769618Y-91303244D01*
X121778500Y-91349330D01*
X121778500Y-91377587D01*
X121758815Y-91444626D01*
X121751450Y-91454896D01*
X121749186Y-91457734D01*
X121653211Y-91610476D01*
X121593631Y-91780745D01*
X121593630Y-91780750D01*
X121573435Y-91959996D01*
X121573435Y-91960003D01*
X121593630Y-92139249D01*
X121593631Y-92139254D01*
X121653211Y-92309523D01*
X121663599Y-92326055D01*
X121749184Y-92462262D01*
X121876738Y-92589816D01*
X121967080Y-92646582D01*
X122013962Y-92676040D01*
X122029478Y-92685789D01*
X122172158Y-92735715D01*
X122199745Y-92745368D01*
X122199750Y-92745369D01*
X122378996Y-92765565D01*
X122379000Y-92765565D01*
X122379004Y-92765565D01*
X122558249Y-92745369D01*
X122558252Y-92745368D01*
X122558255Y-92745368D01*
X122728522Y-92685789D01*
X122881262Y-92589816D01*
X122882719Y-92588359D01*
X122883891Y-92587718D01*
X122886705Y-92585475D01*
X122887098Y-92585967D01*
X122944042Y-92554874D01*
X123013734Y-92559858D01*
X123069667Y-92601730D01*
X123094084Y-92667194D01*
X123094400Y-92676040D01*
X123094400Y-94351887D01*
X123074715Y-94418926D01*
X123067350Y-94429196D01*
X123065086Y-94432034D01*
X122969111Y-94584776D01*
X122909531Y-94755045D01*
X122909530Y-94755050D01*
X122889335Y-94934296D01*
X122889335Y-94934303D01*
X122909530Y-95113549D01*
X122909531Y-95113554D01*
X122969111Y-95283823D01*
X123029471Y-95379884D01*
X123065084Y-95436562D01*
X123192638Y-95564116D01*
X123345378Y-95660089D01*
X123515645Y-95719668D01*
X123515650Y-95719669D01*
X123694896Y-95739865D01*
X123694900Y-95739865D01*
X123694904Y-95739865D01*
X123874149Y-95719669D01*
X123874152Y-95719668D01*
X123874155Y-95719668D01*
X124044422Y-95660089D01*
X124197162Y-95564116D01*
X124324716Y-95436562D01*
X124420689Y-95283822D01*
X124480268Y-95113555D01*
X124480269Y-95113549D01*
X124500465Y-94934303D01*
X124500465Y-94934296D01*
X124480269Y-94755050D01*
X124480268Y-94755045D01*
X124462165Y-94703311D01*
X124420689Y-94584778D01*
X124324716Y-94432038D01*
X124324714Y-94432036D01*
X124324713Y-94432034D01*
X124322450Y-94429196D01*
X124321559Y-94427015D01*
X124321011Y-94426142D01*
X124321164Y-94426045D01*
X124296044Y-94364509D01*
X124295400Y-94351887D01*
X124295400Y-89613896D01*
X124315085Y-89546857D01*
X124331714Y-89526220D01*
X126567819Y-87290114D01*
X126629142Y-87256630D01*
X126698834Y-87261614D01*
X126754767Y-87303486D01*
X126779184Y-87368950D01*
X126779500Y-87377796D01*
X126779500Y-107801003D01*
X126759815Y-107868042D01*
X126707011Y-107913797D01*
X126637853Y-107923741D01*
X126574297Y-107894716D01*
X126567819Y-107888684D01*
X110766500Y-92087365D01*
X110733015Y-92026042D01*
X110730963Y-92013586D01*
X110721168Y-91926645D01*
X110661589Y-91756378D01*
X110565616Y-91603638D01*
X110438062Y-91476084D01*
X110404342Y-91454896D01*
X110285323Y-91380111D01*
X110115054Y-91320531D01*
X110115049Y-91320530D01*
X109935804Y-91300335D01*
X109935796Y-91300335D01*
X109756550Y-91320530D01*
X109756545Y-91320531D01*
X109586276Y-91380111D01*
X109433537Y-91476084D01*
X109305984Y-91603637D01*
X109210011Y-91756376D01*
X109150431Y-91926645D01*
X109150430Y-91926650D01*
X109130235Y-92105896D01*
X109130235Y-92105903D01*
X109150430Y-92285149D01*
X109150431Y-92285154D01*
X109210011Y-92455423D01*
X109305984Y-92608162D01*
X109433538Y-92735716D01*
X109586278Y-92831689D01*
X109756545Y-92891268D01*
X109843469Y-92901061D01*
X109907880Y-92928126D01*
X109917265Y-92936600D01*
X119472023Y-102491358D01*
X119505508Y-102552681D01*
X119500524Y-102622373D01*
X119489336Y-102645011D01*
X119396111Y-102793376D01*
X119336531Y-102963645D01*
X119336530Y-102963650D01*
X119316335Y-103142896D01*
X119316335Y-103142903D01*
X119336530Y-103322149D01*
X119336531Y-103322154D01*
X119396111Y-103492423D01*
X119402339Y-103502334D01*
X119492084Y-103645162D01*
X119619638Y-103772716D01*
X119772378Y-103868689D01*
X119942645Y-103928268D01*
X120029569Y-103938061D01*
X120093980Y-103965126D01*
X120103365Y-103973600D01*
X124672581Y-108542816D01*
X124706066Y-108604139D01*
X124708900Y-108630497D01*
X124708900Y-113415487D01*
X124689215Y-113482526D01*
X124681850Y-113492796D01*
X124679586Y-113495634D01*
X124583611Y-113648376D01*
X124524031Y-113818645D01*
X124524030Y-113818650D01*
X124503835Y-113997896D01*
X124503835Y-113997903D01*
X124524030Y-114177149D01*
X124524031Y-114177154D01*
X124583611Y-114347423D01*
X124614112Y-114395964D01*
X124679584Y-114500162D01*
X124807138Y-114627716D01*
X124959878Y-114723689D01*
X125130145Y-114783268D01*
X125130150Y-114783269D01*
X125309396Y-114803465D01*
X125309400Y-114803465D01*
X125309403Y-114803465D01*
X125479116Y-114784343D01*
X125547938Y-114796397D01*
X125599318Y-114843747D01*
X125617000Y-114907563D01*
X125617000Y-117477960D01*
X125597315Y-117544999D01*
X125544511Y-117590754D01*
X125475353Y-117600698D01*
X125427028Y-117582954D01*
X125276721Y-117488510D01*
X125106449Y-117428930D01*
X125019530Y-117419137D01*
X124955116Y-117392070D01*
X124945733Y-117383598D01*
X119074619Y-111512484D01*
X119041134Y-111451161D01*
X119038300Y-111424803D01*
X119038300Y-111322354D01*
X119057985Y-111255315D01*
X119110789Y-111209560D01*
X119179947Y-111199616D01*
X119203255Y-111205313D01*
X119329437Y-111249466D01*
X119329443Y-111249467D01*
X119329445Y-111249468D01*
X119329446Y-111249468D01*
X119329450Y-111249469D01*
X119508696Y-111269665D01*
X119508700Y-111269665D01*
X119508704Y-111269665D01*
X119687949Y-111249469D01*
X119687952Y-111249468D01*
X119687955Y-111249468D01*
X119858222Y-111189889D01*
X120010962Y-111093916D01*
X120138516Y-110966362D01*
X120234489Y-110813622D01*
X120294068Y-110643355D01*
X120297557Y-110612395D01*
X120314265Y-110464100D01*
X120314265Y-110464096D01*
X120294069Y-110284850D01*
X120294068Y-110284845D01*
X120269952Y-110215925D01*
X120234489Y-110114578D01*
X120208450Y-110073138D01*
X120182702Y-110032160D01*
X120138516Y-109961838D01*
X120138514Y-109961836D01*
X120138513Y-109961834D01*
X120136250Y-109958996D01*
X120135359Y-109956815D01*
X120134811Y-109955942D01*
X120134964Y-109955845D01*
X120109844Y-109894309D01*
X120109200Y-109881687D01*
X120109200Y-108495159D01*
X120109201Y-108495146D01*
X120109201Y-108327045D01*
X120109201Y-108327043D01*
X120068277Y-108174315D01*
X120031357Y-108110368D01*
X119989220Y-108037384D01*
X119877416Y-107925580D01*
X119877415Y-107925579D01*
X119873085Y-107921249D01*
X119873074Y-107921239D01*
X115231600Y-103279765D01*
X115198115Y-103218442D01*
X115196063Y-103205986D01*
X115186268Y-103119045D01*
X115126689Y-102948778D01*
X115030716Y-102796038D01*
X114903162Y-102668484D01*
X114865805Y-102645011D01*
X114750423Y-102572511D01*
X114580154Y-102512931D01*
X114580149Y-102512930D01*
X114400904Y-102492735D01*
X114400896Y-102492735D01*
X114221650Y-102512930D01*
X114221645Y-102512931D01*
X114051376Y-102572511D01*
X113898637Y-102668484D01*
X113771084Y-102796037D01*
X113675111Y-102948776D01*
X113615531Y-103119045D01*
X113615530Y-103119050D01*
X113595335Y-103298296D01*
X113595335Y-103298303D01*
X113615530Y-103477549D01*
X113615531Y-103477554D01*
X113675111Y-103647823D01*
X113753587Y-103772716D01*
X113771084Y-103800562D01*
X113898638Y-103928116D01*
X114051378Y-104024089D01*
X114221645Y-104083668D01*
X114308569Y-104093461D01*
X114372980Y-104120526D01*
X114382365Y-104129000D01*
X114587112Y-104333747D01*
X114620597Y-104395070D01*
X114615613Y-104464762D01*
X114587113Y-104509109D01*
X114486683Y-104609539D01*
X114390711Y-104762276D01*
X114331131Y-104932545D01*
X114331130Y-104932550D01*
X114310935Y-105111796D01*
X114310935Y-105111803D01*
X114331130Y-105291049D01*
X114331131Y-105291054D01*
X114390711Y-105461323D01*
X114483818Y-105609501D01*
X114486684Y-105614062D01*
X114614238Y-105741616D01*
X114766978Y-105837589D01*
X114937245Y-105897168D01*
X115024169Y-105906961D01*
X115088580Y-105934026D01*
X115097965Y-105942500D01*
X117184600Y-108029136D01*
X117218085Y-108090459D01*
X117213101Y-108160151D01*
X117171229Y-108216084D01*
X117110804Y-108240037D01*
X117040749Y-108247931D01*
X117040745Y-108247931D01*
X116870476Y-108307511D01*
X116717736Y-108403485D01*
X116688706Y-108432514D01*
X116627382Y-108465997D01*
X116557690Y-108461010D01*
X116513346Y-108432511D01*
X113437300Y-105356465D01*
X113403815Y-105295142D01*
X113401763Y-105282686D01*
X113391968Y-105195745D01*
X113332389Y-105025478D01*
X113236416Y-104872738D01*
X113108862Y-104745184D01*
X113100583Y-104739982D01*
X112956123Y-104649211D01*
X112785854Y-104589631D01*
X112785849Y-104589630D01*
X112606604Y-104569435D01*
X112606596Y-104569435D01*
X112427350Y-104589630D01*
X112427345Y-104589631D01*
X112257076Y-104649211D01*
X112104337Y-104745184D01*
X111976784Y-104872737D01*
X111880811Y-105025476D01*
X111821231Y-105195745D01*
X111821230Y-105195750D01*
X111801035Y-105374996D01*
X111801035Y-105375003D01*
X111821230Y-105554249D01*
X111821231Y-105554254D01*
X111880811Y-105724523D01*
X111925194Y-105795157D01*
X111976784Y-105877262D01*
X112104338Y-106004816D01*
X112257078Y-106100789D01*
X112427345Y-106160368D01*
X112514269Y-106170161D01*
X112578680Y-106197226D01*
X112588065Y-106205700D01*
X115974581Y-109592216D01*
X116008066Y-109653539D01*
X116010900Y-109679897D01*
X116010900Y-110609087D01*
X115991215Y-110676126D01*
X115983850Y-110686396D01*
X115981586Y-110689234D01*
X115885611Y-110841976D01*
X115826031Y-111012245D01*
X115826030Y-111012250D01*
X115805835Y-111191496D01*
X115805835Y-111191503D01*
X115826030Y-111370749D01*
X115826031Y-111370754D01*
X115885611Y-111541023D01*
X115967733Y-111671718D01*
X115981584Y-111693762D01*
X116109138Y-111821316D01*
X116261878Y-111917289D01*
X116375580Y-111957075D01*
X116432145Y-111976868D01*
X116432150Y-111976869D01*
X116509383Y-111985571D01*
X116573797Y-112012637D01*
X116613352Y-112070232D01*
X116619500Y-112108791D01*
X116619500Y-119710908D01*
X116599815Y-119777947D01*
X116547914Y-119823286D01*
X116542173Y-119825963D01*
X116542169Y-119825965D01*
X116348597Y-119961505D01*
X116181505Y-120128597D01*
X116051575Y-120314158D01*
X115996998Y-120357783D01*
X115927500Y-120364977D01*
X115865145Y-120333454D01*
X115848425Y-120314158D01*
X115718494Y-120128597D01*
X115551402Y-119961506D01*
X115551395Y-119961501D01*
X115357831Y-119825965D01*
X115357826Y-119825962D01*
X115352091Y-119823288D01*
X115299653Y-119777113D01*
X115280500Y-119710908D01*
X115280500Y-110559612D01*
X115300185Y-110492573D01*
X115307555Y-110482297D01*
X115309810Y-110479467D01*
X115309816Y-110479462D01*
X115405789Y-110326722D01*
X115465368Y-110156455D01*
X115466389Y-110147393D01*
X115485565Y-109977203D01*
X115485565Y-109977196D01*
X115465369Y-109797950D01*
X115465368Y-109797945D01*
X115422412Y-109675184D01*
X115405789Y-109627678D01*
X115309816Y-109474938D01*
X115182262Y-109347384D01*
X115118647Y-109307412D01*
X115029523Y-109251411D01*
X114859254Y-109191831D01*
X114859249Y-109191830D01*
X114680004Y-109171635D01*
X114679996Y-109171635D01*
X114500750Y-109191830D01*
X114500745Y-109191831D01*
X114330476Y-109251411D01*
X114177737Y-109347384D01*
X114050184Y-109474937D01*
X113954211Y-109627676D01*
X113894631Y-109797945D01*
X113894630Y-109797950D01*
X113874435Y-109977196D01*
X113874435Y-109977203D01*
X113894630Y-110156449D01*
X113894631Y-110156454D01*
X113954211Y-110326723D01*
X114013520Y-110421112D01*
X114040531Y-110464100D01*
X114050185Y-110479463D01*
X114052445Y-110482297D01*
X114053334Y-110484475D01*
X114053889Y-110485358D01*
X114053734Y-110485455D01*
X114078855Y-110546983D01*
X114079500Y-110559612D01*
X114079500Y-119710908D01*
X114059815Y-119777947D01*
X114007914Y-119823286D01*
X114002173Y-119825963D01*
X114002169Y-119825965D01*
X113808597Y-119961505D01*
X113641505Y-120128597D01*
X113511575Y-120314158D01*
X113456998Y-120357783D01*
X113387500Y-120364977D01*
X113325145Y-120333454D01*
X113308425Y-120314158D01*
X113178494Y-120128597D01*
X113011402Y-119961506D01*
X113011395Y-119961501D01*
X112817831Y-119825965D01*
X112817826Y-119825962D01*
X112812091Y-119823288D01*
X112759653Y-119777113D01*
X112740500Y-119710908D01*
X112740500Y-110685245D01*
X112740500Y-110685243D01*
X112725238Y-110628284D01*
X112699577Y-110532515D01*
X112660077Y-110464100D01*
X112660077Y-110464098D01*
X112620524Y-110395590D01*
X112620521Y-110395586D01*
X112620520Y-110395584D01*
X112508716Y-110283780D01*
X112508715Y-110283779D01*
X112504385Y-110279449D01*
X112504374Y-110279439D01*
X110831400Y-108606465D01*
X110797915Y-108545142D01*
X110795863Y-108532686D01*
X110786068Y-108445745D01*
X110726489Y-108275478D01*
X110630516Y-108122738D01*
X110502962Y-107995184D01*
X110350223Y-107899211D01*
X110192672Y-107844082D01*
X110135896Y-107803360D01*
X110110149Y-107738407D01*
X110120404Y-107681590D01*
X110118989Y-107681095D01*
X110180868Y-107504254D01*
X110180869Y-107504249D01*
X110201065Y-107325003D01*
X110201065Y-107324996D01*
X110180869Y-107145750D01*
X110180868Y-107145745D01*
X110180515Y-107144735D01*
X110121289Y-106975478D01*
X110025316Y-106822738D01*
X109897762Y-106695184D01*
X109865644Y-106675003D01*
X109745023Y-106599211D01*
X109574754Y-106539631D01*
X109574749Y-106539630D01*
X109395504Y-106519435D01*
X109395496Y-106519435D01*
X109216250Y-106539630D01*
X109216245Y-106539631D01*
X109045976Y-106599211D01*
X108968372Y-106647974D01*
X108901135Y-106666974D01*
X108834300Y-106646606D01*
X108789086Y-106593339D01*
X108778400Y-106542980D01*
X108778400Y-106234959D01*
X108778401Y-106234946D01*
X108778401Y-106066845D01*
X108778401Y-106066843D01*
X108737477Y-105914115D01*
X108708539Y-105863995D01*
X108658420Y-105777184D01*
X108546616Y-105665380D01*
X108546615Y-105665379D01*
X108542285Y-105661049D01*
X108542274Y-105661039D01*
X107709000Y-104827765D01*
X107675515Y-104766442D01*
X107673463Y-104753986D01*
X107663668Y-104667045D01*
X107604089Y-104496778D01*
X107508116Y-104344038D01*
X107380562Y-104216484D01*
X107227823Y-104120511D01*
X107057554Y-104060931D01*
X107057549Y-104060930D01*
X106878304Y-104040735D01*
X106878296Y-104040735D01*
X106699050Y-104060930D01*
X106699045Y-104060931D01*
X106528776Y-104120511D01*
X106376037Y-104216484D01*
X106248484Y-104344037D01*
X106152511Y-104496776D01*
X106092931Y-104667045D01*
X106092930Y-104667050D01*
X106072735Y-104846296D01*
X106072735Y-104846303D01*
X106092930Y-105025549D01*
X106092931Y-105025554D01*
X106152511Y-105195823D01*
X106212346Y-105291049D01*
X106248484Y-105348562D01*
X106376038Y-105476116D01*
X106528778Y-105572089D01*
X106635692Y-105609500D01*
X106699048Y-105631669D01*
X106751230Y-105637548D01*
X106815645Y-105664614D01*
X106855200Y-105722208D01*
X106857339Y-105792045D01*
X106821381Y-105851952D01*
X106758743Y-105882908D01*
X106751232Y-105883988D01*
X106701149Y-105889630D01*
X106701145Y-105889631D01*
X106530876Y-105949211D01*
X106378137Y-106045184D01*
X106250584Y-106172737D01*
X106154611Y-106325476D01*
X106095031Y-106495745D01*
X106095030Y-106495750D01*
X106074835Y-106674996D01*
X106074835Y-106675003D01*
X106095030Y-106854249D01*
X106095031Y-106854254D01*
X106154611Y-107024523D01*
X106250584Y-107177262D01*
X106378138Y-107304816D01*
X106530878Y-107400789D01*
X106701145Y-107460368D01*
X106788069Y-107470161D01*
X106852480Y-107497226D01*
X106861865Y-107505700D01*
X107139381Y-107783216D01*
X107172866Y-107844539D01*
X107175700Y-107870897D01*
X107175700Y-124153887D01*
X107156015Y-124220926D01*
X107148650Y-124231196D01*
X107146386Y-124234034D01*
X107050411Y-124386776D01*
X106990831Y-124557045D01*
X106990830Y-124557050D01*
X106970635Y-124736296D01*
X106970635Y-124736303D01*
X106990830Y-124915549D01*
X106990831Y-124915554D01*
X107050411Y-125085823D01*
X107146384Y-125238562D01*
X107195641Y-125287819D01*
X107229126Y-125349142D01*
X107224142Y-125418834D01*
X107182270Y-125474767D01*
X107116806Y-125499184D01*
X107107960Y-125499500D01*
X96004428Y-125499500D01*
X95995582Y-125499184D01*
X95973622Y-125497613D01*
X95795442Y-125484869D01*
X95777931Y-125482351D01*
X95586212Y-125440646D01*
X95569236Y-125435662D01*
X95385390Y-125367090D01*
X95369298Y-125359740D01*
X95281987Y-125312065D01*
X95240974Y-125275949D01*
X94753871Y-124603117D01*
X94549887Y-124321354D01*
X94529162Y-124274997D01*
X94517648Y-124222067D01*
X94515130Y-124204555D01*
X94514867Y-124200884D01*
X94500816Y-124004418D01*
X94500500Y-123995572D01*
X94500500Y-79583498D01*
X95819365Y-79583498D01*
X95819365Y-79583501D01*
X95839779Y-79868933D01*
X95900603Y-80148537D01*
X95900605Y-80148543D01*
X95900606Y-80148546D01*
X95979426Y-80359869D01*
X96000610Y-80416666D01*
X96137745Y-80667809D01*
X96137750Y-80667817D01*
X96309229Y-80896887D01*
X96309245Y-80896905D01*
X96511569Y-81099229D01*
X96511587Y-81099245D01*
X96740657Y-81270724D01*
X96740665Y-81270729D01*
X96991808Y-81407864D01*
X96991807Y-81407864D01*
X96991811Y-81407865D01*
X96991814Y-81407867D01*
X97259929Y-81507869D01*
X97259935Y-81507870D01*
X97259937Y-81507871D01*
X97539541Y-81568695D01*
X97539543Y-81568695D01*
X97539547Y-81568696D01*
X97793195Y-81586837D01*
X97824974Y-81589110D01*
X97824975Y-81589110D01*
X97824976Y-81589110D01*
X97853570Y-81587064D01*
X98110403Y-81568696D01*
X98300717Y-81527296D01*
X98390012Y-81507871D01*
X98390012Y-81507870D01*
X98390021Y-81507869D01*
X98658136Y-81407867D01*
X98909290Y-81270726D01*
X99138370Y-81099239D01*
X99340714Y-80896895D01*
X99512201Y-80667815D01*
X99649342Y-80416661D01*
X99749344Y-80148546D01*
X99764350Y-80079565D01*
X99810170Y-79868933D01*
X99810170Y-79868932D01*
X99810171Y-79868928D01*
X99830585Y-79583500D01*
X99830585Y-79583498D01*
X100519390Y-79583498D01*
X100519390Y-79583501D01*
X100539804Y-79868933D01*
X100600628Y-80148537D01*
X100600630Y-80148543D01*
X100600631Y-80148546D01*
X100679451Y-80359869D01*
X100700635Y-80416666D01*
X100837770Y-80667809D01*
X100837775Y-80667817D01*
X101009254Y-80896887D01*
X101009270Y-80896905D01*
X101211594Y-81099229D01*
X101211612Y-81099245D01*
X101440682Y-81270724D01*
X101440690Y-81270729D01*
X101691833Y-81407864D01*
X101691837Y-81407866D01*
X101691839Y-81407867D01*
X101843835Y-81464558D01*
X101899767Y-81506428D01*
X101924184Y-81571892D01*
X101924500Y-81580739D01*
X101924500Y-113437587D01*
X101904815Y-113504626D01*
X101897450Y-113514896D01*
X101895186Y-113517734D01*
X101799211Y-113670476D01*
X101739631Y-113840745D01*
X101739630Y-113840750D01*
X101719435Y-114019996D01*
X101719435Y-114020003D01*
X101739630Y-114199249D01*
X101739631Y-114199254D01*
X101799211Y-114369523D01*
X101825720Y-114411711D01*
X101895184Y-114522262D01*
X102022738Y-114649816D01*
X102113080Y-114706582D01*
X102163651Y-114738358D01*
X102175478Y-114745789D01*
X102282587Y-114783268D01*
X102345745Y-114805368D01*
X102345750Y-114805369D01*
X102524996Y-114825565D01*
X102525000Y-114825565D01*
X102525004Y-114825565D01*
X102704249Y-114805369D01*
X102704252Y-114805368D01*
X102704255Y-114805368D01*
X102874522Y-114745789D01*
X103027262Y-114649816D01*
X103154816Y-114522262D01*
X103250789Y-114369522D01*
X103310368Y-114199255D01*
X103312859Y-114177149D01*
X103330565Y-114020003D01*
X103330565Y-114019996D01*
X103310369Y-113840750D01*
X103310368Y-113840745D01*
X103302635Y-113818645D01*
X103250789Y-113670478D01*
X103236901Y-113648376D01*
X103204771Y-113597241D01*
X103154816Y-113517738D01*
X103154814Y-113517736D01*
X103154813Y-113517734D01*
X103152550Y-113514896D01*
X103151659Y-113512715D01*
X103151111Y-113511842D01*
X103151264Y-113511745D01*
X103126144Y-113450209D01*
X103125500Y-113437587D01*
X103125500Y-81580739D01*
X103145185Y-81513700D01*
X103197989Y-81467945D01*
X103206147Y-81464564D01*
X103358161Y-81407867D01*
X103609315Y-81270726D01*
X103838395Y-81099239D01*
X104040739Y-80896895D01*
X104212226Y-80667815D01*
X104349367Y-80416661D01*
X104449369Y-80148546D01*
X104464375Y-80079565D01*
X104510195Y-79868933D01*
X104510195Y-79868932D01*
X104510196Y-79868928D01*
X104530610Y-79583500D01*
X104510196Y-79298072D01*
X104504959Y-79274000D01*
X104449371Y-79018462D01*
X104449370Y-79018460D01*
X104449369Y-79018454D01*
X104349367Y-78750339D01*
X104314226Y-78685984D01*
X104212229Y-78499190D01*
X104212224Y-78499182D01*
X104040745Y-78270112D01*
X104040729Y-78270094D01*
X103838405Y-78067770D01*
X103838387Y-78067754D01*
X103795481Y-78035635D01*
X105474525Y-78035635D01*
X105474525Y-81131370D01*
X105474526Y-81131376D01*
X105480933Y-81190983D01*
X105531227Y-81325828D01*
X105531231Y-81325835D01*
X105617477Y-81441044D01*
X105617480Y-81441047D01*
X105732689Y-81527293D01*
X105732696Y-81527297D01*
X105867542Y-81577591D01*
X105867541Y-81577591D01*
X105874469Y-81578335D01*
X105927152Y-81584000D01*
X108522897Y-81583999D01*
X108582508Y-81577591D01*
X108717356Y-81527296D01*
X108832571Y-81441046D01*
X108918821Y-81325831D01*
X108969116Y-81190983D01*
X108975525Y-81131373D01*
X108975525Y-80308000D01*
X108995210Y-80240961D01*
X109048014Y-80195206D01*
X109099525Y-80184000D01*
X116250631Y-80184000D01*
X116250647Y-80184001D01*
X116258243Y-80184001D01*
X116416354Y-80184001D01*
X116416357Y-80184001D01*
X116569085Y-80143077D01*
X116641673Y-80101168D01*
X116706016Y-80064020D01*
X116817820Y-79952216D01*
X116817820Y-79952214D01*
X116828024Y-79942011D01*
X116828028Y-79942006D01*
X118099835Y-78670198D01*
X118161156Y-78636715D01*
X118173611Y-78634663D01*
X118260555Y-78624868D01*
X118430822Y-78565289D01*
X118583562Y-78469316D01*
X118711116Y-78341762D01*
X118807089Y-78189022D01*
X118866668Y-78018755D01*
X118866669Y-78018749D01*
X118886865Y-77839503D01*
X118886865Y-77839496D01*
X118866669Y-77660250D01*
X118866668Y-77660245D01*
X118836276Y-77573389D01*
X118807089Y-77489978D01*
X118793414Y-77468215D01*
X118711115Y-77337237D01*
X118583562Y-77209684D01*
X118430823Y-77113711D01*
X118260554Y-77054131D01*
X118260549Y-77054130D01*
X118081304Y-77033935D01*
X118081296Y-77033935D01*
X117902050Y-77054130D01*
X117902045Y-77054131D01*
X117731776Y-77113711D01*
X117579037Y-77209684D01*
X117451484Y-77337237D01*
X117355510Y-77489978D01*
X117295930Y-77660250D01*
X117286137Y-77747168D01*
X117259070Y-77811582D01*
X117250598Y-77820965D01*
X116124884Y-78946681D01*
X116063561Y-78980166D01*
X116037203Y-78983000D01*
X109099524Y-78983000D01*
X109032485Y-78963315D01*
X108986730Y-78910511D01*
X108975524Y-78859000D01*
X108975524Y-78035629D01*
X108975523Y-78035623D01*
X108975522Y-78035616D01*
X108969116Y-77976017D01*
X108958419Y-77947338D01*
X108918822Y-77841171D01*
X108918818Y-77841164D01*
X108832572Y-77725955D01*
X108832569Y-77725952D01*
X108717360Y-77639706D01*
X108717353Y-77639702D01*
X108582507Y-77589408D01*
X108582508Y-77589408D01*
X108522908Y-77583001D01*
X108522906Y-77583000D01*
X108522898Y-77583000D01*
X108522889Y-77583000D01*
X105927154Y-77583000D01*
X105927148Y-77583001D01*
X105867541Y-77589408D01*
X105732696Y-77639702D01*
X105732689Y-77639706D01*
X105617480Y-77725952D01*
X105617477Y-77725955D01*
X105531231Y-77841164D01*
X105531227Y-77841171D01*
X105480933Y-77976017D01*
X105476339Y-78018754D01*
X105474526Y-78035623D01*
X105474525Y-78035635D01*
X103795481Y-78035635D01*
X103609317Y-77896275D01*
X103609309Y-77896270D01*
X103358166Y-77759135D01*
X103358167Y-77759135D01*
X103191402Y-77696935D01*
X103090046Y-77659131D01*
X103090043Y-77659130D01*
X103090037Y-77659128D01*
X102810433Y-77598304D01*
X102525001Y-77577890D01*
X102524999Y-77577890D01*
X102239566Y-77598304D01*
X101959962Y-77659128D01*
X101691833Y-77759135D01*
X101440690Y-77896270D01*
X101440682Y-77896275D01*
X101211612Y-78067754D01*
X101211594Y-78067770D01*
X101009270Y-78270094D01*
X101009254Y-78270112D01*
X100837775Y-78499182D01*
X100837770Y-78499190D01*
X100700635Y-78750333D01*
X100600628Y-79018462D01*
X100539804Y-79298066D01*
X100519390Y-79583498D01*
X99830585Y-79583498D01*
X99810171Y-79298072D01*
X99804934Y-79274000D01*
X99749346Y-79018462D01*
X99749345Y-79018460D01*
X99749344Y-79018454D01*
X99649342Y-78750339D01*
X99614201Y-78685984D01*
X99512204Y-78499190D01*
X99512199Y-78499182D01*
X99340720Y-78270112D01*
X99340704Y-78270094D01*
X99138380Y-78067770D01*
X99138362Y-78067754D01*
X98909292Y-77896275D01*
X98909284Y-77896270D01*
X98658141Y-77759135D01*
X98658142Y-77759135D01*
X98491377Y-77696935D01*
X98390021Y-77659131D01*
X98390018Y-77659130D01*
X98390012Y-77659128D01*
X98110408Y-77598304D01*
X97824976Y-77577890D01*
X97824974Y-77577890D01*
X97539541Y-77598304D01*
X97259937Y-77659128D01*
X96991808Y-77759135D01*
X96740665Y-77896270D01*
X96740657Y-77896275D01*
X96511587Y-78067754D01*
X96511569Y-78067770D01*
X96309245Y-78270094D01*
X96309229Y-78270112D01*
X96137750Y-78499182D01*
X96137745Y-78499190D01*
X96000610Y-78750333D01*
X95900603Y-79018462D01*
X95839779Y-79298066D01*
X95819365Y-79583498D01*
X94500500Y-79583498D01*
X94500500Y-70506379D01*
X127974500Y-70506379D01*
X127974500Y-71493620D01*
X128011025Y-71677243D01*
X128011027Y-71677251D01*
X128082676Y-71850228D01*
X128082681Y-71850237D01*
X128186697Y-72005907D01*
X128186700Y-72005911D01*
X128319088Y-72138299D01*
X128319092Y-72138302D01*
X128474762Y-72242318D01*
X128474768Y-72242321D01*
X128474769Y-72242322D01*
X128647749Y-72313973D01*
X128831379Y-72350499D01*
X128831383Y-72350500D01*
X128831384Y-72350500D01*
X129018617Y-72350500D01*
X129018618Y-72350499D01*
X129202251Y-72313973D01*
X129375231Y-72242322D01*
X129530908Y-72138302D01*
X129663302Y-72005908D01*
X129767322Y-71850231D01*
X129838973Y-71677251D01*
X129875500Y-71493616D01*
X129875500Y-70506384D01*
X129875499Y-70506379D01*
X136624500Y-70506379D01*
X136624500Y-71493620D01*
X136661025Y-71677243D01*
X136661027Y-71677251D01*
X136732676Y-71850228D01*
X136732681Y-71850237D01*
X136836697Y-72005907D01*
X136836700Y-72005911D01*
X136969088Y-72138299D01*
X136969092Y-72138302D01*
X137124762Y-72242318D01*
X137124768Y-72242321D01*
X137124769Y-72242322D01*
X137297749Y-72313973D01*
X137481379Y-72350499D01*
X137481383Y-72350500D01*
X137481384Y-72350500D01*
X137668617Y-72350500D01*
X137668618Y-72350499D01*
X137852251Y-72313973D01*
X138025231Y-72242322D01*
X138180908Y-72138302D01*
X138313302Y-72005908D01*
X138417322Y-71850231D01*
X138488973Y-71677251D01*
X138525500Y-71493616D01*
X138525500Y-70506384D01*
X138488973Y-70322749D01*
X138417322Y-70149769D01*
X138417321Y-70149768D01*
X138417318Y-70149762D01*
X138313302Y-69994092D01*
X138313299Y-69994088D01*
X138180911Y-69861700D01*
X138180907Y-69861697D01*
X138025237Y-69757681D01*
X138025228Y-69757676D01*
X137852251Y-69686027D01*
X137852243Y-69686025D01*
X137668620Y-69649500D01*
X137668616Y-69649500D01*
X137481384Y-69649500D01*
X137481379Y-69649500D01*
X137297756Y-69686025D01*
X137297748Y-69686027D01*
X137124771Y-69757676D01*
X137124762Y-69757681D01*
X136969092Y-69861697D01*
X136969088Y-69861700D01*
X136836700Y-69994088D01*
X136836697Y-69994092D01*
X136732681Y-70149762D01*
X136732676Y-70149771D01*
X136661027Y-70322748D01*
X136661025Y-70322756D01*
X136624500Y-70506379D01*
X129875499Y-70506379D01*
X129838973Y-70322749D01*
X129767322Y-70149769D01*
X129767321Y-70149768D01*
X129767318Y-70149762D01*
X129663302Y-69994092D01*
X129663299Y-69994088D01*
X129530911Y-69861700D01*
X129530907Y-69861697D01*
X129375237Y-69757681D01*
X129375228Y-69757676D01*
X129202251Y-69686027D01*
X129202243Y-69686025D01*
X129018620Y-69649500D01*
X129018616Y-69649500D01*
X128831384Y-69649500D01*
X128831379Y-69649500D01*
X128647756Y-69686025D01*
X128647748Y-69686027D01*
X128474771Y-69757676D01*
X128474762Y-69757681D01*
X128319092Y-69861697D01*
X128319088Y-69861700D01*
X128186700Y-69994088D01*
X128186697Y-69994092D01*
X128082681Y-70149762D01*
X128082676Y-70149771D01*
X128011027Y-70322748D01*
X128011025Y-70322756D01*
X127974500Y-70506379D01*
X94500500Y-70506379D01*
X94500500Y-70132880D01*
X94504588Y-70101303D01*
X94504980Y-70099810D01*
X94513641Y-70066926D01*
X94512643Y-69835182D01*
X94512956Y-69825832D01*
X94513693Y-69815525D01*
X94538106Y-69750065D01*
X94555635Y-69731128D01*
X95924734Y-68531243D01*
X95988124Y-68501863D01*
X96006461Y-68500500D01*
X96065892Y-68500500D01*
X154953294Y-68500500D01*
X155014738Y-68516794D01*
G37*
%TD.AperFunction*%
%TA.AperFunction,Conductor*%
G36*
X135250000Y-124870633D02*
G01*
X135463483Y-124813433D01*
X135463492Y-124813429D01*
X135677578Y-124713600D01*
X135871078Y-124578109D01*
X135881042Y-124568145D01*
X135942364Y-124534658D01*
X136012055Y-124539640D01*
X136056407Y-124568142D01*
X136588939Y-125100674D01*
X136588949Y-125100685D01*
X136593279Y-125105015D01*
X136593280Y-125105016D01*
X136705084Y-125216820D01*
X136791895Y-125266939D01*
X136791894Y-125266939D01*
X136793921Y-125268109D01*
X136842140Y-125318673D01*
X136855367Y-125387279D01*
X136829404Y-125452145D01*
X136772492Y-125492677D01*
X136731928Y-125499500D01*
X128282436Y-125499500D01*
X128215397Y-125479815D01*
X128169642Y-125427011D01*
X128159698Y-125357853D01*
X128188723Y-125294297D01*
X128220437Y-125268113D01*
X128267009Y-125241224D01*
X128267008Y-125241224D01*
X128267016Y-125241220D01*
X128378820Y-125129416D01*
X128378820Y-125129414D01*
X128389024Y-125119211D01*
X128389028Y-125119206D01*
X128905118Y-124603115D01*
X128966439Y-124569632D01*
X129036131Y-124574616D01*
X129063917Y-124589221D01*
X129242170Y-124714035D01*
X129456337Y-124813903D01*
X129684592Y-124875063D01*
X129861034Y-124890500D01*
X129919999Y-124895659D01*
X129920000Y-124895659D01*
X129920001Y-124895659D01*
X129978966Y-124890500D01*
X130155408Y-124875063D01*
X130383663Y-124813903D01*
X130597830Y-124714035D01*
X130791401Y-124578495D01*
X130958495Y-124411401D01*
X131088425Y-124225842D01*
X131143002Y-124182217D01*
X131212500Y-124175023D01*
X131274855Y-124206546D01*
X131291575Y-124225842D01*
X131421281Y-124411082D01*
X131421505Y-124411401D01*
X131588599Y-124578495D01*
X131685384Y-124646265D01*
X131782165Y-124714032D01*
X131782167Y-124714033D01*
X131782170Y-124714035D01*
X131996337Y-124813903D01*
X132224592Y-124875063D01*
X132401034Y-124890500D01*
X132459999Y-124895659D01*
X132460000Y-124895659D01*
X132460001Y-124895659D01*
X132518966Y-124890500D01*
X132695408Y-124875063D01*
X132923663Y-124813903D01*
X133137830Y-124714035D01*
X133331401Y-124578495D01*
X133498495Y-124411401D01*
X133628730Y-124225405D01*
X133683307Y-124181781D01*
X133752805Y-124174587D01*
X133815160Y-124206110D01*
X133831879Y-124225405D01*
X133961890Y-124411078D01*
X134128917Y-124578105D01*
X134322421Y-124713600D01*
X134536507Y-124813429D01*
X134536516Y-124813433D01*
X134750000Y-124870634D01*
X134750000Y-123973012D01*
X134807007Y-124005925D01*
X134934174Y-124040000D01*
X135065826Y-124040000D01*
X135192993Y-124005925D01*
X135250000Y-123973012D01*
X135250000Y-124870633D01*
G37*
%TD.AperFunction*%
%TA.AperFunction,Conductor*%
G36*
X140330000Y-124870633D02*
G01*
X140543483Y-124813433D01*
X140543492Y-124813429D01*
X140757578Y-124713600D01*
X140951082Y-124578105D01*
X141118105Y-124411082D01*
X141248119Y-124225405D01*
X141302696Y-124181781D01*
X141372195Y-124174588D01*
X141434549Y-124206110D01*
X141451269Y-124225405D01*
X141581505Y-124411401D01*
X141748599Y-124578495D01*
X141845384Y-124646265D01*
X141942165Y-124714032D01*
X141942167Y-124714033D01*
X141942170Y-124714035D01*
X142156337Y-124813903D01*
X142384592Y-124875063D01*
X142561034Y-124890500D01*
X142619999Y-124895659D01*
X142620000Y-124895659D01*
X142620001Y-124895659D01*
X142678966Y-124890500D01*
X142855408Y-124875063D01*
X143083663Y-124813903D01*
X143297830Y-124714035D01*
X143491401Y-124578495D01*
X143658495Y-124411401D01*
X143788425Y-124225842D01*
X143843002Y-124182217D01*
X143912500Y-124175023D01*
X143974855Y-124206546D01*
X143991575Y-124225842D01*
X144121281Y-124411082D01*
X144121505Y-124411401D01*
X144288599Y-124578495D01*
X144385384Y-124646265D01*
X144482165Y-124714032D01*
X144482167Y-124714033D01*
X144482170Y-124714035D01*
X144696337Y-124813903D01*
X144924592Y-124875063D01*
X145101034Y-124890500D01*
X145159999Y-124895659D01*
X145160000Y-124895659D01*
X145160001Y-124895659D01*
X145218966Y-124890500D01*
X145395408Y-124875063D01*
X145623663Y-124813903D01*
X145837830Y-124714035D01*
X146031401Y-124578495D01*
X146198495Y-124411401D01*
X146328425Y-124225842D01*
X146383002Y-124182217D01*
X146452500Y-124175023D01*
X146514855Y-124206546D01*
X146531575Y-124225842D01*
X146661281Y-124411082D01*
X146661505Y-124411401D01*
X146828599Y-124578495D01*
X146925384Y-124646265D01*
X147022165Y-124714032D01*
X147022167Y-124714033D01*
X147022170Y-124714035D01*
X147236337Y-124813903D01*
X147464592Y-124875063D01*
X147641034Y-124890500D01*
X147699999Y-124895659D01*
X147700000Y-124895659D01*
X147700001Y-124895659D01*
X147758966Y-124890500D01*
X147935408Y-124875063D01*
X148163663Y-124813903D01*
X148377830Y-124714035D01*
X148571401Y-124578495D01*
X148738495Y-124411401D01*
X148868425Y-124225842D01*
X148923002Y-124182217D01*
X148992500Y-124175023D01*
X149054855Y-124206546D01*
X149071575Y-124225842D01*
X149201281Y-124411082D01*
X149201505Y-124411401D01*
X149368599Y-124578495D01*
X149465384Y-124646265D01*
X149562165Y-124714032D01*
X149562167Y-124714033D01*
X149562170Y-124714035D01*
X149776337Y-124813903D01*
X150004592Y-124875063D01*
X150181034Y-124890500D01*
X150239999Y-124895659D01*
X150240000Y-124895659D01*
X150240001Y-124895659D01*
X150298966Y-124890500D01*
X150475408Y-124875063D01*
X150562652Y-124851686D01*
X150632500Y-124853349D01*
X150690363Y-124892511D01*
X150717867Y-124956740D01*
X150706281Y-125025642D01*
X150699739Y-125037431D01*
X150683311Y-125063575D01*
X150623731Y-125233845D01*
X150623730Y-125233850D01*
X150606207Y-125389383D01*
X150579141Y-125453797D01*
X150521546Y-125493352D01*
X150482987Y-125499500D01*
X138384670Y-125499500D01*
X138317631Y-125479815D01*
X138271876Y-125427011D01*
X138261932Y-125357853D01*
X138290957Y-125294297D01*
X138322675Y-125268110D01*
X138324704Y-125266939D01*
X138411516Y-125216820D01*
X138523320Y-125105016D01*
X138523320Y-125105014D01*
X138533528Y-125094807D01*
X138533529Y-125094804D01*
X139042291Y-124586044D01*
X139103609Y-124552562D01*
X139173301Y-124557546D01*
X139204132Y-124575512D01*
X139204488Y-124575004D01*
X139402421Y-124713600D01*
X139616507Y-124813429D01*
X139616516Y-124813433D01*
X139830000Y-124870634D01*
X139830000Y-123973012D01*
X139887007Y-124005925D01*
X140014174Y-124040000D01*
X140145826Y-124040000D01*
X140272993Y-124005925D01*
X140330000Y-123973012D01*
X140330000Y-124870633D01*
G37*
%TD.AperFunction*%
%TA.AperFunction,Conductor*%
G36*
X133874503Y-75362484D02*
G01*
X133880978Y-75368513D01*
X134891496Y-76379032D01*
X134924980Y-76440353D01*
X134920856Y-76507666D01*
X134864631Y-76668345D01*
X134864630Y-76668350D01*
X134844435Y-76847596D01*
X134844435Y-76847603D01*
X134864630Y-77026849D01*
X134864631Y-77026854D01*
X134924211Y-77197123D01*
X134932104Y-77209684D01*
X135020184Y-77349862D01*
X135147738Y-77477416D01*
X135300478Y-77573389D01*
X135470745Y-77632968D01*
X135557669Y-77642761D01*
X135622080Y-77669826D01*
X135631465Y-77678300D01*
X136903181Y-78950016D01*
X136936666Y-79011339D01*
X136939500Y-79037697D01*
X136939500Y-86488679D01*
X136919815Y-86555718D01*
X136867011Y-86601473D01*
X136829384Y-86611899D01*
X136754549Y-86620330D01*
X136754545Y-86620331D01*
X136584276Y-86679911D01*
X136431537Y-86775884D01*
X136303984Y-86903437D01*
X136208010Y-87056178D01*
X136148430Y-87226450D01*
X136138637Y-87313367D01*
X136111570Y-87377781D01*
X136103098Y-87387164D01*
X132869686Y-90620578D01*
X132757881Y-90732382D01*
X132757875Y-90732390D01*
X132717226Y-90802798D01*
X132717226Y-90802800D01*
X132678823Y-90869314D01*
X132678823Y-90869315D01*
X132637899Y-91022043D01*
X132637899Y-91022045D01*
X132637899Y-91190146D01*
X132637900Y-91190159D01*
X132637900Y-108654587D01*
X132618215Y-108721626D01*
X132610850Y-108731896D01*
X132608586Y-108734734D01*
X132512611Y-108887476D01*
X132453031Y-109057745D01*
X132453030Y-109057750D01*
X132432835Y-109236996D01*
X132432835Y-109237003D01*
X132453030Y-109416249D01*
X132453031Y-109416254D01*
X132512611Y-109586523D01*
X132568321Y-109675184D01*
X132608584Y-109739262D01*
X132736138Y-109866816D01*
X132888878Y-109962789D01*
X133059145Y-110022368D01*
X133146069Y-110032161D01*
X133210480Y-110059226D01*
X133219865Y-110067700D01*
X134361581Y-111209416D01*
X134395066Y-111270739D01*
X134397900Y-111297097D01*
X134397900Y-115332587D01*
X134378215Y-115399626D01*
X134370850Y-115409896D01*
X134368586Y-115412734D01*
X134272611Y-115565476D01*
X134213031Y-115735745D01*
X134213030Y-115735750D01*
X134192835Y-115914996D01*
X134192835Y-115915003D01*
X134213030Y-116094249D01*
X134213031Y-116094254D01*
X134272611Y-116264523D01*
X134327599Y-116352035D01*
X134345169Y-116379998D01*
X134368585Y-116417263D01*
X134372444Y-116422102D01*
X134398855Y-116486788D01*
X134399500Y-116499418D01*
X134399500Y-119710908D01*
X134379815Y-119777947D01*
X134327914Y-119823286D01*
X134322173Y-119825963D01*
X134322169Y-119825965D01*
X134128597Y-119961505D01*
X133961508Y-120128594D01*
X133831574Y-120314160D01*
X133776997Y-120357784D01*
X133707498Y-120364977D01*
X133645144Y-120333455D01*
X133628429Y-120314164D01*
X133498495Y-120128599D01*
X133498493Y-120128596D01*
X133331402Y-119961506D01*
X133331395Y-119961501D01*
X133137834Y-119825967D01*
X133137830Y-119825965D01*
X133132085Y-119823286D01*
X132923663Y-119726097D01*
X132923659Y-119726096D01*
X132923655Y-119726094D01*
X132695413Y-119664938D01*
X132695403Y-119664936D01*
X132460001Y-119644341D01*
X132459999Y-119644341D01*
X132224596Y-119664936D01*
X132224586Y-119664938D01*
X132038093Y-119714908D01*
X131968243Y-119713245D01*
X131910381Y-119674082D01*
X131882877Y-119609853D01*
X131882000Y-119595133D01*
X131882000Y-115719912D01*
X131901685Y-115652873D01*
X131909055Y-115642597D01*
X131911310Y-115639767D01*
X131911316Y-115639762D01*
X132007289Y-115487022D01*
X132066868Y-115316755D01*
X132066869Y-115316749D01*
X132087065Y-115137503D01*
X132087065Y-115137496D01*
X132066869Y-114958250D01*
X132066868Y-114958245D01*
X132007288Y-114787976D01*
X131968082Y-114725580D01*
X131911316Y-114635238D01*
X131783762Y-114507684D01*
X131771791Y-114500162D01*
X131631023Y-114411711D01*
X131460754Y-114352131D01*
X131460749Y-114352130D01*
X131281504Y-114331935D01*
X131281496Y-114331935D01*
X131102250Y-114352130D01*
X131102245Y-114352131D01*
X130931976Y-114411711D01*
X130779237Y-114507684D01*
X130651684Y-114635237D01*
X130555711Y-114787976D01*
X130496131Y-114958245D01*
X130496130Y-114958250D01*
X130475935Y-115137496D01*
X130475935Y-115137503D01*
X130496130Y-115316749D01*
X130496131Y-115316754D01*
X130555711Y-115487023D01*
X130597808Y-115554019D01*
X130622629Y-115593522D01*
X130651685Y-115639763D01*
X130653945Y-115642597D01*
X130654834Y-115644775D01*
X130655389Y-115645658D01*
X130655234Y-115645755D01*
X130680355Y-115707283D01*
X130681000Y-115719912D01*
X130681000Y-116168843D01*
X130661315Y-116235882D01*
X130608511Y-116281637D01*
X130539353Y-116291581D01*
X130516047Y-116285885D01*
X130480460Y-116273433D01*
X130480449Y-116273430D01*
X130301204Y-116253235D01*
X130301196Y-116253235D01*
X130121950Y-116273430D01*
X130121945Y-116273431D01*
X129951676Y-116333011D01*
X129798937Y-116428984D01*
X129671384Y-116556537D01*
X129575410Y-116709278D01*
X129515829Y-116879553D01*
X129514280Y-116886341D01*
X129511623Y-116885734D01*
X129489353Y-116938735D01*
X129431757Y-116978289D01*
X129361920Y-116980426D01*
X129302014Y-116944467D01*
X129271059Y-116881829D01*
X129269200Y-116860436D01*
X129269200Y-110421112D01*
X129288885Y-110354073D01*
X129296255Y-110343797D01*
X129298510Y-110340967D01*
X129298516Y-110340962D01*
X129394489Y-110188222D01*
X129454068Y-110017955D01*
X129454069Y-110017949D01*
X129474265Y-109838703D01*
X129474265Y-109838696D01*
X129454069Y-109659450D01*
X129454068Y-109659445D01*
X129442952Y-109627678D01*
X129394489Y-109489178D01*
X129385541Y-109474938D01*
X129298515Y-109336437D01*
X129170962Y-109208884D01*
X129018223Y-109112911D01*
X128847954Y-109053331D01*
X128847949Y-109053330D01*
X128668704Y-109033135D01*
X128668696Y-109033135D01*
X128489450Y-109053330D01*
X128489445Y-109053331D01*
X128319176Y-109112911D01*
X128170472Y-109206349D01*
X128103235Y-109225349D01*
X128036400Y-109204981D01*
X127991186Y-109151713D01*
X127980500Y-109101355D01*
X127980500Y-85659340D01*
X128000185Y-85592301D01*
X128052989Y-85546546D01*
X128122147Y-85536602D01*
X128185703Y-85565627D01*
X128192181Y-85571659D01*
X128314038Y-85693516D01*
X128466778Y-85789489D01*
X128637045Y-85849068D01*
X128637050Y-85849069D01*
X128816296Y-85869265D01*
X128816300Y-85869265D01*
X128816304Y-85869265D01*
X128995549Y-85849069D01*
X128995552Y-85849068D01*
X128995555Y-85849068D01*
X129165822Y-85789489D01*
X129318562Y-85693516D01*
X129446116Y-85565962D01*
X129542089Y-85413222D01*
X129601668Y-85242955D01*
X129609304Y-85175184D01*
X129621865Y-85063703D01*
X129621865Y-85063696D01*
X129601669Y-84884450D01*
X129601668Y-84884445D01*
X129542088Y-84714176D01*
X129446113Y-84561434D01*
X129443850Y-84558596D01*
X129442959Y-84556415D01*
X129442411Y-84555542D01*
X129442564Y-84555445D01*
X129417444Y-84493909D01*
X129416800Y-84481287D01*
X129416800Y-80799797D01*
X129436485Y-80732758D01*
X129453119Y-80712116D01*
X132256619Y-77908616D01*
X132317942Y-77875131D01*
X132387634Y-77880115D01*
X132443567Y-77921987D01*
X132467984Y-77987451D01*
X132468300Y-77996297D01*
X132468300Y-81394187D01*
X132448615Y-81461226D01*
X132441250Y-81471496D01*
X132438986Y-81474334D01*
X132343011Y-81627076D01*
X132283431Y-81797345D01*
X132283430Y-81797350D01*
X132263235Y-81976596D01*
X132263235Y-81976603D01*
X132283430Y-82155849D01*
X132283431Y-82155854D01*
X132343011Y-82326123D01*
X132438984Y-82478862D01*
X132566538Y-82606416D01*
X132719278Y-82702389D01*
X132889545Y-82761968D01*
X132889550Y-82761969D01*
X133068796Y-82782165D01*
X133068800Y-82782165D01*
X133068804Y-82782165D01*
X133248049Y-82761969D01*
X133248052Y-82761968D01*
X133248055Y-82761968D01*
X133418322Y-82702389D01*
X133571062Y-82606416D01*
X133698616Y-82478862D01*
X133794589Y-82326122D01*
X133854168Y-82155855D01*
X133874365Y-81976600D01*
X133854168Y-81797345D01*
X133794589Y-81627078D01*
X133698616Y-81474338D01*
X133698614Y-81474336D01*
X133698613Y-81474334D01*
X133696350Y-81471496D01*
X133695459Y-81469315D01*
X133694911Y-81468442D01*
X133695064Y-81468345D01*
X133669944Y-81406809D01*
X133669300Y-81394187D01*
X133669300Y-75456197D01*
X133688985Y-75389158D01*
X133741789Y-75343403D01*
X133810947Y-75333459D01*
X133874503Y-75362484D01*
G37*
%TD.AperFunction*%
%TD*%
M02*
